<?xml version="1.0" encoding="UTF-8"?>
<svg width="139px" height="105px" viewBox="0 0 139 105" version="1.1" xmlns="http://www.w3.org/2000/svg" xmlns:xlink="http://www.w3.org/1999/xlink">
    <title>Group 47</title>
    <defs>
        <path d="M39.9363755,9.38840782 L25.7383918,9.42688268 L25.7383918,9.43988827 C21.8770041,9.58620112 18.7939102,12.7308436 18.804849,16.5913352 L18.804849,16.5913352 C18.8157878,20.4512849 21.9158367,23.5791285 25.7788653,23.7037654 L25.7788653,23.7037654 L25.7788653,23.7097263 L25.8931755,23.7091844 C25.9413061,23.7097263 25.9883429,23.7162291 26.0364735,23.7156872 L26.0364735,23.7156872 C26.0846041,23.7156872 26.1310939,23.7097263 26.1792245,23.7086425 L26.1792245,23.7086425 L26.7310857,23.7070168 C26.7261633,23.7156872 26.7212408,23.7254413 26.7157714,23.7341117 L26.7157714,23.7341117 L31.9105959,23.7194804 C31.9346612,23.7194804 31.9581796,23.7156872 31.9827918,23.7156872 L31.9827918,23.7156872 C32.0068571,23.7156872 32.0303755,23.7194804 32.0544408,23.7194804 L32.0544408,23.7194804 L32.2207102,23.7194804 L32.2207102,23.7276089 C36.0930367,23.8424916 39.2029306,26.9746704 39.2144163,30.8411229 L39.2144163,30.8411229 C39.2248082,34.7075754 36.1324163,37.8565531 32.2611837,37.9931117 L32.2611837,37.9931117 L32.2611837,38.0017821 L32.0943673,38.0017821 C32.070302,38.002324 32.0473306,38.0050335 32.0227184,38.0055754 L32.0227184,38.0055754 C31.9986531,38.0055754 31.9751347,38.002324 31.9510694,38.002324 L31.9510694,38.002324 L6.4856,38.0722291 C2.83751837,38.4347598 -0.0103918367,41.4758994 -2.83483252e-05,45.1841173 L-2.83483252e-05,45.1841173 C0.0109387755,49.0446089 3.11098776,52.1724525 6.97401633,52.2976313 L6.97401633,52.2976313 L6.97401633,52.3035922 L7.08832653,52.3030503 C7.13645714,52.3041341 7.18294694,52.3095531 7.23162449,52.3095531 L7.23162449,52.3095531 C7.27920816,52.3095531 7.3262449,52.3035922 7.37437551,52.3019665 L7.37437551,52.3019665 L19.9709224,52.2672849 C21.8884898,77.2867821 42.9702449,97 68.7130122,97 L68.7130122,97 C75.4130122,97 81.7963347,95.6620503 87.6102939,93.2462626 L87.6102939,93.2462626 L106.284424,93.1947821 C106.309037,93.1947821 106.332008,93.1980335 106.35662,93.1980335 L106.35662,93.1980335 C106.381233,93.1980335 106.404204,93.1947821 106.428269,93.1942402 L106.428269,93.1942402 L106.595086,93.1936983 L106.595086,93.1855698 C110.465771,93.0495531 113.55871,89.8994916 113.547771,86.033581 L113.547771,86.033581 C113.53738,82.2462458 110.55,79.1709665 106.788702,78.9379497 L106.788702,78.9379497 C106.801829,78.9216927 106.814955,78.9038101 106.828629,78.8870112 L106.828629,78.8870112 L101.651306,78.9011006 C101.603176,78.9027263 101.556686,78.9086872 101.508555,78.9086872 L101.508555,78.9086872 C101.460424,78.9086872 101.413935,78.9032682 101.365804,78.9016425 L101.365804,78.9016425 L101.251494,78.9027263 L101.251494,78.8967654 C97.3884653,78.7715866 94.2878694,75.643743 94.2769306,71.7832514 L94.2769306,71.7832514 C94.2665388,67.9243855 97.3490857,64.7786592 101.21102,64.6328883 L101.21102,64.6328883 L101.21102,64.6198827 L127.591518,64.5472682 C130.973241,63.9495531 133.538931,61.0308827 133.529114,57.5107039 L133.529114,57.5107039 C133.518694,53.6442514 130.408253,50.5120726 126.536473,50.396648 L126.536473,50.396648 L126.536473,50.3879777 L126.370204,50.3885196 C126.346139,50.3885196 126.322073,50.3852682 126.297461,50.3852682 L126.297461,50.3852682 C126.273943,50.3852682 126.250424,50.3890615 126.226359,50.3890615 L126.226359,50.3890615 L117.565037,50.412905 C117.589102,49.7940559 117.613167,49.1752067 117.613167,48.5503966 L117.613167,48.5503966 C117.613167,21.7930279 95.7197551,0.101335196 68.7130122,0.101335196 L68.7130122,0.101335196 C57.9536327,0.101335196 48.0113796,3.55323464 39.9363755,9.38840782" id="path-1"></path>
        <linearGradient x1="2.12300662e-05%" y1="50.0001739%" x2="100.000194%" y2="50.0001739%" id="linearGradient-3">
            <stop stop-color="#F9F9F9" offset="0%"></stop>
            <stop stop-color="#E4E4E4" offset="100%"></stop>
        </linearGradient>
        <path d="M0.4416,4.11253333 C0.4416,6.1888 2.1248,7.872 4.20106667,7.872 L4.20106667,7.872 C6.27786667,7.872 7.96106667,6.1888 7.96106667,4.11253333 L7.96106667,4.11253333 C7.96106667,2.03573333 6.27786667,0.352533333 4.20106667,0.352533333 L4.20106667,0.352533333 C2.1248,0.352533333 0.4416,2.03573333 0.4416,4.11253333" id="path-4"></path>
        <linearGradient x1="-0.00325271296%" y1="50.0016959%" x2="100.000521%" y2="50.0016959%" id="linearGradient-6">
            <stop stop-color="#F9F9F9" offset="0%"></stop>
            <stop stop-color="#E4E4E4" offset="100%"></stop>
        </linearGradient>
        <path d="M0.1675,2.481 C0.1675,3.7085 1.1625,4.704 2.3905,4.704 L2.3905,4.704 C3.6185,4.704 4.6135,3.7085 4.6135,2.481 L4.6135,2.481 C4.6135,1.253 3.6185,0.258 2.3905,0.258 L2.3905,0.258 C1.1625,0.258 0.1675,1.253 0.1675,2.481" id="path-7"></path>
        <linearGradient x1="-0.00505060729%" y1="49.9944006%" x2="100.003027%" y2="49.9944006%" id="linearGradient-9">
            <stop stop-color="#F9F9F9" offset="0%"></stop>
            <stop stop-color="#E4E4E4" offset="100%"></stop>
        </linearGradient>
        <path d="M0.1935,2.575 C0.1935,3.7715 1.1635,4.741 2.3605,4.741 L2.3605,4.741 C3.557,4.741 4.527,3.7715 4.527,2.575 L4.527,2.575 C4.527,1.3785 3.557,0.408 2.3605,0.408 L2.3605,0.408 C1.1635,0.408 0.1935,1.3785 0.1935,2.575" id="path-10"></path>
        <linearGradient x1="0.00274027922%" y1="50.0038761%" x2="99.9958832%" y2="50.0038761%" id="linearGradient-12">
            <stop stop-color="#F9F9F9" offset="0%"></stop>
            <stop stop-color="#E4E4E4" offset="100%"></stop>
        </linearGradient>
        <path d="M0.4035,3.81706667 C0.4035,5.92586667 2.006,7.6352 3.9825,7.6352 L3.9825,7.6352 C5.9415,7.6352 7.5325,5.95786667 7.5625,3.8768 L7.5625,3.8768 L7.5625,3.75733333 C7.5325,1.67573333 5.9415,-0.0016 3.9825,-0.0016 L3.9825,-0.0016 C2.006,-0.0016 0.4035,1.70826667 0.4035,3.81706667" id="path-13"></path>
        <linearGradient x1="-0.00464170974%" y1="50.0014512%" x2="100.001971%" y2="50.0014512%" id="linearGradient-15">
            <stop stop-color="#F9F9F9" offset="0%"></stop>
            <stop stop-color="#E4E4E4" offset="100%"></stop>
        </linearGradient>
        <path d="M15.1290714,0.2266875 L1.75238095,6.177375 C0.653857143,6.665625 0.150047619,7.9756875 0.624833333,9.102375 L0.624833333,9.102375 L3.62961905,16.228125 C4.10440476,17.3548125 5.37980952,17.872875 6.4772381,17.384625 L6.4772381,17.384625 L19.8544762,11.4339375 C20.4212619,11.181375 20.856619,10.6925625 21.0499286,10.0895625 L21.0499286,10.0895625 L22.6358333,5.153625 C22.9797381,4.0820625 22.4879762,2.914875 21.4913095,2.439 L21.4913095,2.439 L16.9017143,0.2503125 C16.613119,0.1125 16.3015238,0.0438711647 15.9904762,0.0438711647 L15.9904762,0.0438711647 C15.6975,0.0433125 15.4039762,0.104625 15.1290714,0.2266875 M15.586881,6.678 C15.2270952,5.824125 15.6087857,4.833 16.4395238,4.464 L16.4395238,4.464 C17.2702619,4.0944375 18.234619,4.4865 18.5944048,5.3398125 L18.5944048,5.3398125 C18.9541905,6.193125 18.5725,7.1836875 17.7417619,7.55325 L17.7417619,7.55325 C17.5298333,7.64775 17.3085952,7.6921875 17.0911905,7.6921875 L17.0911905,7.6921875 C16.4575952,7.6921875 15.8546667,7.3130625 15.586881,6.678" id="path-16"></path>
        <linearGradient x1="7.5388191%" y1="63.5998379%" x2="99.1989971%" y2="31.5559779%" id="linearGradient-18">
            <stop stop-color="#F9F9F9" offset="0%"></stop>
            <stop stop-color="#E4E4E4" offset="100%"></stop>
        </linearGradient>
        <path d="M1.61254167,0.06825 C0.965791667,0.06825 0.440916667,0.632916667 0.440916667,1.32941667 L0.440916667,1.32941667 L0.440916667,5.73241667 C0.440916667,6.42833333 0.965791667,6.99358333 1.61254167,6.99358333 L1.61254167,6.99358333 L9.49704167,6.99358333 C9.83070833,6.99358333 10.14975,6.83958333 10.3718333,6.57125 L10.3718333,6.57125 L12.1918333,4.36916667 C12.5867083,3.89141667 12.5867083,3.16983333 12.1918333,2.69208333 L12.1918333,2.69208333 L10.3718333,0.491166667 C10.14975,0.22225 9.83070833,0.06825 9.49704167,0.06825 L9.49704167,0.06825 L1.61254167,0.06825 Z M7.81516667,3.73683333 C7.46904167,3.36408333 7.46904167,2.75975 7.81516667,2.387 L7.81516667,2.387 C8.16129167,2.01425 8.72245833,2.01425 9.06858333,2.387 L9.06858333,2.387 C9.41470833,2.75975 9.41470833,3.36408333 9.06858333,3.73683333 L9.06858333,3.73683333 C8.89525,3.92291667 8.66883333,4.01625 8.441875,4.01625 L8.441875,4.01625 C8.21491667,4.01625 7.98795833,3.92291667 7.81516667,3.73683333 L7.81516667,3.73683333 Z" id="path-19"></path>
        <linearGradient x1="0.0047817632%" y1="49.9967343%" x2="100.000242%" y2="49.9967343%" id="linearGradient-21">
            <stop stop-color="#F9F9F9" offset="0%"></stop>
            <stop stop-color="#E4E4E4" offset="100%"></stop>
        </linearGradient>
        <path d="M30.5721942,2.23619417 L2.06112621,30.7467184 C-0.277281553,33.0862136 -0.277281553,36.8779029 2.0616699,39.2173981 L2.0616699,39.2173981 L16.8445825,54.0013981 C19.1840777,56.3403495 22.9763107,56.3403495 25.3152621,54.0013981 L25.3152621,54.0013981 L53.8263301,25.4908738 C55.0349515,24.2822524 55.6694369,22.6142136 55.5704854,20.9081165 L55.5704854,20.9081165 L54.759301,6.93584466 C54.5826019,3.90151456 52.1615534,1.47992233 49.1266796,1.30376699 L49.1266796,1.30376699 L35.1549515,0.492038835 C35.0386019,0.485514563 34.9227961,0.482252427 34.807534,0.482252427 L34.807534,0.482252427 C33.2232233,0.482252427 31.6981748,1.1096699 30.5721942,2.23619417 M38.1392621,17.9227184 C36.3690097,16.1530097 36.3690097,13.2828738 38.1392621,11.5126214 L38.1392621,11.5126214 C39.9095146,9.74291262 42.7791068,9.74291262 44.5493592,11.5126214 L44.5493592,11.5126214 C46.3196117,13.2828738 46.3196117,16.1530097 44.5493592,17.9227184 L44.5493592,17.9227184 C43.664233,18.8078447 42.5045437,19.2504078 41.3443107,19.2504078 L41.3443107,19.2504078 C40.1840777,19.2504078 39.0243883,18.8078447 38.1392621,17.9227184" id="path-22"></path>
        <linearGradient x1="93.115401%" y1="7.54127686%" x2="15.2053285%" y2="83.7329817%" id="linearGradient-24">
            <stop stop-color="#4B4B4B" stop-opacity="0.5" offset="0%"></stop>
            <stop stop-color="#A0A0A0" stop-opacity="0.5" offset="15.875739%"></stop>
            <stop stop-color="#E1E1E1" stop-opacity="0.5" offset="63.996516%"></stop>
            <stop stop-color="#D9D9D9" stop-opacity="0.5" offset="100%"></stop>
        </linearGradient>
    </defs>
    <g id="AIP" stroke="none" stroke-width="1" fill="none" fill-rule="evenodd">
        <g id="AIP-3-Copy" transform="translate(-651.000000, -710.000000)">
            <g id="2" transform="translate(453.000000, 636.000000)">
                <g id="Group-47" transform="translate(198.000000, 75.000000)">
                    <g id="Group-3" transform="translate(0.000000, 7.000000)">
                        <mask id="mask-2" fill="white">
                            <use xlink:href="#path-1"></use>
                        </mask>
                        <g id="Clip-2"></g>
                        <path d="M39.9363755,9.38840782 L25.7383918,9.42688268 L25.7383918,9.43988827 C21.8770041,9.58620112 18.7939102,12.7308436 18.804849,16.5913352 L18.804849,16.5913352 C18.8157878,20.4512849 21.9158367,23.5791285 25.7788653,23.7037654 L25.7788653,23.7037654 L25.7788653,23.7097263 L25.8931755,23.7091844 C25.9413061,23.7097263 25.9883429,23.7162291 26.0364735,23.7156872 L26.0364735,23.7156872 C26.0846041,23.7156872 26.1310939,23.7097263 26.1792245,23.7086425 L26.1792245,23.7086425 L26.7310857,23.7070168 C26.7261633,23.7156872 26.7212408,23.7254413 26.7157714,23.7341117 L26.7157714,23.7341117 L31.9105959,23.7194804 C31.9346612,23.7194804 31.9581796,23.7156872 31.9827918,23.7156872 L31.9827918,23.7156872 C32.0068571,23.7156872 32.0303755,23.7194804 32.0544408,23.7194804 L32.0544408,23.7194804 L32.2207102,23.7194804 L32.2207102,23.7276089 C36.0930367,23.8424916 39.2029306,26.9746704 39.2144163,30.8411229 L39.2144163,30.8411229 C39.2248082,34.7075754 36.1324163,37.8565531 32.2611837,37.9931117 L32.2611837,37.9931117 L32.2611837,38.0017821 L32.0943673,38.0017821 C32.070302,38.002324 32.0473306,38.0050335 32.0227184,38.0055754 L32.0227184,38.0055754 C31.9986531,38.0055754 31.9751347,38.002324 31.9510694,38.002324 L31.9510694,38.002324 L6.4856,38.0722291 C2.83751837,38.4347598 -0.0103918367,41.4758994 -2.83483252e-05,45.1841173 L-2.83483252e-05,45.1841173 C0.0109387755,49.0446089 3.11098776,52.1724525 6.97401633,52.2976313 L6.97401633,52.2976313 L6.97401633,52.3035922 L7.08832653,52.3030503 C7.13645714,52.3041341 7.18294694,52.3095531 7.23162449,52.3095531 L7.23162449,52.3095531 C7.27920816,52.3095531 7.3262449,52.3035922 7.37437551,52.3019665 L7.37437551,52.3019665 L19.9709224,52.2672849 C21.8884898,77.2867821 42.9702449,97 68.7130122,97 L68.7130122,97 C75.4130122,97 81.7963347,95.6620503 87.6102939,93.2462626 L87.6102939,93.2462626 L106.284424,93.1947821 C106.309037,93.1947821 106.332008,93.1980335 106.35662,93.1980335 L106.35662,93.1980335 C106.381233,93.1980335 106.404204,93.1947821 106.428269,93.1942402 L106.428269,93.1942402 L106.595086,93.1936983 L106.595086,93.1855698 C110.465771,93.0495531 113.55871,89.8994916 113.547771,86.033581 L113.547771,86.033581 C113.53738,82.2462458 110.55,79.1709665 106.788702,78.9379497 L106.788702,78.9379497 C106.801829,78.9216927 106.814955,78.9038101 106.828629,78.8870112 L106.828629,78.8870112 L101.651306,78.9011006 C101.603176,78.9027263 101.556686,78.9086872 101.508555,78.9086872 L101.508555,78.9086872 C101.460424,78.9086872 101.413935,78.9032682 101.365804,78.9016425 L101.365804,78.9016425 L101.251494,78.9027263 L101.251494,78.8967654 C97.3884653,78.7715866 94.2878694,75.643743 94.2769306,71.7832514 L94.2769306,71.7832514 C94.2665388,67.9243855 97.3490857,64.7786592 101.21102,64.6328883 L101.21102,64.6328883 L101.21102,64.6198827 L127.591518,64.5472682 C130.973241,63.9495531 133.538931,61.0308827 133.529114,57.5107039 L133.529114,57.5107039 C133.518694,53.6442514 130.408253,50.5120726 126.536473,50.396648 L126.536473,50.396648 L126.536473,50.3879777 L126.370204,50.3885196 C126.346139,50.3885196 126.322073,50.3852682 126.297461,50.3852682 L126.297461,50.3852682 C126.273943,50.3852682 126.250424,50.3890615 126.226359,50.3890615 L126.226359,50.3890615 L117.565037,50.412905 C117.589102,49.7940559 117.613167,49.1752067 117.613167,48.5503966 L117.613167,48.5503966 C117.613167,21.7930279 95.7197551,0.101335196 68.7130122,0.101335196 L68.7130122,0.101335196 C57.9536327,0.101335196 48.0113796,3.55323464 39.9363755,9.38840782" id="Fill-1" fill="url(#linearGradient-3)" mask="url(#mask-2)"></path>
                    </g>
                    <g id="Group-6" transform="translate(6.000000, 14.000000)">
                        <mask id="mask-5" fill="white">
                            <use xlink:href="#path-4"></use>
                        </mask>
                        <g id="Clip-5"></g>
                        <path d="M0.4416,4.11253333 C0.4416,6.1888 2.1248,7.872 4.20106667,7.872 L4.20106667,7.872 C6.27786667,7.872 7.96106667,6.1888 7.96106667,4.11253333 L7.96106667,4.11253333 C7.96106667,2.03573333 6.27786667,0.352533333 4.20106667,0.352533333 L4.20106667,0.352533333 C2.1248,0.352533333 0.4416,2.03573333 0.4416,4.11253333" id="Fill-4" fill="url(#linearGradient-6)" mask="url(#mask-5)"></path>
                    </g>
                    <g id="Group-9" transform="translate(1.000000, 21.000000)">
                        <mask id="mask-8" fill="white">
                            <use xlink:href="#path-7"></use>
                        </mask>
                        <g id="Clip-8"></g>
                        <path d="M0.1675,2.481 C0.1675,3.7085 1.1625,4.704 2.3905,4.704 L2.3905,4.704 C3.6185,4.704 4.6135,3.7085 4.6135,2.481 L4.6135,2.481 C4.6135,1.253 3.6185,0.258 2.3905,0.258 L2.3905,0.258 C1.1625,0.258 0.1675,1.253 0.1675,2.481" id="Fill-7" fill="url(#linearGradient-9)" mask="url(#mask-8)"></path>
                    </g>
                    <g id="Group-12" transform="translate(120.000000, 86.000000)">
                        <mask id="mask-11" fill="white">
                            <use xlink:href="#path-10"></use>
                        </mask>
                        <g id="Clip-11"></g>
                        <path d="M0.1935,2.575 C0.1935,3.7715 1.1635,4.741 2.3605,4.741 L2.3605,4.741 C3.557,4.741 4.527,3.7715 4.527,2.575 L4.527,2.575 C4.527,1.3785 3.557,0.408 2.3605,0.408 L2.3605,0.408 C1.1635,0.408 0.1935,1.3785 0.1935,2.575" id="Fill-10" fill="url(#linearGradient-12)" mask="url(#mask-11)"></path>
                    </g>
                    <g id="Group-15" transform="translate(131.000000, 77.000000)">
                        <mask id="mask-14" fill="white">
                            <use xlink:href="#path-13"></use>
                        </mask>
                        <g id="Clip-14"></g>
                        <path d="M0.4035,3.81706667 C0.4035,5.92586667 2.006,7.6352 3.9825,7.6352 L3.9825,7.6352 C5.9415,7.6352 7.5325,5.95786667 7.5625,3.8768 L7.5625,3.8768 L7.5625,3.75733333 C7.5325,1.67573333 5.9415,-0.0016 3.9825,-0.0016 L3.9825,-0.0016 C2.006,-0.0016 0.4035,1.70826667 0.4035,3.81706667" id="Fill-13" fill="url(#linearGradient-15)" mask="url(#mask-14)"></path>
                    </g>
                    <g id="Group-26" transform="translate(61.000000, 0.000000)" stroke="#999999" stroke-linecap="round" stroke-linejoin="round">
                        <path d="M44.8756463,13.7832829 C44.8756463,14.5730724 44.2242439,15.2128882 43.4208293,15.2128882 C42.6174146,15.2128882 41.966561,14.5730724 41.966561,13.7832829 C41.966561,12.9934934 42.6174146,12.3531382 43.4208293,12.3531382 C44.2242439,12.3531382 44.8756463,12.9934934 44.8756463,13.7832829 Z" id="Stroke-16"></path>
                        <path d="M43.4208841,39.0816855 C43.4208841,39.871475 42.7694817,40.5118303 41.9666159,40.5118303 C41.1626524,40.5118303 40.5117988,39.871475 40.5117988,39.0816855 C40.5117988,38.2918961 41.1626524,37.6520803 41.9666159,37.6520803 C42.7694817,37.6520803 43.4208841,38.2918961 43.4208841,39.0816855 Z" id="Stroke-18"></path>
                        <path d="M3.22271341,1.80162632 C3.22271341,2.59195526 2.57131098,3.23177105 1.76789634,3.23177105 C0.964481707,3.23177105 0.313079268,2.59195526 0.313079268,1.80162632 C0.313079268,1.01183684 0.964481707,0.372021053 1.76789634,0.372021053 C2.57131098,0.372021053 3.22271341,1.01183684 3.22271341,1.80162632 Z" id="Stroke-20"></path>
                        <line x1="15.5715915" y1="19.8813855" x2="15.5715915" y2="23.930675" id="Stroke-22"></line>
                        <line x1="17.6311646" y1="21.9059763" x2="13.5120183" y2="21.9059763" id="Stroke-24"></line>
                    </g>
                    <g id="Group-29" transform="translate(44.000000, 24.000000)">
                        <mask id="mask-17" fill="white">
                            <use xlink:href="#path-16"></use>
                        </mask>
                        <g id="Clip-28"></g>
                        <path d="M15.1290714,0.2266875 L1.75238095,6.177375 C0.653857143,6.665625 0.150047619,7.9756875 0.624833333,9.102375 L0.624833333,9.102375 L3.62961905,16.228125 C4.10440476,17.3548125 5.37980952,17.872875 6.4772381,17.384625 L6.4772381,17.384625 L19.8544762,11.4339375 C20.4212619,11.181375 20.856619,10.6925625 21.0499286,10.0895625 L21.0499286,10.0895625 L22.6358333,5.153625 C22.9797381,4.0820625 22.4879762,2.914875 21.4913095,2.439 L21.4913095,2.439 L16.9017143,0.2503125 C16.613119,0.1125 16.3015238,0.0438711647 15.9904762,0.0438711647 L15.9904762,0.0438711647 C15.6975,0.0433125 15.4039762,0.104625 15.1290714,0.2266875 M15.586881,6.678 C15.2270952,5.824125 15.6087857,4.833 16.4395238,4.464 L16.4395238,4.464 C17.2702619,4.0944375 18.234619,4.4865 18.5944048,5.3398125 L18.5944048,5.3398125 C18.9541905,6.193125 18.5725,7.1836875 17.7417619,7.55325 L17.7417619,7.55325 C17.5298333,7.64775 17.3085952,7.6921875 17.0911905,7.6921875 L17.0911905,7.6921875 C16.4575952,7.6921875 15.8546667,7.3130625 15.586881,6.678" id="Fill-27" fill="url(#linearGradient-18)" mask="url(#mask-17)"></path>
                    </g>
                    <path d="M62.063827,31.2849817 C61.2442331,31.6429231 60.2922724,31.263156 59.9373131,30.4354167 C59.5828941,29.6076773 59.9594643,28.6462556 60.7790582,28.2883143 C61.5981118,27.9298273 62.5500726,28.3101399 62.9050318,29.1373337 C63.2599911,29.965073 62.8834209,30.9264947 62.063827,31.2849817 Z M65.7630752,26.324002 L61.2345082,24.2009078 C60.6818091,23.9411821 60.0453677,23.9329975 59.4861853,24.1779909 L46.2884004,29.9503407 C45.2051533,30.4234125 44.707562,31.6942134 45.1765188,32.7876806 L48.1404557,39.6993315 C48.6094125,40.7927987 49.8671677,41.2953352 50.9498744,40.8217177 L64.1476594,35.0488223 C64.707382,34.8043745 65.1363587,34.3302114 65.3276153,33.7452828 L66.8922454,28.9567261 C67.2315368,27.9172775 66.7463717,26.7850697 65.7630752,26.324002 Z" id="Stroke-30" stroke="#CCCCCC" stroke-linecap="round" stroke-linejoin="round" stroke-dasharray="4"></path>
                    <g id="Group-34" transform="translate(45.000000, 14.000000)">
                        <mask id="mask-20" fill="white">
                            <use xlink:href="#path-19"></use>
                        </mask>
                        <g id="Clip-33"></g>
                        <path d="M1.61254167,0.06825 C0.965791667,0.06825 0.440916667,0.632916667 0.440916667,1.32941667 L0.440916667,1.32941667 L0.440916667,5.73241667 C0.440916667,6.42833333 0.965791667,6.99358333 1.61254167,6.99358333 L1.61254167,6.99358333 L9.49704167,6.99358333 C9.83070833,6.99358333 10.14975,6.83958333 10.3718333,6.57125 L10.3718333,6.57125 L12.1918333,4.36916667 C12.5867083,3.89141667 12.5867083,3.16983333 12.1918333,2.69208333 L12.1918333,2.69208333 L10.3718333,0.491166667 C10.14975,0.22225 9.83070833,0.06825 9.49704167,0.06825 L9.49704167,0.06825 L1.61254167,0.06825 Z M7.81516667,3.73683333 C7.46904167,3.36408333 7.46904167,2.75975 7.81516667,2.387 L7.81516667,2.387 C8.16129167,2.01425 8.72245833,2.01425 9.06858333,2.387 L9.06858333,2.387 C9.41470833,2.75975 9.41470833,3.36408333 9.06858333,3.73683333 L9.06858333,3.73683333 C8.89525,3.92291667 8.66883333,4.01625 8.441875,4.01625 L8.441875,4.01625 C8.21491667,4.01625 7.98795833,3.92291667 7.81516667,3.73683333 L7.81516667,3.73683333 Z" id="Fill-32" fill="url(#linearGradient-21)" mask="url(#mask-20)"></path>
                    </g>
                    <path d="M53.5938016,18.178403 C53.2490136,18.5013477 52.6900145,18.5013477 52.3452265,18.178403 C51.9998988,17.8549528 52.0004384,17.3313679 52.3452265,17.0089286 C52.6900145,16.6859838 53.2490136,16.6859838 53.5938016,17.0089286 C53.9385897,17.3313679 53.9385897,17.8549528 53.5938016,18.178403 Z M56.7049877,17.273248 L54.8920177,15.3664084 C54.6707922,15.1334232 54.3535224,15 54.020605,15 L46.1665599,15 C45.522308,15 45,15.4892183 45,16.092655 L45,19.907345 C45,20.5102763 45.522308,21 46.1665599,21 L54.020605,21 C54.3535224,21 54.6707922,20.8665768 54.8920177,20.6335916 L56.7049877,18.7262466 C57.0983374,18.3123315 57.0983374,17.6871631 56.7049877,17.273248 Z" id="Stroke-35" stroke="#CCCCCC" stroke-linecap="round" stroke-linejoin="round" stroke-dasharray="4"></path>
                    <g id="Group-39" transform="translate(40.000000, 35.000000)">
                        <mask id="mask-23" fill="white">
                            <use xlink:href="#path-22"></use>
                        </mask>
                        <g id="Clip-38"></g>
                        <path d="M30.5721942,2.23619417 L2.06112621,30.7467184 C-0.277281553,33.0862136 -0.277281553,36.8779029 2.0616699,39.2173981 L2.0616699,39.2173981 L16.8445825,54.0013981 C19.1840777,56.3403495 22.9763107,56.3403495 25.3152621,54.0013981 L25.3152621,54.0013981 L53.8263301,25.4908738 C55.0349515,24.2822524 55.6694369,22.6142136 55.5704854,20.9081165 L55.5704854,20.9081165 L54.759301,6.93584466 C54.5826019,3.90151456 52.1615534,1.47992233 49.1266796,1.30376699 L49.1266796,1.30376699 L35.1549515,0.492038835 C35.0386019,0.485514563 34.9227961,0.482252427 34.807534,0.482252427 L34.807534,0.482252427 C33.2232233,0.482252427 31.6981748,1.1096699 30.5721942,2.23619417 M38.1392621,17.9227184 C36.3690097,16.1530097 36.3690097,13.2828738 38.1392621,11.5126214 L38.1392621,11.5126214 C39.9095146,9.74291262 42.7791068,9.74291262 44.5493592,11.5126214 L44.5493592,11.5126214 C46.3196117,13.2828738 46.3196117,16.1530097 44.5493592,17.9227184 L44.5493592,17.9227184 C43.664233,18.8078447 42.5045437,19.2504078 41.3443107,19.2504078 L41.3443107,19.2504078 C40.1840777,19.2504078 39.0243883,18.8078447 38.1392621,17.9227184" id="Fill-37" fill="url(#linearGradient-24)" mask="url(#mask-23)"></path>
                    </g>
                    <g id="Group-46" transform="translate(60.000000, 79.000000)">
                        <path d="M14.6730556,7.51722222 C14.6730556,11.5105556 11.4358333,14.7477778 7.4425,14.7477778 C3.44916667,14.7477778 0.211944444,11.5105556 0.211944444,7.51722222 C0.211944444,3.52444444 3.44916667,0.286666667 7.4425,0.286666667 C11.4358333,0.286666667 14.6730556,3.52444444 14.6730556,7.51722222" id="Fill-40" fill="#F9F9F9"></path>
                        <line x1="7.44244444" y1="4.16433333" x2="7.44244444" y2="10.8698889" id="Stroke-42" stroke="#999999" stroke-width="2" stroke-linecap="round" stroke-linejoin="round"></line>
                        <line x1="10.7953333" y1="7.51722222" x2="4.08977778" y2="7.51722222" id="Stroke-44" stroke="#999999" stroke-width="2" stroke-linecap="round" stroke-linejoin="round"></line>
                    </g>
                </g>
            </g>
        </g>
    </g>
</svg>