<?xml version="1.0" encoding="UTF-8" standalone="no"?>
<!-- Generator: Adobe Illustrator 11.0, SVG Export Plug-In  -->
<svg
   xmlns:dc="http://purl.org/dc/elements/1.1/"
   xmlns:cc="http://creativecommons.org/ns#"
   xmlns:rdf="http://www.w3.org/1999/02/22-rdf-syntax-ns#"
   xmlns:svg="http://www.w3.org/2000/svg"
   xmlns="http://www.w3.org/2000/svg"
   xmlns:sodipodi="http://sodipodi.sourceforge.net/DTD/sodipodi-0.dtd"
   xmlns:inkscape="http://www.inkscape.org/namespaces/inkscape"
   width="445.09955"
   height="253.548"
   viewBox="-0.396 -0.632 191 795"
   xml:space="preserve"
   id="svg2"
   sodipodi:version="0.32"
   inkscape:version="0.45+devel+devel"
   sodipodi:docname="molumen_Swedish_road_sign.svg"
   inkscape:output_extension="org.inkscape.output.svg.inkscape"
   version="1.0"><metadata
   id="metadata111"><rdf:RDF><cc:Work
       rdf:about=""><dc:format>image/svg+xml</dc:format><dc:type
         rdf:resource="http://purl.org/dc/dcmitype/StillImage" /></cc:Work></rdf:RDF></metadata><sodipodi:namedview
   inkscape:window-height="1000"
   inkscape:window-width="1680"
   inkscape:pageshadow="2"
   inkscape:pageopacity="0.0"
   guidetolerance="10.0"
   gridtolerance="10.0"
   objecttolerance="10.0"
   borderopacity="1.0"
   bordercolor="#666666"
   pagecolor="#ffffff"
   id="base"
   showgrid="false"
   inkscape:zoom="1.1622642"
   inkscape:cx="376.92262"
   inkscape:cy="137.26547"
   inkscape:window-x="-8"
   inkscape:window-y="-8"
   inkscape:current-layer="svg2" />
	<defs
   id="defs4"><inkscape:perspective
   sodipodi:type="inkscape:persp3d"
   inkscape:vp_x="-50 : 600 : 1"
   inkscape:vp_y="0 : 1000 : 0"
   inkscape:vp_z="700 : 600 : 1"
   inkscape:persp3d-origin="300 : 400 : 1"
   id="perspective113" />
	
		 
		 
		
		 
		 
		 
		
		 
		
		
		
		
		
		
		 
		
		
		
		
		
		
		 
		
		
		
		
		
		
		
		
		
		
		
		
		
		
		
		
		
		
		
		
		
		
		
		
		
		
		
		
		
	</defs>
	<g
   id="g5662"
   transform="matrix(2.9088406,0,0,2.9088406,-543.42308,29.990035)"><rect
     x="0.108"
     y="45.576"
     width="72.792"
     height="207.864"
     id="rect14"
     style="stroke:#000000;stroke-width:0.21600001" /><rect
     x="0.108"
     width="72.792"
     height="45.576"
     id="rect18"
     y="0"
     style="fill:#0c479d" /><path
     d="M 43.236,32.544 L 45.54,32.4 C 46.332,38.376 51.372,42.84 57.348,42.84 C 63.684,42.84 68.94,37.872 69.3,31.608 L 69.804,31.68 C 69.876,31.392 69.876,31.104 69.876,30.816 C 69.876,23.976 64.26,18.36 57.348,18.36 L 57.348,18.36 C 55.404,18.36 53.532,18.792 51.804,19.656 L 48.348,13.752 L 49.644,10.944 L 53.1,9.36 C 53.532,9.144 53.748,8.712 53.748,8.28 C 53.748,7.632 53.244,7.128 52.596,7.128 C 50.292,7.056 47.556,6.984 44.82,6.984 C 44.676,6.984 44.532,6.984 44.388,6.984 C 44.028,6.984 43.956,6.984 43.956,6.984 C 43.524,6.984 43.164,7.344 43.164,7.848 C 43.164,8.136 43.308,8.424 43.596,8.568 C 45.108,9.432 46.692,10.152 48.204,10.872 L 46.98,13.68 L 25.308,13.68 L 26.964,9.648 C 25.884,7.848 27.18,5.616 29.196,5.616 C 29.412,5.616 29.628,5.616 29.844,5.688 L 29.844,5.688 L 32.22,6.264 L 32.868,6.48 L 33.156,5.184 L 32.508,5.04 L 30.204,4.392 L 30.204,4.392 C 29.844,4.32 29.556,4.32 29.196,4.32 C 27.036,4.32 25.236,6.048 25.236,8.28 C 25.236,8.784 25.308,9.216 25.452,9.72 L 21.276,20.16 C 19.332,19.008 17.172,18.36 14.94,18.36 L 14.94,18.864 C 14.868,18.864 14.796,18.864 14.724,18.864 C 8.172,18.864 2.772,24.264 2.772,30.816 C 2.772,37.44 8.172,42.84 14.724,42.84 C 18.612,42.84 22.14,40.968 24.444,37.872 L 24.876,38.232 C 26.388,36.072 27.252,33.48 27.252,30.816 C 27.252,27 25.452,23.328 22.356,20.952 L 23.076,19.152 L 36.18,30.528 C 35.964,31.032 35.82,31.608 35.82,32.184 C 35.82,34.2 37.476,35.928 39.564,35.928 C 39.708,35.928 39.852,35.856 39.996,35.856 L 40.716,38.448 L 39.924,38.448 L 39.924,39.744 L 43.308,39.744 L 43.308,38.448 L 42.156,38.448 L 41.22,35.496 C 42.372,34.92 43.164,33.84 43.236,32.544 z"
     id="path20"
     style="fill:#ffffff" /><path
     d="M 19.26,28.656 C 18.54,30.456 16.74,31.608 14.796,31.536 C 14.364,31.536 14.076,31.248 14.076,30.888 C 14.076,30.528 14.364,30.24 14.724,30.24 C 14.724,30.24 14.724,30.24 14.796,30.24 C 14.796,30.24 14.868,30.24 14.94,30.24 C 16.236,30.24 17.388,29.52 17.964,28.368 L 20.268,22.536 C 18.684,21.456 16.74,20.808 14.724,20.808 C 9.252,20.808 4.716,25.344 4.716,30.816 C 4.716,36.36 9.252,40.896 14.724,40.896 C 20.268,40.896 24.804,36.36 24.804,30.816 C 24.804,28.008 23.508,25.272 21.42,23.4 L 19.26,28.656 L 19.26,28.656 z"
     id="path64"
     style="fill:#0c479d" /><path
     d="M 57.42,29.448 C 58.212,29.448 58.788,30.096 58.788,30.816 C 58.788,31.608 58.14,32.256 57.348,32.256 C 56.916,32.256 56.484,32.04 56.268,31.752 L 47.484,32.328 C 48.204,37.224 52.38,40.896 57.348,40.896 C 62.892,40.896 67.356,36.36 67.356,30.816 C 67.356,25.344 62.892,20.808 57.348,20.808 C 55.836,20.808 54.396,21.168 53.028,21.816 L 57.42,29.448 z"
     id="path66"
     style="fill:#0c479d" /><path
     d="M 56.196,30.024 L 51.876,22.464 C 49.068,24.336 47.34,27.504 47.34,30.816 C 47.34,30.888 47.34,30.96 47.34,30.96 L 55.98,30.384 L 56.196,30.024 z"
     id="path68"
     style="fill:#0c479d" /><path
     d="M 47.7,15.264 L 50.652,20.304 C 47.7,22.176 45.684,25.2 45.036,28.656 C 44.964,29.376 44.892,30.096 44.892,30.816 C 44.892,30.96 44.892,31.032 44.892,31.176 L 43.164,31.248 C 42.948,30.312 42.372,29.52 41.58,29.016 L 47.556,15.624 L 47.7,15.264 z"
     id="path70"
     style="fill:#0c479d" /><path
     d="M 39.42,26.064 L 39.42,24.768 L 36.036,24.768 L 36.036,26.064 L 36.972,26.064 L 37.836,28.872 C 37.548,29.016 37.26,29.232 36.972,29.448 L 23.652,17.856 L 24.804,14.976 L 46.404,14.976 L 40.356,28.512 C 40.068,28.512 39.852,28.44 39.564,28.44 C 39.42,28.44 39.276,28.44 39.132,28.512 L 38.34,26.064 L 39.42,26.064 z"
     id="path72"
     style="fill:#0c479d" /><path
     d="M 62.532,217.008 C 62.532,202.68 50.868,191.016 36.54,191.016 C 22.212,191.016 10.548,202.68 10.548,217.008 C 10.548,231.336 22.212,243 36.54,243 C 50.868,243 62.532,231.336 62.532,217.008 z"
     id="path74"
     style="fill:#ffffff" /><path
     d="M 59.652,217.008 C 59.652,204.336 49.284,193.968 36.54,193.968 C 23.796,193.968 13.428,204.336 13.428,217.008 C 13.428,229.68 23.796,240.048 36.54,240.048 C 49.284,240.048 59.652,229.68 59.652,217.008 z"
     id="path76" /><path
     d="M 62.532,149.472 C 62.532,135.144 50.868,123.552 36.54,123.552 C 22.212,123.552 10.548,135.144 10.548,149.472 C 10.548,163.8 22.212,175.464 36.54,175.464 C 50.868,175.464 62.532,163.8 62.532,149.472 z"
     id="path78"
     style="fill:#ffffff" /><path
     d="M 59.652,149.472 C 59.652,136.728 49.284,126.432 36.54,126.432 C 23.796,126.432 13.428,136.728 13.428,149.472 C 13.428,162.216 23.796,172.584 36.54,172.584 C 49.284,172.584 59.652,162.216 59.652,149.472 z"
     id="path80" /><path
     d="M 62.532,81.936 C 62.532,67.608 50.868,55.944 36.54,55.944 C 22.212,55.944 10.548,67.608 10.548,81.936 C 10.548,96.264 22.212,107.928 36.54,107.928 C 50.868,107.928 62.532,96.264 62.532,81.936 z"
     id="path82"
     style="fill:#ed171f" /></g><g
   id="g5677"
   transform="matrix(2.9088406,0,0,2.9088406,-523.14695,29.990035)"><rect
     x="117.252"
     y="45.576"
     width="72.720001"
     height="207.864"
     id="rect16"
     style="stroke:#000000;stroke-width:0.21600001" /><rect
     x="117.252"
     width="72.720001"
     height="45.576"
     id="rect50"
     y="0"
     style="fill:#0c479d" /><path
     d="M 160.38,32.544 L 162.611,32.4 C 163.403,38.376 168.515,42.84 174.491,42.84 C 180.827,42.84 186.012,37.872 186.443,31.608 L 186.947,31.68 C 186.947,31.392 187.019,31.104 187.019,30.816 C 187.019,23.976 181.403,18.36 174.491,18.36 L 174.491,18.36 C 172.548,18.36 170.676,18.792 168.947,19.656 L 165.491,13.752 L 166.787,10.944 L 170.243,9.36 C 170.676,9.144 170.891,8.712 170.891,8.28 C 170.891,7.632 170.387,7.128 169.739,7.128 C 167.363,7.056 164.699,6.984 161.964,6.984 C 161.819,6.984 161.676,6.984 161.531,6.984 C 161.172,6.984 161.099,6.984 161.099,6.984 C 160.667,6.984 160.235,7.344 160.235,7.848 C 160.235,8.136 160.451,8.424 160.739,8.568 C 162.252,9.432 163.836,10.152 165.347,10.872 L 164.122,13.68 L 142.45,13.68 L 144.034,9.648 C 143.026,7.848 144.251,5.616 146.339,5.616 C 146.555,5.616 146.771,5.616 146.986,5.688 L 146.986,5.688 L 149.362,6.264 L 150.01,6.48 L 150.298,5.184 L 149.65,5.04 L 147.346,4.392 L 147.346,4.392 C 146.986,4.32 146.698,4.32 146.338,4.32 C 144.178,4.32 142.378,6.048 142.378,8.28 C 142.378,8.784 142.449,9.216 142.594,9.72 L 138.346,20.16 C 136.474,19.008 134.314,18.36 132.082,18.36 L 132.082,18.864 C 132.01,18.864 131.937,18.864 131.865,18.864 C 125.313,18.864 119.913,24.264 119.913,30.816 C 119.913,37.44 125.313,42.84 131.865,42.84 C 135.681,42.84 139.281,40.968 141.586,37.872 L 141.945,38.232 C 143.529,36.072 144.393,33.48 144.393,30.816 C 144.393,27 142.593,23.328 139.497,20.952 L 140.217,19.152 L 153.321,30.528 C 153.105,31.032 152.962,31.608 152.962,32.184 C 152.962,34.2 154.617,35.928 156.705,35.928 C 156.85,35.928 156.993,35.856 157.138,35.856 L 157.858,38.448 L 157.066,38.448 L 157.066,39.744 L 160.45,39.744 L 160.45,38.448 L 159.3,38.448 L 158.363,35.496 C 159.516,34.92 160.236,33.84 160.38,32.544 z"
     id="path52"
     style="fill:#ffffff" /><path
     d="M 156.564,26.064 L 156.564,24.768 L 153.18,24.768 L 153.18,26.064 L 154.116,26.064 L 154.98,28.872 C 154.692,29.016 154.404,29.232 154.116,29.448 L 140.724,17.856 L 141.948,14.976 L 163.476,14.976 L 157.5,28.512 C 157.212,28.512 156.924,28.44 156.707,28.44 C 156.563,28.44 156.42,28.44 156.275,28.512 L 155.483,26.064 L 156.564,26.064 z"
     id="path54"
     style="fill:#0c479d" /><path
     d="M 164.844,15.264 L 167.724,20.304 C 164.844,22.176 162.828,25.2 162.18,28.656 C 162.108,29.376 162.035,30.096 162.035,30.816 C 162.035,30.96 162.035,31.032 162.035,31.176 L 160.307,31.248 C 160.091,30.312 159.515,29.52 158.723,29.016 L 164.699,15.624 L 164.844,15.264 z"
     id="path56"
     style="fill:#0c479d" /><path
     d="M 173.34,30.024 L 169.02,22.464 C 166.212,24.336 164.484,27.504 164.484,30.816 C 164.484,30.888 164.484,30.96 164.484,30.96 L 173.124,30.384 L 173.34,30.024 z"
     id="path58"
     style="fill:#0c479d" /><path
     d="M 174.564,29.448 C 175.284,29.448 175.932,30.096 175.932,30.816 C 175.932,31.608 175.284,32.256 174.492,32.256 C 174.06,32.256 173.629,32.04 173.341,31.752 L 164.629,32.328 C 165.349,37.224 169.525,40.896 174.492,40.896 C 180.036,40.896 184.501,36.36 184.501,30.816 C 184.501,25.344 180.036,20.808 174.492,20.808 C 172.98,20.808 171.54,21.168 170.173,21.816 L 174.564,29.448 z"
     id="path60"
     style="fill:#0c479d" /><path
     d="M 136.404,28.656 C 135.612,30.456 133.884,31.608 131.868,31.536 C 131.509,31.536 131.221,31.248 131.221,30.888 C 131.221,30.528 131.509,30.24 131.868,30.24 L 131.868,30.24 C 131.94,30.24 132.013,30.24 132.085,30.24 C 133.381,30.24 134.532,29.52 135.036,28.368 L 137.412,22.536 C 135.828,21.456 133.885,20.808 131.868,20.808 C 126.396,20.808 121.86,25.344 121.86,30.816 C 121.86,36.36 126.396,40.896 131.868,40.896 C 137.412,40.896 141.877,36.36 141.877,30.816 C 141.877,28.008 140.652,25.272 138.564,23.4 L 136.404,28.656 L 136.404,28.656 z"
     id="path62"
     style="fill:#0c479d" /><path
     d="M 179.676,217.008 C 179.676,202.68 168.012,191.016 153.684,191.016 C 139.356,191.016 127.692,202.68 127.692,217.008 C 127.692,231.336 139.356,243 153.684,243 C 168.012,243 179.676,231.336 179.676,217.008 z"
     id="path84"
     style="fill:#ffffff" /><path
     d="M 176.796,217.008 C 176.796,204.336 166.428,193.968 153.684,193.968 C 140.94,193.968 130.572,204.336 130.572,217.008 C 130.572,229.68 140.94,240.048 153.684,240.048 C 166.428,240.048 176.796,229.68 176.796,217.008 z"
     id="path86" /><path
     d="M 179.676,149.472 C 179.676,135.144 168.012,123.552 153.684,123.552 C 139.356,123.552 127.692,135.144 127.692,149.472 C 127.692,163.8 139.356,175.464 153.684,175.464 C 168.012,175.464 179.676,163.8 179.676,149.472 z"
     id="path88"
     style="fill:#feb82f" /><path
     d="M 179.676,81.936 C 179.676,67.608 168.012,55.944 153.684,55.944 C 139.356,55.944 127.692,67.608 127.692,81.936 C 127.692,96.264 139.356,107.928 153.684,107.928 C 168.012,107.928 179.676,96.264 179.676,81.936 z"
     id="path90"
     style="fill:#ed171f" /></g><g
   id="g5632"
   transform="matrix(2.9088406,0,0,2.9088406,532.75355,-1542.5641)"><rect
     x="2.4119999"
     y="586.29602"
     width="72.720001"
     height="207.864"
     id="rect8" /><rect
     x="2.4119999"
     y="540.71997"
     width="72.720001"
     height="45.576"
     id="rect36"
     style="fill:#0c479d" /><path
     d="M 45.54,573.265 L 47.772,573.12 C 48.564,579.096 53.676,583.56 59.652,583.56 C 65.988,583.56 71.172,578.591 71.604,572.328 L 72.108,572.4 C 72.108,572.112 72.108,571.824 72.108,571.536 C 72.108,564.696 66.564,559.08 59.652,559.08 L 59.652,559.08 C 57.708,559.08 55.836,559.512 54.108,560.376 L 50.652,554.472 L 51.948,551.664 L 55.404,550.08 C 55.764,549.864 56.052,549.433 56.052,549 C 56.052,548.353 55.548,547.849 54.9,547.849 C 52.524,547.777 49.86,547.704 47.124,547.704 C 46.98,547.704 46.836,547.704 46.692,547.704 C 46.26,547.704 46.26,547.704 46.26,547.704 C 45.828,547.704 45.396,548.064 45.396,548.568 C 45.396,548.856 45.612,549.144 45.9,549.288 C 47.412,550.152 48.924,550.872 50.508,551.592 L 49.284,554.401 L 27.612,554.401 L 29.196,550.369 C 28.188,548.569 29.412,546.337 31.5,546.337 C 31.716,546.337 31.932,546.337 32.148,546.409 L 32.148,546.409 L 34.524,546.985 L 35.172,547.201 L 35.46,545.905 L 34.812,545.76 L 32.508,545.113 L 32.508,545.113 C 32.148,545.041 31.86,545.041 31.5,545.041 C 29.268,545.041 27.54,546.77 27.54,549.001 C 27.54,549.505 27.612,549.938 27.756,550.441 L 23.508,560.88 C 21.636,559.729 19.476,559.08 17.244,559.08 L 17.244,559.584 C 17.172,559.584 17.1,559.584 17.028,559.584 C 10.404,559.584 5.076,564.984 5.076,571.536 C 5.076,578.16 10.404,583.56 17.028,583.56 C 20.844,583.56 24.444,581.688 26.676,578.591 L 27.108,578.951 C 28.692,576.791 29.556,574.199 29.556,571.535 C 29.556,567.719 27.756,564.047 24.66,561.671 L 25.38,559.871 L 38.484,571.247 C 38.268,571.751 38.124,572.327 38.124,572.903 C 38.124,574.919 39.78,576.647 41.868,576.647 C 42.012,576.647 42.156,576.575 42.228,576.575 L 43.02,579.167 L 42.228,579.167 L 42.228,580.463 L 45.612,580.463 L 45.612,579.167 L 44.46,579.167 L 43.524,576.215 C 44.676,575.641 45.396,574.561 45.54,573.265 z"
     id="path38"
     style="fill:#ffffff" /><path
     d="M 41.724,566.784 L 41.724,565.488 L 38.268,565.488 L 38.268,566.784 L 39.276,566.784 L 40.14,569.592 C 39.852,569.737 39.564,569.952 39.276,570.168 L 25.884,558.576 L 27.036,555.696 L 48.636,555.696 L 42.588,569.232 C 42.372,569.232 42.084,569.16 41.868,569.16 C 41.724,569.16 41.58,569.16 41.364,569.232 L 40.644,566.784 L 41.724,566.784 z"
     id="path40"
     style="fill:#0c479d" /><path
     d="M 50.004,555.984 L 52.884,561.024 C 50.004,562.896 47.988,565.92 47.34,569.376 C 47.196,570.096 47.196,570.816 47.196,571.536 C 47.196,571.681 47.196,571.752 47.196,571.896 L 45.468,571.967 C 45.252,571.031 44.676,570.239 43.884,569.736 L 49.86,556.343 L 50.004,555.984 z"
     id="path42"
     style="fill:#0c479d" /><path
     d="M 58.5,570.744 L 54.18,563.184 C 51.372,565.056 49.644,568.224 49.644,571.536 C 49.644,571.608 49.644,571.681 49.644,571.681 L 58.284,571.105 L 58.5,570.744 z"
     id="path44"
     style="fill:#0c479d" /><path
     d="M 59.724,570.168 C 60.444,570.168 61.092,570.816 61.092,571.536 C 61.092,572.328 60.444,572.976 59.652,572.976 C 59.22,572.976 58.788,572.759 58.5,572.471 L 49.716,573.047 C 50.508,577.943 54.684,581.615 59.652,581.615 C 65.196,581.615 69.66,577.079 69.66,571.535 C 69.66,566.063 65.196,561.527 59.652,561.527 C 58.14,561.527 56.7,561.886 55.332,562.535 L 59.724,570.168 z"
     id="path46"
     style="fill:#0c479d" /><path
     d="M 21.564,569.376 C 20.772,571.176 18.972,572.328 17.028,572.256 C 16.668,572.256 16.38,571.968 16.38,571.609 C 16.38,571.249 16.668,570.961 17.028,570.961 L 17.028,570.961 C 17.1,570.961 17.172,570.961 17.244,570.961 C 18.54,570.961 19.692,570.241 20.196,569.089 L 22.572,563.257 C 20.988,562.177 19.044,561.529 17.028,561.529 C 11.484,561.529 7.02,566.065 7.02,571.537 C 7.02,577.081 11.484,581.617 17.028,581.617 C 22.572,581.617 27.036,577.081 27.036,571.537 C 27.036,568.729 25.812,565.993 23.724,564.121 L 21.564,569.376 L 21.564,569.376 z"
     id="path48"
     style="fill:#0c479d" /><path
     d="M 64.764,757.729 C 64.764,743.401 53.1,731.737 38.772,731.737 C 24.516,731.737 12.852,743.401 12.852,757.729 C 12.852,772.057 24.516,783.72 38.772,783.72 C 53.1,783.72 64.764,772.057 64.764,757.729 z"
     id="path92"
     style="fill:#016448" /><path
     d="M 64.764,690.192 C 64.764,675.864 53.1,664.272 38.772,664.272 C 24.516,664.272 12.852,675.864 12.852,690.192 C 12.852,704.52 24.516,716.184 38.772,716.184 C 53.1,716.185 64.764,704.521 64.764,690.192 z"
     id="path94"
     style="fill:#ffffff" /><path
     d="M 61.884,690.192 C 61.884,677.448 51.516,667.152 38.772,667.152 C 26.1,667.152 15.732,677.448 15.732,690.192 C 15.732,702.936 26.1,713.303 38.772,713.303 C 51.516,713.304 61.884,702.937 61.884,690.192 z"
     id="path96" /><path
     d="M 64.764,622.656 C 64.764,608.328 53.1,596.664 38.772,596.664 C 24.516,596.664 12.852,608.328 12.852,622.656 C 12.852,636.984 24.516,648.648 38.772,648.648 C 53.1,648.648 64.764,636.984 64.764,622.656 z"
     id="path98"
     style="fill:#ffffff" /><path
     d="M 61.884,622.656 C 61.884,609.984 51.516,599.616 38.772,599.616 C 26.1,599.616 15.732,609.984 15.732,622.656 C 15.732,635.328 26.1,645.696 38.772,645.696 C 51.516,645.696 61.884,635.328 61.884,622.656 z"
     id="path100" /></g><g
   id="g5647"
   transform="matrix(2.9088406,0,0,2.9088406,173.81856,-743.14482)"><rect
     x="1.692"
     y="311.47198"
     width="72.792"
     height="207.864"
     id="rect10" /><path
     d="M 64.116,347.832 C 64.116,333.504 52.452,321.84 38.124,321.84 C 23.796,321.84 12.132,333.504 12.132,347.832 C 12.132,362.16 23.796,373.824 38.124,373.824 C 52.452,373.824 64.116,362.16 64.116,347.832 z"
     id="path12"
     style="fill:#ffffff" /><rect
     x="1.692"
     y="265.896"
     width="72.792"
     height="45.576"
     id="rect22"
     style="fill:#0c479d" /><path
     d="M 44.892,298.44 L 47.124,298.296 C 47.916,304.272 52.956,308.736 59.004,308.736 C 65.268,308.736 70.524,303.768 70.956,297.504 L 71.46,297.576 C 71.46,297.288 71.46,297 71.46,296.712 C 71.46,289.872 65.916,284.256 59.004,284.256 L 59.004,284.256 C 57.06,284.256 55.116,284.688 53.388,285.552 L 50.004,279.648 L 51.228,276.84 L 54.684,275.256 C 55.116,275.04 55.404,274.608 55.404,274.176 C 55.404,273.528 54.9,273.024 54.252,273.024 C 51.876,272.952 49.14,272.88 46.476,272.88 C 46.332,272.88 46.188,272.88 46.044,272.88 C 45.612,272.88 45.612,272.88 45.612,272.88 C 45.108,272.88 44.748,273.24 44.748,273.744 C 44.748,274.032 44.964,274.32 45.18,274.464 C 46.764,275.328 48.276,276.048 49.86,276.768 L 48.564,279.576 L 26.964,279.576 L 28.548,275.544 C 27.468,273.744 28.764,271.512 30.852,271.512 C 31.068,271.512 31.284,271.512 31.5,271.584 L 31.5,271.584 L 33.804,272.16 L 34.452,272.376 L 34.812,271.08 L 34.164,270.936 L 31.788,270.288 L 31.788,270.288 C 31.5,270.216 31.14,270.216 30.852,270.216 C 28.62,270.216 26.82,271.944 26.82,274.176 C 26.82,274.68 26.964,275.112 27.108,275.616 L 22.86,286.056 C 20.988,284.904 18.756,284.256 16.524,284.256 L 16.524,284.76 C 16.524,284.76 16.452,284.76 16.38,284.76 C 9.756,284.76 4.428,290.16 4.428,296.712 C 4.428,303.336 9.756,308.736 16.38,308.736 C 20.196,308.736 23.796,306.864 26.028,303.768 L 26.46,304.128 C 28.044,301.968 28.836,299.376 28.836,296.712 C 28.836,292.896 27.036,289.224 24.012,286.848 L 24.732,285.048 L 37.836,296.424 C 37.62,296.928 37.476,297.504 37.476,298.08 C 37.476,300.096 39.132,301.824 41.148,301.824 C 41.292,301.824 41.436,301.752 41.58,301.752 L 42.372,304.344 L 41.58,304.344 L 41.58,305.64 L 44.964,305.64 L 44.964,304.344 L 43.74,304.344 L 42.876,301.392 C 44.028,300.816 44.748,299.736 44.892,298.44 z"
     id="path24"
     style="fill:#ffffff" /><path
     d="M 41.004,291.96 L 41.004,290.664 L 37.62,290.664 L 37.62,291.96 L 38.628,291.96 L 39.42,294.768 C 39.132,294.912 38.844,295.128 38.628,295.344 L 25.236,283.752 L 26.388,280.872 L 47.988,280.872 L 41.94,294.408 C 41.724,294.408 41.436,294.336 41.148,294.336 C 41.004,294.336 40.86,294.336 40.716,294.408 L 39.996,291.96 L 41.004,291.96 L 41.004,291.96 z"
     id="path26"
     style="fill:#0c479d" /><path
     d="M 49.284,281.16 L 52.236,286.2 C 49.356,288.072 47.268,291.096 46.692,294.552 C 46.548,295.272 46.476,295.992 46.476,296.712 C 46.476,296.857 46.476,296.928 46.476,297.072 L 44.82,297.144 C 44.532,296.208 43.956,295.416 43.164,294.912 L 49.14,281.52 L 49.284,281.16 z"
     id="path28"
     style="fill:#0c479d" /><path
     d="M 57.852,295.92 L 53.46,288.36 C 50.652,290.232 48.996,293.4 48.996,296.712 C 48.996,296.784 48.996,296.857 48.996,296.857 L 57.636,296.281 L 57.852,295.92 z"
     id="path30"
     style="fill:#0c479d" /><path
     d="M 59.004,295.344 C 59.796,295.344 60.444,295.992 60.444,296.712 C 60.444,297.504 59.796,298.152 59.004,298.152 C 58.572,298.152 58.14,297.936 57.852,297.648 L 49.068,298.224 C 49.788,303.12 54.036,306.792 59.004,306.792 C 64.548,306.792 69.012,302.256 69.012,296.712 C 69.012,291.24 64.548,286.704 59.004,286.704 C 57.492,286.704 55.98,287.064 54.612,287.712 L 59.004,295.344 z"
     id="path32"
     style="fill:#0c479d" /><path
     d="M 20.844,294.552 C 20.124,296.352 18.324,297.504 16.38,297.432 C 16.02,297.432 15.732,297.144 15.732,296.784 C 15.732,296.424 16.02,296.136 16.38,296.136 L 16.38,296.136 C 16.452,296.136 16.524,296.136 16.596,296.136 C 17.82,296.136 18.972,295.416 19.548,294.264 L 21.924,288.432 C 20.268,287.352 18.324,286.704 16.38,286.704 C 10.836,286.704 6.372,291.24 6.372,296.712 C 6.372,302.256 10.836,306.792 16.38,306.792 C 21.924,306.792 26.388,302.256 26.388,296.712 C 26.388,293.904 25.164,291.168 23.004,289.296 L 20.844,294.552 L 20.844,294.552 z"
     id="path34"
     style="fill:#0c479d" /><path
     d="M 61.164,347.832 C 61.164,335.16 50.796,324.792 38.124,324.792 C 25.452,324.792 15.084,335.16 15.084,347.832 C 15.084,360.504 25.452,370.872 38.124,370.872 C 50.796,370.872 61.164,360.504 61.164,347.832 z"
     id="path102" /><path
     d="M 64.116,482.904 C 64.116,468.576 52.452,456.912 38.124,456.912 C 23.796,456.912 12.132,468.576 12.132,482.904 C 12.132,497.232 23.796,508.896 38.124,508.896 C 52.452,508.896 64.116,497.232 64.116,482.904 z"
     id="path104"
     style="fill:#ffffff" /><path
     d="M 61.164,482.904 C 61.164,470.232 50.796,459.864 38.124,459.864 C 25.452,459.864 15.084,470.232 15.084,482.904 C 15.084,495.576 25.452,505.944 38.124,505.944 C 50.796,505.944 61.164,495.576 61.164,482.904 z"
     id="path106" /><path
     d="M 64.116,415.368 C 64.116,401.04 52.452,389.448 38.124,389.448 C 23.796,389.448 12.132,401.04 12.132,415.368 C 12.132,429.696 23.796,441.36 38.124,441.36 C 52.452,441.36 64.116,429.696 64.116,415.368 z"
     id="path108"
     style="fill:#feb82f" /></g>
</svg>