<?xml version="1.0" encoding="utf-8" ?>
<svg xmlns="http://www.w3.org/2000/svg" xmlns:xlink="http://www.w3.org/1999/xlink" width="900" height="600">
	<rect fill="white" width="900" height="600"/>
	<clipPath id="cl_3">
		<rect x="32" y="62.350002" width="643.95508" height="498.69998"/>
	</clipPath>
	<g clip-path="url(#cl_3)">
		<path fill="none" stroke="#EBEBEB" stroke-width="1" stroke-miterlimit="0" d="M33 560.05L674.955 560.05"/>
		<path fill="none" stroke="#EBEBEB" stroke-width="1" stroke-miterlimit="0" d="M33 449.672L674.955 449.672"/>
		<path fill="none" stroke="#EBEBEB" stroke-width="1" stroke-miterlimit="0" d="M33 339.294L674.955 339.294"/>
		<path fill="none" stroke="#EBEBEB" stroke-width="1" stroke-miterlimit="0" d="M33 228.917L674.955 228.917"/>
		<path fill="none" stroke="#EBEBEB" stroke-width="1" stroke-miterlimit="0" d="M33 118.539L674.955 118.539"/>
	</g>
	<text fill="#464646" font-size="16" font-family="Segoe UI" x="34.538551, 40.936989, 49.561989, 53.030739, " y="585.52502, ">
			-0.5
	</text>
	<text fill="#464646" font-size="16" font-family="Segoe UI" x="120.70787, " y="585.52502, ">
			0
	</text>
	<text fill="#464646" font-size="16" font-family="Segoe UI" x="191.08421, 199.70921, 203.17796, " y="585.52502, ">
			0.5
	</text>
	<text fill="#464646" font-size="16" font-family="Segoe UI" x="274.05432, " y="585.52502, ">
			1
	</text>
	<text fill="#464646" font-size="16" font-family="Segoe UI" x="343.43066, 352.05566, 355.52441, " y="585.52502, ">
			1.5
	</text>
	<text fill="#464646" font-size="16" font-family="Segoe UI" x="426.40076, " y="585.52502, ">
			2
	</text>
	<text fill="#464646" font-size="16" font-family="Segoe UI" x="496.7771, 505.4021, 508.87085, " y="585.52502, ">
			2.5
	</text>
	<text fill="#464646" font-size="16" font-family="Segoe UI" x="578.74719, " y="585.52502, ">
			3
	</text>
	<text fill="#464646" font-size="16" font-family="Segoe UI" x="649.12354, 657.74854, 661.21729, " y="585.52502, ">
			3.5
	</text>
	<text fill="#464646" font-size="16" font-family="Segoe UI" x="13, " y="565.54999, ">
			0
	</text>
	<text fill="#464646" font-size="16" font-family="Segoe UI" x="13, " y="455.17221, ">
			2
	</text>
	<text fill="#464646" font-size="16" font-family="Segoe UI" x="12, " y="344.79443, ">
			4
	</text>
	<text fill="#464646" font-size="16" font-family="Segoe UI" x="13, " y="234.41666, ">
			6
	</text>
	<text fill="#464646" font-size="16" font-family="Segoe UI" x="13, " y="124.03889, ">
			8
	</text>
	<clipPath id="cl_8">
		<rect width="900" height="600"/>
	</clipPath>
	<g clip-path="url(#cl_8)">
		<path d="M674.955 326.85L674.955 273.15Q674.955 272.954 674.965 272.757Q674.974 272.561 674.994 272.366Q675.013 272.17 675.042 271.976Q675.07 271.782 675.109 271.589Q675.147 271.397 675.195 271.206Q675.243 271.016 675.3 270.828Q675.357 270.64 675.423 270.455Q675.489 270.27 675.564 270.089Q675.639 269.907 675.723 269.73Q675.807 269.552 675.9 269.379Q675.992 269.206 676.093 269.037Q676.194 268.869 676.303 268.705Q676.412 268.542 676.529 268.384Q676.646 268.227 676.771 268.075Q676.896 267.923 677.027 267.777Q677.159 267.632 677.298 267.493Q677.437 267.354 677.583 267.222Q677.728 267.09 677.88 266.966Q678.032 266.841 678.19 266.724Q678.347 266.607 678.51 266.498Q678.674 266.389 678.842 266.288Q679.011 266.187 679.184 266.095Q679.357 266.002 679.535 265.918Q679.712 265.834 679.894 265.759Q680.075 265.684 680.26 265.618Q680.445 265.551 680.633 265.494Q680.821 265.437 681.011 265.39Q681.202 265.342 681.394 265.304Q681.587 265.265 681.781 265.237Q681.975 265.208 682.171 265.189Q682.366 265.169 682.563 265.16Q682.759 265.15 682.955 265.15L892 265.15Q892.196 265.15 892.393 265.16Q892.589 265.169 892.784 265.189Q892.98 265.208 893.174 265.237Q893.368 265.265 893.561 265.304Q893.753 265.342 893.944 265.39Q894.134 265.437 894.322 265.494Q894.51 265.551 894.695 265.618Q894.88 265.684 895.061 265.759Q895.243 265.834 895.42 265.918Q895.598 266.002 895.771 266.095Q895.944 266.187 896.113 266.288Q896.281 266.389 896.444 266.498Q896.608 266.607 896.766 266.724Q896.923 266.841 897.075 266.966Q897.227 267.09 897.372 267.222Q897.518 267.354 897.657 267.493Q897.796 267.632 897.928 267.777Q898.059 267.923 898.184 268.075Q898.309 268.227 898.426 268.384Q898.543 268.542 898.652 268.705Q898.761 268.869 898.862 269.037Q898.963 269.206 899.055 269.379Q899.148 269.552 899.232 269.73Q899.316 269.907 899.391 270.089Q899.466 270.27 899.532 270.455Q899.598 270.64 899.655 270.828Q899.713 271.016 899.76 271.206Q899.808 271.397 899.846 271.589Q899.885 271.782 899.913 271.976Q899.942 272.17 899.961 272.366Q899.981 272.561 899.99 272.757Q900 272.954 900 273.15L900 326.85Q900 327.046 899.99 327.243Q899.981 327.439 899.961 327.634Q899.942 327.83 899.913 328.024Q899.885 328.218 899.846 328.411Q899.808 328.603 899.76 328.794Q899.713 328.984 899.655 329.172Q899.598 329.36 899.532 329.545Q899.466 329.73 899.391 329.911Q899.316 330.093 899.232 330.27Q899.148 330.448 899.055 330.621Q898.963 330.794 898.862 330.963Q898.761 331.131 898.652 331.294Q898.543 331.458 898.426 331.616Q898.309 331.773 898.184 331.925Q898.059 332.077 897.928 332.222Q897.796 332.368 897.657 332.507Q897.518 332.646 897.372 332.778Q897.227 332.909 897.075 333.034Q896.923 333.159 896.766 333.276Q896.608 333.393 896.444 333.502Q896.281 333.611 896.113 333.712Q895.944 333.813 895.771 333.905Q895.598 333.998 895.42 334.082Q895.243 334.166 895.061 334.241Q894.88 334.316 894.695 334.382Q894.51 334.448 894.322 334.505Q894.134 334.562 893.944 334.61Q893.753 334.658 893.561 334.696Q893.368 334.735 893.174 334.763Q892.98 334.792 892.784 334.811Q892.589 334.831 892.393 334.84Q892.196 334.85 892 334.85L682.955 334.85Q682.759 334.85 682.563 334.84Q682.366 334.831 682.171 334.811Q681.975 334.792 681.781 334.763Q681.587 334.735 681.394 334.696Q681.202 334.658 681.011 334.61Q680.821 334.562 680.633 334.505Q680.445 334.448 680.26 334.382Q680.075 334.316 679.894 334.241Q679.712 334.166 679.535 334.082Q679.357 333.998 679.184 333.905Q679.011 333.813 678.842 333.712Q678.674 333.611 678.51 333.502Q678.347 333.393 678.19 333.276Q678.032 333.159 677.88 333.034Q677.728 332.909 677.583 332.778Q677.437 332.646 677.298 332.507Q677.159 332.368 677.027 332.222Q676.896 332.077 676.771 331.925Q676.646 331.773 676.529 331.615Q676.412 331.458 676.303 331.294Q676.194 331.131 676.093 330.963Q675.992 330.794 675.9 330.621Q675.807 330.448 675.723 330.27Q675.639 330.093 675.564 329.911Q675.489 329.73 675.423 329.545Q675.357 329.36 675.3 329.172Q675.243 328.984 675.195 328.794Q675.147 328.603 675.109 328.411Q675.07 328.218 675.042 328.024Q675.013 327.83 674.994 327.634Q674.974 327.439 674.965 327.243Q674.955 327.046 674.955 326.85Z"/>
	</g>
	<clipPath id="cl_9">
		<rect width="900" height="600"/>
	</clipPath>
	<g clip-path="url(#cl_9)">
		<text fill="#303030" font-size="30" font-family="Segoe UI" x="342.91455, 364.21338, 379.90186, 387.16748, 394.43311, 412.01123, 420.229, 434.3501, 441.61572, 455.98584, 471.67432, 490.24854, 507.22607, 522.48975, 532.91943, 543.08545, " y="43.175003, ">
				Hello LiveCharts
		</text>
	</g>
	<clipPath id="cl_a">
		<rect x="33" y="63.350002" width="641.95508" height="496.69998"/>
	</clipPath>
	<g clip-path="url(#cl_a)">
		<path fill="#2196F3" fill-opacity="0.19607843" d="M124.708 560.05L124.708 504.861C124.708 504.861 124.708 504.861 124.708 504.861C174.383 433.116 203.578 324.172 277.554 284.106C302.928 270.363 391.91 346.243 430.401 339.294C491.26 328.307 583.247 228.917 583.247 228.917L583.247 560.05L124.708 560.05Z"/>
	</g>
	<clipPath id="cl_b">
		<rect x="33" y="63.350002" width="641.95508" height="496.69998"/>
	</clipPath>
	<g clip-path="url(#cl_b)">
		<path fill="none" stroke="#2196F3" stroke-width="4" stroke-miterlimit="0" d="M124.708 504.861C124.708 504.861 124.708 504.861 124.708 504.861C174.383 433.116 203.578 324.172 277.554 284.106C302.928 270.363 391.91 346.243 430.401 339.294C491.26 328.307 583.247 228.917 583.247 228.917"/>
	</g>
	<clipPath id="cl_c">
		<rect x="33" y="63.350002" width="641.95508" height="496.69998"/>
	</clipPath>
	<g clip-path="url(#cl_c)">
		<ellipse fill="#FAFAFA" transform="translate(-6 -6)" cx="130.70787" cy="510.86108" rx="6" ry="5.9999847"/>
		<ellipse fill="#FAFAFA" transform="translate(-6 -6)" cx="283.55432" cy="290.10556" rx="6" ry="6"/>
		<ellipse fill="#FAFAFA" transform="translate(-6 -6)" cx="436.40076" cy="345.29443" rx="6" ry="6"/>
		<ellipse fill="#FAFAFA" transform="translate(-6 -6)" cx="589.24719" cy="234.91666" rx="6" ry="6"/>
	</g>
	<clipPath id="cl_d">
		<rect x="33" y="63.350002" width="641.95508" height="496.69998"/>
	</clipPath>
	<g clip-path="url(#cl_d)">
		<ellipse fill="none" stroke="#2196F3" stroke-width="4" stroke-miterlimit="0" transform="translate(-6 -6)" cx="130.70787" cy="510.86108" rx="6" ry="5.9999847"/>
		<ellipse fill="none" stroke="#2196F3" stroke-width="4" stroke-miterlimit="0" transform="translate(-6 -6)" cx="283.55432" cy="290.10556" rx="6" ry="6"/>
		<ellipse fill="none" stroke="#2196F3" stroke-width="4" stroke-miterlimit="0" transform="translate(-6 -6)" cx="436.40076" cy="345.29443" rx="6" ry="6"/>
		<ellipse fill="none" stroke="#2196F3" stroke-width="4" stroke-miterlimit="0" transform="translate(-6 -6)" cx="589.24719" cy="234.91666" rx="6" ry="6"/>
	</g>
	<clipPath id="cl_e">
		<rect x="33" y="63.350002" width="641.95508" height="496.69998"/>
	</clipPath>
	<g clip-path="url(#cl_e)">
		<path fill="#F44336" d="M100.708 557.05L100.708 342.294Q100.708 342.147 100.722 342Q100.737 341.854 100.766 341.709Q100.794 341.565 100.837 341.424Q100.88 341.283 100.936 341.146Q100.993 341.01 101.062 340.88Q101.132 340.75 101.213 340.628Q101.295 340.505 101.389 340.391Q101.482 340.277 101.587 340.173Q101.691 340.069 101.805 339.975Q101.919 339.882 102.041 339.8Q102.164 339.718 102.294 339.649Q102.424 339.579 102.56 339.523Q102.696 339.466 102.837 339.424Q102.978 339.381 103.123 339.352Q103.267 339.323 103.414 339.309Q103.56 339.294 103.708 339.294L145.708 339.294Q145.855 339.294 146.002 339.309Q146.149 339.323 146.293 339.352Q146.438 339.381 146.579 339.424Q146.72 339.466 146.856 339.523Q146.992 339.579 147.122 339.649Q147.252 339.718 147.375 339.8Q147.497 339.882 147.611 339.975Q147.725 340.069 147.829 340.173Q147.933 340.277 148.027 340.391Q148.12 340.505 148.202 340.628Q148.284 340.75 148.354 340.88Q148.423 341.01 148.479 341.146Q148.536 341.283 148.579 341.424Q148.621 341.565 148.65 341.709Q148.679 341.854 148.693 342Q148.708 342.147 148.708 342.294L148.708 557.05Q148.708 557.197 148.693 557.344Q148.679 557.491 148.65 557.635Q148.621 557.78 148.579 557.921Q148.536 558.062 148.479 558.198Q148.423 558.334 148.354 558.464Q148.284 558.594 148.202 558.717Q148.12 558.839 148.027 558.953Q147.933 559.067 147.829 559.171Q147.725 559.276 147.611 559.369Q147.497 559.463 147.375 559.544Q147.252 559.626 147.122 559.696Q146.992 559.765 146.856 559.822Q146.72 559.878 146.579 559.921Q146.438 559.964 146.293 559.992Q146.149 560.021 146.002 560.036Q145.855 560.05 145.708 560.05L103.708 560.05Q103.56 560.05 103.414 560.036Q103.267 560.021 103.123 559.992Q102.978 559.964 102.837 559.921Q102.696 559.878 102.56 559.822Q102.424 559.765 102.294 559.696Q102.164 559.626 102.041 559.544Q101.919 559.463 101.805 559.369Q101.691 559.276 101.587 559.171Q101.482 559.067 101.389 558.953Q101.295 558.839 101.213 558.717Q101.132 558.594 101.062 558.464Q100.993 558.334 100.936 558.198Q100.88 558.062 100.837 557.921Q100.794 557.78 100.766 557.635Q100.737 557.491 100.722 557.344Q100.708 557.197 100.708 557.05Z"/>
		<path fill="#F44336" d="M253.554 557.05L253.554 121.539Q253.554 121.392 253.569 121.245Q253.583 121.098 253.612 120.954Q253.641 120.809 253.684 120.668Q253.726 120.527 253.783 120.391Q253.839 120.255 253.909 120.125Q253.978 119.995 254.06 119.872Q254.142 119.75 254.235 119.636Q254.329 119.522 254.433 119.418Q254.537 119.313 254.651 119.22Q254.765 119.126 254.888 119.044Q255.01 118.963 255.14 118.893Q255.27 118.824 255.406 118.767Q255.542 118.711 255.683 118.668Q255.824 118.625 255.969 118.597Q256.114 118.568 256.26 118.553Q256.407 118.539 256.554 118.539L298.554 118.539Q298.702 118.539 298.848 118.553Q298.995 118.568 299.14 118.597Q299.284 118.625 299.425 118.668Q299.566 118.711 299.702 118.767Q299.839 118.824 299.968 118.893Q300.098 118.963 300.221 119.044Q300.344 119.126 300.457 119.22Q300.571 119.313 300.676 119.418Q300.78 119.522 300.873 119.636Q300.967 119.75 301.049 119.872Q301.131 119.995 301.2 120.125Q301.27 120.255 301.326 120.391Q301.382 120.527 301.425 120.668Q301.468 120.809 301.497 120.954Q301.525 121.098 301.54 121.245Q301.554 121.392 301.554 121.539L301.554 557.05Q301.554 557.197 301.54 557.344Q301.525 557.491 301.497 557.635Q301.468 557.78 301.425 557.921Q301.382 558.062 301.326 558.198Q301.27 558.334 301.2 558.464Q301.131 558.594 301.049 558.717Q300.967 558.839 300.873 558.953Q300.78 559.067 300.676 559.171Q300.571 559.276 300.457 559.369Q300.344 559.463 300.221 559.544Q300.098 559.626 299.968 559.696Q299.839 559.765 299.702 559.822Q299.566 559.878 299.425 559.921Q299.284 559.964 299.14 559.992Q298.995 560.021 298.848 560.036Q298.702 560.05 298.554 560.05L256.554 560.05Q256.407 560.05 256.26 560.036Q256.114 560.021 255.969 559.992Q255.824 559.964 255.683 559.921Q255.542 559.878 255.406 559.822Q255.27 559.765 255.14 559.696Q255.01 559.626 254.888 559.544Q254.765 559.463 254.651 559.369Q254.537 559.276 254.433 559.171Q254.329 559.067 254.235 558.953Q254.142 558.839 254.06 558.717Q253.978 558.594 253.909 558.464Q253.839 558.334 253.783 558.198Q253.726 558.062 253.684 557.921Q253.641 557.78 253.612 557.635Q253.583 557.491 253.569 557.344Q253.554 557.197 253.554 557.05Z"/>
		<path fill="#F44336" d="M406.401 557.05L406.401 452.672Q406.401 452.525 406.415 452.378Q406.43 452.231 406.458 452.087Q406.487 451.942 406.53 451.801Q406.573 451.66 406.629 451.524Q406.685 451.388 406.755 451.258Q406.824 451.128 406.906 451.005Q406.988 450.883 407.082 450.769Q407.175 450.655 407.279 450.551Q407.384 450.447 407.498 450.353Q407.611 450.26 407.734 450.178Q407.857 450.096 407.987 450.026Q408.116 449.957 408.253 449.901Q408.389 449.844 408.53 449.801Q408.671 449.759 408.815 449.73Q408.96 449.701 409.107 449.687Q409.253 449.672 409.401 449.672L451.401 449.672Q451.548 449.672 451.695 449.687Q451.841 449.701 451.986 449.73Q452.131 449.759 452.272 449.801Q452.413 449.844 452.549 449.901Q452.685 449.957 452.815 450.026Q452.945 450.096 453.067 450.178Q453.19 450.26 453.304 450.353Q453.418 450.447 453.522 450.551Q453.626 450.655 453.72 450.769Q453.813 450.883 453.895 451.005Q453.977 451.128 454.047 451.258Q454.116 451.388 454.172 451.524Q454.229 451.66 454.272 451.801Q454.314 451.942 454.343 452.087Q454.372 452.231 454.386 452.378Q454.401 452.525 454.401 452.672L454.401 557.05Q454.401 557.197 454.386 557.344Q454.372 557.491 454.343 557.635Q454.314 557.78 454.272 557.921Q454.229 558.062 454.172 558.198Q454.116 558.334 454.046 558.464Q453.977 558.594 453.895 558.717Q453.813 558.839 453.72 558.953Q453.626 559.067 453.522 559.171Q453.418 559.276 453.304 559.369Q453.19 559.463 453.067 559.544Q452.945 559.626 452.815 559.696Q452.685 559.765 452.549 559.822Q452.413 559.878 452.272 559.921Q452.131 559.964 451.986 559.992Q451.841 560.021 451.695 560.036Q451.548 560.05 451.401 560.05L409.401 560.05Q409.253 560.05 409.107 560.036Q408.96 560.021 408.815 559.992Q408.671 559.964 408.53 559.921Q408.389 559.878 408.253 559.822Q408.117 559.765 407.987 559.696Q407.857 559.626 407.734 559.544Q407.611 559.463 407.498 559.369Q407.384 559.276 407.279 559.171Q407.175 559.067 407.082 558.953Q406.988 558.839 406.906 558.717Q406.824 558.594 406.755 558.464Q406.685 558.334 406.629 558.198Q406.573 558.062 406.53 557.921Q406.487 557.78 406.458 557.635Q406.43 557.491 406.415 557.344Q406.401 557.197 406.401 557.05Z"/>
		<path fill="#F44336" d="M559.247 557.05L559.247 342.294Q559.247 342.147 559.262 342Q559.276 341.854 559.305 341.709Q559.333 341.565 559.376 341.424Q559.419 341.283 559.475 341.146Q559.532 341.01 559.601 340.88Q559.671 340.75 559.753 340.628Q559.835 340.505 559.928 340.391Q560.022 340.277 560.126 340.173Q560.23 340.069 560.344 339.975Q560.458 339.882 560.58 339.8Q560.703 339.718 560.833 339.649Q560.963 339.579 561.099 339.523Q561.235 339.466 561.376 339.424Q561.517 339.381 561.662 339.352Q561.807 339.323 561.953 339.309Q562.1 339.294 562.247 339.294L604.247 339.294Q604.395 339.294 604.541 339.309Q604.688 339.323 604.832 339.352Q604.977 339.381 605.118 339.424Q605.259 339.466 605.395 339.523Q605.531 339.579 605.661 339.649Q605.791 339.718 605.914 339.8Q606.036 339.882 606.15 339.975Q606.264 340.069 606.368 340.173Q606.473 340.277 606.566 340.391Q606.66 340.505 606.742 340.628Q606.823 340.75 606.893 340.88Q606.962 341.01 607.019 341.146Q607.075 341.283 607.118 341.424Q607.161 341.565 607.189 341.709Q607.218 341.854 607.233 342Q607.247 342.147 607.247 342.294L607.247 557.05Q607.247 557.197 607.233 557.344Q607.218 557.491 607.19 557.635Q607.161 557.78 607.118 557.921Q607.075 558.062 607.019 558.198Q606.962 558.334 606.893 558.464Q606.823 558.594 606.741 558.717Q606.66 558.839 606.566 558.953Q606.473 559.067 606.368 559.171Q606.264 559.276 606.15 559.369Q606.036 559.463 605.914 559.544Q605.791 559.626 605.661 559.696Q605.531 559.765 605.395 559.822Q605.259 559.878 605.118 559.921Q604.977 559.964 604.832 559.992Q604.688 560.021 604.541 560.036Q604.395 560.05 604.247 560.05L562.247 560.05Q562.1 560.05 561.953 560.036Q561.807 560.021 561.662 559.992Q561.517 559.964 561.376 559.921Q561.235 559.878 561.099 559.822Q560.963 559.765 560.833 559.696Q560.703 559.626 560.58 559.544Q560.458 559.463 560.344 559.369Q560.23 559.276 560.126 559.171Q560.022 559.067 559.928 558.953Q559.835 558.839 559.753 558.717Q559.671 558.594 559.601 558.464Q559.532 558.334 559.475 558.198Q559.419 558.062 559.376 557.921Q559.333 557.78 559.305 557.635Q559.276 557.491 559.262 557.344Q559.247 557.197 559.247 557.05Z"/>
	</g>
	<clipPath id="cl_f">
		<rect width="900" height="600"/>
	</clipPath>
	<g clip-path="url(#cl_f)">
		<ellipse fill="#FAFAFA" cx="707.95508" cy="284.57498" rx="6" ry="6"/>
	</g>
	<clipPath id="cl_10">
		<rect width="900" height="600"/>
	</clipPath>
	<g clip-path="url(#cl_10)">
		<text fill="#1E1E1E" font-size="15" font-family="Segoe UI" x="721.95508, 726.48145, 731.00781, 738.97656, 746.8208, 752.03564, 755.66846, 763.5127, 769.87744, 773.98633, 785.20703, 792.83887, 805.75879, 813.60303, 817.71191, 826.20068, 834.98975, 840.07275, 844.18164, 850.54639, 858.39063, 863.47363, 868, " y="289.07498, ">
				{{Series Name not set}}
		</text>
		<text fill="#1E1E1E" font-size="15" font-family="Segoe UI" x="721.95508, 726.48145, 731.00781, 738.97656, 746.8208, 752.03564, 755.66846, 763.5127, 769.87744, 773.98633, 785.20703, 792.83887, 805.75879, 813.60303, 817.71191, 826.20068, 834.98975, 840.07275, 844.18164, 850.54639, 858.39063, 863.47363, 868, " y="319.92499, ">
				{{Series Name not set}}
		</text>
	</g>
	<clipPath id="cl_11">
		<rect width="900" height="600"/>
	</clipPath>
	<g clip-path="url(#cl_11)">
		<ellipse fill="#F44336" cx="707.95508" cy="315.42499" rx="6" ry="6"/>
	</g>
	<clipPath id="cl_12">
		<rect width="900" height="600"/>
	</clipPath>
	<g clip-path="url(#cl_12)">
		<ellipse fill="none" stroke="#2196F3" stroke-width="3.5" stroke-miterlimit="0" cx="707.95508" cy="284.57498" rx="6" ry="6"/>
	</g>
</svg>
