<svg width="25" height="25" viewBox="0 0 25 25" fill="none" xmlns="http://www.w3.org/2000/svg">
  <g id="Icons/TrackChanges">
    <path id="Path" fill-rule="evenodd" clip-rule="evenodd" d="M7.12198 21.4286C6.14921 21.4239 5.36176 20.6244 5.35718 19.6368V4.46186C5.35718 3.47698 6.14356 2.67857 7.11362 2.67857H14.2397L19.6429 8.94556V19.6368C19.6383 20.6244 18.8509 21.4239 17.8781 21.4286H7.12198Z" fill="var(--Icons-Background-Item-Light, #fffffaff)" />
    <g id="Layer_1">
      <g id="InsertFootnote">
        <rect id="Rectangle" x="7.14282" y="10.7143" width="7.14286" height="0.892857" fill="#E31D43" />
        <rect id="Rectangle_2" x="7.14282" y="13.3929" width="7.14286" height="0.892857" fill="#E31D43" />
        <rect id="Rectangle_3" x="7.14282" y="16.0714" width="3.57143" height="0.892857" fill="#E31D43" />
      </g>
      <path id="Combined Shape" fill-rule="evenodd" clip-rule="evenodd" d="M21.626 12.3064C20.9294 11.6112 19.8098 11.5852 19.0817 12.2473L18.3915 12.8749L18.0912 13.148L18.0881 13.145L17.7417 13.4797L12.0105 19.0175L11.9378 19.0878L11.8981 19.1809L12.358 19.3771L11.898 19.1809L11.898 19.1811L11.8979 19.1813L11.8978 19.1815L11.897 19.1834L11.8967 19.1841L11.8964 19.1848L11.8957 19.1865L11.8939 19.1908L11.8816 19.2195L11.8726 19.2405L11.8618 19.2658L11.8351 19.3285L11.7628 19.4979L11.6691 19.7177L11.6561 19.7482L11.6528 19.7559L11.6495 19.7637L11.6462 19.7715L11.6428 19.7793L11.6155 19.8433L11.6015 19.8761L11.598 19.8844L11.5945 19.8927L11.5873 19.9095L11.5801 19.9263L11.5765 19.9348L11.5729 19.9433L11.5656 19.9605L11.5582 19.9777L11.5283 20.0478L11.5131 20.0835L11.5054 20.1015L11.5015 20.1106L11.4977 20.1197L11.4821 20.1562L11.4664 20.1931L11.4624 20.2023L11.4584 20.2116L11.4545 20.221L11.4505 20.2303L11.4425 20.2491L11.4385 20.2585L11.4344 20.2679L11.3691 20.4212L11.3608 20.4406L11.3525 20.4601L11.3357 20.4993L11.319 20.5387L11.3021 20.5782L11.2979 20.5881L11.2936 20.5981L11.2894 20.608L11.2852 20.6179L11.2682 20.6578L11.234 20.7378L11.2298 20.7478L11.2255 20.7579L11.2212 20.7679L11.2169 20.7779L11.2083 20.798L11.2041 20.8081L11.1998 20.8181L11.1826 20.8584L11.1654 20.8986L10.6618 22.0796L10.4958 22.4687L10.4493 22.5778L10.437 22.6065L10.4339 22.6139L10.4331 22.6157L10.4329 22.6162L10.4329 22.6163C10.4347 22.6141 10.5296 22.5011 10.6841 22.4071C10.6202 22.5627 10.4992 22.9856 10.8927 23.3125C10.9702 23.2892 11.0404 23.255 11.1014 23.2179C11.0859 23.2556 11.0738 23.2776 11.0732 23.2788L11.0733 23.2788L11.0737 23.2786L11.0756 23.2779L11.0829 23.2751L11.1112 23.2641L11.2189 23.2224L11.6033 23.0737L12.7696 22.6226L12.8093 22.6072L12.849 22.5918L12.859 22.588L12.8689 22.5841L12.8887 22.5765L12.9284 22.5611L13.0074 22.5306L13.086 22.5002L13.1639 22.47L13.2411 22.4402L13.3173 22.4107L13.3362 22.4034L13.355 22.3961L13.3925 22.3816L13.9358 22.1714L13.9433 22.1685L13.9507 22.1657L13.958 22.1628L13.9654 22.16L13.9942 22.1488L14.0013 22.1461L14.0084 22.1433L14.0154 22.1406L14.0224 22.1379L14.0294 22.1352L14.0363 22.1326L14.05 22.1273L14.0635 22.122L14.0701 22.1195L14.0768 22.1169L14.1029 22.1068L14.1283 22.097L14.1345 22.0946L14.1407 22.0922L14.1468 22.0898L14.1529 22.0875L14.1767 22.0782L14.1825 22.076L14.1883 22.0737L14.1998 22.0693L14.2434 22.0524L14.2836 22.0369L14.3023 22.0296L14.3114 22.0261L14.3202 22.0227L14.3371 22.0162L14.3412 22.0146L14.3452 22.013L14.3531 22.01L14.3681 22.0042L14.3821 21.9988L14.3855 21.9975L14.3887 21.9962L14.3951 21.9937L14.3982 21.9925L14.4012 21.9914L14.4071 21.9891L14.4279 21.9811L14.4563 21.9701L14.4635 21.9673L14.4654 21.9666L14.4658 21.9664L14.4659 21.9663L14.2856 21.5L14.466 21.9663L14.5617 21.9293L14.635 21.8576L20.4743 16.1523L20.7652 15.868L20.7684 15.871L20.8158 15.8186L20.8435 15.7916L20.8417 15.7899L21.112 15.4907L21.6919 14.8487C22.3509 14.1191 22.3219 13.0009 21.626 12.3064ZM19.7545 12.9872C20.0879 12.684 20.6006 12.6959 20.9196 13.0142C21.2383 13.3322 21.2515 13.8443 20.9498 14.1784L20.7134 14.4401L19.4625 13.2527L19.7545 12.9872ZM12.7549 19.7208L12.7782 19.6663L18.0902 14.5336L19.4063 15.7977L14.0095 21.0707L14.0073 21.0715L13.9923 21.0773L13.9763 21.0835L13.9594 21.0901L13.9228 21.1042L13.9131 21.108L13.9081 21.1099L13.9031 21.1119L13.893 21.1158L13.8878 21.1178L13.8826 21.1198L13.8773 21.1218L13.872 21.1239L13.8666 21.126L13.8612 21.1281L13.8502 21.1323L13.8446 21.1345L13.839 21.1367L13.8159 21.1456L13.7921 21.1548L13.6892 21.1946L13.6616 21.2053L13.6334 21.2162L13.6046 21.2273L13.5973 21.2302L13.5899 21.233L13.5751 21.2388L12.4088 21.6899L11.8175 21.9186L12.0853 21.2909L12.3543 20.6602L12.5889 20.11L12.6142 20.0509L12.6263 20.0223L12.6382 19.9945L12.6827 19.8903L12.7217 19.7986L12.7549 19.7208Z" fill="var(--Icons-Blue-Stroke, #226ecfff)" />
    </g>
    <path id="Path 2" d="M20.0933 11.1963V8.88266C20.0933 8.88266 14.7321 2.23215 14.7321 2.23215C14.7321 2.23215 9.77966 2.23215 6.90828 2.23215C5.80371 2.23215 4.91064 3.12758 4.91064 4.23215L4.91064 19.875C4.91064 20.9796 5.80608 21.875 6.91064 21.875H9.82136" stroke="var(--Icons-Stroke-Dark, #3d484fff)" />
    <path id="Path 23 Copy" d="M15.1863 21.89H18.2935C19.2876 21.89 20.0935 21.0841 20.0935 20.09V18.5484L20.1251 16.9643" stroke="var(--Icons-Stroke-Dark, #3d484fff)" />
    <path id="Path_2" d="M20.5356 8.92858L15.7751 8.92854C14.9703 8.93442 14.3085 8.31143 14.2856 7.52658V1.78572" fill="var(--Icons-Stroke-Dark, #3d484fff)" />
  </g>
</svg>