<?xml version="1.0" encoding="UTF-8" standalone="no"?>
<!-- Created with Inkscape (http://www.inkscape.org/) -->

<svg
   xmlns:dc="http://purl.org/dc/elements/1.1/"
   xmlns:cc="http://creativecommons.org/ns#"
   xmlns:rdf="http://www.w3.org/1999/02/22-rdf-syntax-ns#"
   xmlns:svg="http://www.w3.org/2000/svg"
   xmlns="http://www.w3.org/2000/svg"
   xmlns:sodipodi="http://sodipodi.sourceforge.net/DTD/sodipodi-0.dtd"
   xmlns:inkscape="http://www.inkscape.org/namespaces/inkscape"
   width="210mm"
   height="297mm"
   viewBox="0 0 744.09448819 1052.3622047"
   id="svg4154"
   version="1.1"
   inkscape:version="0.91 r13725"
   sodipodi:docname="crimson.svg">
  <defs
     id="defs4156" />
  <sodipodi:namedview
     id="base"
     pagecolor="#ffffff"
     bordercolor="#666666"
     borderopacity="1.0"
     inkscape:pageopacity="0.0"
     inkscape:pageshadow="2"
     inkscape:zoom="1.4"
     inkscape:cx="11.975677"
     inkscape:cy="858.42414"
     inkscape:document-units="px"
     inkscape:current-layer="layer1"
     showgrid="false"
     inkscape:window-width="2560"
     inkscape:window-height="1377"
     inkscape:window-x="1912"
     inkscape:window-y="-8"
     inkscape:window-maximized="1" />
  <metadata
     id="metadata4159">
    <rdf:RDF>
      <cc:Work
         rdf:about="">
        <dc:format>image/svg+xml</dc:format>
        <dc:type
           rdf:resource="http://purl.org/dc/dcmitype/StillImage" />
        <dc:title />
      </cc:Work>
    </rdf:RDF>
  </metadata>
  <g
     inkscape:label="Livello 1"
     inkscape:groupmode="layer"
     id="layer1">
    <text
       xml:space="preserve"
       style="font-style:normal;font-weight:normal;font-size:40px;line-height:125%;font-family:sans-serif;letter-spacing:0px;word-spacing:0px;fill:#000000;fill-opacity:1;stroke:none;stroke-width:1px;stroke-linecap:butt;stroke-linejoin:miter;stroke-opacity:1"
       x="97.14286"
       y="155.21935"
       id="text4702"
       sodipodi:linespacing="125%"><tspan
         sodipodi:role="line"
         id="tspan4704"
         x="97.14286"
         y="155.21935"
         style="-inkscape-font-specification:'Crimson Bold';font-family:Crimson;font-weight:bold;font-style:normal;font-stretch:normal;font-variant:normal">#[V1]#</tspan></text>
    <g
       style="font-style:normal;font-weight:normal;font-size:40px;line-height:125%;font-family:sans-serif;letter-spacing:0px;word-spacing:0px;fill:#000000;fill-opacity:1;stroke:none;stroke-width:1px;stroke-linecap:butt;stroke-linejoin:miter;stroke-opacity:1"
       id="text4702-8">
      <path
         d="M 113.70303,187.49055 Q 113.70303,187.49055 100.85147,187.49055 100.65616,187.41243 100.69522,186.86555 100.73428,186.27962 100.96866,185.61555 101.2421,184.95149 101.47647,184.87337 L 114.21085,184.87337 Q 114.44522,184.95149 114.40616,185.49837 114.40616,186.04524 114.17178,186.7093 113.93741,187.37337 113.70303,187.49055 Z M 112.60928,194.95149 99.757721,194.95149 Q 99.562408,194.87337 99.601471,194.32649 99.640533,193.74055 99.913971,193.07649 100.18741,192.41243 100.42178,192.3343 L 113.15616,192.3343 Q 113.39053,192.41243 113.35147,192.9593 113.35147,193.50618 113.07803,194.17024 112.84366,194.8343 112.60928,194.95149 Z M 112.57022,180.10774 109.48428,199.32649 Q 109.44522,199.48274 109.0546,199.67805 108.66397,199.8343 108.27335,199.8343 108.1171,199.8343 107.99991,199.79524 107.88272,199.75618 107.84366,199.71712 L 107.84366,199.67805 110.9296,180.49837 Q 111.08585,179.99055 112.06241,179.99055 112.37491,179.99055 112.57022,180.10774 Z M 106.28116,180.10774 103.15616,199.32649 Q 103.1171,199.48274 102.72647,199.67805 102.37491,199.8343 101.98428,199.8343 101.82803,199.8343 101.71085,199.79524 101.59366,199.75618 101.59366,199.71712 L 101.5546,199.67805 104.64053,180.49837 Q 104.79678,179.99055 105.77335,179.99055 106.12491,179.99055 106.28116,180.10774 Z"
         style="font-style:normal;font-variant:normal;font-weight:bold;font-stretch:normal;font-family:Crimson;-inkscape-font-specification:'Crimson Bold'"
         id="path4154" />
      <path
         d="M 120.03116,170.65462 Q 124.83585,170.65462 128.03897,170.02962 128.27335,170.02962 128.27335,170.38118 128.27335,170.73274 128.1171,171.04524 127.96085,171.35774 127.88272,171.3968 127.37491,171.67024 126.5546,171.86555 125.73428,172.06087 124.71866,172.25618 123.70303,172.41243 123.46866,172.45149 L 123.46866,203.70149 Q 123.70303,203.74055 124.71866,203.8968 125.73428,204.09212 126.5546,204.28743 127.37491,204.48274 127.88272,204.75618 127.96085,204.79524 128.1171,205.10774 128.27335,205.42024 128.27335,205.7718 128.27335,206.12337 128.03897,206.12337 124.83585,205.49837 120.03116,205.49837 119.28897,205.4593 119.28897,204.59993 L 119.28897,171.55305 Q 119.28897,170.69368 120.03116,170.65462 Z"
         style="font-style:normal;font-variant:normal;font-weight:bold;font-stretch:normal;font-family:Crimson;-inkscape-font-specification:'Crimson Bold'"
         id="path4156" />
      <path
         d="M 132.99991,175.1468 Q 135.85147,175.1468 138.50772,174.87337 138.62491,175.06868 138.62491,175.61555 138.66397,176.12337 138.50772,176.31868 136.12491,176.51399 136.12491,177.37337 136.12491,178.11555 137.06241,180.30305 L 142.88272,193.46712 Q 147.64835,181.47493 148.03897,180.38118 148.89835,177.88118 148.89835,177.25618 148.89835,176.55305 145.77335,176.31868 145.6171,176.12337 145.6171,175.61555 145.65616,175.06868 145.77335,174.87337 148.97647,175.1468 150.42178,175.1468 151.39835,175.1468 152.84366,175.02962 154.28897,174.91243 154.79678,174.87337 154.91397,175.06868 154.91397,175.61555 154.95303,176.12337 154.79678,176.31868 152.45303,176.51399 152.06241,177.0218 151.5546,177.72493 150.46085,180.26399 148.62491,184.75618 146.00772,190.96712 143.39053,197.13899 142.37491,199.56087 142.14053,200.06868 141.47647,200.61555 140.85147,201.16243 140.49991,201.16243 140.34366,201.16243 140.26553,201.0843 140.18741,201.04524 140.07022,200.84993 139.9921,200.69368 139.95303,200.61555 L 131.43741,180.81087 Q 130.57803,178.77962 130.07022,177.60774 129.56241,176.47493 127.41397,176.31868 127.25772,176.12337 127.29678,175.61555 127.29678,175.06868 127.41397,174.87337 130.07022,175.1468 132.99991,175.1468 Z"
         style="font-style:normal;font-variant:normal;font-weight:bold;font-stretch:normal;font-family:Crimson;-inkscape-font-specification:'Crimson Bold'"
         id="path4158" />
      <path
         d="M 161.51553,195.06868 161.51553,181.90462 Q 161.51553,180.65462 161.35928,180.26399 161.20303,179.8343 160.69522,179.8343 160.38272,179.8343 159.40616,180.1468 158.46866,180.42024 157.88272,180.73274 157.37491,180.4593 157.37491,179.99055 157.37491,179.56087 157.45303,179.5218 159.3671,178.70149 161.63272,177.72493 163.93741,176.7093 165.14835,176.16243 166.35928,175.61555 166.39835,175.61555 L 166.47647,175.61555 Q 166.82803,175.61555 166.94522,176.35774 166.59366,177.49055 166.59366,180.02962 L 166.59366,195.06868 Q 166.59366,197.9593 166.90616,198.74055 167.14053,199.24837 169.40616,199.44368 169.56241,199.63899 169.56241,200.18587 169.56241,200.69368 169.40616,200.88899 166.74991,200.61555 164.0546,200.61555 161.39835,200.61555 158.70303,200.88899 158.58585,200.69368 158.58585,200.18587 158.58585,199.63899 158.70303,199.44368 161.00772,199.24837 161.20303,198.74055 161.51553,197.9593 161.51553,195.06868 Z"
         style="font-style:normal;font-variant:normal;font-weight:bold;font-stretch:normal;font-family:Crimson;-inkscape-font-specification:'Crimson Bold'"
         id="path4160" />
      <path
         d="M 181.47647,170.65462 Q 182.21866,170.69368 182.21866,171.55305 L 182.21866,204.59993 Q 182.21866,205.4593 181.47647,205.49837 176.67178,205.49837 173.46866,206.12337 173.23428,206.12337 173.23428,205.7718 173.23428,205.42024 173.39053,205.10774 173.54678,204.79524 173.62491,204.75618 174.13272,204.48274 174.95303,204.28743 175.77335,204.09212 176.78897,203.8968 177.8046,203.74055 178.03897,203.70149 L 178.03897,172.45149 Q 177.8046,172.41243 176.78897,172.25618 175.77335,172.06087 174.95303,171.86555 174.13272,171.67024 173.62491,171.3968 173.54678,171.35774 173.39053,171.04524 173.23428,170.73274 173.23428,170.38118 173.23428,170.02962 173.46866,170.02962 176.67178,170.65462 181.47647,170.65462 Z"
         style="font-style:normal;font-variant:normal;font-weight:bold;font-stretch:normal;font-family:Crimson;-inkscape-font-specification:'Crimson Bold'"
         id="path4162" />
      <path
         d="M 201.12491,187.49055 Q 201.12491,187.49055 188.27335,187.49055 188.07803,187.41243 188.1171,186.86555 188.15616,186.27962 188.39053,185.61555 188.66397,184.95149 188.89835,184.87337 L 201.63272,184.87337 Q 201.8671,184.95149 201.82803,185.49837 201.82803,186.04524 201.59366,186.7093 201.35928,187.37337 201.12491,187.49055 Z M 200.03116,194.95149 187.1796,194.95149 Q 186.98428,194.87337 187.02335,194.32649 187.06241,193.74055 187.33585,193.07649 187.60928,192.41243 187.84366,192.3343 L 200.57803,192.3343 Q 200.81241,192.41243 200.77335,192.9593 200.77335,193.50618 200.49991,194.17024 200.26553,194.8343 200.03116,194.95149 Z M 199.9921,180.10774 196.90616,199.32649 Q 196.8671,199.48274 196.47647,199.67805 196.08585,199.8343 195.69522,199.8343 195.53897,199.8343 195.42178,199.79524 195.3046,199.75618 195.26553,199.71712 L 195.26553,199.67805 198.35147,180.49837 Q 198.50772,179.99055 199.48428,179.99055 199.79678,179.99055 199.9921,180.10774 Z M 193.70303,180.10774 190.57803,199.32649 Q 190.53897,199.48274 190.14835,199.67805 189.79678,199.8343 189.40616,199.8343 189.24991,199.8343 189.13272,199.79524 189.01553,199.75618 189.01553,199.71712 L 188.97647,199.67805 192.06241,180.49837 Q 192.21866,179.99055 193.19522,179.99055 193.54678,179.99055 193.70303,180.10774 Z"
         style="font-style:normal;font-variant:normal;font-weight:bold;font-stretch:normal;font-family:Crimson;-inkscape-font-specification:'Crimson Bold'"
         id="path4164" />
    </g>
  </g>
</svg>
