<?xml version="1.0" encoding="utf-8"?>
<!DOCTYPE svg PUBLIC "-//W3C//DTD SVG 1.1//EN" "http://www.w3.org/Graphics/SVG/1.1/DTD/svg11.dtd">
<svg xmlns="http://www.w3.org/2000/svg" xmlns:xlink="http://www.w3.org/1999/xlink" version="1.1" baseProfile="full" width="1200" height="1200" viewBox="0 0 1200.00 1200.00" enable-background="new 0 0 1200.00 1200.00" xml:space="preserve">
	<radialGradient id="SVGID_Fill1_" cx="600" cy="599.999" r="623.078" gradientUnits="userSpaceOnUse">
		<stop offset="0" stop-color="#90FFFF" stop-opacity="1"/>
		<stop offset="1" stop-color="#6AF2FC" stop-opacity="1"/>
	</radialGradient>
	<rect x="-23.0769" y="-23.0785" fill="url(#SVGID_Fill1_)" fill-rule="evenodd" stroke-width="0.2" stroke-linejoin="round" width="1246.15" height="1246.16"/>
	<radialGradient id="SVGID_Fill2_" cx="600" cy="600" r="900.615" gradientUnits="userSpaceOnUse">
		<stop offset="0" stop-color="#FFFFFF" stop-opacity="1"/>
		<stop offset="1" stop-color="#81FFFF" stop-opacity="1"/>
	</radialGradient>
	<path fill="url(#SVGID_Fill2_)" fill-rule="evenodd" stroke-width="0.2" stroke-linejoin="round" d="M 1498.09,658.801C 1500.61,619.08 1500.61,579.719 1498.21,541.079L 601.44,599.88L 601.44,599.64L 1482.85,424.317C 1475.29,385.436 1465.09,347.516 1452.49,310.675L 601.32,599.52L 601.32,599.4L 1407.25,201.833C 1389.85,166.673 1370.05,132.592 1348.33,100.072L 601.2,599.28C 601.2,599.28 601.2,599.04 601.08,599.04L 1276.69,6.58997C 1250.65,-22.9305 1222.93,-50.7711 1193.41,-76.6914L 600.84,598.92C 600.84,598.92 600.72,598.92 600.72,598.8L 1100.05,-148.573C 1067.53,-170.293 1033.45,-189.973 998.046,-207.494L 600.6,598.68L 600.48,598.68L 889.325,-252.494C 852.484,-264.974 814.443,-275.175 775.683,-282.735L 600.24,598.44L 600.12,598.44L 658.921,-298.095C 619.2,-300.615 579.84,-300.615 541.199,-298.215L 599.88,598.44L 599.64,598.44L 424.317,-282.975C 385.436,-275.295 347.516,-265.095 310.675,-252.494L 599.52,598.68L 599.4,598.68L 201.833,-207.374C 166.673,-189.973 132.592,-170.173 100.072,-148.333L 599.28,598.8C 599.28,598.8 599.04,598.8 599.04,598.92L 6.59003,-76.6914C -22.9304,-50.891 -50.7709,-22.9305 -76.6913,6.58997L 598.92,599.04C 598.92,599.04 598.92,599.28 598.8,599.28L -148.573,99.8314C -170.293,132.472 -189.973,166.433 -207.494,201.833L 598.68,599.4L 598.68,599.52L -252.494,310.675C -264.974,347.516 -275.175,385.436 -282.735,424.317L 598.44,599.64L 598.44,599.88L -298.095,541.079C -300.615,580.799 -300.615,620.04 -298.215,658.801L 598.44,600.12L 598.44,600.24L -282.975,775.683C -275.295,814.443 -265.094,852.484 -252.494,889.325L 598.68,600.48L 598.68,600.6L -207.374,998.046C -189.973,1033.33 -170.173,1067.41 -148.333,1099.93L 598.8,600.72C 598.8,600.72 598.8,600.84 598.92,600.84L -76.6913,1193.41C -50.7709,1222.93 -22.9304,1250.65 6.59003,1276.69L 599.04,601.08C 599.04,601.08 599.28,601.08 599.28,601.2L 99.8316,1348.45C 132.472,1370.29 166.433,1389.85 201.833,1407.49L 599.4,601.32L 599.52,601.32L 310.675,1452.49C 347.516,1464.85 385.436,1475.05 424.317,1482.73L 599.64,601.44L 599.88,601.44L 541.079,1498.09C 580.799,1500.61 620.04,1500.61 658.801,1498.21L 600.12,601.44L 600.24,601.44L 775.683,1482.85C 814.443,1475.29 852.484,1465.09 889.325,1452.49L 600.48,601.32L 600.6,601.32L 998.046,1407.25C 1033.33,1389.85 1067.41,1370.05 1099.93,1348.33L 600.72,601.2C 600.72,601.2 600.84,601.2 600.84,601.08L 1193.41,1276.69C 1222.93,1250.65 1250.65,1222.93 1276.69,1193.41L 601.08,600.84C 601.08,600.84 601.08,600.72 601.2,600.72L 1348.45,1100.05C 1370.29,1067.53 1389.85,1033.45 1407.49,998.046L 601.32,600.6L 601.32,600.48L 1452.49,889.325C 1464.85,852.484 1475.05,814.443 1482.73,775.683L 601.44,600.24L 601.44,600.12L 1498.09,658.801 Z "/>
	<radialGradient id="SVGID_Fill3_" cx="600" cy="600" r="562.503" gradientUnits="userSpaceOnUse">
		<stop offset="0.187608" stop-color="#FFFFFF" stop-opacity="1"/>
		<stop offset="0.783132" stop-color="#7FFFFF" stop-opacity="0.501961"/>
		<stop offset="1" stop-color="#00FFFF" stop-opacity="0"/>
	</radialGradient>
	<ellipse fill="url(#SVGID_Fill3_)" fill-rule="evenodd" stroke-width="0.2" stroke-linejoin="round" cx="600" cy="600" rx="562.5" ry="562.503"/>
</svg>
