<svg xmlns="http://www.w3.org/2000/svg" width="16" height="16"><style type="text/css">.icon-canvas-transparent{opacity:0;fill:#F6F6F6;} .icon-vs-out{fill:#F6F6F6;} .icon-vs-bg{fill:#424242;} .icon-vs-fg{fill:#F0EFF1;}</style><path class="icon-canvas-transparent" d="M16 16h-16v-16h16v16z" id="canvas"/><path class="icon-vs-out" d="M16 8c0 .312-.021.618-.057.92l-.07.62-2.235.795 1.017 2.139-.386.488c-.381.482-.82.922-1.305 1.306l-.488.388-2.14-1.019-.794 2.233-.618.072c-.303.037-.611.058-.924.058-.311 0-.617-.021-.919-.057l-.62-.07-.795-2.235-2.141 1.018-.488-.388c-.483-.383-.922-.821-1.305-1.305l-.387-.488 1.017-2.14-2.235-.795-.071-.62c-.034-.302-.056-.608-.056-.92s.022-.618.056-.92l.071-.62 2.235-.795-1.017-2.14.387-.488c.384-.484.823-.923 1.305-1.305l.488-.386 2.141 1.018.794-2.236.62-.071c.303-.035.609-.057.92-.057.313 0 .619.022.923.057l.618.071.794 2.234 2.141-1.017.488.386c.482.382.922.822 1.305 1.306l.386.488-1.017 2.139 2.235.795.07.62c.036.303.057.609.057.921z" id="outline"/><path class="icon-vs-bg" d="M12.714 9.603c-.07.207-.15.407-.246.601l1.017 2.139c-.335.424-.718.807-1.142 1.143l-2.14-1.018c-.193.097-.394.176-.601.247l-.795 2.235c-.265.031-.534.05-.807.05-.272 0-.541-.019-.806-.05l-.795-2.235c-.207-.071-.408-.15-.602-.247l-2.14 1.017c-.424-.336-.807-.719-1.143-1.143l1.017-2.139c-.094-.193-.175-.393-.245-.6l-2.236-.796c-.03-.265-.05-.534-.05-.807s.02-.542.05-.807l2.236-.795c.07-.207.15-.407.246-.601l-1.016-2.139c.336-.423.719-.807 1.143-1.142l2.14 1.017c.193-.096.394-.176.602-.247l.793-2.236c.265-.03.534-.05.806-.05.273 0 .542.02.808.05l.795 2.236c.207.07.407.15.601.246l2.14-1.017c.424.335.807.719 1.142 1.142l-1.017 2.139c.096.194.176.394.246.601l2.236.795c.03.266.049.535.049.808s-.019.542-.05.807l-2.236.796zm-4.714-4.603c-1.657 0-3 1.343-3 3s1.343 3 3 3 3-1.343 3-3-1.343-3-3-3zm0 1.5c-.829 0-1.5.672-1.5 1.5s.671 1.5 1.5 1.5 1.5-.672 1.5-1.5-.671-1.5-1.5-1.5z" id="iconBg"/><path class="icon-vs-fg" d="M8 5c-1.657 0-3 1.343-3 3 0 1.656 1.343 3 3 3s3-1.344 3-3c0-1.657-1.343-3-3-3zm0 4.5c-.828 0-1.5-.672-1.5-1.5s.672-1.5 1.5-1.5 1.5.672 1.5 1.5-.672 1.5-1.5 1.5z" id="iconFg"/></svg>