<svg xmlns="http://www.w3.org/2000/svg" viewBox="0 0 16 16"><style>.icon-canvas-transparent{opacity:0;fill:#f6f6f6}.icon-vs-out{fill:#f6f6f6}.icon-vs-bg{fill:#424242}.icon-vs-fg{fill:#f0eff1}</style><path class="icon-canvas-transparent" d="M16 16H0V0h16v16z" id="canvas"/><path class="icon-vs-out" d="M16 8A8 8 0 1 1 0 8a8 8 0 0 1 16 0z" id="outline"/><path class="icon-vs-fg" d="M10.969 6.338a12.478 12.478 0 0 0 2.316-.604c.299.696.465 1.461.465 2.266 0 .126-.011.25-.019.374-1.038.452-1.972.722-2.848.863a9.32 9.32 0 0 0 .161-1.743 11.3 11.3 0 0 0-.075-1.156zM9.881 2.571c.366.766.703 1.653.917 2.685.617-.096 1.265-.26 1.951-.496a5.757 5.757 0 0 0-2.868-2.189zM8.099 13.745c.594-1.183 1.047-2.269 1.353-3.26-.354.017-.706.027-1.054.027-.135 0-.269 0-.403-.002-.56-.006-1.103-.04-1.626-.092.24 1.081.625 2.19 1.128 3.306.165.015.333.026.503.026.033 0 .065-.004.099-.005zM9.7 9.375c.141-.667.261-1.292.255-1.869a10.395 10.395 0 0 0-.07-1.047c-.505.039-.997.055-1.485.055-.135 0-.265-.002-.4-.003a18.67 18.67 0 0 1-1.888-.12c-.036.359-.063.728-.067 1.115-.006.583-.029 1.135.055 1.744.59.069 1.264.164 1.9.171.582.003 1.116-.005 1.7-.046zM7.268 2.302c-.383.794-.834 1.793-1.068 3.009.559.062 1.2.103 1.8.11.57.005 1.129 0 1.7-.039a10.862 10.862 0 0 0-1.212-3.108A6.04 6.04 0 0 0 8 2.25c-.249 0-.492.021-.732.052zM3.282 4.718c.578.163 1.211.315 1.903.435a13.13 13.13 0 0 1 .732-2.508 5.768 5.768 0 0 0-2.635 2.073zM2.271 8.403c.777.264 1.707.532 2.783.728a12.87 12.87 0 0 1-.099-1.637c.005-.437.035-.852.077-1.258a20.105 20.105 0 0 1-2.3-.539A5.744 5.744 0 0 0 2.25 8c0 .137.011.27.021.403zm3.941 5.06a17.442 17.442 0 0 1-.981-3.193 20.425 20.425 0 0 1-2.744-.644 5.758 5.758 0 0 0 3.725 3.837zm7.296-3.816a12.737 12.737 0 0 1-2.886.734c-.271.979-.692 2.047-1.238 3.193a5.75 5.75 0 0 0 4.124-3.927z" id="iconFg"/><g id="iconBg"><path class="icon-vs-bg" d="M15 8c0-.08-.01-.157-.012-.236C14.862 4.008 11.786 1 8 1a7 7 0 0 0-7 7 6.692 6.692 0 0 0 .1 1.136l.002.018a6.995 6.995 0 0 0 5.75 5.745l.021.003A7.065 7.065 0 0 0 8 15a7 7 0 0 0 7-7zm-4.031-1.662a12.478 12.478 0 0 0 2.316-.604c.299.696.465 1.461.465 2.266 0 .126-.011.25-.019.374-1.038.452-1.972.722-2.848.863a9.32 9.32 0 0 0 .161-1.743 11.3 11.3 0 0 0-.075-1.156zm1.78-1.578c-.686.236-1.334.4-1.951.496a11.703 11.703 0 0 0-.917-2.685 5.757 5.757 0 0 1 2.868 2.189zM8 13.75c-.17 0-.338-.011-.504-.025-.503-1.116-.888-2.225-1.128-3.306a18.417 18.417 0 0 0 2.029.094c.348 0 .699-.01 1.054-.027-.306.991-.759 2.077-1.353 3.26-.033 0-.065.004-.098.004zm.006-4.329a17.427 17.427 0 0 1-1.838-.123 12.244 12.244 0 0 1-.123-1.792c.004-.387.031-.756.067-1.115.603.068 1.23.113 1.882.12l.403.003c.488 0 .982-.016 1.487-.055.038.34.066.686.07 1.047a8.673 8.673 0 0 1-.209 1.869c-.583.041-1.157.049-1.739.046zM8 2.25c.165 0 .327.011.488.024.468.812.944 1.846 1.221 3.108-.571.039-1.133.044-1.703.039-.6-.007-1.181-.048-1.739-.11a12.133 12.133 0 0 1 1.001-3.009c.24-.031.483-.052.732-.052zm-2.083.395c-.29.723-.556 1.554-.732 2.508a18.852 18.852 0 0 1-1.903-.435 5.768 5.768 0 0 1 2.635-2.073zM2.25 8c0-.819.174-1.597.482-2.303.686.202 1.448.394 2.3.539-.042.406-.072.821-.077 1.258a12.87 12.87 0 0 0 .099 1.637 19.297 19.297 0 0 1-2.783-.728C2.261 8.27 2.25 8.137 2.25 8zm.236 1.625c.798.244 1.712.479 2.744.644.206 1.047.542 2.116.981 3.193a5.758 5.758 0 0 1-3.725-3.837zm6.898 3.95c.546-1.146.967-2.215 1.238-3.193a12.79 12.79 0 0 0 2.886-.734 5.753 5.753 0 0 1-4.124 3.927z"/></g></svg>