<svg height="2048" version="1.1" width="2896" xmlns="http://www.w3.org/2000/svg" id="temp" viewBox="214.99461364746094 0.0348576121032238 936.0107421875 661.9303588867188" xmlns:xlink="http://www.w3.org/1999/xlink"><defs></defs><g><g transform="matrix(0.4038,0,0,0.4038,283.5496,-12.9194)"><g><rect x="-169.77458120002763" y="32.080873498535155" width="2318.0059800270083" height="1639.2528477539063" rx="0" ry="0" fill="#ffffff" style="fill-opacity: 1;"></rect></g><g><g><g><g fill="#ffffff" stroke="#000000" style="fill-opacity: 1; stroke-opacity: 1; stroke-width: 1; pointer-events: none;"><polygon points="1170.36,169.06 1170.36,169.06 1444.31,169.06 1444.31,85.77 1170.36,85.77 1170.36,169.06 "></polygon><g transform="matrix(1,0,0,1,1170.3618,85.7687)"><g transform="matrix(1,0,0,1,136.9722,41.6479)"></g></g></g><g fill="#ffffff" stroke="#ffffff" style="fill-opacity: 1; stroke-opacity: 1; stroke-width: 1; pointer-events: none;"><polygon points="767.07,983.01 653.24,983.01 653.24,1038.40 548.49,1038.40 548.49,664.54 767.07,664.54 "></polygon><g transform="matrix(1,0,0,1,548.4887,664.542)"><g transform="matrix(1,0,0,1,109.2911,186.9275)"></g></g></g><g fill="#ffffff" stroke="#ffffff" style="fill-opacity: 1; stroke-opacity: 1; stroke-width: 1; pointer-events: none;"><polygon points="1080.52,880.80 1281.19,880.80 1281.19,983.01 767.07,983.01 767.07,664.54 1080.52,664.54 "></polygon><g transform="matrix(1,0,0,1,767.0709,664.542)"><g transform="matrix(1,0,0,1,257.0618,159.2354)"></g></g></g><g fill="#ffffff" stroke="#ffffff" style="fill-opacity: 1; stroke-opacity: 1; stroke-width: 1; pointer-events: none;"><polygon points="1651.53,188.04 1691.09,188.04 1691.09,622.50 1170.36,622.50 1170.36,184.06 1459.31,184.06 1459.31,144.70 1651.53,144.70 "></polygon><g transform="matrix(1,0,0,1,1170.3618,144.7047)"><g transform="matrix(1,0,0,1,260.3634,238.8979)"></g></g></g><g fill="#ffffff" stroke="#ffffff" style="fill-opacity: 1; stroke-opacity: 1; stroke-width: 1; pointer-events: none;"><polygon points="1821.84,980.56 1708.43,980.56 1708.43,918.96 1691.63,918.96 1691.63,980.56 1599.60,980.56 1599.61,787.21 1294.85,787.21 1294.85,635.19 1821.84,635.19 "></polygon><g transform="matrix(1,0,0,1,1294.8525,635.1881)"><g transform="matrix(1,0,0,1,263.4918,172.6876)"></g></g></g><g fill="#ffffff" stroke="#ffffff" style="fill-opacity: 1; stroke-opacity: 1; stroke-width: 1; pointer-events: none;"><polygon points="419.60,996.03 434.60,996.03 434.60,924.89 539.96,924.89 539.96,1333.96 445.34,1333.96 445.34,1380.74 252.43,1380.74 252.43,1334.63 156.62,1334.63 156.62,996.56 321.95,996.56 321.95,924.89 419.60,924.89 "></polygon><g transform="matrix(1,0,0,1,156.6169,924.8852)"><g transform="matrix(1,0,0,1,191.6695,227.9253)"></g></g></g><g fill="#ffffff" stroke="#ffffff" style="fill-opacity: 1; stroke-opacity: 1; stroke-width: 1; pointer-events: none;"><polygon points="1160.09,1165.22 1215.40,1165.22 1215.40,1255.15 1164.18,1255.15 1164.18,1327.90 1068.00,1327.90 1068.00,1377.28 877.00,1377.28 877.00,1329.82 782.74,1329.82 782.74,994.28 1160.09,994.28 "></polygon><g transform="matrix(1,0,0,1,782.7407,994.2773)"><g transform="matrix(1,0,0,1,216.3291,191.4989)"></g></g></g><g fill="#ffffff" stroke="#ffffff" style="fill-opacity: 1; stroke-opacity: 1; stroke-width: 1; pointer-events: none;"><polygon points="306.95,981.56 156.62,981.56 156.62,664.54 306.95,664.54 "></polygon><g transform="matrix(1,0,0,1,156.6169,664.542)"><g transform="matrix(1,0,0,1,75.1679,158.5097)"></g></g></g><g fill="#ffffff" stroke="#ffffff" style="fill-opacity: 1; stroke-opacity: 1; stroke-width: 1; pointer-events: none;"><polygon points="1383.70,1255.15 1230.40,1255.15 1230.40,1150.22 1171.38,1150.22 1171.38,994.28 1383.70,994.28 "></polygon><g transform="matrix(1,0,0,1,1171.3774,994.2773)"><g transform="matrix(1,0,0,1,106.1615,130.4386)"></g></g></g><g fill="#ffffff" stroke="#ffffff" style="fill-opacity: 1; stroke-opacity: 1; stroke-width: 1; pointer-events: none;"><polygon points="539.96,909.89 320.91,909.89 320.91,664.54 539.96,664.54 "></polygon><g transform="matrix(1,0,0,1,320.9144,664.542)"><g transform="matrix(1,0,0,1,109.5208,122.6716)"></g></g></g><g fill="#ffffff" stroke="#ffffff" style="fill-opacity: 1; stroke-opacity: 1; stroke-width: 1; pointer-events: none;"><polygon points="1279.85,868.36 1095.52,868.36 1095.52,664.54 1170.36,664.54 1170.36,635.19 1279.85,635.19 "></polygon><g transform="matrix(1,0,0,1,1095.5174,635.1881)"><g transform="matrix(1,0,0,1,92.1675,116.587)"></g></g></g><g fill="#ffffff" stroke="#ffffff" style="fill-opacity: 1; stroke-opacity: 1; stroke-width: 1; pointer-events: none;"><polygon points="1489.56,964.28 1383.70,964.28 1383.70,964.33 1294.85,964.33 1294.85,802.21 1489.56,802.21 "></polygon><g transform="matrix(1,0,0,1,1294.8525,802.2065)"><g transform="matrix(1,0,0,1,97.3525,81.0594)"></g></g></g><g fill="#ffffff" stroke="#ffffff" style="fill-opacity: 1; stroke-opacity: 1; stroke-width: 1; pointer-events: none;"><polygon points="653.24,1250.23 548.49,1250.23 548.49,1053.40 653.24,1053.40 "></polygon><g transform="matrix(1,0,0,1,548.4887,1053.397)"><g transform="matrix(1,0,0,1,52.378,98.4143)"></g></g></g><g fill="#ffffff" stroke="#ffffff" style="fill-opacity: 1; stroke-opacity: 1; stroke-width: 1; pointer-events: none;"><polygon points="767.74,1250.23 668.24,1250.23 668.24,1053.40 767.74,1053.40 "></polygon><g transform="matrix(1,0,0,1,668.2447,1053.397)"><g transform="matrix(1,0,0,1,49.748,98.4143)"></g></g></g><g fill="#ffffff" stroke="#ffffff" style="fill-opacity: 1; stroke-opacity: 1; stroke-width: 1; pointer-events: none;"><polygon points="1587.36,964.28 1504.56,964.28 1504.56,802.21 1587.36,802.21 "></polygon><g transform="matrix(1,0,0,1,1504.5575,802.2065)"><g transform="matrix(1,0,0,1,41.4005,81.0354)"></g></g></g><g fill="#ffffff" stroke="#ffffff" style="fill-opacity: 1; stroke-opacity: 1; stroke-width: 1; pointer-events: none;"><polygon points="767.74,1038.40 668.24,1038.40 668.24,998.01 767.74,998.01 "></polygon><g transform="matrix(1,0,0,1,668.2447,998.0127)"><g transform="matrix(1,0,0,1,49.748,20.1922)"></g></g></g></g><g fill="#ffffff" stroke="#000000" style="fill-opacity: 1; stroke-opacity: 1; pointer-events: none;"><g><polygon points="781.63,765.49 972.93,765.49 972.93,664.29 781.63,664.29 "></polygon><g><line x1="781.6279381225996" x2="781.6279381225996" y1="765.4888709837636" y2="664.2857053097293"></line><line x1="805.5406306161517" x2="805.5406306161517" y1="765.4888709837636" y2="664.2857053097293"></line><line x1="829.4533231097037" x2="829.4533231097037" y1="765.4888709837636" y2="664.2857053097293"></line><line x1="853.3660156032557" x2="853.3660156032557" y1="765.4888709837636" y2="664.2857053097293"></line><line x1="877.2787080968078" x2="877.2787080968078" y1="765.4888709837636" y2="664.2857053097293"></line><line x1="901.1914005903598" x2="901.1914005903598" y1="765.4888709837636" y2="664.2857053097293"></line><line x1="925.1040930839118" x2="925.1040930839118" y1="765.4888709837636" y2="664.2857053097293"></line><line x1="949.0167855774639" x2="949.0167855774639" y1="765.4888709837636" y2="664.2857053097293"></line><line x1="972.9294780710159" x2="972.9294780710159" y1="765.4888709837636" y2="664.2857053097293"></line></g><g><path fill="none" stroke="#d3d3d3" d="M781.63,714.89 L972.93,714.89 " style="pointer-events: none; stroke-width: 1; marker-end: url(&quot;#Marker2&quot;);"></path><defs><marker viewBox="0 0 12 12" markerWidth="12" markerHeight="12" orient="auto" refX="11" refY="6" id="Marker2" fill="#d3d3d3" stroke="#d3d3d3" style="pointer-events: none;"><polygon points="0.00,0.00 0.00,12.00 10.00,6.00 0.00,0.00 "></polygon></marker></defs></g></g></g><g fill="#ffffff" stroke="#000000" style="fill-opacity: 1; stroke-opacity: 1; pointer-events: none;"><g><polygon points="972.99,776.86 781.55,776.86 781.55,862.78 972.99,862.78 "></polygon><g><line x1="972.9889288934653" x2="972.9889288934653" y1="776.8556394844292" y2="862.7756550195145"></line><line x1="949.0596024030716" x2="949.0596024030716" y1="776.8556394844292" y2="862.7756550195145"></line><line x1="925.1302759126779" x2="925.1302759126779" y1="776.8556394844292" y2="862.7756550195145"></line><line x1="901.2009494222842" x2="901.2009494222842" y1="776.8556394844292" y2="862.7756550195145"></line><line x1="877.2716229318905" x2="877.2716229318905" y1="776.8556394844292" y2="862.7756550195145"></line><line x1="853.3422964414968" x2="853.3422964414968" y1="776.8556394844292" y2="862.7756550195145"></line><line x1="829.4129699511032" x2="829.4129699511032" y1="776.8556394844292" y2="862.7756550195145"></line><line x1="805.4836434607095" x2="805.4836434607095" y1="776.8556394844292" y2="862.7756550195145"></line><line x1="781.5543169703158" x2="781.5543169703158" y1="776.8556394844292" y2="862.7756550195145"></line></g><g><path fill="none" stroke="#d3d3d3" d="M972.99,819.82 L781.55,819.82 " style="pointer-events: none; stroke-width: 1; marker-end: url(&quot;#Marker4&quot;);"></path><defs><marker viewBox="0 0 12 12" markerWidth="12" markerHeight="12" orient="auto" refX="11" refY="6" id="Marker4" fill="#d3d3d3" stroke="#d3d3d3" style="pointer-events: none;"><polygon points="0.00,0.00 0.00,12.00 10.00,6.00 0.00,0.00 "></polygon></marker></defs></g></g></g><g fill="#ffffff" stroke="#000000" style="fill-opacity: 1; stroke-opacity: 1; stroke-width: 0.8; pointer-events: none;"><polygon points="1444.31,129.70 1444.31,85.77 1459.31,70.77 1459.31,129.70 " style="stroke-dasharray: 43.936, 21.2132, 73.936;"></polygon></g><g fill="#ffffff" stroke="#000000" style="fill-opacity: 1; stroke-opacity: 1; stroke-width: 0.8; pointer-events: none;"><polygon points="1444.31,85.77 1170.36,85.77 1155.36,70.77 1459.31,70.77 " style="stroke-dasharray: 273.944, 21.2132, 303.944, 21.2132;"></polygon></g><g fill="#ffffff" stroke="#000000" style="fill-opacity: 1; stroke-opacity: 1; stroke-width: 0.8; pointer-events: none;"><polygon points="1155.36,70.77 1155.36,169.06 1170.36,169.06 1170.36,85.77 " style="stroke-dasharray: 196.592, 21.2132;"></polygon></g><g fill="#ffffff" stroke="#000000" style="fill-opacity: 1; stroke-opacity: 1; stroke-width: 0.8; pointer-events: none;"><polygon points="1080.52,876.95 767.07,876.95 767.07,861.95 1080.52,861.95 "></polygon></g><g fill="#ffffff" stroke="#000000" style="fill-opacity: 1; stroke-opacity: 1; stroke-width: 0.8; pointer-events: none;"><polygon points="781.63,664.54 781.63,765.49 766.63,775.67 766.63,664.54 " style="stroke-dasharray: 100.947, 18.1279, 126.126;"></polygon></g><g fill="#ffffff" stroke="#000000" style="fill-opacity: 1; stroke-opacity: 1; stroke-width: 0.8; pointer-events: none;"><polygon points="781.63,765.49 985.15,765.49 985.15,775.67 766.63,775.67 " style="stroke-dasharray: 432.219, 18.1279;"></polygon></g><g transform="matrix(-1,0,0,-1,1690.8016,980.4852)" fill="#ffffff" stroke="#fc0fc0" style="fill-opacity: 0.4; stroke-opacity: 0.9; stroke-width: 1.5; pointer-events: none;"><g fill="#ffffff" stroke="#000000" transform="matrix(1,0,0,1,0,0)" style="fill-opacity: 1; stroke-opacity: 1; stroke-width: 1;">
        <g>
            <polygon points="0.00,0.00 45.60,0.00 45.60,49.19 0.00,49.19 "></polygon>
        </g>
         
        
        <desc>Width:60 Height:200 Depth:60 Elevation:0</desc>
    </g><g fill="#ffffff" stroke="#000000" transform="matrix(1,0,0,1,45.5958,0)" style="fill-opacity: 1; stroke-opacity: 1; stroke-width: 1;">
        <g>
            <polygon points="0.00,0.00 45.60,0.00 45.60,49.19 0.00,49.19 "></polygon>
        </g>
         
        
        <desc>Width:60 Height:200 Depth:60 Elevation:0</desc>
     </g></g><g transform="matrix(1,0,0,1,469.4659,664.5732)" fill="#ffffff" stroke="#fc0fc0" style="fill-opacity: 0.4; stroke-opacity: 0.9; stroke-width: 1.5; pointer-events: none;"><g fill="#ffffff" stroke="#000000" transform="matrix(1,0,0,1,0,0)" style="fill-opacity: 1; stroke-opacity: 1; stroke-width: 1;">
        <g>
            <polygon points="0.00,0.00 70.49,0.00 70.49,60.00 0.00,60.00 "></polygon>
        </g>
         
        
        <desc>Width:60 Height:5 Depth:60 Elevation:105</desc>
    </g><g fill="#ffffff" stroke="#000000" transform="matrix(1,0,0,1,0,0)" style="fill-opacity: 1; stroke-opacity: 1; stroke-width: 1;">
        <g fill="none" stroke="none">
        <polygon points="0.00,0.00 70.49,0.00 70.49,60.00 0.00,60.00 "></polygon>
        </g>
        <g>
            <polygon points="5.87,9.70 64.62,9.70 64.62,54.70 5.87,54.70 "></polygon>
        </g>
        <g stroke-width="0.8">
            <circle cx="35.24541369936942" cy="32.2" r="3.5"></circle>
        </g>
        <g stroke-width="0.8">
            <circle cx="35.24541369936942" cy="32.2" r="2"></circle>
        </g>
        <g>
            <polygon points="31.72,5.00 37.72,5.00 37.72,19.00 31.72,19.00 "></polygon>
        </g>
         
        
        <desc>Width:60 Height:90 Depth:60 Elevation:0</desc>
    </g></g><g fill="#ffffff" stroke="#000000" transform="matrix(0,-1,1,0,1095.6267,868.3622)" style="fill-opacity: 1; stroke-opacity: 1; stroke-width: 1; pointer-events: none;">
        <g>
            <polygon points="0.00,0.00 203.92,0.00 203.92,60.00 0.00,60.00 "></polygon>
        </g>
         
        
        <desc>Width:60 Height:90 Depth:60 Elevation:0</desc>
    </g><g fill="#ffffff" stroke="#000000" transform="matrix(0,-1,1,0,1095.6268,869.0722)" style="fill-opacity: 0.7; stroke-opacity: 1; stroke-width: 1.5; pointer-events: none;">	
        <g>
            <polygon points="0.00,0.00 204.63,0.00 204.63,30.00 0.00,30.00 "></polygon>
        </g>
         
        
        <desc>Width:60 Height:60 Depth:30 Elevation:140</desc>
    </g><g fill="#ffffff" stroke="#000000" transform="matrix(1,0,0,1,1294.8525,635.3131)" style="fill-opacity: 1; stroke-opacity: 1; stroke-width: 1; pointer-events: none;">
        <g>
            <polygon points="0.00,0.00 237.73,0.00 237.73,52.67 0.00,52.67 "></polygon>
        </g>
         
        
        <desc>Width:60 Height:90 Depth:60 Elevation:0</desc>
    </g><g fill="#ffffff" stroke="#000000" transform="matrix(1,0,0,1,1314.9415,638.8181)" style="fill-opacity: 1; stroke-opacity: 1; stroke-width: 1; pointer-events: none;">
        <g fill="none" stroke="none">
            <polygon points="0.00,0.00 60.00,0.00 60.00,49.00 0.00,49.00 "></polygon>
        </g>
        <g>
            <polygon points="5.00,9.70 55.00,9.70 55.00,44.67 5.00,44.67 "></polygon>
        </g>
        <g stroke-width="0.8">
            <circle cx="30" cy="26.297981533635102" r="3.5"></circle>
        </g>
        <g stroke-width="0.8">
            <circle cx="30" cy="26.297981533635102" r="2"></circle>
        </g>
        <g>
            <polygon points="27.00,4.08 33.00,4.08 33.00,18.08 27.00,18.08 "></polygon>
        </g>
         
        
        <desc>Width:60 Height:90 Depth:60 Elevation:0</desc>
    </g><g fill="#ffffff" stroke="#000000" transform="matrix(-1,0,0,-1,1562.4337,964.2773)" style="fill-opacity: 1; stroke-opacity: 1; stroke-width: 1; pointer-events: none;">
	   <g fill="none" stroke="none"> 
            <polygon points="0,0 41,0 41,71 0,71"></polygon>
		</g>
        <g>
            <rect x="0.502" y="0.5" width="39.989" height="17.98"></rect>
            <path d="M40.491,44.237S41.619,70.5,20.907,70.5C-.523,70.5.6,44.237.6,44.237L.5,18.48H40.491Z"></path>
            <rect x="17.318" y="7.975" width="6.357" height="3.03"></rect>
        </g>
        <desc>Width:41 Height:85 Depth:71 Elevation:0</desc>
    </g><g fill="#ffffff" stroke="#000000" transform="matrix(1,0,0,1,1691.176,635.1881)" style="fill-opacity: 1; stroke-opacity: 1; stroke-width: 1; pointer-events: none;">
        <g>
            <polygon points="0.00,0.00 130.66,0.00 130.66,223.05 0.00,223.05 "></polygon>
        </g>
         
        
        <desc>Width:60 Height:90 Depth:60 Elevation:0</desc>
    </g><g fill="#ffffff" stroke="#000000" transform="matrix(0,-1,1,0,1719.7055,822.5152)" style="fill-opacity: 1; stroke-opacity: 1; stroke-width: 1; pointer-events: none;"> 
	   <g>
		    <polygon points="0,0 175,0 175,82 0,82"></polygon>
		</g>
	    <g>
		    <path d="M166.6,41.2c0,19.7,0,35.7-79.3,35.7S8,60.9,8,41.2,8,5.5,87.3,5.5,166.6,21.5,166.6,41.2Z"></path>
		</g>
        
        <desc>Width:175 Height:38 Depth:82 Elevation:0</desc>
	</g><g fill="#ffffff" stroke="#000000" transform="matrix(-1,0,0,-1,1776.7402,980.5634)" style="fill-opacity: 1; stroke-opacity: 1; stroke-width: 1; pointer-events: none;"> 
	    <g fill="none" stroke="none">
            <polygon points="0,0 32,0 32,19 0,19"></polygon>
        </g>
        <g> 
			<rect x="3.7" y="0.5" width="11.2" height="6.1"></rect>
			<rect x="17.6" y="0.5" width="11.2" height="6.1"></rect>
			<rect x="28.7" y="0.5" width="3.4" height="6.1"></rect>
			<rect x="0.5" y="0.5" width="3.2" height="6.1"></rect>
			<path d="M14.9,8.5c0,1.5-0.4,3.3-1.6,5
			c-0.4,0.6-1,1.1-1.1,1.7c-0.2,1.1,0.3,2.8,2.5,3.2c0.5,0.1,1.3,0.1,1.6,0.1h-0.1c0.3,0,1.1,0,1.6-0.1c2.2-0.4,2.7-2.1,2.5-3.2
			c-0.1-0.6-0.7-1.1-1.1-1.7c-1.2-1.7-1.6-3.5-1.6-5"></path>
			<path d="M12.2,15.3c0.1,0.2,1.6,1.9,4.2,1.9 c2.4-0.1,3.7-1.7,3.9-1.9"></path>
			<path d="M14.9,0.5h2.7v8c-0.9,0-1.8,0-2.7,0l0,0 C14.9,5.9,14.9,3.2,14.9,0.5z"></path>
		</g>
	    <g> 
			<path d="M3.7,3.6C5,3.1,5.2,3,5.2,3 c0,1.1,0,0,0,1.1C5.2,4.1,5.1,4.1,3.7,3.6"></path>
			<path d="M28.7,3.6 C27.4,3.1,27.2,3,27.2,3c0,1.1,0,0,0,1.1C27.2,4.1,27.3,4.1,28.7,3.6"></path>	
		</g>
        <desc>Width:32 Height:97 Depth:19 Elevation:135</desc>
	</g><g fill="#ffffff" stroke="#000000" transform="matrix(1,0,0,1,1461.0043,638.8181)" style="fill-opacity: 1; stroke-opacity: 1; stroke-width: 1; pointer-events: none;">
        <g fill="none" stroke="none">
            <polygon points="0.00,0.00 60.00,0.00 60.00,49.00 0.00,49.00 "></polygon>
        </g>
        <g>
            <polygon points="5.00,9.70 55.00,9.70 55.00,44.67 5.00,44.67 "></polygon>
        </g>
        <g stroke-width="0.8">
            <circle cx="30" cy="26.297981533635102" r="3.5"></circle>
        </g>
        <g stroke-width="0.8">
            <circle cx="30" cy="26.297981533635102" r="2"></circle>
        </g>
        <g>
            <polygon points="27.00,4.08 33.00,4.08 33.00,18.08 27.00,18.08 "></polygon>
        </g>
         
        
        <desc>Width:60 Height:90 Depth:60 Elevation:0</desc>
    </g><g fill="#ffffff" stroke="#000000" transform="matrix(-1,0,0,-1,1587.1775,964.1054)" style="fill-opacity: 0.7; stroke-opacity: 1; stroke-width: 1.5; pointer-events: none;">	
        <g>
            <polygon points="0.00,0.00 82.62,0.00 82.62,30.00 0.00,30.00 "></polygon>
        </g>
         
        
        <desc>Width:60 Height:60 Depth:30 Elevation:140</desc>
    </g><g fill="#ffffff" stroke="#000000" transform="matrix(-1,0,0,-1,1069.9938,1377.2283)" style="fill-opacity: 1; stroke-opacity: 1; stroke-width: 1; pointer-events: none;">
        <g>
            <polygon points="0.00,0.00 192.99,0.00 192.99,47.16 0.00,47.16 "></polygon>
        </g>
         
        
        <desc>Width:60 Height:90 Depth:60 Elevation:0</desc>
    </g><g fill="#ffffff" stroke="#000000" transform="matrix(1,0,0,1,1459.3062,144.7984)" style="fill-opacity: 1; stroke-opacity: 1; stroke-width: 1; pointer-events: none;">
        <g>
            <polygon points="0.00,0.00 194.27,0.00 194.27,43.52 0.00,43.52 "></polygon>
        </g>
         
        
        <desc>Width:60 Height:90 Depth:60 Elevation:0</desc>
    </g><g fill="#ffffff" stroke="#000000" transform="matrix(-1,0,0,-1,863.5207,1329.7772)" style="fill-opacity: 1; stroke-opacity: 1; stroke-width: 1; pointer-events: none;">
        <g>
            <polygon points="0.00,0.00 80.78,0.00 80.78,45.88 0.00,45.88 "></polygon>
        </g>
         
        
        <desc>Width:60 Height:90 Depth:60 Elevation:0</desc>
    </g><g fill="#ffffff" stroke="#000000" transform="matrix(-1,0,0,-1,1164.1793,1327.8501)" style="fill-opacity: 1; stroke-opacity: 1; stroke-width: 1; pointer-events: none;">
        <g>
            <polygon points="0.00,0.00 80.78,0.00 80.78,45.88 0.00,45.88 "></polygon>
        </g>
         
        
        <desc>Width:60 Height:90 Depth:60 Elevation:0</desc>
    </g><g fill="#ffffff" stroke="#000000" transform="matrix(0,1,-1,0,1215.352,1165.6445)" style="fill-opacity: 1; stroke-opacity: 1; stroke-width: 1; pointer-events: none;">
        <g>
            <polygon points="0.00,0.00 89.51,0.00 89.51,49.53 0.00,49.53 "></polygon>
        </g>
         
        
        <desc>Width:60 Height:90 Depth:60 Elevation:0</desc>
    </g><g fill="#ffffff" stroke="#000000" transform="matrix(0,1,-1,0,1215.227,1165.215)" style="fill-opacity: 1; stroke-opacity: 1; stroke-width: 1; pointer-events: none;">
        <g>
            <polygon points="0.00,0.00 90.29,0.00 90.29,28.55 0.00,28.55 "></polygon>
        </g>
         
        
        <desc>Width:60 Height:200 Depth:60 Elevation:0</desc>
     </g><g fill="#ffffff" stroke="#000000" transform="matrix(1,0,0,1,1171.3773,994.3554)" style="fill-opacity: 1; stroke-opacity: 1; stroke-width: 1; pointer-events: none;">
        <g>
            <polygon points="0.00,0.00 129.06,0.00 129.06,55.43 0.00,55.43 "></polygon>
        </g>
         
        
        <desc>Width:60 Height:90 Depth:60 Elevation:0</desc>
    </g><g fill="#ffffff" stroke="#000000" transform="matrix(1,0,0,1,1201.6417,993.4435)" style="fill-opacity: 1; stroke-opacity: 1; stroke-width: 1; pointer-events: none;">
        <g fill="none" stroke="none">
            <polygon points="0.00,0.00 60.00,0.00 60.00,56.51 0.00,56.51 "></polygon>
        </g>
        <g>
            <polygon points="5.00,9.70 55.00,9.70 55.00,51.52 5.00,51.52 "></polygon>
        </g>
        <g stroke-width="0.8">
            <circle cx="30" cy="30.326122387814074" r="3.5"></circle>
        </g>
        <g stroke-width="0.8">
            <circle cx="30" cy="30.326122387814074" r="2"></circle>
        </g>
        <g>
            <polygon points="27.00,4.71 33.00,4.71 33.00,18.71 27.00,18.71 "></polygon>
        </g>
         
        
        <desc>Width:60 Height:90 Depth:60 Elevation:0</desc>
    </g><g fill="#ffffff" stroke="#000000" transform="matrix(1,0,0,1,1328.3178,994.2773)" style="fill-opacity: 1; stroke-opacity: 1; stroke-width: 1; pointer-events: none;">
	   <g fill="none" stroke="none"> 
            <polygon points="0,0 41,0 41,71 0,71"></polygon>
		</g>
        <g>
            <rect x="0.502" y="0.5" width="39.989" height="17.98"></rect>
            <path d="M40.491,44.237S41.619,70.5,20.907,70.5C-.523,70.5.6,44.237.6,44.237L.5,18.48H40.491Z"></path>
            <rect x="17.318" y="7.975" width="6.357" height="3.03"></rect>
        </g>
        <desc>Width:41 Height:85 Depth:71 Elevation:0</desc>
    </g><g fill="#ffffff" stroke="#000000" transform="matrix(0.8496,0,0,0.975,1230.3989,1175.2045)" style="fill-opacity: 1; stroke-opacity: 1; stroke-width: 1; pointer-events: none;"> 
	   <g>
		    <polygon points="0,0 175,0 175,82 0,82"></polygon>
		</g>
	    <g>
		    <path d="M166.6,41.2c0,19.7,0,35.7-79.3,35.7S8,60.9,8,41.2,8,5.5,87.3,5.5,166.6,21.5,166.6,41.2Z"></path>
		</g>
        
        <desc>Width:175 Height:38 Depth:82 Elevation:0</desc>
	</g><g fill="#ffffff" stroke="#000000" transform="matrix(0,1,-1,0,1379.0708,1196.2984)" style="fill-opacity: 1; stroke-opacity: 1; stroke-width: 1; pointer-events: none;"> 
	    <g fill="none" stroke="none">
            <polygon points="0,0 32,0 32,19 0,19"></polygon>
        </g>
        <g> 
			<rect x="3.7" y="0.5" width="11.2" height="6.1"></rect>
			<rect x="17.6" y="0.5" width="11.2" height="6.1"></rect>
			<rect x="28.7" y="0.5" width="3.4" height="6.1"></rect>
			<rect x="0.5" y="0.5" width="3.2" height="6.1"></rect>
			<path d="M14.9,8.5c0,1.5-0.4,3.3-1.6,5
			c-0.4,0.6-1,1.1-1.1,1.7c-0.2,1.1,0.3,2.8,2.5,3.2c0.5,0.1,1.3,0.1,1.6,0.1h-0.1c0.3,0,1.1,0,1.6-0.1c2.2-0.4,2.7-2.1,2.5-3.2
			c-0.1-0.6-0.7-1.1-1.1-1.7c-1.2-1.7-1.6-3.5-1.6-5"></path>
			<path d="M12.2,15.3c0.1,0.2,1.6,1.9,4.2,1.9 c2.4-0.1,3.7-1.7,3.9-1.9"></path>
			<path d="M14.9,0.5h2.7v8c-0.9,0-1.8,0-2.7,0l0,0 C14.9,5.9,14.9,3.2,14.9,0.5z"></path>
		</g>
	    <g> 
			<path d="M3.7,3.6C5,3.1,5.2,3,5.2,3 c0,1.1,0,0,0,1.1C5.2,4.1,5.1,4.1,3.7,3.6"></path>
			<path d="M28.7,3.6 C27.4,3.1,27.2,3,27.2,3c0,1.1,0,0,0,1.1C27.2,4.1,27.3,4.1,28.7,3.6"></path>	
		</g>
        <desc>Width:32 Height:97 Depth:19 Elevation:135</desc>
	</g><g fill="#ffffff" stroke="#000000" transform="matrix(1,0,0,1,548.4887,664.7451)" style="fill-opacity: 1; stroke-opacity: 1; stroke-width: 1; pointer-events: none;">
        <g>
            <polygon points="0.00,0.00 216.92,0.00 216.92,60.00 0.00,60.00 "></polygon>
        </g>
         
        
        <desc>Width:60 Height:90 Depth:60 Elevation:0</desc>
    </g><g fill="#ffffff" stroke="#000000" transform="matrix(1,0,0,1,548.4887,664.7919)" style="fill-opacity: 0.7; stroke-opacity: 1; stroke-width: 1.5; pointer-events: none;">	
        <g>
            <polygon points="0.00,0.00 86.76,0.00 86.76,30.00 0.00,30.00 "></polygon>
        </g>
         
        
        <desc>Width:60 Height:60 Depth:30 Elevation:140</desc>
    </g><g fill="#ffffff" stroke="#000000" transform="matrix(1,0,0,1,684.2079,664.7919)" style="fill-opacity: 0.7; stroke-opacity: 1; stroke-width: 1.5; pointer-events: none;">	
        <g>
            <polygon points="0.00,0.00 82.42,0.00 82.42,30.00 0.00,30.00 "></polygon>
        </g>
         
        
        <desc>Width:60 Height:60 Depth:30 Elevation:140</desc>
    </g><g fill="#ffffff" stroke="#000000" transform="matrix(1.2272,0,0,1.4662,320.9144,664.771)" style="fill-opacity: 1; stroke-opacity: 1; stroke-width: 1; pointer-events: none;">
	   <g> 
		    <polygon points="0,0 60,0 60,60 0,60"></polygon>
        </g>
	    
	    <g> 
		    <rect x="5.8" y="58.803" width="49.4" height="1.697"></rect>
		</g>
         
        
        <desc>Width:60 Height:90 Depth:60 Elevation:0</desc>
	</g><g fill="#ffffff" stroke="#000000" transform="matrix(1.2351,0,0,1.4153,394.5484,664.5862)" style="fill-opacity: 1; stroke-opacity: 1; stroke-width: 1; pointer-events: none;">
	   <g>
		    <polygon points="0,0 60,0 60,60 0,60"></polygon>
		</g>	
	    
	    <g>
		    <path d="M2.7,59.4H57.3"></path>
		</g>
         
        
        <desc>Width:60 Height:90 Depth:60 Elevation:0</desc>
    </g><g fill="#ffffff" stroke="#000000" transform="matrix(1,0,0,1,469.4659,664.6045)" style="fill-opacity: 0.7; stroke-opacity: 1; stroke-width: 1.5; pointer-events: none;">	
        <g>
            <polygon points="0.00,0.00 70.10,0.00 70.10,30.00 0.00,30.00 "></polygon>
        </g>
         
        
        <desc>Width:60 Height:60 Depth:30 Elevation:140</desc>
    </g><g fill="#ffffff" stroke="#000000" transform="matrix(0,-1,1,0,320.9457,817.905)" style="fill-opacity: 0.7; stroke-opacity: 1; stroke-width: 1.5; pointer-events: none;">	
        <g>
            <polygon points="0.00,0.00 38.60,0.00 38.60,21.67 0.00,21.67 "></polygon>
        </g>
         
        
        <desc>Width:60 Height:60 Depth:30 Elevation:140</desc>
    </g><g fill="#ffffff" stroke="#000000" transform="matrix(-1,0,0,-1,538.9944,909.8227)" style="fill-opacity: 1; stroke-opacity: 1; stroke-width: 1; pointer-events: none;">
        <g>
            <polygon points="0.00,0.00 218.08,0.00 218.08,47.59 0.00,47.59 "></polygon>
        </g>
         
        
        <desc>Width:60 Height:90 Depth:60 Elevation:0</desc>
    </g><g fill="#ffffff" stroke="#000000" transform="matrix(1,0,0,1,321.9526,924.8852)" style="fill-opacity: 1; stroke-opacity: 1; stroke-width: 1; pointer-events: none;">
        <g>
            <polygon points="0.00,0.00 97.50,0.00 97.50,61.28 0.00,61.28 "></polygon>
        </g>
         
        
        <desc>Width:60 Height:90 Depth:60 Elevation:0</desc>
    </g><g fill="#ffffff" stroke="#000000" transform="matrix(1,0,0,1,321.9526,924.8852)" style="fill-opacity: 0.7; stroke-opacity: 1; stroke-width: 1.5; pointer-events: none;">	
        <g>
            <polygon points="0.00,0.00 97.24,0.00 97.24,34.34 0.00,34.34 "></polygon>
        </g>
         
        
        <desc>Width:60 Height:60 Depth:30 Elevation:140</desc>
    </g><g fill="#ffffff" stroke="#000000" transform="matrix(-1,0,0,-1,444.2295,1380.7358)" style="fill-opacity: 1; stroke-opacity: 1; stroke-width: 1; pointer-events: none;">
        <g>
            <polygon points="0.00,0.00 191.80,0.00 191.80,50.45 0.00,50.45 "></polygon>
        </g>
         
        
        <desc>Width:60 Height:90 Depth:60 Elevation:0</desc>
    </g><g fill="#ffffff" stroke="#000000" transform="matrix(-1,0,0,-1,539.9559,1333.956)" style="fill-opacity: 1; stroke-opacity: 1; stroke-width: 1; pointer-events: none;">
        <g>
            <polygon points="0.00,0.00 95.11,0.00 95.11,50.45 0.00,50.45 "></polygon>
        </g>
         
        
        <desc>Width:60 Height:90 Depth:60 Elevation:0</desc>
    </g><g fill="#ffffff" stroke="#000000" transform="matrix(-1,0,0,-1,251.7269,1334.6152)" style="fill-opacity: 1; stroke-opacity: 1; stroke-width: 1; pointer-events: none;">
        <g>
            <polygon points="0.00,0.00 95.11,0.00 95.11,50.45 0.00,50.45 "></polygon>
        </g>
         
        
        <desc>Width:60 Height:90 Depth:60 Elevation:0</desc>
    </g><g fill="#ffffff" stroke="#000000" transform="matrix(0.8601,0,0,1,156.6169,664.542)" style="fill-opacity: 1; stroke-opacity: 1; stroke-width: 1; pointer-events: none;"> 
	   <g>
		    <polygon points="0,0 175,0 175,82 0,82"></polygon>
		</g>
	    <g>
		    <path d="M166.6,41.2c0,19.7,0,35.7-79.3,35.7S8,60.9,8,41.2,8,5.5,87.3,5.5,166.6,21.5,166.6,41.2Z"></path>
		</g>
        
        <desc>Width:175 Height:38 Depth:82 Elevation:0</desc>
	</g><g fill="#ffffff" stroke="#000000" transform="matrix(0,1,-1,0,307.1392,688.2891)" style="fill-opacity: 1; stroke-opacity: 1; stroke-width: 1; pointer-events: none;"> 
	    <g fill="none" stroke="none">
            <polygon points="0,0 32,0 32,19 0,19"></polygon>
        </g>
        <g> 
			<rect x="3.7" y="0.5" width="11.2" height="6.1"></rect>
			<rect x="17.6" y="0.5" width="11.2" height="6.1"></rect>
			<rect x="28.7" y="0.5" width="3.4" height="6.1"></rect>
			<rect x="0.5" y="0.5" width="3.2" height="6.1"></rect>
			<path d="M14.9,8.5c0,1.5-0.4,3.3-1.6,5
			c-0.4,0.6-1,1.1-1.1,1.7c-0.2,1.1,0.3,2.8,2.5,3.2c0.5,0.1,1.3,0.1,1.6,0.1h-0.1c0.3,0,1.1,0,1.6-0.1c2.2-0.4,2.7-2.1,2.5-3.2
			c-0.1-0.6-0.7-1.1-1.1-1.7c-1.2-1.7-1.6-3.5-1.6-5"></path>
			<path d="M12.2,15.3c0.1,0.2,1.6,1.9,4.2,1.9 c2.4-0.1,3.7-1.7,3.9-1.9"></path>
			<path d="M14.9,0.5h2.7v8c-0.9,0-1.8,0-2.7,0l0,0 C14.9,5.9,14.9,3.2,14.9,0.5z"></path>
		</g>
	    <g> 
			<path d="M3.7,3.6C5,3.1,5.2,3,5.2,3 c0,1.1,0,0,0,1.1C5.2,4.1,5.1,4.1,3.7,3.6"></path>
			<path d="M28.7,3.6 C27.4,3.1,27.2,3,27.2,3c0,1.1,0,0,0,1.1C27.2,4.1,27.3,4.1,28.7,3.6"></path>	
		</g>
        <desc>Width:32 Height:97 Depth:19 Elevation:135</desc>
	</g><g fill="#ffffff" stroke="#000000" transform="matrix(0,-1,1,0,156.6169,806.9284)" style="fill-opacity: 1; stroke-opacity: 1; stroke-width: 1; pointer-events: none;">
	   <g fill="none" stroke="none"> 
            <polygon points="0,0 41,0 41,71 0,71"></polygon>
		</g>
        <g>
            <rect x="0.502" y="0.5" width="39.989" height="17.98"></rect>
            <path d="M40.491,44.237S41.619,70.5,20.907,70.5C-.523,70.5.6,44.237.6,44.237L.5,18.48H40.491Z"></path>
            <rect x="17.318" y="7.975" width="6.357" height="3.03"></rect>
        </g>
        <desc>Width:41 Height:85 Depth:71 Elevation:0</desc>
    </g><g fill="#ffffff" stroke="#000000" transform="matrix(0,-1,1,0,156.6169,981.5613)" style="fill-opacity: 1; stroke-opacity: 1; stroke-width: 1; pointer-events: none;">
        <g>
            <polygon points="0.00,0.00 159.08,0.00 159.08,53.86 0.00,53.86 "></polygon>
        </g>
         
        
        <desc>Width:60 Height:90 Depth:60 Elevation:0</desc>
    </g><g fill="#ffffff" stroke="#000000" transform="matrix(0,-1,1,0,153.3669,932.236)" style="fill-opacity: 1; stroke-opacity: 1; stroke-width: 1; pointer-events: none;">
        <g fill="none" stroke="none">
            <polygon points="0.00,0.00 60.00,0.00 60.00,57.39 0.00,57.39 "></polygon>
        </g>
        <g>
            <polygon points="5.00,9.70 55.00,9.70 55.00,52.32 5.00,52.32 "></polygon>
        </g>
        <g stroke-width="0.8">
            <circle cx="30" cy="30.801471177834436" r="3.5"></circle>
        </g>
        <g stroke-width="0.8">
            <circle cx="30" cy="30.801471177834436" r="2"></circle>
        </g>
        <g>
            <polygon points="27.00,4.78 33.00,4.78 33.00,18.78 27.00,18.78 "></polygon>
        </g>
         
        
        <desc>Width:60 Height:90 Depth:60 Elevation:0</desc>
    </g><g fill="#000000" stroke="none" style="fill-opacity: 1; pointer-events: none;"><polygon points="1383.70,1255.15 1383.70,1167.09 1379.86,1167.09 1379.86,1255.15 "></polygon></g><g fill="#000000" stroke="#000000" style="fill-opacity: 1; stroke-opacity: 1; stroke-width: 0.2; pointer-events: none;"><polygon points="156.62,1334.63 156.62,664.54 141.62,649.54 141.62,1349.63 "></polygon><g fill="#f0f0ff" stroke="#000000" style="fill-opacity: 1; stroke-width: 1; stroke-opacity: 1;"><polygon points="156.62,820.37 156.62,750.39 141.62,750.39 141.62,820.37 "></polygon><g><polygon points="156.62,820.37 156.62,750.39 141.62,750.39 141.62,820.37 "></polygon></g><g><line x1="149.11689014768007" x2="149.11689014768004" y1="812.865681577094" y2="757.8927334421163"></line><line x1="156.61689014768007" x2="141.61689014768007" y1="812.865681577094" y2="812.865681577094"></line><line x1="156.61689014768004" x2="141.61689014768004" y1="757.8927334421163" y2="757.8927334421163"></line></g></g></g><g fill="#000000" stroke="#000000" style="fill-opacity: 1; stroke-opacity: 1; stroke-width: 0.2; pointer-events: none;"><polygon points="156.62,664.54 1170.36,664.54 1155.36,649.54 141.62,649.54 "></polygon><g fill="#f0f0ff" stroke="#000000" style="fill-opacity: 1; stroke-width: 1; stroke-opacity: 1;"><polygon points="890.48,664.54 1052.55,664.54 1052.55,649.54 890.48,649.54 "></polygon><g><polygon points="890.48,664.54 1052.55,664.54 1052.55,649.54 890.48,649.54 "></polygon></g><g><line x1="897.9822172689469" x2="1045.0508717484724" y1="657.0419600847121" y2="657.041960084712"></line><line x1="897.9822172689469" x2="897.9822172689469" y1="664.5419600847121" y2="649.5419600847121"></line><line x1="1045.0508717484724" x2="1045.0508717484724" y1="664.541960084712" y2="649.541960084712"></line></g></g><g fill="#f0f0ff" stroke="#000000" style="fill-opacity: 1; stroke-width: 1; stroke-opacity: 1;"><polygon points="637.49,664.54 685.09,664.54 685.09,649.54 637.49,649.54 "></polygon><g><polygon points="637.49,664.54 685.09,664.54 685.09,649.54 637.49,649.54 "></polygon></g><g><line x1="644.9909101722683" x2="677.5881104835879" y1="657.0419600847121" y2="657.0419600847121"></line><line x1="644.9909101722683" x2="644.9909101722683" y1="664.5419600847121" y2="649.5419600847121"></line><line x1="677.5881104835879" x2="677.5881104835879" y1="664.5419600847121" y2="649.5419600847121"></line></g></g><g fill="#f0f0ff" stroke="#000000" style="fill-opacity: 1; stroke-width: 1; stroke-opacity: 1;"><polygon points="328.18,664.54 467.72,664.54 467.72,649.54 328.18,649.54 "></polygon><g><polygon points="328.18,664.54 467.72,664.54 467.72,649.54 328.18,649.54 "></polygon></g><g><line x1="335.67569722438026" x2="460.2163960320263" y1="657.0419600847122" y2="657.0419600847121"></line><line x1="335.67569722438026" x2="335.67569722438026" y1="664.5419600847122" y2="649.5419600847122"></line><line x1="460.2163960320263" x2="460.2163960320263" y1="664.5419600847121" y2="649.5419600847121"></line></g></g></g><g fill="#000000" stroke="#000000" style="fill-opacity: 1; stroke-opacity: 1; stroke-width: 0.2; pointer-events: none;"><polygon points="1170.36,664.54 1170.36,184.06 1155.36,169.06 1155.36,649.54 "></polygon></g><g fill="#000000" stroke="#000000" style="fill-opacity: 1; stroke-opacity: 1; stroke-width: 0.2; pointer-events: none;"><polygon points="1170.36,184.06 1459.31,184.06 1444.31,169.06 1155.36,169.06 "></polygon><g fill="#ffffff" stroke="#000000" style="fill-opacity: 1; stroke-width: 1; stroke-opacity: 1;"><polygon points="1202.75,184.06 1354.69,184.06 1354.69,169.06 1202.75,169.06 "></polygon><g><polygon points="1202.75,184.06 1354.69,184.06 1354.69,169.06 1202.75,169.06 "></polygon></g><g fill="none" style=""><g fill="none" stroke="none" style=""><polygon points="1202.75,184.06 1278.72,184.06 1278.72,169.06 1202.75,169.06 "></polygon></g><path d="M1278.72,184.06 q0.00,75.97 -75.97,75.97 l0.00,-75.97Z"></path></g><g fill="none" style=""><g fill="none" stroke="none" style=""><polygon points="1278.72,184.06 1354.69,184.06 1354.69,169.06 1278.72,169.06 "></polygon></g><path d="M1278.72,184.06 q0.00,75.97 75.97,75.97 l0.00,-75.97Z"></path></g></g></g><g fill="#000000" stroke="#000000" style="fill-opacity: 1; stroke-opacity: 1; stroke-width: 0.2; pointer-events: none;"><polygon points="1459.31,184.06 1459.31,144.70 1444.31,129.70 1444.31,169.06 "></polygon></g><g fill="#000000" stroke="#000000" style="fill-opacity: 1; stroke-opacity: 1; stroke-width: 0.2; pointer-events: none;"><polygon points="1459.31,144.70 1651.53,144.70 1666.53,129.70 1444.31,129.70 "></polygon><g fill="#f0f0ff" stroke="#000000" style="fill-opacity: 1; stroke-width: 1; stroke-opacity: 1;"><polygon points="1471.34,144.70 1641.30,144.70 1641.30,129.70 1471.34,129.70 "></polygon><g><polygon points="1471.34,144.70 1641.30,144.70 1641.30,129.70 1471.34,129.70 "></polygon></g><g><line x1="1478.8436113053813" x2="1633.8026234509919" y1="137.20467272959993" y2="137.2046727295999"></line><line x1="1478.8436113053813" x2="1478.8436113053813" y1="144.70467272959993" y2="129.70467272959993"></line><line x1="1633.8026234509919" x2="1633.8026234509919" y1="144.7046727295999" y2="129.7046727295999"></line></g></g></g><g fill="#000000" stroke="#000000" style="fill-opacity: 1; stroke-opacity: 1; stroke-width: 0.2; pointer-events: none;"><polygon points="1651.53,144.70 1651.53,188.04 1666.53,173.04 1666.53,129.70 "></polygon></g><g fill="#000000" stroke="#000000" style="fill-opacity: 1; stroke-opacity: 1; stroke-width: 0.2; pointer-events: none;"><polygon points="1651.53,188.04 1691.09,188.04 1706.09,173.04 1666.53,173.04 "></polygon></g><g fill="#000000" stroke="#000000" style="fill-opacity: 1; stroke-opacity: 1; stroke-width: 0.2; pointer-events: none;"><polygon points="1691.09,188.04 1691.09,635.19 1706.09,620.19 1706.09,173.04 "></polygon><g fill="#f0f0ff" stroke="#000000" style="fill-opacity: 1; stroke-width: 1; stroke-opacity: 1;"><polygon points="1691.09,203.52 1691.09,279.62 1706.09,279.62 1706.09,203.52 "></polygon><g><polygon points="1691.09,203.52 1691.09,279.62 1706.09,279.62 1706.09,203.52 "></polygon></g><g><line x1="1698.5886658395377" x2="1698.5886658395377" y1="211.01807984183347" y2="272.11916471928305"></line><line x1="1691.0886658395377" x2="1706.0886658395377" y1="211.01807984183347" y2="211.01807984183347"></line><line x1="1691.0886658395377" x2="1706.0886658395377" y1="272.11916471928305" y2="272.11916471928305"></line></g></g><g fill="#f0f0ff" stroke="#000000" style="fill-opacity: 1; stroke-width: 1; stroke-opacity: 1;"><polygon points="1691.09,536.78 1691.09,616.68 1706.09,616.68 1706.09,536.78 "></polygon><g><polygon points="1691.09,536.78 1691.09,616.68 1706.09,616.68 1706.09,536.78 "></polygon></g><g><line x1="1698.5886658395377" x2="1698.5886658395377" y1="544.2774043575781" y2="609.1835434789002"></line><line x1="1691.0886658395377" x2="1706.0886658395377" y1="544.2774043575781" y2="544.2774043575781"></line><line x1="1691.0886658395377" x2="1706.0886658395377" y1="609.1835434789002" y2="609.1835434789002"></line></g></g></g><g fill="#000000" stroke="#000000" style="fill-opacity: 1; stroke-opacity: 1; stroke-width: 0.2; pointer-events: none;"><polygon points="1691.09,635.19 1821.84,635.19 1836.84,620.19 1706.09,620.19 "></polygon><g fill="#f0f0ff" stroke="#000000" style="fill-opacity: 1; stroke-width: 1; stroke-opacity: 1;"><polygon points="1719.91,635.19 1815.59,635.19 1815.59,620.19 1719.91,620.19 "></polygon><g><polygon points="1719.91,635.19 1815.59,635.19 1815.59,620.19 1719.91,620.19 "></polygon></g><g><line x1="1727.414960362593" x2="1808.089577144409" y1="627.6881308085193" y2="627.6881308085193"></line><line x1="1727.414960362593" x2="1727.414960362593" y1="635.1881308085193" y2="620.1881308085193"></line><line x1="1808.089577144409" x2="1808.089577144409" y1="635.1881308085193" y2="620.1881308085193"></line></g></g></g><g fill="#000000" stroke="#000000" style="fill-opacity: 1; stroke-opacity: 1; stroke-width: 0.2; pointer-events: none;"><polygon points="1821.84,635.19 1821.84,980.56 1836.84,995.56 1836.84,620.19 "></polygon><g fill="#f0f0ff" stroke="#000000" style="fill-opacity: 1; stroke-width: 1; stroke-opacity: 1;"><polygon points="1821.84,647.85 1821.84,803.16 1836.84,803.16 1836.84,647.85 "></polygon><g><polygon points="1821.84,647.85 1821.84,803.16 1836.84,803.16 1836.84,647.85 "></polygon></g><g><line x1="1829.336009865032" x2="1829.336009865032" y1="655.3520565618157" y2="795.6564345006706"></line><line x1="1821.836009865032" x2="1836.836009865032" y1="655.3520565618157" y2="655.3520565618157"></line><line x1="1821.836009865032" x2="1836.836009865032" y1="795.6564345006706" y2="795.6564345006706"></line></g></g><g fill="#f0f0ff" stroke="#000000" style="fill-opacity: 1; stroke-width: 1; stroke-opacity: 1;"><polygon points="1821.84,911.42 1821.84,966.24 1836.84,966.24 1836.84,911.42 "></polygon><g><polygon points="1821.84,911.42 1821.84,966.24 1836.84,966.24 1836.84,911.42 "></polygon></g><g><line x1="1829.336009865032" x2="1829.336009865032" y1="918.9192726044946" y2="958.7424840649179"></line><line x1="1821.836009865032" x2="1836.836009865032" y1="918.9192726044946" y2="918.9192726044946"></line><line x1="1821.836009865032" x2="1836.836009865032" y1="958.7424840649179" y2="958.7424840649179"></line></g></g></g><g fill="#000000" stroke="#000000" style="fill-opacity: 1; stroke-opacity: 1; stroke-width: 0.2; pointer-events: none;"><polygon points="1821.84,980.56 1599.60,980.56 1587.36,995.56 1836.84,995.56 "></polygon></g><g fill="#000000" stroke="#000000" style="fill-opacity: 1; stroke-opacity: 1; stroke-width: 0.2; pointer-events: none;"><polygon points="1587.36,995.56 1587.36,979.28 1599.60,964.28 1599.60,980.56 "></polygon></g><g fill="#000000" stroke="#000000" style="fill-opacity: 1; stroke-opacity: 1; stroke-width: 0.2; pointer-events: none;"><polygon points="1599.60,964.28 1383.70,964.28 1398.70,979.28 1587.36,979.28 "></polygon></g><g fill="#000000" stroke="#000000" style="fill-opacity: 1; stroke-opacity: 1; stroke-width: 0.2; pointer-events: none;"><polygon points="1383.70,964.28 1383.70,1255.15 1398.70,1270.15 1398.70,979.28 "></polygon></g><g fill="#000000" stroke="#000000" style="fill-opacity: 1; stroke-opacity: 1; stroke-width: 0.2; pointer-events: none;"><polygon points="1383.70,1255.15 1164.18,1255.15 1179.18,1270.15 1398.70,1270.15 "></polygon><g fill="#f0f0ff" stroke="#000000" style="fill-opacity: 1; stroke-width: 1; stroke-opacity: 1;"><polygon points="1302.00,1255.15 1240.03,1255.15 1240.03,1270.15 1302.00,1270.15 "></polygon><g><polygon points="1302.00,1255.15 1240.03,1255.15 1240.03,1270.15 1302.00,1270.15 "></polygon></g><g><line x1="1294.503816781239" x2="1247.5252699069806" y1="1262.6544978969694" y2="1262.6544978969694"></line><line x1="1294.503816781239" x2="1294.503816781239" y1="1255.1544978969694" y2="1270.1544978969694"></line><line x1="1247.5252699069806" x2="1247.5252699069806" y1="1255.1544978969694" y2="1270.1544978969694"></line></g></g></g><g fill="#000000" stroke="#000000" style="fill-opacity: 1; stroke-opacity: 1; stroke-width: 0.2; pointer-events: none;"><polygon points="1164.18,1255.15 1164.18,1327.90 1179.18,1342.90 1179.18,1270.15 "></polygon></g><g fill="#000000" stroke="#000000" style="fill-opacity: 1; stroke-opacity: 1; stroke-width: 0.2; pointer-events: none;"><polygon points="1164.18,1327.90 1068.00,1327.90 1083.00,1342.90 1179.18,1342.90 "></polygon></g><g fill="#000000" stroke="#000000" style="fill-opacity: 1; stroke-opacity: 1; stroke-width: 0.2; pointer-events: none;"><polygon points="1068.00,1327.90 1068.00,1377.28 1083.00,1392.28 1083.00,1342.90 "></polygon></g><g fill="#000000" stroke="#000000" style="fill-opacity: 1; stroke-opacity: 1; stroke-width: 0.2; pointer-events: none;"><polygon points="1068.00,1377.28 877.00,1377.28 862.00,1392.28 1083.00,1392.28 "></polygon><g fill="#f0f0ff" stroke="#000000" style="fill-opacity: 1; stroke-width: 1; stroke-opacity: 1;"><polygon points="1050.46,1377.28 892.41,1377.28 892.41,1392.28 1050.46,1392.28 "></polygon><g><polygon points="1050.46,1377.28 892.41,1377.28 892.41,1392.28 1050.46,1392.28 "></polygon></g><g><line x1="1042.9647631819555" x2="899.9072637794698" y1="1384.775087753146" y2="1384.775087753146"></line><line x1="1042.9647631819555" x2="1042.9647631819555" y1="1377.275087753146" y2="1392.275087753146"></line><line x1="899.9072637794698" x2="899.9072637794698" y1="1377.275087753146" y2="1392.275087753146"></line></g></g></g><g fill="#000000" stroke="#000000" style="fill-opacity: 1; stroke-opacity: 1; stroke-width: 0.2; pointer-events: none;"><polygon points="877.00,1377.28 877.00,1329.82 862.00,1344.82 862.00,1392.28 "></polygon></g><g fill="#000000" stroke="#000000" style="fill-opacity: 1; stroke-opacity: 1; stroke-width: 0.2; pointer-events: none;"><polygon points="877.00,1329.82 782.74,1329.82 767.74,1344.82 862.00,1344.82 "></polygon></g><g fill="#000000" stroke="#000000" style="fill-opacity: 1; stroke-opacity: 1; stroke-width: 0.2; pointer-events: none;"><polygon points="782.74,1329.82 782.74,1250.23 767.74,1265.23 767.74,1344.82 "></polygon></g><g fill="#000000" stroke="#000000" style="fill-opacity: 1; stroke-opacity: 1; stroke-width: 0.2; pointer-events: none;"><polygon points="782.74,1250.23 539.96,1250.23 554.96,1265.23 767.74,1265.23 "></polygon></g><g fill="#000000" stroke="#000000" style="fill-opacity: 1; stroke-opacity: 1; stroke-width: 0.2; pointer-events: none;"><polygon points="539.96,1250.23 539.96,1333.96 554.96,1348.96 554.96,1265.23 "></polygon></g><g fill="#000000" stroke="#000000" style="fill-opacity: 1; stroke-opacity: 1; stroke-width: 0.2; pointer-events: none;"><polygon points="539.96,1333.96 445.34,1333.96 460.34,1348.96 554.96,1348.96 "></polygon></g><g fill="#000000" stroke="#000000" style="fill-opacity: 1; stroke-opacity: 1; stroke-width: 0.2; pointer-events: none;"><polygon points="445.34,1333.96 445.34,1380.74 460.34,1395.74 460.34,1348.96 "></polygon></g><g fill="#000000" stroke="#000000" style="fill-opacity: 1; stroke-opacity: 1; stroke-width: 0.2; pointer-events: none;"><polygon points="445.34,1380.74 252.43,1380.74 237.43,1395.74 460.34,1395.74 "></polygon><g fill="#f0f0ff" stroke="#000000" style="fill-opacity: 1; stroke-width: 1; stroke-opacity: 1;"><polygon points="437.05,1380.74 267.62,1380.74 267.62,1395.74 437.05,1395.74 "></polygon><g><polygon points="437.05,1380.74 267.62,1380.74 267.62,1395.74 437.05,1395.74 "></polygon></g><g><line x1="429.5484740002174" x2="275.1194181569044" y1="1388.2357463584485" y2="1388.2357463584485"></line><line x1="429.5484740002174" x2="429.5484740002174" y1="1380.7357463584485" y2="1395.7357463584485"></line><line x1="275.1194181569044" x2="275.1194181569044" y1="1380.7357463584485" y2="1395.7357463584485"></line></g></g></g><g fill="#000000" stroke="#000000" style="fill-opacity: 1; stroke-opacity: 1; stroke-width: 0.2; pointer-events: none;"><polygon points="252.43,1380.74 252.43,1334.63 237.43,1349.63 237.43,1395.74 "></polygon></g><g fill="#000000" stroke="#000000" style="fill-opacity: 1; stroke-opacity: 1; stroke-width: 0.2; pointer-events: none;"><polygon points="252.43,1334.63 156.62,1334.63 141.62,1349.63 237.43,1349.63 "></polygon></g><g fill="#000000" stroke="#000000" style="fill-opacity: 1; stroke-opacity: 1; stroke-width: 0.2; pointer-events: none;"><polygon points="1706.09,622.50 1155.36,622.50 1155.36,635.19 1706.09,635.19 "></polygon><g fill="#ffffff" stroke="#000000" style="fill-opacity: 1; stroke-width: 1; stroke-opacity: 1;"><polygon points="1632.12,622.50 1554.17,622.50 1554.17,635.19 1632.12,635.19 "></polygon><g><polygon points="1632.12,622.50 1554.17,622.50 1554.17,635.19 1632.12,635.19 "></polygon></g><g fill="none" style=""><g fill="none" stroke="none" style=""><polygon points="1632.12,622.50 1554.17,622.50 1554.17,635.19 1632.12,635.19 "></polygon></g><path d="M1554.17,635.19 q0.00,77.95 77.95,77.95 l0.00,-77.95Z"></path></g></g><g fill="#ffffff" stroke="#000000" style="fill-opacity: 1; stroke-width: 1; stroke-opacity: 1;"><polygon points="1271.24,622.50 1183.25,622.50 1183.25,635.19 1271.24,635.19 "></polygon><g stroke="#ffffff" style=""><polygon points="1271.24,622.50 1183.25,622.50 1183.25,635.19 1271.24,635.19 "></polygon></g></g></g><g fill="#000000" stroke="#000000" style="fill-opacity: 1; stroke-opacity: 1; stroke-width: 0.2; pointer-events: none;"><polygon points="1095.52,649.54 1095.52,868.36 1080.52,880.80 1080.52,649.54 "></polygon></g><g fill="#000000" stroke="#000000" style="fill-opacity: 1; stroke-opacity: 1; stroke-width: 0.2; pointer-events: none;"><polygon points="1080.52,880.80 1294.85,880.80 1279.85,868.36 1095.52,868.36 "></polygon><g fill="#ffffff" stroke="#000000" style="fill-opacity: 1; stroke-width: 1; stroke-opacity: 1;"><polygon points="1186.81,880.80 1269.81,880.80 1269.81,868.36 1186.81,868.36 "></polygon><g><polygon points="1186.81,880.80 1269.81,880.80 1269.81,868.36 1186.81,868.36 "></polygon></g><g fill="none" style=""><g fill="none" stroke="none" style=""><polygon points="1186.81,880.80 1269.81,880.80 1269.81,868.36 1186.81,868.36 "></polygon></g><path d="M1186.81,868.36 q0.00,-83.00 83.00,-83.00 l0.00,83.00Z"></path></g></g></g><g fill="#000000" stroke="#000000" style="fill-opacity: 1; stroke-opacity: 1; stroke-width: 0.2; pointer-events: none;"><polygon points="1294.85,880.80 1294.85,622.50 1279.85,622.50 1279.85,868.36 "></polygon><g fill="#ffffff" stroke="#000000" style="fill-opacity: 1; stroke-width: 1; stroke-opacity: 1;"><polygon points="1294.85,778.34 1294.85,699.97 1279.85,699.97 1279.85,778.34 "></polygon><g><polygon points="1294.85,778.34 1294.85,699.97 1279.85,699.97 1279.85,778.34 "></polygon></g><g fill="none" style=""><g fill="none" stroke="none" style=""><polygon points="1294.85,778.34 1294.85,699.97 1279.85,699.97 1279.85,778.34 "></polygon></g><path d="M1294.85,699.97 q78.37,0.00 78.37,78.37 l-78.37,0.00Z"></path></g></g></g><g fill="#000000" stroke="#000000" style="fill-opacity: 1; stroke-opacity: 1; stroke-width: 0.2; pointer-events: none;"><polygon points="1398.70,964.33 1294.85,964.33 1281.19,994.28 1398.70,994.28 "></polygon></g><g fill="#000000" stroke="#000000" style="fill-opacity: 1; stroke-opacity: 1; stroke-width: 0.2; pointer-events: none;"><polygon points="1294.85,868.36 1294.85,964.33 1281.19,994.28 1281.19,868.36 "></polygon></g><g fill="#000000" stroke="#000000" style="fill-opacity: 1; stroke-opacity: 1; stroke-width: 0.2; pointer-events: none;"><polygon points="1504.56,979.28 1504.56,787.21 1489.56,802.21 1489.56,979.28 "></polygon></g><g fill="#000000" stroke="#000000" style="fill-opacity: 1; stroke-opacity: 1; stroke-width: 0.2; pointer-events: none;"><polygon points="1504.56,787.21 1279.85,787.21 1279.85,802.21 1489.56,802.21 "></polygon><g fill="#ffffff" stroke="#000000" style="fill-opacity: 1; stroke-width: 1; stroke-opacity: 1;"><polygon points="1480.20,787.21 1394.16,787.21 1394.16,802.21 1480.20,802.21 "></polygon><g stroke="#ffffff" style=""><polygon points="1480.20,787.21 1394.16,787.21 1394.16,802.21 1480.20,802.21 "></polygon></g><g><g fill="none" stroke="none" style=""><polygon points="1480.20,787.21 1394.16,787.21 1394.16,802.21 1480.20,802.21 "></polygon></g><path d="M1437.18,796.71 L1437.18,792.71 L1394.16,792.71 L1394.16,796.71  Z"></path></g></g></g><g fill="#000000" stroke="#000000" style="fill-opacity: 1; stroke-opacity: 1; stroke-width: 0.2; pointer-events: none;"><polygon points="1587.36,979.28 1587.36,802.21 1599.61,787.21 1599.61,979.28 "></polygon></g><g fill="#000000" stroke="#000000" style="fill-opacity: 1; stroke-opacity: 1; stroke-width: 0.2; pointer-events: none;"><polygon points="1489.56,787.21 1599.61,787.21 1587.36,802.21 1489.56,802.21 "></polygon><g fill="#ffffff" stroke="#000000" style="fill-opacity: 1; stroke-width: 1; stroke-opacity: 1;"><polygon points="1507.96,787.21 1583.72,787.21 1583.72,802.21 1507.96,802.21 "></polygon><g><polygon points="1507.96,787.21 1583.72,787.21 1583.72,802.21 1507.96,802.21 "></polygon></g><g fill="none" style=""><g fill="none" stroke="none" style=""><polygon points="1507.96,787.21 1583.72,787.21 1583.72,802.21 1507.96,802.21 "></polygon></g><path d="M1583.72,802.21 q0.00,75.76 -75.76,75.76 l0.00,-75.76Z"></path></g></g></g><g fill="#000000" stroke="#000000" style="fill-opacity: 1; stroke-opacity: 1; stroke-width: 0.2; pointer-events: none;"><polygon points="1691.63,995.56 1691.63,918.96 1708.43,918.96 1708.43,995.56 "></polygon></g><g fill="#000000" stroke="#000000" style="fill-opacity: 1; stroke-opacity: 1; stroke-width: 0.2; pointer-events: none;"><polygon points="1294.85,994.28 767.74,994.28 767.74,983.01 1294.85,983.01 "></polygon><g fill="#ffffff" stroke="#000000" style="fill-opacity: 1; stroke-width: 1; stroke-opacity: 1;"><polygon points="878.01,994.28 795.38,994.28 795.38,983.01 878.01,983.01 "></polygon><g><polygon points="878.01,994.28 795.38,994.28 795.38,983.01 878.01,983.01 "></polygon></g><g fill="none" style=""><g fill="none" stroke="none" style=""><polygon points="878.01,994.28 795.38,994.28 795.38,983.01 878.01,983.01 "></polygon></g><path d="M878.01,994.28 q0.00,82.64 -82.64,82.64 l0.00,-82.64Z"></path></g></g></g><g fill="#000000" stroke="#000000" style="fill-opacity: 1; stroke-opacity: 1; stroke-width: 0.2; pointer-events: none;"><polygon points="767.74,1265.23 767.74,983.01 782.74,983.01 782.74,1265.23 "></polygon><g fill="#ffffff" stroke="#000000" style="fill-opacity: 1; stroke-width: 1; stroke-opacity: 1;"><polygon points="767.74,1186.14 767.74,1103.37 782.74,1103.37 782.74,1186.14 "></polygon><g><polygon points="767.74,1186.14 767.74,1103.37 782.74,1103.37 782.74,1186.14 "></polygon></g><g fill="none" style=""><g fill="none" stroke="none" style=""><polygon points="767.74,1186.14 767.74,1103.37 782.74,1103.37 782.74,1186.14 "></polygon></g><path d="M782.74,1103.37 q82.77,0.00 82.77,82.77 l-82.77,0.00Z"></path></g></g></g><g fill="#000000" stroke="#000000" style="fill-opacity: 1; stroke-opacity: 1; stroke-width: 0.2; pointer-events: none;"><polygon points="1171.38,983.01 1171.38,1150.22 1160.09,1165.22 1160.09,983.01 "></polygon><g fill="#ffffff" stroke="#000000" style="fill-opacity: 1; stroke-width: 1; stroke-opacity: 1;"><polygon points="1171.38,1060.13 1171.38,1141.18 1160.09,1141.18 1160.09,1060.13 "></polygon><g><polygon points="1171.38,1060.13 1171.38,1141.18 1160.09,1141.18 1160.09,1060.13 "></polygon></g><g fill="none" style=""><g fill="none" stroke="none" style=""><polygon points="1171.38,1060.13 1171.38,1141.18 1160.09,1141.18 1160.09,1060.13 "></polygon></g><path d="M1171.38,1060.13 q81.05,0.00 81.05,81.05 l-81.05,0.00Z"></path></g></g></g><g fill="#000000" stroke="#000000" style="fill-opacity: 1; stroke-opacity: 1; stroke-width: 0.2; pointer-events: none;"><polygon points="1160.09,1165.22 1215.40,1165.22 1230.40,1150.22 1171.38,1150.22 "></polygon></g><g fill="#000000" stroke="#000000" style="fill-opacity: 1; stroke-opacity: 1; stroke-width: 0.2; pointer-events: none;"><polygon points="1230.40,1150.22 1230.40,1270.15 1215.40,1270.15 1215.40,1165.22 "></polygon></g><g fill="#000000" stroke="#000000" style="fill-opacity: 1; stroke-opacity: 1; stroke-width: 0.2; pointer-events: none;"><polygon points="548.49,1265.23 548.49,649.54 539.96,649.54 539.96,1265.23 "></polygon><g fill="#ffffff" stroke="#000000" style="fill-opacity: 1; stroke-width: 1; stroke-opacity: 1;"><polygon points="548.49,837.14 548.49,757.74 539.96,757.74 539.96,837.14 "></polygon><g><polygon points="548.49,837.14 548.49,757.74 539.96,757.74 539.96,837.14 "></polygon></g><g fill="none" style=""><g fill="none" stroke="none" style=""><polygon points="548.49,837.14 548.49,757.74 539.96,757.74 539.96,837.14 "></polygon></g><path d="M539.96,757.74 q-79.40,0.00 -79.40,79.40 l79.40,0.00Z"></path></g></g><g fill="#ffffff" stroke="#000000" style="fill-opacity: 1; stroke-width: 1; stroke-opacity: 1;"><polygon points="548.49,1022.09 548.49,942.25 539.96,942.25 539.96,1022.09 "></polygon><g><polygon points="548.49,1022.09 548.49,942.25 539.96,942.25 539.96,1022.09 "></polygon></g><g fill="none" style=""><g fill="none" stroke="none" style=""><polygon points="548.49,1022.09 548.49,942.25 539.96,942.25 539.96,1022.09 "></polygon></g><path d="M539.96,1022.09 q-79.84,0.00 -79.84,-79.84 l79.84,0.00Z"></path></g></g><g fill="#ffffff" stroke="#000000" style="fill-opacity: 1; stroke-width: 1; stroke-opacity: 1;"><polygon points="548.49,1186.54 548.49,1103.63 539.96,1103.63 539.96,1186.54 "></polygon><g><polygon points="548.49,1186.54 548.49,1103.63 539.96,1103.63 539.96,1186.54 "></polygon></g><g fill="none" style=""><g fill="none" stroke="none" style=""><polygon points="548.49,1186.54 548.49,1103.63 539.96,1103.63 539.96,1186.54 "></polygon></g><path d="M539.96,1103.63 q-82.91,0.00 -82.91,82.91 l82.91,0.00Z"></path></g></g></g><g fill="#000000" stroke="#000000" style="fill-opacity: 1; stroke-opacity: 1; stroke-width: 0.2; pointer-events: none;"><polygon points="767.74,983.01 653.24,983.01 668.24,998.01 767.74,998.01 "></polygon><g fill="#ffffff" stroke="#000000" style="fill-opacity: 1; stroke-width: 1; stroke-opacity: 1;"><polygon points="765.35,983.01 680.77,983.01 680.77,998.01 765.35,998.01 "></polygon><g><polygon points="765.35,983.01 680.77,983.01 680.77,998.01 765.35,998.01 "></polygon></g><g fill="none" style=""><g fill="none" stroke="none" style=""><polygon points="765.35,983.01 680.77,983.01 680.77,998.01 765.35,998.01 "></polygon></g><path d="M680.77,983.01 q0.00,-84.58 84.58,-84.58 l0.00,84.58Z"></path></g></g></g><g fill="#000000" stroke="#000000" style="fill-opacity: 1; stroke-opacity: 1; stroke-width: 0.2; pointer-events: none;"><polygon points="653.24,983.01 653.24,1053.40 668.24,1053.40 668.24,998.01 "></polygon></g><g fill="#000000" stroke="#000000" style="fill-opacity: 1; stroke-opacity: 1; stroke-width: 0.2; pointer-events: none;"><polygon points="653.24,1038.40 539.96,1038.40 539.96,1053.40 668.24,1053.40 "></polygon></g><g fill="#000000" stroke="#000000" style="fill-opacity: 1; stroke-opacity: 1; stroke-width: 0.2; pointer-events: none;"><polygon points="548.49,924.89 306.95,924.89 320.91,909.89 548.49,909.89 "></polygon></g><g fill="#000000" stroke="#000000" style="fill-opacity: 1; stroke-opacity: 1; stroke-width: 0.2; pointer-events: none;"><polygon points="306.95,924.89 306.95,649.54 320.91,649.54 320.91,924.89 "></polygon></g><g fill="#000000" stroke="#000000" style="fill-opacity: 1; stroke-opacity: 1; stroke-width: 0.2; pointer-events: none;"><polygon points="306.95,924.89 306.95,981.56 321.95,996.56 321.95,924.89 "></polygon></g><g fill="#000000" stroke="#000000" style="fill-opacity: 1; stroke-opacity: 1; stroke-width: 0.2; pointer-events: none;"><polygon points="321.95,996.56 141.62,996.56 141.62,981.56 306.95,981.56 "></polygon><g fill="#ffffff" stroke="#000000" style="fill-opacity: 1; stroke-width: 1; stroke-opacity: 1;"><polygon points="292.39,996.56 215.43,996.56 215.43,981.56 292.39,981.56 "></polygon><g><polygon points="292.39,996.56 215.43,996.56 215.43,981.56 292.39,981.56 "></polygon></g><g fill="none" style=""><g fill="none" stroke="none" style=""><polygon points="292.39,996.56 215.43,996.56 215.43,981.56 292.39,981.56 "></polygon></g><path d="M215.43,981.56 q0.00,-76.96 76.96,-76.96 l0.00,76.96Z"></path></g></g></g><g fill="#000000" stroke="#000000" style="fill-opacity: 1; stroke-opacity: 1; stroke-width: 0.2; pointer-events: none;"><polygon points="434.60,909.89 434.60,996.03 419.60,996.03 419.60,909.89 "></polygon></g><g fill="#000000" stroke="#000000" style="fill-opacity: 1; stroke-opacity: 1; stroke-width: 0.2; pointer-events: none;"><polygon points="653.24,1053.40 782.74,1053.40 782.74,1038.40 668.24,1038.40 "></polygon></g><g fill="#000000" stroke="#000000" style="fill-opacity: 1; stroke-opacity: 1; stroke-width: 0.2; pointer-events: none;"><polygon points="653.24,1053.40 653.24,1265.23 668.24,1265.23 668.24,1053.40 "></polygon></g><g transform="matrix(1,0,0,1,668.2447,998.0127)"><g transform="matrix(1,0,0,1,20.1922,20.1921)"></g></g><g transform="matrix(1,0,0,1,1504.5575,802.2065)"><g transform="matrix(1,0,0,1,41.4004,41.4004)"></g></g><g transform="matrix(1,0,0,1,668.2447,1053.397)"><g transform="matrix(1,0,0,1,49.748,49.748)"></g></g><g transform="matrix(1,0,0,1,548.4887,1053.397)"><g transform="matrix(1,0,0,1,52.378,52.378)"></g></g><g transform="matrix(1,0,0,1,1294.8525,802.2065)"><g transform="matrix(1,0,0,1,70.3275,83.1023)"><g><text x="0" y="0em" fill="#000000" stroke="none" style="font-family: Verdana; font-size: 20px; fill-opacity: 1; cursor: default;">W.I.C</text></g></g></g><g transform="matrix(1,0,0,1,1155.7361,635.1881)"><g transform="matrix(1,0,0,1,0,0)" style="display: block;"><g fill="#000000" stroke="none" transform="matrix(1,0,0,1,69.3354,0)" style="fill-opacity: 1; pointer-events: visible;"><polygon points="-5,5,0,0,5,5"></polygon></g><g fill="#000000" stroke="none" transform="matrix(1,0,0,1,124.1164,92.142)" style="fill-opacity: 1; pointer-events: visible;"><polygon points="-5,-5,0,0,-5,5"></polygon></g><g fill="#000000" stroke="none" transform="matrix(1,0,0,1,69.3354,233.174)" style="fill-opacity: 1; pointer-events: visible;"><polygon points="-5,-5,0,0,5,-5"></polygon></g><g fill="#000000" stroke="none" transform="matrix(1,0,0,1,0,92.142)" style="fill-opacity: 1; pointer-events: visible;"><polygon points="5,5,0,0,5,-5"></polygon></g></g><g transform="matrix(1,0,0,1,32.311,114.3774)"><g><text x="0" y="0em" fill="#000000" stroke="none" style="font-family: Verdana; font-size: 20px; fill-opacity: 1; cursor: default;">HALL</text></g><g transform="matrix(1,0,0,1,-27.1563,24.625)" style="display: block;"><text x="0" y="0em" fill="#000000" stroke="none" style="font-family: Verdana; font-size: 20px; fill-opacity: 1; cursor: default;">4'1" x 7'8"</text><text x="0" y="0"></text></g></g></g><g transform="matrix(1,0,0,1,320.9144,664.542)"><g transform="matrix(1,0,0,1,0,0)" style="display: block;"><g fill="#000000" stroke="none" transform="matrix(1,0,0,1,109.5208,0)" style="fill-opacity: 1; pointer-events: visible;"><polygon points="-5,5,0,0,5,5"></polygon></g><g fill="#000000" stroke="none" transform="matrix(1,0,0,1,219.0415,122.6716)" style="fill-opacity: 1; pointer-events: visible;"><polygon points="-5,-5,0,0,-5,5"></polygon></g><g fill="#000000" stroke="none" transform="matrix(1,0,0,1,109.5208,245.3433)" style="fill-opacity: 1; pointer-events: visible;"><polygon points="-5,-5,0,0,5,-5"></polygon></g><g fill="#000000" stroke="none" transform="matrix(1,0,0,1,0,122.6716)" style="fill-opacity: 1; pointer-events: visible;"><polygon points="5,5,0,0,5,-5"></polygon></g></g><g transform="matrix(1,0,0,1,65.9022,131.9398)"><g><text x="0" y="0em" fill="#000000" stroke="none" style="font-family: Verdana; font-size: 20px; fill-opacity: 1; cursor: default;">LAUNDRY</text></g><g transform="matrix(1,0,0,1,-4.75,24.625)" style="display: block;"><text x="0" y="0em" fill="#000000" stroke="none" style="font-family: Verdana; font-size: 20px; fill-opacity: 1; cursor: default;">7'2" x 8'1"</text><text x="0" y="0"></text></g></g></g><g transform="matrix(1,0,0,1,1171.3774,994.2773)"><g transform="matrix(1,0,0,1,0,0)" style="display: block;"><g fill="#000000" stroke="none" transform="matrix(1,0,0,1,106.1615,0)" style="fill-opacity: 1; pointer-events: visible;"><polygon points="-5,5,0,0,5,5"></polygon></g><g fill="#000000" stroke="none" transform="matrix(1,0,0,1,212.3229,130.4386)" style="fill-opacity: 1; pointer-events: visible;"><polygon points="-5,-5,0,0,-5,5"></polygon></g><g fill="#000000" stroke="none" transform="matrix(1,0,0,1,106.1615,260.8772)" style="fill-opacity: 1; pointer-events: visible;"><polygon points="-5,-5,0,0,5,-5"></polygon></g><g fill="#000000" stroke="none" transform="matrix(1,0,0,1,0,130.4386)" style="fill-opacity: 1; pointer-events: visible;"><polygon points="5,5,0,0,5,-5"></polygon></g></g><g transform="matrix(1,0,0,1,83.0963,101.2197)"><g><text x="0" y="0em" fill="#000000" stroke="none" style="font-family: Verdana; font-size: 20px; fill-opacity: 1; cursor: default;">BATH</text></g><g transform="matrix(1,0,0,1,-26.1406,24.625)" style="display: block;"><text x="0" y="0em" fill="#000000" stroke="none" style="font-family: Verdana; font-size: 20px; fill-opacity: 1; cursor: default;">7'0" x 8'7"</text><text x="0" y="0"></text></g></g></g><g transform="matrix(1,0,0,1,156.6169,664.542)"><g transform="matrix(1,0,0,1,0,0)" style="display: block;"><g fill="#000000" stroke="none" transform="matrix(1,0,0,1,75.1679,0)" style="fill-opacity: 1; pointer-events: visible;"><polygon points="-5,5,0,0,5,5"></polygon></g><g fill="#000000" stroke="none" transform="matrix(1,0,0,1,150.3357,158.5097)" style="fill-opacity: 1; pointer-events: visible;"><polygon points="-5,-5,0,0,-5,5"></polygon></g><g fill="#000000" stroke="none" transform="matrix(1,0,0,1,75.1679,317.0193)" style="fill-opacity: 1; pointer-events: visible;"><polygon points="-5,-5,0,0,5,-5"></polygon></g><g fill="#000000" stroke="none" transform="matrix(1,0,0,1,0,158.5097)" style="fill-opacity: 1; pointer-events: visible;"><polygon points="5,5,0,0,5,-5"></polygon></g></g><g transform="matrix(0,-1,1,0,96.1617,210.0151)"><g><text x="0" y="0em" fill="#000000" stroke="none" style="font-family: Verdana; font-size: 20px; fill-opacity: 1; cursor: default;">BATH</text></g><g transform="matrix(1,0,0,1,-38.8516,24.625)" style="display: block;"><text x="0" y="0em" fill="#000000" stroke="none" style="font-family: Verdana; font-size: 20px; fill-opacity: 1; cursor: default;">4'11" x 10'5"</text><text x="0" y="0"></text></g></g></g><g transform="matrix(1,0,0,1,782.7407,994.2773)"><g transform="matrix(1,0,0,1,0,0)" style="display: block;"><g fill="#000000" stroke="none" transform="matrix(1,0,0,1,216.3291,0)" style="fill-opacity: 1; pointer-events: visible;"><polygon points="-5,5,0,0,5,5"></polygon></g><g fill="#000000" stroke="none" transform="matrix(1,0,0,1,432.6582,212.2411)" style="fill-opacity: 1; pointer-events: visible;"><polygon points="-5,-5,0,0,-5,5"></polygon></g><g fill="#000000" stroke="none" transform="matrix(1,0,0,1,216.3291,382.9978)" style="fill-opacity: 1; pointer-events: visible;"><polygon points="-5,-5,0,0,5,-5"></polygon></g><g fill="#000000" stroke="none" transform="matrix(1,0,0,1,0,212.2411)" style="fill-opacity: 1; pointer-events: visible;"><polygon points="5,5,0,0,5,-5"></polygon></g></g><g transform="matrix(1,0,0,1,135.8149,173.996)"><g><text x="0" y="0em" fill="#000000" stroke="none" style="font-family: Verdana; font-size: 20px; fill-opacity: 1; cursor: default;">BEDROOM 2</text></g><g transform="matrix(1,0,0,1,-3.7656,24.625)" style="display: block;"><text x="0" y="0em" fill="#000000" stroke="none" style="font-family: Verdana; font-size: 20px; fill-opacity: 1; cursor: default;">14'2" x 12'7"</text><text x="0" y="0"></text></g></g></g><g transform="matrix(1,0,0,1,156.6169,924.8852)"><g transform="matrix(1,0,0,1,0,0)" style="display: block;"><g fill="#000000" stroke="none" transform="matrix(1,0,0,1,191.6695,0)" style="fill-opacity: 1; pointer-events: visible;"><polygon points="-5,5,0,0,5,5"></polygon></g><g fill="#000000" stroke="none" transform="matrix(1,0,0,1,383.339,227.9253)" style="fill-opacity: 1; pointer-events: visible;"><polygon points="-5,-5,0,0,-5,5"></polygon></g><g fill="#000000" stroke="none" transform="matrix(1,0,0,1,191.6695,455.8505)" style="fill-opacity: 1; pointer-events: visible;"><polygon points="-5,-5,0,0,5,-5"></polygon></g><g fill="#000000" stroke="none" transform="matrix(1,0,0,1,0,227.9253)" style="fill-opacity: 1; pointer-events: visible;"><polygon points="5,5,0,0,5,-5"></polygon></g></g><g transform="matrix(1,0,0,1,139.414,211.904)"><g><text x="0" y="0em" fill="#000000" stroke="none" style="font-family: Verdana; font-size: 20px; fill-opacity: 1; cursor: default;">BEDROOM 1</text></g><g transform="matrix(1,0,0,1,-10.1172,24.625)" style="display: block;"><text x="0" y="0em" fill="#000000" stroke="none" style="font-family: Verdana; font-size: 20px; fill-opacity: 1; cursor: default;">12'7" x 14'11"</text><text x="0" y="0"></text></g></g></g><g transform="matrix(1,0,0,1,1294.8525,635.1881)"><g transform="matrix(1,0,0,1,0,0)" style="display: block;"><g fill="#000000" stroke="none" transform="matrix(1,0,0,1,333.3118,0)" style="fill-opacity: 1; pointer-events: visible;"><polygon points="-5,5,0,0,5,5"></polygon></g><g fill="#000000" stroke="none" transform="matrix(1,0,0,1,526.9836,126.3219)" style="fill-opacity: 1; pointer-events: visible;"><polygon points="-5,-5,0,0,-5,5"></polygon></g><g fill="#000000" stroke="none" transform="matrix(1,0,0,1,333.3118,345.3753)" style="fill-opacity: 1; pointer-events: visible;"><polygon points="-5,-5,0,0,5,-5"></polygon></g><g fill="#000000" stroke="none" transform="matrix(1,0,0,1,0,126.3219)" style="fill-opacity: 1; pointer-events: visible;"><polygon points="5,5,0,0,5,-5"></polygon></g></g><g transform="matrix(1,0,0,1,119.6928,98.4544)"><g><text x="0" y="0em" fill="#000000" stroke="none" style="font-family: Verdana; font-size: 20px; fill-opacity: 1; cursor: default;">MASTER BATHROOM</text></g><g transform="matrix(1,0,0,1,37.2578,24.625)" style="display: block;"><text x="0" y="0em" fill="#000000" stroke="none" style="font-family: Verdana; font-size: 20px; fill-opacity: 1; cursor: default;">17'3" x 11'4"</text><text x="0" y="0"></text></g></g></g><g transform="matrix(1,0,0,1,1170.3618,144.7047)"><g transform="matrix(1,0,0,1,0,0)" style="display: block;"><g fill="#000000" stroke="none" transform="matrix(1,0,0,1,315.4529,0)" style="fill-opacity: 1; pointer-events: visible;"><polygon points="-5,5,0,0,5,5"></polygon></g><g fill="#000000" stroke="none" transform="matrix(1,0,0,1,520.7269,238.8979)" style="fill-opacity: 1; pointer-events: visible;"><polygon points="-5,-5,0,0,-5,5"></polygon></g><g fill="#000000" stroke="none" transform="matrix(1,0,0,1,315.4529,477.7957)" style="fill-opacity: 1; pointer-events: visible;"><polygon points="-5,-5,0,0,5,-5"></polygon></g><g fill="#000000" stroke="none" transform="matrix(1,0,0,1,0,238.8979)" style="fill-opacity: 1; pointer-events: visible;"><polygon points="5,5,0,0,5,-5"></polygon></g></g><g transform="matrix(1,0,0,1,176.8677,242.1973)"><g><text x="0" y="0em" fill="#000000" stroke="none" style="font-family: Verdana; font-size: 20px; fill-opacity: 1; cursor: default;">MASTER BEDROOM</text></g><g transform="matrix(1,0,0,1,31.3594,24.625)" style="display: block;"><text x="0" y="0em" fill="#000000" stroke="none" style="font-family: Verdana; font-size: 20px; fill-opacity: 1; cursor: default;">17'1" x 15'8"</text><text x="0" y="0"></text></g></g></g><g transform="matrix(1,0,0,1,766.2642,876.9535)"><g transform="matrix(1,0,0,1,0,0)" style="display: block;"><g fill="#000000" stroke="none" transform="matrix(1,0,0,1,252.9882,0)" style="fill-opacity: 1; pointer-events: visible;"><polygon points="-5,5,0,0,5,5"></polygon></g><g fill="#000000" stroke="none" transform="matrix(1,0,0,1,514.9303,53.8563)" style="fill-opacity: 1; pointer-events: visible;"><polygon points="-5,-5,0,0,-5,5"></polygon></g><g fill="#000000" stroke="none" transform="matrix(1,0,0,1,252.9882,106.0592)" style="fill-opacity: 1; pointer-events: visible;"><polygon points="-5,-5,0,0,5,-5"></polygon></g><g fill="#000000" stroke="none" transform="matrix(1,0,0,1,0,53.8563)" style="fill-opacity: 1; pointer-events: visible;"><polygon points="5,5,0,0,5,-5"></polygon></g></g><g transform="matrix(1,0,0,1,216.7822,43.3005)"><g><text x="0" y="0em" fill="#000000" stroke="none" style="font-family: Verdana; font-size: 20px; fill-opacity: 1; cursor: default;">HALL</text></g><g transform="matrix(1,0,0,1,-39.8672,24.625)" style="display: block;"><text x="0" y="0em" fill="#000000" stroke="none" style="font-family: Verdana; font-size: 20px; fill-opacity: 1; cursor: default;">16'11" x 3'6"</text><text x="0" y="0"></text></g></g></g><g transform="matrix(1,0,0,1,548.4887,664.542)"><g transform="matrix(1,0,0,1,0,0)" style="display: block;"><g fill="#000000" stroke="none" transform="matrix(1,0,0,1,94.756,0)" style="fill-opacity: 1; pointer-events: visible;"><polygon points="-5,5,0,0,5,5"></polygon></g><g fill="#000000" stroke="none" transform="matrix(1,0,0,1,218.1393,101.1493)" style="fill-opacity: 1; pointer-events: visible;"><polygon points="-5,-5,0,0,-5,5"></polygon></g><g fill="#000000" stroke="none" transform="matrix(1,0,0,1,94.756,373.855)" style="fill-opacity: 1; pointer-events: visible;"><polygon points="-5,-5,0,0,5,-5"></polygon></g><g fill="#000000" stroke="none" transform="matrix(1,0,0,1,0,101.1493)" style="fill-opacity: 1; pointer-events: visible;"><polygon points="5,5,0,0,5,-5"></polygon></g></g><g transform="matrix(0,-1,1,0,66.673,349.947)"><g><text x="0" y="0em" fill="#000000" stroke="none" style="font-family: Verdana; font-size: 20px; fill-opacity: 1; cursor: default;">CHILDREN'S STUDY AREA</text></g><g transform="matrix(1,0,0,1,71.0078,24.625)" style="display: block;"><text x="0" y="0em" fill="#000000" stroke="none" style="font-family: Verdana; font-size: 20px; fill-opacity: 1; cursor: default;">7'2" x 12'3"</text><text x="0" y="0"></text></g></g></g><g transform="matrix(1,0,0,1,1170.3618,85.7687)"><g transform="matrix(1,0,0,1,89.3088,41.6479)"><g><text x="0" y="0em" fill="#000000" stroke="none" style="font-family: Verdana; font-size: 20px; fill-opacity: 1; cursor: default;">BALCONY</text></g></g></g><g fill="#ffffff" stroke="#000000" transform="matrix(1,0,0,1.2577,1701.2323,843.5017)" style="fill-opacity: 1; stroke-opacity: 1; stroke-width: 1; pointer-events: none;">
        <g>
            <polygon points="0,0 2.5,0 2.5,60 0,60"></polygon>
        </g>
	    <g stroke-linejoin="round"> 
			<rect width="2.5" height="60"></rect>
	    </g> 
        <desc>Width:2.5 Height:180 Depth:60 Elevation:135</desc>
    </g><g fill="#ffffff" stroke="#000000" transform="matrix(0,-1,1.9407,0,1705.394,845.9268)" style="fill-opacity: 1; stroke-opacity: 1; stroke-width: 1; pointer-events: none;">
        <g>
            <polygon points="0,0 2.5,0 2.5,60 0,60"></polygon>
        </g>
	    <g stroke-linejoin="round"> 
			<rect width="2.5" height="60"></rect>
	    </g> 
        <desc>Width:2.5 Height:180 Depth:60 Elevation:135</desc>
    </g></g></g></g><g><g transform="matrix(1,0,0,1,584.3359,645.7478)"><text x="0" y="0em" fill="#aaaaaa" stroke="none" style="font-family: Verdana; font-size: 5.98101px; fill-opacity: 1; cursor: default;">SIZES AND DIMENSIONS ARE APPROXIMATE, ACTUAL MAY VARY.</text></g><g transform="matrix(0.0907,0,0,0.0907,1010.5037,613.4446)"><!--?xml version="1.0" encoding="utf-8"?--><!-- Generator: Adobe Illustrator 17.0.0, SVG Export Plug-In . SVG Version: 6.00 Build 0)  --><svg xmlns="http://www.w3.org/2000/svg" width="1370.547" height="356.152" viewBox="0 0 1370.547 356.152">
  <g>
      <path d="M563.363.83c23.189,1.185,38.583,15.231,41.983,38.364,1.785,12.143,1.669,24.211-2.046,36.031-5.5,17.511-19.52,28.426-37.817,29.842a74.184,74.184,0,0,1-21.325-.995c-16.3-3.467-26.9-13.393-31.712-29.128a74.82,74.82,0,0,1-.118-43.788c5.285-17.828,17.866-27.374,35.989-30.1,1.017-.153,2.434.563,2.954-1.058h1C555.839,2.012,559.661.61,563.363.83ZM583.392,52.7a49.627,49.627,0,0,0-2.211-17.324c-3.506-10.839-11.031-16.4-22.263-16.525-12.5-.144-20.449,4.964-24.039,16.187a57.677,57.677,0,0,0,.007,35.861c3.626,11.268,11.417,16.232,24.065,16.1,11.093-.119,18.782-5.85,22.24-16.621A50.462,50.462,0,0,0,583.392,52.7Z" fill="#04385c"></path>
      <path d="M563.363.83c-3.7-.221-7.524,1.182-11.092-.83h11Q563.321.415,563.363.83Z" fill="#939598"></path>
      <path d="M270.166,213.992v91.261H245.5V194.917c1.812-.833,3.5-.464,5.13-.465q53.973-.037,107.945.024a78.2,78.2,0,0,1,20.756,2.359c12.687,3.5,19.989,11.961,22.762,24.554a42.4,42.4,0,0,1,.982,8.917c.077,24.154.044,48.309.038,72.463,0,.66-.076,1.32-.141,2.387h-24.1c-.8-1.691-.422-3.373-.424-5q-.046-29.735-.017-59.47a44.589,44.589,0,0,0-1.746-13.794c-2.45-7.656-7.744-11.9-15.56-12.81-7.942-.921-15.938-.5-24.462-.476v91.677H311.931V213.992Z" fill="#04385c"></path>
      <path d="M98.288,356.066l-8.095.087Q71.235,345.31,52.281,334.462c-15.207-8.751-30.367-17.584-45.59-26.308-2.982-1.709-5.465-3.715-6.5-7.125q.026-49.846.041-99.691c0-.824-.152-1.647-.233-2.471.716-3.526,2.95-5.816,5.97-7.559q40.784-23.542,81.531-47.15c4.488-2.6,8.684-2.531,13.153.063q40.73,23.633,81.543,47.124c4.308,2.484,6.153,6.044,6.136,11.071q-.161,47.2-.008,94.4a11.582,11.582,0,0,1-6.3,10.981Q140.137,331.892,98.288,356.066Zm-21.1-96.029c.349-6.91-.343-13.838.382-20.741l50.626-29.013V170.229c-9.609-5.54-19.156-10.926-28.573-16.532-3.858-2.3-7.242-2.225-11.137.036-24.987,14.506-50.064,28.857-75.1,43.278-1.691.974-3.664,1.713-4.158,3.968-1.579,1.268-1.029,3.058-1.031,4.641q-.051,43.9,0,87.8c0,1.57-.6,3.376,1.059,4.606.569,2.425,2.693,3.206,4.536,4.269Q42.7,318.966,71.629,335.6c1.491.855,2.885,2.351,5.556,1.408ZM178.317,299.1c1.808-1.419,1.736-3.441,1.736-5.435q0-44.149,0-88.3c0-2,0-4.007-1.741-5.453-.405-.5-.709-1.183-1.231-1.486q-14.378-8.335-28.81-16.58c-.646-.37-1.392-1.084-2.044.047-1.3,1.014-.734,2.452-.745,3.7-.059,6.474-.027,12.95-.027,19.424,0,4.949,0,9.9,0,14.709-1.66,1.015-2.913,1.822-4.2,2.564q-21.556,12.4-43.1,24.815c-1.341.776-3.222.99-3.7,2.909-.056.662-.161,1.325-.161,1.987q-.013,45.733,0,91.465c0,1.136-.272,2.337.527,3.419,2.054.766,3.422-.793,4.927-1.656q37.005-21.225,73.95-42.556C175.362,301.705,177.448,301.15,178.317,299.1Z" fill="#04385c"></path>
      <path d="M941.809,305.567v35.088h-24.1c-.926-.936-.417-2.342-.418-3.6q-.045-61.951-.017-123.9c.006-11.885,4.915-17.5,16.865-18.442,7.117-.563,14.306-.3,21.461-.259,8.318.05,16.634-.193,24.956.35,20.133,1.312,32.929,11.675,37.207,31.33a109.215,109.215,0,0,1-.593,49.98c-4.3,17.343-17.117,27.7-34.964,29-11.81.862-23.63.248-35.444.451C945.3,305.589,943.839,305.567,941.809,305.567Zm.03-19.225c10.9.026,21.167.494,31.428-.267,10.5-.779,17.922-6.915,19.788-17.222a105.16,105.16,0,0,0,0-37.7c-1.671-9.176-7.363-15.387-16.773-16.791-9.872-1.472-19.89-1.014-29.854-.476-2.79.151-4.169,1.814-4.43,4.463-.146,1.485-.156,2.987-.157,4.481q-.016,21.954-.006,43.908C941.839,273.041,941.839,279.345,941.839,286.343Z" fill="#04385c"></path>
      <path d="M496.248,236.152c-.083-4.487.361-8.437-.682-12.364-1.633-6.144-5.169-9.309-11.508-10.039a43.991,43.991,0,0,0-4.988-.176c-15.666-.012-31.332.009-47-.031-1.614,0-3.32.456-5.1-.64V195.191c1.639-1.352,3.55-.722,5.3-.727q28.5-.075,57-.029c19.32.01,31.173,11.116,31.489,30.317.346,20.993.209,42,.027,63-.1,11.493-6.292,17.359-17.9,17.4-18.832.074-37.665.03-56.5.017-15.383-.01-23.49-6.391-26.605-21.482-2.08-10.075-1.991-20.2,1.423-30.057,4.086-11.8,11.985-17.437,24.429-17.468C462.291,236.122,478.95,236.152,496.248,236.152Zm-.035,19.031c-14.218,0-27.98-.117-41.737.072-4.033.055-7.428,1.984-8.86,6.112a28.166,28.166,0,0,0-.063,18.577,8.411,8.411,0,0,0,8.269,6.1q18.451.181,36.9.025c3.443-.031,5.345-1.81,5.424-5.236C496.343,272.415,496.213,263.986,496.213,255.183Z" fill="#04385c"></path>
      <path d="M671.372,2.153h20.722c6.171,25.742,14.164,50.946,19.217,76.976,5.349-25.9,12.056-51.335,17.793-76.994h21.531l-25.8,101.618H699.842C693.9,79.456,686.623,55.3,681.648,29.3c-5.016,25.765-12.134,49.862-18.153,74.445H638.559L612.686,2.256h21.571c5.7,25.683,12.6,51.166,17.676,77.256,2.483-13.01,5.981-25.753,9.326-38.536C664.624,28.123,667.959,15.262,671.372,2.153Z" fill="#04385c"></path>
      <path d="M735.5,258.6a36.465,36.465,0,0,0,1.4,15.2c2.337,7.617,8.1,11.029,15.555,12.105a42.3,42.3,0,0,0,5.983.233c15.99.017,31.981,0,47.971.029,1.626,0,3.308-.369,5.152.482v18.154a9.631,9.631,0,0,1-1.68.337q-32.228-.05-64.455-.146a39.772,39.772,0,0,1-13.647-2.663c-11.287-4.166-17.159-13.016-19.3-24.194-3.415-17.794-3.769-35.778.029-53.567,3.53-16.533,13.99-26.447,30.726-29.277a111.966,111.966,0,0,1,40.241.236c19.867,3.863,30.164,15.812,31.615,36.081a45.048,45.048,0,0,1-.717,13.9c-2.146,8.919-6.643,12.63-15.838,12.646-19.322.033-38.643,0-57.965.028C738.952,258.192,737.276,257.854,735.5,258.6Zm.016-19.36c20.546,1.1,48.492.558,53.013-1.034,1.752-2.607,1.851-5.508,1.3-8.534-1.357-7.43-5.948-12.145-12.819-14.565a45.359,45.359,0,0,0-27.915-.552c-6.057,1.706-9.957,5.761-11.947,11.66A27.587,27.587,0,0,0,735.52,239.244Z" fill="#04385c"></path>
      <path d="M1151.425,248.983a93.192,93.192,0,0,1-2.2,22.284c-3.884,16.3-13.4,27.144-30.15,30.914a118.074,118.074,0,0,1-49.988.327c-16.62-3.386-26.986-13.646-30.952-30.116a99.613,99.613,0,0,1-.215-45.959c3.85-16.882,14.3-27.288,31.44-30.735a119.309,119.309,0,0,1,47.081-.245c20,3.97,30.748,15.937,33.793,36.129A129.764,129.764,0,0,1,1151.425,248.983Zm-90.576.12a65.267,65.267,0,0,0,1.437,16.372c2.358,10.08,8.019,17.093,18.5,19.343a63.749,63.749,0,0,0,22.824.49c11.649-1.707,18.544-8.36,21.03-19.654a76.883,76.883,0,0,0,.051-33.19c-2.17-9.963-7.941-16.683-18.2-18.952a58.284,58.284,0,0,0-26.213.091c-9.139,2.141-14.7,7.812-17.364,16.731C1061.071,236.5,1060.8,242.768,1060.849,249.1Z" fill="#04385c"></path>
      <path d="M1214.416,50.642c10.435,2.233,16.423,8.263,17.66,18.329,1.431,11.648-1.236,21.869-11.724,28.763a35.005,35.005,0,0,1-18.3,5.936c-14.94.4-29.9.126-45.1.126V2.542c1.52-.94,3.049-.548,4.49-.525,13.965.227,27.959-.754,41.888.966a45.414,45.414,0,0,1,14.347,3.971c6.8,3.286,10.662,8.677,11.78,16.18a34.644,34.644,0,0,1-.252,11.414C1227.826,42.12,1224.061,46.24,1214.416,50.642ZM1178.6,86.092c7.4-.507,14.392.746,21.283-.969,6.6-1.642,9.793-5.767,9.82-12.548.025-6.31-2.818-9.993-9.338-11.736-7.16-1.914-14.4-.63-21.766-1.056Zm.1-43.709c7.492-.072,14.789.785,21.87-1.372,4.887-1.489,6.937-4.9,6.846-10.274-.082-4.808-2.475-8.232-7.235-9.482-7.1-1.863-14.323-1.34-21.481-1.051Z" fill="#04385c"></path>
      <path d="M1017.243,104.008V2.638c1.158-1.091,2.562-.624,3.833-.622,10.828.012,21.661-.111,32.481.2A54.789,54.789,0,0,1,1078.5,8.471c13.117,7.13,20.249,18.51,22.306,33.023a70.241,70.241,0,0,1-1.186,27.766c-4.663,17.907-16.547,28.3-34.11,32.677a74.106,74.106,0,0,1-18.8,2.1C1037.063,103.929,1027.417,104.008,1017.243,104.008Zm21.924-83.859v65.68c4.638,0,8.974.31,13.251-.057q21.239-1.824,25.465-21.9a52.527,52.527,0,0,0-.219-23.272c-3.02-12.677-10.735-19.415-23.745-20.4C1049.138,19.846,1044.305,20.149,1039.168,20.149Z" fill="#04385c"></path>
      <path d="M894.872,59.881l29.466,43.8H900.144L876.159,65.2h-11.3v38.59h-21.5V2.5c1.386-.935,2.93-.508,4.369-.479,12.473.249,24.979-.794,37.414.915,1.807.248,3.607.585,5.384,1,13.1,3.05,20.756,10.6,22.578,22.245,2.144,13.693-2.765,24.486-14.314,31.451C897.665,58.311,896.507,58.945,894.872,59.881ZM864.93,46.974c6.467.234,12.856.806,19.006-1.754,5.39-2.244,7.711-6.278,7.478-12.7-.211-5.814-2.649-9.093-8.356-10.906-5.909-1.877-11.954-1.939-18.128-1.318Z" fill="#04385c"></path>
      <path d="M1326.182,286.676v18.809c-11.611.054-23.093.872-34.274-2.442-11.445-3.392-18.143-11.274-20.516-22.837a52.782,52.782,0,0,1-1.007-10.912c.089-16.819.039-33.639.039-50.458,0-1.626,0-3.252,0-5.3h-14.931V194.417h14.814V159.338h24.619v35.035h31.332v19.046h-30.341c-1.16,1.969-.775,3.5-.778,4.956q-.049,22.232-.016,44.464c0,1.164.041,2.33.1,3.493.632,12.339,6.482,18.5,18.829,19.654C1318,286.356,1321.974,286.445,1326.182,286.676Z" fill="#04385c"></path>
      <path d="M663,194.512h31.1v18.841H664.228c-1.531,1.486-1.087,2.9-1.089,4.173q-.047,23.238-.019,46.477c0,.833,0,1.666.034,2.5.557,11.919,6.564,18.3,18.5,19.456,4.111.4,8.251.494,12.792.752,0,5.164.019,10.129-.015,15.093-.008,1.124.317,2.33-.763,3.661-10.54.176-21.361.734-31.97-1.839-14.66-3.555-23.077-14.888-23.236-31.392-.168-17.489-.037-34.981-.036-52.472,0-1.814,0-3.628,0-5.8-5.045-.916-10.018.025-14.993-.608V194.877c4.716-1.047,9.539,0,14.779-.687V159.3H663Z" fill="#04385c"></path>
      <path d="M607.226,286.008v18.97c-11.14-.149-22.106.927-32.876-1.963-12.529-3.362-19.831-11.511-22.087-24.238a61.06,61.06,0,0,1-.866-10.928c.062-16.484.033-32.969.017-49.453,0-1.616-.136-3.233-.218-5.078H536.631V194.071H551.3v-34.9H575.85v34.655h31.325V213.1h-31.1c.206,19-.585,37.454.451,55.87.508,9.024,6.08,14.075,15.2,16.049C596.782,286.115,601.915,285.953,607.226,286.008Z" fill="#04385c"></path>
      <path d="M426.882,103.759V2.665c1.32-1.087,2.7-.651,3.969-.649,10.825.013,21.652-.008,32.476.175a45.283,45.283,0,0,1,16.081,3.126c9.545,3.807,15.463,10.668,17.084,20.97,1.93,12.263.563,23.666-9.218,32.545-7.144,6.486-16.072,8.418-25.354,8.971-4.29.256-8.608.044-13.363.044v35.913Zm21.562-53.878c6.6.2,12.713.558,18.537-1.94,5.94-2.548,8.308-7.446,8.225-13.568-.074-5.417-1.673-10.234-7.229-12.561-6.329-2.651-12.876-1.8-19.533-1.614,0,8.929,0,17.238,0,25.547C448.444,46.9,448.444,48.053,448.444,49.881Z" fill="#04385c"></path>
      <path d="M996.637,2.29V19.98H960.031V41.865h33.848V59.807H960.09v26.07h36.379v17.8H938.021V2.29Z" fill="#04385c"></path>
      <path d="M764.268,103.7V2.344h58.324V20.059H785.984v21.89h33.925V59.858H786.059v25.87h36.436V103.7Z" fill="#04385c"></path>
      <path d="M1192.839,305.328H1168.9c-1.073-1.144-.614-2.54-.616-3.794-.032-22.811-.139-45.623.028-68.433.079-10.74,2.42-20.84,10.782-28.527,6.677-6.138,14.972-8.508,23.667-9.445,11.6-1.25,23.276-.624,34.921-.646a6.521,6.521,0,0,1,1.569.446v17.83c-1.123,1.268-2.537.762-3.8.789-6.487.138-12.981.084-19.463.327-13.987.525-21.3,7.486-22.681,21.493-.309,3.14-.447,6.309-.454,9.465q-.062,27.473-.02,54.947Z" fill="#04385c"></path>
      <path d="M1292.349,103.836h-21.085c0-6.6.011-13.043,0-19.484-.014-6.326,1.061-12.924-.4-18.9-1.414-5.779-5.445-10.919-8.337-16.334q-11.382-21.31-22.759-42.622c-.682-1.281-1.844-2.416-1.514-4.294h22.9l20.885,41.436,21.042-41.445h23.047c-.082,2.007-1.317,3.448-2.159,5.008-9.627,17.824-19.25,35.652-29.022,53.4a16.567,16.567,0,0,0-2.143,8.524c.1,9.822.058,19.646.019,29.47C1292.813,100.225,1293.168,101.906,1292.349,103.836Z" fill="#04385c"></path>
      <path d="M901.221,194.952v18.9H886.651c-2.666,0-5.333-.05-8,.011-14.147.325-21.822,7.366-23.3,21.5a103.517,103.517,0,0,0-.5,10.46c-.048,17.994-.022,35.988-.022,53.982v5.363h-24.1c-.9-1.014-.454-2.405-.455-3.664-.031-22.492.005-44.985-.049-67.477a56.66,56.66,0,0,1,1.337-11.885c3.117-14.737,12.761-22.808,27.028-25.933A43.406,43.406,0,0,1,868,194.941C878.957,194.969,889.919,194.952,901.221,194.952Z" fill="#04385c"></path>
      <g>
        <path d="M1353.563,198.022v4.807c4.959-.064,5.334-.346,5.265-2.874C1358.834,197.578,1355.837,197.765,1353.563,198.022Z" fill="none"></path>
        <path d="M1370.271,200.484c-2.45-6.908-6.523-10.765-12.779-11.1-6.46-.343-12,2.8-14.658,8.327a15.151,15.151,0,0,0,7.885,20.364c8.62,3.444,16.684-.865,19.552-10.375A23.771,23.771,0,0,0,1370.271,200.484Zm-6,13.219a12.6,12.6,0,0,1-17.736-1.678,12.512,12.512,0,0,1,18.157-17.183c5.04,5,5.375,12.65-.311,18.8" fill="#04385c"></path>
        <path d="M1359.3,205.078c1.313-1.176,1.664-1.342,2.159-2.387,1.741-3.678.041-7.01-3.99-7.506-2.236-.275-.06-.2-6.812-.094-.044,16.715.154.057-.047,17.023l2.951-.015-.036-6.062a8.048,8.048,0,0,1,3.256-.058c1.17,1.664,2.212,4.221,3.648,5.943h2.926C1361.929,209.515,1360.389,206.894,1359.3,205.078Zm-5.739-2.248v-4.807c2.274-.257,5.271-.445,5.265,1.933C1358.9,202.484,1358.523,202.765,1353.563,202.829Z" fill="#04385c"></path>
      </g>
      <path d="M9.225,200.98c.494-2.255,2.467-2.994,4.158-3.968,25.037-14.42,50.113-28.772,75.1-43.278,3.9-2.261,7.279-2.333,11.137-.036,9.417,5.605,18.965,10.992,28.573,16.532v40.053L77.567,239.3a11.091,11.091,0,0,1-2.866-.738c-9.047-5.191-18.031-10.492-27.077-15.684Q28.454,211.874,9.225,200.98Z" fill="#d6d7da"></path>
      <path d="M94.446,250.012c.478-1.919,2.359-2.132,3.7-2.909q21.52-12.462,43.1-24.815c1.29-.742,2.543-1.549,4.2-2.564,0-4.812,0-9.761,0-14.709,0-6.475-.031-12.95.027-19.424.011-1.246-.56-2.684.745-3.7.06,12.274.121,24.549.184,37.45,7.189-4.119,13.6-7.48,19.672-11.38,4.1-2.634,9.138-3.891,12.228-8.052,1.745,1.445,1.741,3.456,1.741,5.453q.007,44.149,0,88.3c0,1.994.072,4.016-1.736,5.435.01-2.354-2.134-2.916-3.544-3.751-7.546-4.468-15.241-8.681-22.847-13.049-14.918-8.566-29.739-17.305-44.761-25.684C103.01,254.295,99.223,251.162,94.446,250.012Z" fill="#f9b615"></path>
      <path d="M94.446,250.012c4.777,1.15,8.564,4.282,12.718,6.6,15.022,8.379,29.843,17.118,44.761,25.684,7.606,4.367,15.3,8.581,22.847,13.049,1.41.835,3.554,1.4,3.544,3.751-.869,2.054-2.955,2.609-4.626,3.574q-36.937,21.343-73.95,42.556c-1.5.863-2.873,2.422-4.927,1.656-.8-1.081-.526-2.283-.527-3.419q-.02-45.733,0-91.465C94.286,251.337,94.39,250.675,94.446,250.012Z" fill="#fde201"></path>
      <path d="M9.225,200.98q19.2,10.942,38.4,21.894c9.047,5.191,18.031,10.492,27.077,15.684a11.091,11.091,0,0,0,2.866.738c-.725,6.9-.033,13.831-.382,20.741a6.854,6.854,0,0,0-2.405.352c-9.055,5.2-18.039,10.52-27.1,15.7-12.8,7.319-25.333,15.114-38.42,21.932C7.6,296.794,8.2,294.987,8.2,293.417q-.057-43.9,0-87.8C8.2,204.038,7.646,202.248,9.225,200.98Z" fill="#939598"></path>
      <path d="M9.256,298.024c13.088-6.818,25.619-14.613,38.42-21.932,9.064-5.182,18.048-10.5,27.1-15.7a6.854,6.854,0,0,1,2.405-.352v76.972c-2.671.943-4.066-.553-5.556-1.408Q42.682,319,13.792,302.292C11.949,301.229,9.825,300.448,9.256,298.024Z" fill="#d6d7da"></path>
      <path d="M178.31,199.911c-3.09,4.161-8.129,5.418-12.228,8.052-6.069,3.9-12.483,7.261-19.672,11.38-.063-12.9-.124-25.175-.184-37.45.652-1.131,1.4-.417,2.044-.047q14.422,8.259,28.81,16.58C177.6,198.728,177.9,199.407,178.31,199.911Z" fill="#fde201"></path>
  </g>
<desc>Created with Snap</desc><defs></defs></svg></g><g transform="matrix(1,0,0,1,608.875,636.1499)"><text x="32.0234375" y="-2.8em" fill="#000000" stroke="none" style="font-family: Verdana; font-size: 6.93077px; fill-opacity: 1; cursor: default;">GROSS INTERNAL AREA</text><text x="0" y="-1.4em" fill="#000000" stroke="none" style="font-family: Verdana; font-size: 6.93077px; fill-opacity: 1; cursor: default;">FLOOR 1: 1845 sq ft, FLOOR 2: 1288 sq ft</text><text x="41.984375" y="0em" fill="#000000" stroke="none" style="font-family: Verdana; font-size: 6.93077px; fill-opacity: 1; cursor: default;">TOTAL: 3133 sq ft</text><text x="0" y="0"></text><text x="0" y="0"></text><text x="0" y="0"></text><text x="0" y="0"></text><text x="0" y="0"></text></g><g transform="matrix(1,0,0,1,231.1876,645.7478)"><text x="0" y="0em" fill="#aaaaaa" stroke="none" style="font-family: Verdana; font-size: 8.97152px; fill-opacity: 1; cursor: default;"><tspan>FLOOR 2</tspan></text></g></g></g></svg>