<?xml version="1.0" encoding="UTF-8" standalone="no"?>
<!-- Created with Inkscape (http://www.inkscape.org/) -->

<svg
   xmlns:dc="http://purl.org/dc/elements/1.1/"
   xmlns:cc="http://creativecommons.org/ns#"
   xmlns:rdf="http://www.w3.org/1999/02/22-rdf-syntax-ns#"
   xmlns:svg="http://www.w3.org/2000/svg"
   xmlns="http://www.w3.org/2000/svg"
   xmlns:sodipodi="http://sodipodi.sourceforge.net/DTD/sodipodi-0.dtd"
   xmlns:inkscape="http://www.inkscape.org/namespaces/inkscape"
   width="640"
   height="640"
   id="svg2"
   version="1.1"
   inkscape:version="0.48.4 r9939"
   sodipodi:docname="arme_aussen.svg">
  <defs
     id="defs4" />
  <sodipodi:namedview
     id="base"
     pagecolor="#ffffff"
     bordercolor="#666666"
     borderopacity="1.0"
     inkscape:pageopacity="0.0"
     inkscape:pageshadow="2"
     inkscape:zoom="0.49497475"
     inkscape:cx="168.2272"
     inkscape:cy="441.29767"
     inkscape:document-units="px"
     inkscape:current-layer="layer1"
     showgrid="false"
     inkscape:window-width="1172"
     inkscape:window-height="610"
     inkscape:window-x="225"
     inkscape:window-y="225"
     inkscape:window-maximized="0" />
  <metadata
     id="metadata7">
    <rdf:RDF>
      <cc:Work
         rdf:about="">
        <dc:format>image/svg+xml</dc:format>
        <dc:type
           rdf:resource="http://purl.org/dc/dcmitype/StillImage" />
        <dc:title />
      </cc:Work>
    </rdf:RDF>
  </metadata>
  <g
     inkscape:label="Layer 1"
     inkscape:groupmode="layer"
     id="layer1"
     transform="translate(0,-412.36218)">
    <g
       id="g3828"
       transform="matrix(0.98182636,0,0,1,1.7764936,0)">
      <path
         id="path2991"
         d="m 279.93909,478.77693 c -6.88655,16.2495 -32.90241,23.74926 -44.37999,29.99907 -32.13722,16.87448 -59.30084,24.68674 -79.57791,39.99877 -10.32982,7.49977 -17.59895,35.6239 -17.98154,50.31094 -0.38259,14.68706 3.44328,36.56138 16.83379,53.74834 4.59103,5.93733 -2.6781,19.6869 4.97362,60.31065 2.29551,10.93717 -3.44328,38.74881 -3.82587,53.12336 -0.76517,14.06207 4.59105,37.49885 6.12138,50.62344 1.53035,13.43709 5.7388,54.37332 0.76517,68.12291 -3.44327,10.62467 -15.68603,11.87463 -20.65964,16.87447 -20.65965,21.87434 -55.092402,24.06177 -38.6412,27.81165 17.59896,3.74989 25.63327,-6.5623 39.40637,-2.18743 9.56466,3.1249 12.62533,12.8121 11.86017,24.06175 -1.14777,11.24966 0.76516,29.06161 0,35.31141 -0.76518,13.12464 8.0343,11.56215 9.18206,3.1249 2.29552,-15.31202 3.06069,-44.37362 7.65172,-34.06143 2.29552,4.68735 3.82586,30.93653 5.35622,39.37378 1.53035,11.24959 8.0343,8.43719 8.41689,0.93747 0.38259,-13.43709 -4.20846,-53.12339 4.59102,-41.87371 3.0607,4.37485 4.59105,25.3117 9.18207,38.12382 3.82587,10.93711 9.94724,7.18727 9.18207,-2.81243 -1.53035,-16.24949 -10.71242,-45.93608 -3.06069,-40.62374 3.44328,2.18745 8.79948,14.06206 14.53828,23.43678 4.97361,8.43724 12.62533,8.74974 8.4169,-2.81242 -6.50398,-17.81195 -9.56466,-23.12429 -10.32984,-26.87416 -2.67811,-10.31219 -3.06069,-26.2492 -6.12136,-34.99892 -3.0607,-8.74974 -5.35623,-10.31219 -4.20846,-23.1243 1.91293,-20.93685 14.53827,-64.06052 17.21637,-104.99677 1.91293,-30.62405 -5.73879,-43.12367 -5.73879,-62.81056 0,-19.06192 3.82585,-33.74896 5.73879,-45.3111"
         style="fill:none;stroke:#000000;stroke-width:3;stroke-linecap:round;stroke-linejoin:miter;stroke-miterlimit:4;stroke-opacity:1;stroke-dasharray:none"
         class="nxlocs-body-lines"
         inkscape:connector-curvature="0" />
      <path
         id="path2993"
         d="m 216.81239,620.33507 c 5.73879,16.56198 3.06069,39.99877 17.59895,72.18528"
         style="fill:none;stroke:#000000;stroke-width:3;stroke-linecap:round;stroke-linejoin:miter;stroke-miterlimit:4;stroke-opacity:1;stroke-dasharray:none"
         class="nxlocs-body-lines"
         inkscape:connector-curvature="0" />
      <path
         id="path2995"
         d="m 175.11051,722.20692 c 1.14775,2.81242 3.82584,15.31204 22.18998,21.24935"
         style="fill:none;stroke:#000000;stroke-width:3;stroke-linecap:round;stroke-linejoin:miter;stroke-miterlimit:4;stroke-opacity:1;stroke-dasharray:none"
         class="nxlocs-body-lines"
         inkscape:connector-curvature="0" />
      <path
         id="path2997"
         d="m 102.41913,925.95065 c 3.0607,4.37487 11.095,-0.93753 11.095,-4.37487"
         style="fill:none;stroke:#000000;stroke-width:3;stroke-linecap:round;stroke-linejoin:miter;stroke-miterlimit:4;stroke-opacity:1;stroke-dasharray:none"
         class="nxlocs-body-lines"
         inkscape:connector-curvature="0" />
      <path
         id="path2999"
         d="m 161.72,995.32351 c -1.53035,0.62499 -4.59105,0 -5.73881,-0.93747 -0.76517,-0.62499 0.38259,-8.12474 4.20846,-7.81226 3.44327,0.62493 1.53035,8.74974 1.53035,8.74974 z"
         style="fill:none;stroke:#000000;stroke-width:3;stroke-linecap:round;stroke-linejoin:miter;stroke-miterlimit:4;stroke-opacity:1;stroke-dasharray:none"
         class="nxlocs-body-lines"
         inkscape:connector-curvature="0" />
      <path
         id="path3001"
         d="m 207.63032,996.88596 c -1.91293,0.93747 -3.82585,0.93747 -4.97361,0.93747 -1.53036,0 -3.82587,-8.12475 1.14776,-8.74973 4.20844,-0.31247 3.82585,7.81226 3.82585,7.81226 z"
         style="fill:none;stroke:#000000;stroke-width:3;stroke-linecap:round;stroke-linejoin:miter;stroke-miterlimit:4;stroke-opacity:1;stroke-dasharray:none"
         class="nxlocs-body-lines"
         inkscape:connector-curvature="0" />
      <path
         id="path3003"
         d="m 185.05774,1001.2608 c -1.14776,0.9375 -3.82587,0.625 -4.97362,0.625 -2.29551,0 -2.6781,-9.06221 1.14775,-9.3747 3.44328,-0.3125 3.82587,8.7497 3.82587,8.7497 z"
         style="fill:none;stroke:#000000;stroke-width:3;stroke-linecap:round;stroke-linejoin:miter;stroke-miterlimit:4;stroke-opacity:1;stroke-dasharray:none"
         class="nxlocs-body-lines"
         inkscape:connector-curvature="0" />
      <path
         id="path3005"
         d="m 229.8203,976.57408 c -1.14774,0.93753 -2.67809,1.25 -4.20843,1.56246 -1.14777,0.31246 -5.73879,-6.87479 -1.91294,-8.12475 3.82587,-0.93753 6.12137,6.56229 6.12137,6.56229 z"
         style="fill:none;stroke:#000000;stroke-width:3;stroke-linecap:round;stroke-linejoin:miter;stroke-miterlimit:4;stroke-opacity:1;stroke-dasharray:none"
         class="nxlocs-body-lines"
         inkscape:connector-curvature="0" />
      <path
         id="path3007"
         d="m 387.44578,482.52681 c 6.50397,16.24951 32.51981,23.74927 44.37999,29.99907 32.13723,16.87448 58.91826,24.68675 79.5779,39.99877 9.94724,7.49977 17.21638,35.62391 17.59897,50.31095 0.76516,14.68704 -3.44327,36.56137 -16.83379,53.74834 -4.59104,5.93731 2.67811,19.6869 -4.97361,60.31065 -1.91294,10.93716 3.82584,38.7488 4.20843,53.12335 0.38259,14.06208 -4.59102,37.49886 -6.12137,50.62345 -1.53034,13.4371 -5.73879,54.37332 -1.14777,68.12291 3.82587,10.62467 16.06863,11.87463 20.65966,16.87447 20.65965,21.87433 55.47498,24.06176 38.64119,27.81165 -17.21638,3.74988 -25.63327,-6.5623 -39.40635,-2.18744 -9.56466,3.12491 -12.62536,12.81211 -11.4776,24.06176 1.14776,11.24965 -0.76517,29.06161 -0.38258,35.31141 1.14775,13.12455 -7.65173,11.56215 -8.79948,3.1249 -2.6781,-15.31202 -3.06069,-44.37362 -8.03431,-34.06145 -1.91294,4.68736 -3.82586,30.93655 -4.97361,39.3738 -1.91294,11.2496 -8.41689,8.4372 -8.79948,0.9375 -0.38259,-13.43712 4.20843,-53.1234 -4.20846,-41.87375 -3.44327,4.37488 -4.97361,25.31172 -9.18207,38.12383 -3.82585,10.93712 -9.94722,7.18722 -9.18207,-2.81242 1.14776,-16.2495 10.71242,-45.93607 2.67812,-40.62373 -3.44327,2.18741 -8.4169,14.06205 -14.15569,23.43677 -5.35622,8.43723 -12.62535,8.74972 -8.41689,-2.81242 6.50395,-17.81195 9.18206,-23.12429 10.32982,-26.87418 2.6781,-10.31216 3.06069,-26.24918 6.12138,-34.99892 3.06069,-8.74971 5.3562,-10.31218 4.20844,-23.12428 -1.91292,-20.93685 -14.53827,-64.06051 -17.21638,-104.99676 -1.91292,-30.62407 5.35622,-43.12367 5.35622,-62.81057 0,-19.06191 -3.44328,-33.74896 -5.73881,-45.31109"
         style="fill:none;stroke:#000000;stroke-width:3;stroke-linecap:round;stroke-linejoin:miter;stroke-miterlimit:4;stroke-opacity:1;stroke-dasharray:none"
         class="nxlocs-body-lines"
         inkscape:connector-curvature="0" />
      <path
         id="path3009"
         d="m 450.57248,624.08494 c -5.73878,16.562 -3.06068,39.99879 -17.59895,72.18528"
         style="fill:none;stroke:#000000;stroke-width:3;stroke-linecap:round;stroke-linejoin:miter;stroke-miterlimit:4;stroke-opacity:1;stroke-dasharray:none"
         class="nxlocs-body-lines"
         inkscape:connector-curvature="0" />
      <path
         id="path3011"
         d="m 491.89179,725.9568 c -0.76518,2.81242 -3.44328,15.31203 -22.19,21.24936"
         style="fill:none;stroke:#000000;stroke-width:3;stroke-linecap:round;stroke-linejoin:miter;stroke-miterlimit:4;stroke-opacity:1;stroke-dasharray:none"
         class="nxlocs-body-lines"
         inkscape:connector-curvature="0" />
      <path
         id="path3013"
         d="m 564.58314,929.70053 c -3.06069,4.37486 -10.71241,-0.93741 -11.095,-4.37486"
         style="fill:none;stroke:#000000;stroke-width:3;stroke-linecap:round;stroke-linejoin:miter;stroke-miterlimit:4;stroke-opacity:1;stroke-dasharray:none"
         class="nxlocs-body-lines"
         inkscape:connector-curvature="0" />
      <path
         id="path3015"
         d="m 505.66488,999.0734 c 1.53036,0.62497 4.59103,0 5.73879,-0.93748 0.76518,-0.62497 -0.38259,-8.12476 -4.59102,-7.81226 -3.44328,0.62499 -1.14777,8.74974 -1.14777,8.74974 z"
         style="fill:none;stroke:#000000;stroke-width:3;stroke-linecap:round;stroke-linejoin:miter;stroke-miterlimit:4;stroke-opacity:1;stroke-dasharray:none"
         class="nxlocs-body-lines"
         inkscape:connector-curvature="0" />
      <path
         id="path3017"
         d="m 459.75455,1000.6359 c 1.53035,0.9374 3.44328,0.9374 4.97363,0.9374 1.14775,0 3.44326,-8.12474 -1.14776,-8.74972 -4.59105,-0.31249 -3.82587,7.81222 -3.82587,7.81222 z"
         style="fill:none;stroke:#000000;stroke-width:3;stroke-linecap:round;stroke-linejoin:miter;stroke-miterlimit:4;stroke-opacity:1;stroke-dasharray:none"
         class="nxlocs-body-lines"
         inkscape:connector-curvature="0" />
      <path
         id="path3019"
         d="m 481.94456,1005.0107 c 1.53034,0.9374 4.20843,0.625 4.97361,0.625 2.29552,0 3.06069,-9.06223 -0.76518,-9.37471 -3.44327,-0.31249 -4.20843,8.74971 -4.20843,8.74971 z"
         style="fill:none;stroke:#000000;stroke-width:3;stroke-linecap:round;stroke-linejoin:miter;stroke-miterlimit:4;stroke-opacity:1;stroke-dasharray:none"
         class="nxlocs-body-lines"
         inkscape:connector-curvature="0" />
      <path
         id="path3021"
         d="m 437.56456,980.32396 c 0.76517,0.93753 2.6781,1.25001 3.82587,1.56245 1.14774,0.31248 6.12137,-6.87478 1.91292,-8.12473 -3.82585,-0.93753 -5.73879,6.56228 -5.73879,6.56228 z"
         style="fill:none;stroke:#000000;stroke-width:3;stroke-linecap:round;stroke-linejoin:miter;stroke-miterlimit:4;stroke-opacity:1;stroke-dasharray:none"
         class="nxlocs-body-lines"
         inkscape:connector-curvature="0" />
    </g>
    <path
       sodipodi:type="arc"
       style="fill-opacity:1;stroke:#ff0000;stroke-width:15;stroke-miterlimit:4;stroke-opacity:1;stroke-dasharray:none"
       id="marker_407"
       class="nxlocs-marker"
       sodipodi:cx="117.14286"
       sodipodi:cy="867.19153"
       sodipodi:rx="18.571428"
       sodipodi:ry="18.571428"
       d="m 135.71429,867.19153 a 18.571428,18.571428 0 1 1 -37.142858,0 18.571428,18.571428 0 1 1 37.142858,0 z"
       transform="matrix(0.53079996,0.0103068,-0.0103068,0.53079996,134.48232,271.67161)"
       inkscape:label="ellenbogen_li" />
    <path
       sodipodi:type="arc"
       style="fill-opacity:1;stroke:#ff0000;stroke-width:15;stroke-miterlimit:4;stroke-opacity:1;stroke-dasharray:none"
       id="marker_408"
       class="nxlocs-marker"
       sodipodi:cx="117.14286"
       sodipodi:cy="867.19153"
       sodipodi:rx="18.571428"
       sodipodi:ry="18.571428"
       d="m 135.71429,867.19153 a 18.571428,18.571428 0 1 1 -37.142858,0 18.571428,18.571428 0 1 1 37.142858,0 z"
       transform="matrix(0.53079996,0.0103068,-0.0103068,0.53079996,418.7113,274.50113)"
       inkscape:label="ellenbogen_re" />
    <rect
       style="opacity:0.5;fill:#666666;fill-opacity:1;stroke:none"
       id="link_haende_aussen"
       width="550.99158"
       height="133.89543"
       x="-601.21008"
       y="889.32855"
       inkscape:label=""
       transform="scale(-1,1)" />
    <rect
       style="opacity:0.5;fill:#666666;fill-opacity:1;stroke:none"
       id="link_408"
       width="230.42088"
       height="56.038277"
       x="-582.51605"
       y="703.49182"
       inkscape:label="ellenbogen_re"
       transform="scale(-1,1)" />
    <rect
       style="opacity:0.5;fill:#666666;fill-opacity:1;stroke:none"
       id="link_407"
       width="226.84946"
       height="55.323994"
       x="-312.65897"
       y="704.92035"
       inkscape:label="ellenbogen_li"
       transform="scale(-1,1)" />
    <path
       sodipodi:type="arc"
       style="fill-opacity:1;stroke:#ff0000;stroke-width:15;stroke-miterlimit:4;stroke-opacity:1;stroke-dasharray:none"
       id="marker_403"
       class="nxlocs-marker"
       sodipodi:cx="117.14286"
       sodipodi:cy="867.19153"
       sodipodi:rx="18.571428"
       sodipodi:ry="18.571428"
       d="m 135.71429,867.19153 a 18.571428,18.571428 0 1 1 -37.142858,0 18.571428,18.571428 0 1 1 37.142858,0 z"
       transform="matrix(0.53079996,0.0103068,-0.0103068,0.53079996,121.95413,166.36404)"
       inkscape:label="oberarm_li_aussen" />
    <path
       sodipodi:type="arc"
       style="fill-opacity:1;stroke:#ff0000;stroke-width:15;stroke-miterlimit:4;stroke-opacity:1;stroke-dasharray:none"
       id="marker_404"
       class="nxlocs-marker"
       sodipodi:cx="117.14286"
       sodipodi:cy="867.19153"
       sodipodi:rx="18.571428"
       sodipodi:ry="18.571428"
       d="m 135.71429,867.19153 a 18.571428,18.571428 0 1 1 -37.142858,0 18.571428,18.571428 0 1 1 37.142858,0 z"
       transform="matrix(0.53079996,0.0103068,-0.0103068,0.53079996,426.23984,172.07833)"
       inkscape:label="oberarm_re_aussen" />
    <path
       sodipodi:type="arc"
       style="fill-opacity:1;stroke:#ff0000;stroke-width:15;stroke-miterlimit:4;stroke-opacity:1;stroke-dasharray:none"
       id="marker_411"
       class="nxlocs-marker"
       sodipodi:cx="117.14286"
       sodipodi:cy="867.19153"
       sodipodi:rx="18.571428"
       sodipodi:ry="18.571428"
       d="m 135.71429,867.19153 a 18.571428,18.571428 0 1 1 -37.142858,0 18.571428,18.571428 0 1 1 37.142858,0 z"
       transform="matrix(0.53079996,0.0103068,-0.0103068,0.53079996,136.23985,363.5069)"
       inkscape:label="unterarm_li_aussen" />
    <path
       sodipodi:type="arc"
       style="fill-opacity:1;stroke:#ff0000;stroke-width:15;stroke-miterlimit:4;stroke-opacity:1;stroke-dasharray:none"
       id="marker_412"
       class="nxlocs-marker"
       sodipodi:cx="117.14286"
       sodipodi:cy="867.19153"
       sodipodi:rx="18.571428"
       sodipodi:ry="18.571428"
       d="m 135.71429,867.19153 a 18.571428,18.571428 0 1 1 -37.142858,0 18.571428,18.571428 0 1 1 37.142858,0 z"
       transform="matrix(0.53079996,0.0103068,-0.0103068,0.53079996,417.66842,367.79262)"
       inkscape:label="unterarm_re_aussen" />
    <rect
       style="opacity:0.5;fill:#666666;fill-opacity:1;stroke:none"
       id="link_403"
       width="231.13516"
       height="178.18114"
       x="-310.64062"
       y="523.66351"
       inkscape:label="oberarm_li_aussen"
       transform="scale(-1,1)" />
    <rect
       style="opacity:0.5;fill:#666666;fill-opacity:1;stroke:none"
       id="link_411"
       width="228.27803"
       height="118.18114"
       x="-314.35492"
       y="765.09216"
       inkscape:label="unterarm_li_aussen"
       transform="scale(-1,1)" />
    <rect
       style="opacity:0.5;fill:#666666;fill-opacity:1;stroke:none"
       id="link_404"
       width="231.13516"
       height="178.18114"
       x="-580.64062"
       y="523.52069"
       inkscape:label="oberarm_re_aussen"
       transform="scale(-1,1)" />
    <rect
       style="opacity:0.5;fill:#666666;fill-opacity:1;stroke:none"
       id="link_412"
       width="228.27803"
       height="118.18114"
       x="-584.35492"
       y="764.94934"
       inkscape:label="unterarm_re_aussen"
       transform="scale(-1,1)" />
  </g>
</svg>
