<?xml version="1.0" encoding="UTF-8" standalone="no"?>
<!-- Created with Inkscape (http://www.inkscape.org/) -->

<svg
   xmlns:dc="http://purl.org/dc/elements/1.1/"
   xmlns:cc="http://creativecommons.org/ns#"
   xmlns:rdf="http://www.w3.org/1999/02/22-rdf-syntax-ns#"
   xmlns:svg="http://www.w3.org/2000/svg"
   xmlns="http://www.w3.org/2000/svg"
   xmlns:xlink="http://www.w3.org/1999/xlink"
   xmlns:sodipodi="http://sodipodi.sourceforge.net/DTD/sodipodi-0.dtd"
   xmlns:inkscape="http://www.inkscape.org/namespaces/inkscape"
   width="210mm"
   height="297mm"
   id="svg5228"
   version="1.1"
   inkscape:version="0.47 r22583"
   sodipodi:docname="autum_leaf.svg">
  <defs
     id="defs3">
    <linearGradient
       inkscape:collect="always"
       id="linearGradient6186">
      <stop
         style="stop-color:#fb8a00;stop-opacity:1"
         offset="0"
         id="stop6188" />
      <stop
         style="stop-color:#fdca01;stop-opacity:1"
         offset="1"
         id="stop6190" />
    </linearGradient>
    <linearGradient
       inkscape:collect="always"
       id="linearGradient6176">
      <stop
         style="stop-color:#ae7931;stop-opacity:1"
         offset="0"
         id="stop6178" />
      <stop
         style="stop-color:#f44800;stop-opacity:1"
         offset="1"
         id="stop6180" />
    </linearGradient>
    <linearGradient
       inkscape:collect="always"
       id="linearGradient6166">
      <stop
         style="stop-color:#57671a;stop-opacity:1;"
         offset="0"
         id="stop6168" />
      <stop
         style="stop-color:#9b9729;stop-opacity:1"
         offset="1"
         id="stop6170" />
    </linearGradient>
    <linearGradient
       inkscape:collect="always"
       id="linearGradient5944">
      <stop
         style="stop-color:#edc63d;stop-opacity:1"
         offset="0"
         id="stop5946" />
      <stop
         style="stop-color:#793b17;stop-opacity:1"
         offset="1"
         id="stop5948" />
    </linearGradient>
    <inkscape:perspective
       sodipodi:type="inkscape:persp3d"
       inkscape:vp_x="0 : 526.18109 : 1"
       inkscape:vp_y="0 : 1000 : 0"
       inkscape:vp_z="744.09448 : 526.18109 : 1"
       inkscape:persp3d-origin="372.04724 : 350.78739 : 1"
       id="perspective5234" />
    <inkscape:perspective
       id="perspective5412"
       inkscape:persp3d-origin="0.5 : 0.33333333 : 1"
       inkscape:vp_z="1 : 0.5 : 1"
       inkscape:vp_y="0 : 1000 : 0"
       inkscape:vp_x="0 : 0.5 : 1"
       sodipodi:type="inkscape:persp3d" />
    <linearGradient
       inkscape:collect="always"
       xlink:href="#linearGradient5944"
       id="linearGradient5950"
       x1="639.93164"
       y1="554.35699"
       x2="644.20703"
       y2="845.28088"
       gradientUnits="userSpaceOnUse"
       gradientTransform="matrix(1.4050296,0,0,1.4050296,-700.13692,-703.79234)" />
    <inkscape:perspective
       id="perspective6125"
       inkscape:persp3d-origin="0.5 : 0.33333333 : 1"
       inkscape:vp_z="1 : 0.5 : 1"
       inkscape:vp_y="0 : 1000 : 0"
       inkscape:vp_x="0 : 0.5 : 1"
       sodipodi:type="inkscape:persp3d" />
    <linearGradient
       inkscape:collect="always"
       xlink:href="#linearGradient6166"
       id="linearGradient6172"
       x1="155.56349"
       y1="452.33157"
       x2="178.59267"
       y2="870.58173"
       gradientUnits="userSpaceOnUse"
       gradientTransform="matrix(1.3431498,0,0,1.3431498,-41.998318,-135.88276)" />
    <linearGradient
       inkscape:collect="always"
       xlink:href="#linearGradient6176"
       id="linearGradient6182"
       x1="701.2984"
       y1="564.4585"
       x2="701.2984"
       y2="792.50043"
       gradientUnits="userSpaceOnUse"
       gradientTransform="matrix(1.6506849,0,0,1.6627721,-597.14299,-855.10937)" />
    <linearGradient
       inkscape:collect="always"
       xlink:href="#linearGradient6186"
       id="linearGradient6192"
       x1="525.2793"
       y1="608.90521"
       x2="468.71078"
       y2="924.66064"
       gradientUnits="userSpaceOnUse"
       gradientTransform="matrix(1.4724035,0.32857871,-0.32857871,1.4724035,26.801318,-495.96101)" />
  </defs>
  <sodipodi:namedview
     inkscape:document-units="mm"
     id="base"
     pagecolor="#ffffff"
     bordercolor="#666666"
     borderopacity="1.0"
     inkscape:pageopacity="0.0"
     inkscape:pageshadow="2"
     inkscape:zoom="0.7"
     inkscape:cx="750.46"
     inkscape:cy="534.10049"
     inkscape:current-layer="layer1"
     showgrid="false"
     inkscape:window-width="1920"
     inkscape:window-height="1089"
     inkscape:window-x="0"
     inkscape:window-y="0"
     inkscape:window-maximized="0" />
  <metadata
     id="metadata4">
    <rdf:RDF>
      <cc:Work
         rdf:about="">
        <dc:format>image/svg+xml</dc:format>
        <dc:type
           rdf:resource="http://purl.org/dc/dcmitype/StillImage" />
        <dc:title></dc:title>
      </cc:Work>
    </rdf:RDF>
  </metadata>
  <g
     inkscape:label="Layer 1"
     inkscape:groupmode="layer"
     id="layer1">
    <path
       style="fill:url(#linearGradient5950);fill-opacity:1;stroke:none"
       d="m 47.831131,281.60292 10.6447,-7.09647 c 0,0 0.709653,-5.67717 -1.41929,-9.22541 -2.128943,-3.54823 -2.128943,0.70966 -3.548234,-7.09646 -1.419305,-7.80612 -1.419305,-14.90259 -4.257886,-20.57977 -2.838595,-5.67717 -1.41929,8.51576 -2.838595,-6.38683 -1.419291,-14.90258 0,-6.38682 -1.419291,-16.32189 -1.41929,-9.93505 -2.838581,-12.77364 -4.257886,-16.32187 -1.41929,-3.54824 -2.838581,-4.96753 -5.677176,-11.35436 -2.838582,-6.38683 -3.548234,-7.80612 -3.548234,-7.80612 0,0 1.419291,-0.70965 -1.419291,-4.25788 -2.838595,-3.54824 -18.45082,-7.80612 -7.096467,-9.93505 11.354353,-2.12895 8.515758,-4.25789 13.483296,-2.12895 4.967525,2.12895 9.935049,7.09647 12.773644,7.80612 2.838581,0.70964 14.192935,6.38682 19.870111,9.93505 5.677178,3.54824 12.064005,5.67718 12.064005,5.67718 0,0 3.54824,0.70965 9.93506,3.54825 6.38682,2.83858 7.09647,-0.70966 12.773653,2.12893 5.67717,2.83859 -0.70966,0 6.38683,-0.70964 7.09648,-0.70965 12.064,-12.77366 13.48331,-16.32189 1.41929,-3.54824 6.38681,-14.19294 9.93504,-19.16048 3.54825,-4.96752 1.41931,-3.54823 10.64472,-17.03153 9.22541,-13.48329 22.70871,-32.64377 24.83765,-36.90164 2.12894,-4.257883 3.54823,-9.225407 6.38681,-14.902584 2.8386,-5.677176 6.38683,-12.064005 7.80612,-16.321891 1.41931,-4.257886 3.54824,-12.773644 4.25789,-15.61224 0.70965,-2.838581 3.54823,-10.644714 5.67718,-17.741182 2.12894,-7.096481 -2.12895,-19.870125 3.54823,-12.064005 5.67718,7.806119 9.22541,10.644701 9.22541,14.192948 0,3.548234 1.4193,-2.128943 3.54825,12.773658 2.12893,14.902587 2.12893,13.483296 2.12893,19.160473 0,5.677177 0,12.063991 0,12.063991 0,0 -2.83858,-9.935048 3.54824,4.257886 6.38682,14.192946 7.09647,12.064006 9.93505,19.160476 2.8386,7.09646 2.12895,0.70965 7.80612,9.93506 5.67718,9.22541 1.41931,4.96752 8.51577,11.35435 7.09647,6.38683 7.09647,1.41929 12.064,9.22541 4.96753,7.80612 7.09648,7.80612 8.51577,11.35436 1.41929,3.54823 0,6.38683 4.25788,5.67717 4.25789,-0.70964 5.67718,-0.70964 5.67718,-0.70964 0,0 2.83858,2.83859 7.09647,0 4.25788,-2.83859 4.96752,-4.25788 4.96752,-4.25788 l 10.64472,16.32188 c 0,0 1.41929,18.45082 2.12894,21.28941 0.70964,2.8386 6.38681,11.35436 6.38681,11.35436 l 28.38589,5.67717 26.25695,4.96753 21.2894,8.51577 3.54825,15.61224 c 0,0 2.12894,13.48329 -0.70965,9.93506 -2.8386,-3.54825 -13.4833,-11.35435 -13.4833,-11.35435 0,0 0,7.09646 -0.70965,10.6447 -0.70964,3.54823 -3.54823,3.54823 -5.67718,11.35435 -2.12893,7.80612 -7.09646,19.16047 -7.8061,23.41836 -0.70965,4.25787 2.12893,12.06399 5.67717,14.90259 3.54824,2.83858 10.64471,4.96752 14.90259,4.25788 4.25787,-0.70965 14.90259,-2.12894 14.90259,-2.12894 0,0 2.12894,-7.09648 0.70965,-0.70965 -1.4193,6.38683 -4.25789,9.22541 -7.09648,13.48329 -2.83858,4.25789 -0.70964,7.09647 -7.09647,11.35436 -6.38683,4.25788 -2.12894,5.67717 -10.6447,11.35435 -8.51577,5.67718 -4.25788,5.67718 -11.35435,9.22541 -7.09648,3.54823 -12.06401,8.51577 -12.06401,12.06401 0,3.54823 1.41929,8.51575 1.41929,8.51575 0,0 -2.83858,6.38683 -9.22541,5.67718 -6.38683,-0.70964 -11.35435,1.4193 -14.90258,1.4193 -3.54824,0 -7.09647,-2.12894 -8.51578,2.12895 -1.41929,4.25787 -3.54823,0 -4.96752,5.67717 -1.41929,5.67718 4.96752,9.93505 -0.70965,7.09647 -5.67718,-2.83859 -36.192,-15.61224 -36.192,-15.61224 l -24.83765,-13.48329 -24.128,-2.12895 -9.22541,-4.25787 1.41929,73.8033 c 0,0 3.54823,18.45082 3.54823,21.28941 0,2.83858 7.80612,22.70871 7.80612,22.70871 l -9.93506,19.87011 -13.4833,-5.67718 9.22543,-19.87011 c 0,0 0.70964,-18.45083 0.70964,-21.99907 0,-3.54823 -2.12895,-24.12799 -2.12895,-24.12799 0,0 -2.12894,-24.83765 -2.12894,-27.67625 0,-2.83858 -1.41929,-31.93411 -1.41929,-31.93411 l -4.25789,-7.09647 -33.3534,3.54823 -26.25694,3.54824 -24.12801,2.83859 L 101.7643,348.30975 86.152067,330.56858 74.088071,309.98882 54.927598,292.24764 47.831131,281.60292 z"
       id="path5428" />
    <path
       style="fill:url(#linearGradient6172);fill-opacity:1;stroke:none"
       d="m 138.4712,1031.2802 c 2.39848,-1.9188 16.30968,-25.9036 16.30968,-25.9036 0,0 9.59392,-53.72595 9.59392,-56.60413 0,-2.87818 4.31727,-42.69298 4.31727,-42.69298 0,0 -6.23605,-16.30967 -7.67515,-18.22845 -1.43907,-1.9188 -12.95179,-28.7818 -14.87057,-31.65996 -1.9188,-2.87819 -35.49754,-20.14725 -35.49754,-20.14725 l -38.375711,-12.95181 -8.15484,-8.15484 c 0,0 -15.82999,-7.67514 -17.74877,-9.11422 -1.91878,-1.43909 -18.228459,-11.51272 -11.51271,-10.07362 6.71575,1.43907 18.22846,1.91878 20.62695,1.91878 2.39847,0 16.78937,-3.35788 16.78937,-3.35788 0,0 1.43908,-2.39848 4.31727,-2.39848 2.87818,0 19.66756,-1.4391 19.66756,-1.4391 l 37.416311,3.83758 c 0,0 9.11423,-2.39848 10.07362,-4.31727 0.9594,-1.91878 3.83757,-15.35028 3.83757,-15.35028 0,0 -6.71575,-9.59393 -8.15483,-11.51271 -1.43909,-1.91879 -9.11424,-11.51272 -11.03302,-12.95181 -1.91878,-1.43908 -7.67515,-4.79695 -13.91119,-7.67513 -6.23606,-2.87818 -15.829991,-6.71575 -18.228461,-7.19544 -2.39849,-0.47971 -23.50514,-7.19546 -30.70058,-7.19546 -7.19545,0 -20.62695,-2.87817 -20.62695,-2.87817 0,0 -1.43909,-3.83758 -0.95938,-6.23605 0.47969,-2.39849 -0.9594,-7.19544 -0.9594,-7.19544 0,0 -5.276659,-3.35788 -7.675135,-4.31728 -2.398489,-0.9594 -5.756363,-3.83756 -5.756363,-3.83756 0,0 -1.918784,-3.83758 -7.195442,-9.59393 -5.276658,-5.75636 -6.236056,-9.11423 -6.236056,-9.11423 l 3.357874,-11.99242 c 0,0 7.195442,-1.43908 9.114239,-2.39848 1.918783,-0.95939 8.634532,-4.31727 8.634532,-4.31727 l 0.479692,-4.31726 c 0,0 40.774189,4.79697 41.733589,6.71575 0.95939,1.91878 8.63454,1.91878 11.03301,3.35788 2.39849,1.43909 7.19546,0.95938 15.829991,1.91878 8.63453,0.9594 11.99241,-0.47969 16.78937,1.43909 4.79697,1.91878 9.11423,0 9.11423,0 l 4.31727,-20.14725 c 0,0 -2.87818,-11.9924 -4.31727,-13.91119 -1.4391,-1.91879 -7.67514,-17.74877 -7.67514,-17.74877 0,0 -3.83758,-13.91119 -8.63453,-16.30968 -4.79697,-2.39847 -11.99242,-10.07362 -14.87059,-11.9924 -2.878181,-1.91879 -14.390901,-11.51272 -14.390901,-11.51272 0,0 -0.47969,-2.39847 -3.35787,-2.39847 -2.87818,0 -1.91878,-1.91879 0.9594,-3.35788 2.87817,-1.43909 4.79696,-0.47969 3.35787,-4.31727 -1.43909,-3.83757 -2.87818,-11.03301 -4.79696,-14.39088 -1.91879,-3.35788 -3.35788,-5.27666 -5.27666,-9.59393 -1.9188,-4.31728 -9.59394,-16.30968 -7.67516,-15.35029 1.91878,0.95939 12.47213,5.75635 14.39091,6.71575 1.91878,0.95939 6.23604,-0.47969 12.4721,1.91879 6.236051,2.39847 16.309681,5.75635 16.309681,5.75635 0,0 0.47969,2.39849 5.75635,4.31727 5.27666,1.91878 8.63453,-0.47969 12.47211,3.35787 3.83757,3.83757 7.67513,3.83757 9.59392,3.35788 1.91879,-0.47969 3.35787,1.43909 4.31727,-0.47969 0.9594,-1.91879 -0.9594,-5.75637 -0.47969,-8.63454 0.47969,-2.87818 3.35787,-24.94421 2.87817,-26.86299 -0.4797,-1.9188 -2.87817,-22.54574 -2.87817,-22.54574 0,0 2.39847,-3.35787 1.43909,-5.75635 -0.9594,-2.39849 -7.67515,-7.67514 -3.35788,-8.15484 4.31726,-0.47969 9.11423,0 9.11423,0 0,0 4.31727,-7.19544 5.27666,-11.03302 0.9594,-3.83757 1.91878,-12.4721 1.43909,-14.39088 -0.47969,-1.91879 -2.39848,-18.22846 -2.39848,-18.22846 l 10.55332,10.55331 4.55712,11.99241 4.5571,17.02922 11.03302,1.43909 8.39469,-4.79697 -2.15863,8.63455 -0.9594,9.83376 c 0,0 0.9594,11.27287 1.43909,14.15105 0.4797,2.87818 0.95939,11.03301 1.43909,13.67134 0.4797,2.63834 2.63833,13.91119 3.35788,15.11044 0.71954,1.19924 6.23604,6.4759 8.15484,7.43529 1.91878,0.9594 16.54951,0 16.54951,0 0,0 10.07362,-3.11802 12.47211,-3.11802 2.39848,0 9.83378,-3.59773 14.15104,-4.55712 4.31727,-0.9594 12.23227,-3.83756 13.67136,-4.07742 1.43907,-0.23985 5.27666,-3.11802 7.91498,-3.35788 2.63833,-0.23984 9.59393,-3.35787 9.59393,-3.35787 0,0 -1.43909,9.59393 -2.63834,10.79317 -1.19923,1.19925 -7.67513,9.59393 -7.67513,9.59393 0,0 -3.59772,7.67514 -4.07743,8.87438 -0.47969,1.19925 1.9188,7.915 1.9188,7.915 0,0 -8.15484,10.07362 -9.59393,11.033 -1.43909,0.9594 -13.4315,15.11044 -13.4315,15.11044 0,0 -10.07362,12.71196 -10.07362,13.67134 0,0.9594 -6.71575,12.95181 -6.71575,12.95181 l -8.39469,23.98481 c 0,0 -2.63833,16.54953 -2.15864,17.50893 0.47971,0.95938 -0.95939,9.59391 0.47971,11.9924 1.43909,2.39848 -1.91879,8.87438 -1.91879,8.87438 0,0 3.59772,-2.15863 4.55711,-2.63832 0.9594,-0.47971 6.4759,0.95938 7.67514,1.43908 1.19925,0.4797 6.71575,1.19924 8.63454,0.95939 1.91878,-0.23984 4.79696,-0.47969 9.59393,-1.67893 4.79696,-1.19925 14.39088,-4.07742 16.06982,-4.79697 1.67893,-0.71954 13.19165,-3.83756 14.63074,-4.07741 1.43909,-0.23985 9.35408,-1.67894 11.99241,-1.43909 2.63833,0.23984 2.63833,1.19924 11.75256,-2.15863 9.11424,-3.35788 9.59393,-3.11803 10.55333,-3.59774 0.95938,-0.47969 3.11801,-7.43528 3.11801,-7.43528 l -2.39848,8.63453 7.67515,4.55712 c 0,0 2.87817,0.47969 5.75635,1.19924 2.87818,0.71954 3.83757,0.23985 7.67515,0.95939 3.83757,0.71955 7.43529,0.47969 8.87438,0.71955 1.43909,0.23985 5.99619,-0.47971 6.95559,-0.47971 0.9594,0 17.74877,-0.71953 17.74877,-0.71953 l 10.31347,-2.87819 c 0,0 4.55711,-1.67893 -0.9594,4.55712 -5.5165,6.23606 -11.033,14.87059 -12.23225,16.06982 -1.19924,1.19925 -7.91499,9.59393 -8.87438,9.11424 -0.9594,-0.47969 -3.59773,1.19925 -7.19545,3.35787 -3.59772,2.15863 -8.87438,5.51651 -11.27286,6.47591 -2.39849,0.95938 -1.19924,0.47969 -6.23605,3.83756 -5.03681,3.35788 -4.79697,4.55712 -6.4759,5.27666 -1.67894,0.71955 0,-2.15863 -1.91879,1.43909 -1.91878,3.59772 -2.39849,3.35788 -1.67894,5.27666 0.71954,1.91878 1.91879,7.4353 2.63833,8.39469 0.71955,0.9594 1.19924,1.67893 1.67893,2.87818 0.47971,1.19924 -1.67893,-2.39849 -3.83756,-2.15863 -2.15863,0.23985 -7.67514,0.95938 -10.31347,1.67894 -2.63834,0.71954 -8.15484,0.23984 -9.83378,1.43907 -1.67894,1.19925 -0.23985,1.67894 -3.59772,2.87819 -3.35787,1.19924 -5.03681,1.91878 -9.35408,3.35787 -4.31726,1.43909 -8.15483,3.11803 -10.79317,3.83757 -2.63833,0.71955 -10.31347,1.91879 -10.31347,1.91879 0,0 -2.63833,0.95939 -4.79696,1.67894 -2.15863,0.71954 -5.27666,0 -8.87438,1.91878 -3.59773,1.91879 -11.99242,3.35788 -16.78937,7.67514 -4.79697,4.31727 -12.23227,9.83378 -13.19165,10.55333 -0.9594,0.71954 -1.43909,-1.9188 -3.83758,3.11801 -2.39848,5.03681 -2.15863,5.27667 -7.19544,6.95561 -5.03682,1.67894 -6.23606,3.11802 -7.19545,2.87817 -0.95939,-0.23985 -0.47969,-0.47969 -2.63833,0 -2.15863,0.47971 -5.51651,0.9594 -7.91498,1.67894 -2.39849,0.71955 -4.55712,0.9594 -6.23606,1.91878 -1.67894,0.9594 -3.83757,1.43909 -5.75636,3.35787 -1.91879,1.9188 -2.63832,3.11803 -2.63832,4.07743 0,0.95939 -2.87819,8.39469 -2.87819,10.07362 0,1.67894 -0.71954,10.07363 -0.47969,11.75256 0.23985,1.67894 -1.19924,-3.35787 0.47969,1.91879 1.67894,5.27666 -1.67893,5.27666 -0.47969,8.15484 1.19925,2.87818 1.91878,2.39847 3.11803,2.87818 1.19923,0.47969 5.75635,-5.75636 6.71575,1.67894 0.95938,7.43528 0.23984,8.39468 0,9.59391 -0.23985,1.19925 1.19923,1.19925 -0.71955,1.67894 -1.91879,0.47971 -0.4797,-1.19923 -5.27666,3.83758 -4.79697,5.03681 -6.9556,17.98861 -7.19544,20.38709 -0.23985,2.39848 0.23984,8.39469 1.19924,9.59392 0.95939,1.19925 -1.43909,1.19925 -0.9594,3.35788 0.4797,2.15864 0.23985,4.31727 0.9594,5.27667 0.71954,0.95938 2.15863,4.31726 0.71954,6.71575 -1.43909,2.39847 0.23985,-0.23986 -1.19924,3.83756 -1.4391,4.07742 -4.31726,30.22087 -4.07742,31.18026 0.23985,0.9594 -3.35787,29.26148 -3.35787,29.26148 l -5.03681,26.14346 -3.35788,22.06598 -4.31727,14.3909 -8.87438,15.1104 -6.71575,-2.1586 z"
       id="path6152" />
    <path
       style="fill:url(#linearGradient6182);fill-opacity:1;stroke:none"
       d="m 713.46761,298.45208 -20.00931,20.15585 -9.17095,19.316 -5.00233,8.39828 c 0,0 -30.8477,11.75756 -34.18259,12.5974 -3.33489,0.83983 -33.34887,16.79654 -37.51748,20.99567 -4.16862,4.19913 -4.16862,12.5974 -2.50115,15.95671 1.66743,3.35929 13.33954,10.91774 13.33954,10.91774 l -12.50583,20.99566 c 0,0 -18.34189,17.63637 -22.51049,20.99567 -4.16861,3.35931 -9.17095,16.79654 -9.17095,21.83549 0,5.03897 -6.66977,31.91342 -8.33721,35.27273 -1.66744,3.35929 -0.83372,20.15584 -0.83372,20.15584 l -15.8407,46.19046 -11.67211,-0.83981 c 0,0 14.17326,-26.03464 15.84071,-29.39394 1.66744,-3.35932 6.66978,-41.99134 6.66978,-41.99134 0,0 5.83604,-37.7922 5.00232,-41.1515 -0.83372,-3.35932 -3.33488,-24.35497 -4.16862,-29.39394 -0.8337,-5.03896 -4.1686,-11.75757 -7.50348,-18.47619 -3.33489,-6.71861 -18.34188,-7.55844 -28.34655,-11.75758 -10.00466,-4.19913 -7.50348,-4.19913 -11.67208,-5.87877 -4.16863,-1.67966 -12.50585,-7.55846 -17.50818,-10.91775 -5.00232,-3.35931 -15.00699,-4.19915 -19.17559,-6.71861 -4.16862,-2.51949 -10.00467,-8.39828 -14.17328,-11.75758 -4.1686,-3.35932 2.50117,-5.03896 6.66977,-8.39826 4.16862,-3.35932 8.33723,0 12.50584,0 4.1686,0 14.17326,0 17.50815,1.67964 3.33488,1.67966 25.01166,-5.03896 29.18026,-5.87879 4.16862,-0.83982 8.33722,-7.55843 9.17095,-10.91775 0.83371,-3.3593 -3.33489,-13.43723 -3.33489,-13.43723 l -16.67443,-15.11687 c 0,0 -12.50584,-8.39827 -17.50815,-9.2381 -5.00234,-0.83982 -20.84306,-13.43722 -26.67911,-15.95671 -5.83606,-2.51947 -22.51048,-10.0779 -22.51048,-10.0779 l -23.34422,-15.1169 4.16861,-12.5974 -15.84071,-14.27705 -8.33722,-20.15584 c 0,0 17.50815,2.51948 20.84305,5.03897 3.33488,2.51948 11.67209,-2.51949 11.67209,-2.51949 0,0 22.51049,0.83983 25.84538,1.67966 3.33488,0.83983 29.18027,5.87878 33.34887,7.55844 4.1686,1.67964 13.33955,-5.03897 13.33955,-5.03897 0,0 0,-12.59739 -0.83373,-20.99567 -0.83371,-8.39826 -0.83371,-14.27704 -2.50116,-23.51514 -1.66744,-9.2381 -7.50348,-26.03465 -7.50348,-26.03465 l -10.83839,-22.6753 c 0,0 7.50348,-4.19914 5.00232,-7.55844 -2.50115,-3.35931 -3.33488,-11.75758 -3.33488,-11.75758 0,0 11.67211,3.35931 15.84071,5.03897 4.16861,1.67964 14.17327,0 18.34188,2.51948 4.16862,2.51947 5.00232,10.0779 5.00232,10.0779 l 12.50585,5.03897 10.00464,-13.43723 -10.83838,-10.91774 -6.66977,1.67965 -7.5035,-1.67965 c 0,0 -1.66744,-4.19913 3.3349,-12.597411 5.00233,-8.398264 8.33721,-10.91774 9.17093,-15.956693 0.83374,-5.038967 2.50118,-5.878801 4.16862,-10.077933 1.66742,-4.199119 1.66742,-6.718608 5.83604,-9.238085 4.16863,-2.519489 5.00233,-5.878787 5.00233,1.679643 0,7.558442 1.66744,10.917766 5.00234,13.43723 3.33488,2.519476 3.33488,0.839834 7.50349,3.35931 4.16862,2.51949 4.16862,-2.519476 4.16862,5.878788 0,8.398277 -0.83374,15.956706 0.8337,19.316021 1.66746,3.35929 0.83374,9.23809 4.16862,8.39826 3.33489,-0.83983 11.67211,2.51949 16.67444,0 5.00234,-2.51948 7.5035,-2.51948 15.00698,-7.55844 7.50351,-5.038956 8.33723,-8.398267 8.33723,-8.398267 0,0 -4.16862,8.398267 -2.50116,13.437227 1.66744,5.03897 1.66744,16.79654 1.66744,16.79654 l -8.33722,14.27704 c 0,0 -7.50351,11.75758 -5.00233,20.99569 2.50116,9.23809 10.00465,20.99567 10.00465,20.99567 0,0 6.66978,5.87877 10.00467,6.71861 3.33488,0.83982 44.18725,-10.07793 44.18725,-10.07793 0,0 14.17327,-2.51948 18.34188,-5.87878 4.16861,-3.35931 13.33954,-9.2381 13.33954,-9.2381 l 5.83606,-5.8788 c 0,0 -3.33489,10.91777 -5.83606,15.1169 -2.50116,4.19913 -3.33487,8.39826 -8.3372,13.43723 -5.00234,5.03897 -6.66978,5.87878 -6.66978,14.27704 0,8.39828 0,14.27706 -1.66744,17.63637 -1.66745,3.3593 -3.33489,9.2381 -3.33489,9.2381 l -27.51283,24.35497 -30.01397,27.71427 -15.84072,23.51515 7.50349,10.91775 c 0,0 17.50817,1.67965 20.84305,0 3.33489,-1.67965 19.17561,-5.03896 22.51048,-5.87878 3.3349,-0.83984 10.83839,-5.03897 15.00699,-3.35931 4.16863,1.67966 18.34189,0 18.34189,0 l 22.51048,-5.87879 z"
       id="path6174" />
    <path
       style="fill:url(#linearGradient6192);fill-opacity:1;stroke:none"
       d="m 396.31524,1015.7733 3.98989,-17.8792 0.7129,-13.08998 c 0,0 -2.09907,-5.43684 -0.98638,-7.94876 1.11255,-2.51195 2.45994,-6.07559 2.45994,-6.07559 l -2.33377,-4.38513 0.8824,-6.42764 -3.26816,-5.14568 -0.16933,-6.66235 -4.26335,-3.15958 1.40819,-6.31029 c 0,0 -6.31028,-1.40819 -3.62005,-3.56808 2.69007,-2.15992 -0.81264,-6.25385 -0.81264,-6.25385 l -2.56406,-8.30084 c 0,0 -1.81222,0.69969 -3.56365,-1.3473 -1.75128,-2.04695 -3.26801,-5.14565 -2.27282,-7.13174 0.99535,-1.98607 0.70865,-8.12255 0.70865,-8.12255 l -3.55925,-6.31475 c 0,0 -4.96745,-0.004 -4.67194,-3.8028 0.29566,-3.79834 2.40353,-8.29637 2.40353,-8.29637 l -0.69527,-6.7797 -3.44191,-6.84059 c 0,0 -1.22548,-1.92962 0.29565,-3.79834 1.52114,-1.86874 -0.052,-7.18821 -0.052,-7.18821 l -1.45592,-5.84536 4.56341,-5.60618 -2.21642,-4.91098 5.5542,-2.62485 -2.39016,-6.60591 3.68541,-4.14597 -2.80302,-2.28166 2.45994,-6.07559 1.93399,-6.19298 4.7981,-6.6579 -2.74221,-5.02831 2.75102,-4.90654 0.0654,-7.71407 6.14094,-5.25414 -4.31989,-5.38039 11.10839,-5.24973 11.92982,-8.93072 3.74623,-6.89264 15.78474,-6.41434 11.04743,-2.50308 10.86913,0.7694 13.78965,2.52522 10.10423,6.67121 9.05705,1.4691 10.69098,4.04192 8.75684,10.23486 15.94512,10.18282 c 0,0 8.40933,6.84503 9.51747,9.3005 1.10829,2.45551 6.18852,6.90149 8.11385,10.6434 1.92517,3.7419 4.25879,8.12699 4.25879,8.12699 l 5.25869,1.17352 c 0,0 8.07493,-11.44713 8.89638,-15.12813 0.82144,-3.68101 8.7924,-29.50452 8.7924,-29.50452 l 7.97521,-30.79098 7.80161,-32.48586 5.28956,-33.59849 1.67388,-42.13398 3.71202,-33.95054 3.88135,-27.28817 0.19608,-23.14217 13.78965,2.52521 -7.33222,30.38243 -8.10594,46.21909 -5.53761,49.55246 -4.42051,42.0731 -12.66494,46.85785 -7.79706,27.51846 -6.50181,16.76659 -7.07974,9.46101 18.0486,10.65224 19.80441,7.7318 17.29236,6.61915 17.1098,14.85911 8.00075,6.2018 9.69137,10.99545 -0.9432,9.17429 c 0,0 4.95848,9.93926 6.82726,11.46039 1.86877,1.52111 8.05289,13.39003 8.05289,13.39003 l -4.04202,10.69095 -4.38952,7.30114 -4.15481,6.24942 -0.53475,9.81748 -7.18813,0.052 -4.51142,12.79439 -4.84995,-0.53026 -8.36177,5.3106 -2.45993,6.07559 -6.48858,1.86431 -4.04187,10.69098 -8.29641,-2.40345 -5.20655,6.0147 -4.3807,-2.63372 -3.98093,7.94436 -5.54977,-2.34258 -8.01413,8.70047 -8.29641,-2.40345 -8.71366,6.88817 -5.19774,-3.92012 -5.02825,2.74222 -8.70941,1.9208 -11.10383,0.2823 c 0,0 -7.07534,4.4936 -8.07052,6.4797 -0.99534,1.986 -8.00532,-1.2344 -8.00532,-1.2344 l -8.70926,1.9207 -6.83622,-1.5255 -7.89222,3.2072 -7.07092,-0.4738 -7.59672,-0.5912 -11.68616,-2.0559 -11.22135,0.8083 -10.81273,1.4513 -8.12266,-0.7085 -13.15076,2.0336 -16.36692,4.0762 z"
       id="path6184" />
  </g>
</svg>
