<svg xmlns="http://www.w3.org/2000/svg" viewBox="0 0 16 16"><style>.st0{opacity:0}.st0,.st1{fill:#f6f6f6}.st2{fill:#434343}.st3{fill:#f0eff1}</style><g id="outline"><path class="st0" d="M0 0h16v16H0z"/><path class="st1" d="M4.072 16v-1.68c-.891-.609-2.142-1.828-3.151-4.204-.816-.864-1.201-2.31-.43-3.338a2.472 2.472 0 0 1 1.505-.93l-.338-.686a2.455 2.455 0 0 1 1.087-3.284 2.455 2.455 0 0 1 2.267.035A2.456 2.456 0 0 1 7.349.2a2.41 2.41 0 0 1 1.872.883 2.451 2.451 0 0 1 3.217 1.387 2.419 2.419 0 0 1 1.398-.029 2.432 2.432 0 0 1 1.481 1.17c.312.559.393 1.228.223 1.833l-.882 3.481c-.115.564-.748 3.481-1.727 4.984L12.916 16H4.072z"/></g><path class="st2" d="M7.349 2.1c.303 0 .549.247.557.639.308 1.704.829 4.583.864 4.715l.051.183s.17.201.41.201a.503.503 0 0 0 .321-.126c.069-.056.111-.149.156-.209l-.11-4.153c0-.303.247-.55.55-.55.303 0 .55.247.55.568.038 1.049.164 4.488.186 4.677.059.537.399.54.544.553h.007c.145 0 .339-.387.339-.387l.876-3.561a.559.559 0 0 1 .678-.377.55.55 0 0 1 .377.681l-.897 3.545c-.307 1.484-1.032 4.054-1.672 4.63l-.101.11-.009 1.861H5.972v-1.953l-.333-.118c-.018-.006-1.775-.662-3.076-3.914l-.052-.13-.112-.085c-.318-.238-.516-.813-.39-.98a.56.56 0 0 1 .771-.11c.028.021.22.233.22.233l.013.003a217.71 217.71 0 0 0 1.504 1.665c.06.063.331.251.509.253h.004c.177 0 .394-.17.394-.17a.65.65 0 0 0 .167-.46v-.25l-.083-.41-2.15-4.36a.55.55 0 0 1 .242-.739.56.56 0 0 1 .739.242l1.933 3.698c.169.27.387.31.501.31l.388-.175c.17-.193.14-.432.127-.533-.101-.808-.487-4.468-.49-4.468a.552.552 0 0 1 .551-.549m0-.9c-.799 0-1.449.65-1.451 1.448l.092.901c.002.015.132 1.231.202 1.868L5.138 3.4a1.462 1.462 0 0 0-1.941-.63 1.454 1.454 0 0 0-.642 1.95l1.607 3.259-.48-.534-.181-.202-.016-.004a1.354 1.354 0 0 0-.161-.146 1.464 1.464 0 0 0-2.033.284c-.496.663-.059 1.693.475 2.167 1.164 2.85 2.683 3.89 3.306 4.213V16h6.849l.005-.895.008-1.516c.968-1.202 1.674-4.511 1.756-4.908l.888-3.507c.099-.35.053-.741-.133-1.077a1.442 1.442 0 0 0-1.258-.744 1.46 1.46 0 0 0-1.403 1.051l-.128.52-.058-1.589A1.452 1.452 0 0 0 10.149 1.9c-.589 0-1.097.353-1.324.859l-.023-.122C8.748 1.812 8.136 1.2 7.349 1.2z" id="icon_x5F_bg"/><path class="st3" d="M7.349 2.346c.303 0 .44.153.448.545a238.9 238.9 0 0 0 .918 4.755l.051.183s.252.351.492.351a.503.503 0 0 0 .321-.126c.068-.057.251-.228.296-.288l-.109-4.407c0-.303.08-.318.383-.318s.354.247.354.568c.038 1.049.164 4.246.186 4.435.059.537.573.786.719.799.002 0 .045-.078.047-.078.145 0 .5-.391.5-.391l.906-3.578c.067-.237.085-.169.327-.169.047 0 .095.006.142.019.142.041.163.038.234.166.071.128-.063.28-.103.423l-.897 3.171c-.308 1.484-.924 4.033-1.564 4.61l-.101.11.023 1.796-4.875.016.013-1.878-.333-.118c-.018-.006-1.77-.627-3.07-3.879l-.052-.13-.113-.085c-.318-.238-.492-.634-.367-.801.106-.14.176-.275.346-.275.115 0 .229.034.325.105.028.021.188.311.188.311l.109.141c.324.361 1.353 1.401 1.54 1.6.06.063.331.251.509.253h.004c.177 0 .394-.17.394-.17a.65.65 0 0 0 .167-.46v-.25l.043-.505-2.123-4.269c-.137-.271-.152-.508.118-.646a.533.533 0 0 1 .241-.057c.204 0 .306.21.401.397l1.788 3.39c.169.27.484.406.599.406l.388-.175c.17-.193.31-.626.297-.727-.101-.807-.487-4.467-.49-4.467 0-.303.077-.337.38-.337" id="icon_x5F_fg"/></svg>