<svg xmlns="http://www.w3.org/2000/svg" viewBox="0 0 16 16"><style>.icon-canvas-transparent{opacity:0;fill:#f6f6f6}.icon-vs-out{fill:#f6f6f6}.icon-vs-fg{fill:#f0eff1}.icon-vs-action-blue{fill:#00539c}</style><path class="icon-canvas-transparent" d="M16 16H0V0h16v16z" id="canvas"/><path class="icon-vs-out" d="M3 15v-2H0V5h2V1h12v4h2v8h-3v2H3z" id="outline"/><path class="icon-vs-action-blue" d="M13 6V2H3v4H1.001v6H4v2h8v-2h3V6h-2zM3 8H2V7h1v1zm2 0H4V7h1v1zm6 5H5v-2h6v2zm1-7H4V3h8v3z" id="iconBg"/><path class="icon-vs-fg" d="M2 7h1v1H2V7zm3 0H4v1h1V7zm0 6h6v-2H5v2zM4 3v3h8V3H4z" id="iconFg"/></svg>