<svg xmlns="http://www.w3.org/2000/svg" viewBox="0 0 16 16"><style>.icon-canvas-transparent{opacity:0;fill:#f6f6f6}.icon-vs-out{fill:#f6f6f6}.icon-vs-bg{fill:#424242}.icon-vs-fg{fill:#f0eff1}</style><path class="icon-canvas-transparent" d="M16 16H0V0h16v16z" id="canvas"/><path class="icon-vs-out" d="M16 12.373v3.102a1.991 1.991 0 0 1-1.332.525H6.332a1.998 1.998 0 1 1-1.682-3.082l1.246-1.938c-.132.009-.262.02-.396.02a5.5 5.5 0 0 1 0-11 5.496 5.496 0 0 1 5.287 4H14v3h-1v.706l3 4.667z" id="outline"/><path class="icon-vs-bg" d="M14.668 15H6.332a1 1 0 0 1-.841-1.541l1.769-2.752a5.484 5.484 0 0 0 1.921-1.129L8.276 11h4.447L11 8.291V5h2v1h-1v2l3.51 5.459A1 1 0 0 1 14.668 15zM5.5 1a4.5 4.5 0 1 0 0 9 4.5 4.5 0 0 0 0-9zM8 6h.949A3.478 3.478 0 0 1 8 7.942V6zM6 8.949c-.165.024-.329.051-.5.051C3.57 9 2 7.43 2 5.5S3.57 2 5.5 2c1.391 0 2.585.822 3.149 2H4v2h2v2.949z" id="iconBg"/><path class="icon-vs-fg" d="M5.5 9C3.57 9 2 7.43 2 5.5S3.57 2 5.5 2c1.391 0 2.585.822 3.149 2H4v2h2v2.949c-.165.024-.329.051-.5.051zM8 7.942A3.478 3.478 0 0 0 8.949 6H8v1.942zm3 .349V6l-.028.055a5.482 5.482 0 0 1-1.791 3.523L8.276 11h4.447L11 8.291z" id="iconFg"/></svg>