<svg xmlns="http://www.w3.org/2000/svg" width="16" height="16"><style type="text/css">.icon-canvas-transparent{opacity:0;fill:#F6F6F6;} .icon-vs-out{fill:#F6F6F6;} .icon-vs-bg{fill:#424242;} .icon-vs-fg{fill:#F0EFF1;} .icon-vs-action-blue{fill:#00539C;}</style><path class="icon-canvas-transparent" d="M16 16h-16v-16h16v16z" id="canvas"/><path class="icon-vs-out" d="M16 10h-7.051c.025.164.051.328.051.5 0 1.93-1.57 3.5-3.5 3.5-.321 0-.64-.046-.949-.137l-2.137 2.137h-.828l-1.586-1.586v-.828l2.137-2.137c-.091-.31-.137-.627-.137-.949 0-.172.026-.336.051-.5h-2.051v-10h16v10z" id="outline"/><path class="icon-vs-bg" d="M15 1v8h-6.351c-.179-.374-.415-.714-.708-1h6.059v-6h-12v6h1.059c-.293.286-.529.626-.708 1h-1.351v-8h14zm-6 3.965c0 .652-.131 1.152-.395 1.5-.261.348-.638.521-1.128.521-.985 0-1.477-.646-1.477-1.933 0-.668.133-1.177.399-1.527.267-.35.653-.526 1.159-.526.962 0 1.442.654 1.442 1.965zm-.929.027c0-.896-.185-1.344-.554-1.344-.395 0-.592.461-.592 1.383 0 .869.193 1.305.58 1.305.378 0 .566-.449.566-1.344zm4.929-.013c0 .652-.131 1.152-.394 1.5-.262.347-.639.521-1.129.521-.985 0-1.477-.646-1.477-1.934 0-.668.133-1.177.399-1.527.267-.35.652-.525 1.158-.525.962 0 1.443.654 1.443 1.965zm-.929.027c0-.896-.185-1.344-.554-1.344-.395 0-.592.461-.592 1.383 0 .869.193 1.305.58 1.305.378 0 .566-.45.566-1.344zm-8.114-1.639l-.291.117v.771l.119-.039.203-.102.165-.115v3.001h.847v-3.965h-.514c-.157.121-.334.233-.529.332z" id="iconBg"/><path class="icon-vs-action-blue" d="M8 10.5c0 1.381-1.119 2.5-2.5 2.5-.433 0-.833-.119-1.188-.313l-2.312 2.313-1-1 2.313-2.313c-.193-.355-.313-.755-.313-1.187 0-1.381 1.119-2.5 2.5-2.5s2.5 1.119 2.5 2.5zm-2.5-1.5c-.828 0-1.5.672-1.5 1.5s.672 1.5 1.5 1.5 1.5-.672 1.5-1.5-.672-1.5-1.5-1.5z" id="colorAction"/><path class="icon-vs-fg" d="M7 10.5c0 .828-.672 1.5-1.5 1.5s-1.5-.672-1.5-1.5.672-1.5 1.5-1.5 1.5.672 1.5 1.5zm4.518-6.838c-.395 0-.592.461-.592 1.383 0 .869.193 1.305.58 1.305.377 0 .565-.449.565-1.344 0-.897-.184-1.344-.553-1.344zm-4-.014c-.395 0-.592.461-.592 1.383 0 .869.193 1.305.58 1.305.377 0 .565-.449.565-1.344 0-.896-.184-1.344-.553-1.344zm6.482-1.648v6h-6.058c-.631-.617-1.492-1-2.442-1s-1.811.383-2.442 1h-1.058v-6h12zm-9 1.035h-.514c-.157.121-.334.233-.529.332l-.291.117v.771l.119-.039.203-.102.165-.115v3.001h.847v-3.965zm4 1.93c0-1.311-.48-1.965-1.442-1.965-.506 0-.892.176-1.159.525-.266.351-.399.86-.399 1.528 0 1.287.492 1.933 1.477 1.933.49 0 .867-.174 1.129-.521.263-.348.394-.848.394-1.5zm4 .014c0-1.311-.481-1.965-1.442-1.965-.506 0-.892.176-1.158.525-.267.351-.4.859-.4 1.527 0 1.288.492 1.934 1.477 1.934.49 0 .867-.174 1.129-.521.263-.348.394-.848.394-1.5z" id="iconFg"/></svg>