<svg xmlns="http://www.w3.org/2000/svg" viewBox="0 0 16 16" enable-background="new 0 0 16 16"><style type="text/css">.icon-canvas-transparent{opacity:0;fill:#F6F6F6;} .icon-vs-out{fill:#F6F6F6;} .icon-vs-bg{fill:#424242;}</style><path class="icon-canvas-transparent" d="M16 16h-16v-16h16v16z" id="canvas"/><path class="icon-vs-out" d="M12.977 15l1.053 1h1.944l.026-.016v-2.229l-1-.972v-9.783h-2v-3h-11v3h-2v10h2v2h10.977z" id="outline"/><path class="icon-vs-bg" d="M15.349 14.517l-4.257-4.139c.636-.792 1.033-1.785 1.033-2.878 0-2.55-2.075-4.625-4.625-4.625s-4.625 2.075-4.625 4.625 2.075 4.626 4.625 4.626c1.096 0 2.092-.4 2.885-1.04l4.266 4.147c.098.095.223.142.349.142.13 0 .261-.051.358-.151.193-.199.189-.515-.009-.707zm-11.474-7.017c0-1.999 1.626-3.625 3.625-3.625s3.625 1.626 3.625 3.625c0 2-1.626 3.625-3.625 3.625s-3.625-1.625-3.625-3.625zm4.125-.5h2v1h-2v2h-1v-2h-2v-1h2v-2h1v2zm-7-3h1v8h-1v-8zm11-2h-9v-1h9v1zm-9 11h9v1h-9v-1zm11-1h-1v-8h1v8z" id="iconBg"/></svg>