<?xml version="1.0" encoding="UTF-8" standalone="no"?>
<!-- Created with Inkscape (http://www.inkscape.org/) -->

<svg
   xmlns:dc="http://purl.org/dc/elements/1.1/"
   xmlns:cc="http://creativecommons.org/ns#"
   xmlns:rdf="http://www.w3.org/1999/02/22-rdf-syntax-ns#"
   xmlns:svg="http://www.w3.org/2000/svg"
   xmlns="http://www.w3.org/2000/svg"
   xmlns:xlink="http://www.w3.org/1999/xlink"
   xmlns:sodipodi="http://sodipodi.sourceforge.net/DTD/sodipodi-0.dtd"
   xmlns:inkscape="http://www.inkscape.org/namespaces/inkscape"
   width="373"
   height="421"
   id="svg2"
   version="1.1"
   inkscape:version="0.47 r22583"
   sodipodi:docname="autumn.svg">
  <title
     id="title6192">autumn</title>
  <defs
     id="defs4">
    <linearGradient
       inkscape:collect="always"
       id="linearGradient5963">
      <stop
         style="stop-color:#4e9a06;stop-opacity:1;"
         offset="0"
         id="stop5965" />
      <stop
         style="stop-color:#4e9a06;stop-opacity:0;"
         offset="1"
         id="stop5967" />
    </linearGradient>
    <linearGradient
       inkscape:collect="always"
       id="linearGradient5937">
      <stop
         style="stop-color:#ce5c00;stop-opacity:1;"
         offset="0"
         id="stop5939" />
      <stop
         style="stop-color:#eeeeec;stop-opacity:1"
         offset="1"
         id="stop5941" />
    </linearGradient>
    <inkscape:perspective
       sodipodi:type="inkscape:persp3d"
       inkscape:vp_x="0 : 526.18109 : 1"
       inkscape:vp_y="0 : 1000 : 0"
       inkscape:vp_z="744.09448 : 526.18109 : 1"
       inkscape:persp3d-origin="372.04724 : 350.78739 : 1"
       id="perspective10" />
    <filter
       inkscape:collect="always"
       id="filter3821"
       color-interpolation-filters="sRGB">
      <feGaussianBlur
         inkscape:collect="always"
         stdDeviation="2.7505833"
         id="feGaussianBlur3823" />
    </filter>
    <filter
       inkscape:collect="always"
       id="filter4879"
       x="-0.22731958"
       width="1.4546392"
       y="-0.5877043"
       height="2.1754086"
       color-interpolation-filters="sRGB">
      <feGaussianBlur
         inkscape:collect="always"
         stdDeviation="14.986745"
         id="feGaussianBlur4881" />
    </filter>
    <filter
       inkscape:collect="always"
       id="filter4885"
       x="-0.33025676"
       width="1.6605135"
       y="-0.85383451"
       height="2.707669"
       color-interpolation-filters="sRGB">
      <feGaussianBlur
         inkscape:collect="always"
         stdDeviation="21.773196"
         id="feGaussianBlur4887" />
    </filter>
    <filter
       inkscape:collect="always"
       id="filter5913"
       x="-0.12985595"
       width="1.2597119"
       y="-1.7241983"
       height="4.4483967"
       color-interpolation-filters="sRGB">
      <feGaussianBlur
         inkscape:collect="always"
         stdDeviation="19.302978"
         id="feGaussianBlur5915" />
    </filter>
    <filter
       inkscape:collect="always"
       id="filter5917"
       x="-0.12985595"
       width="1.2597119"
       y="-1.7241983"
       height="4.4483967"
       color-interpolation-filters="sRGB">
      <feGaussianBlur
         inkscape:collect="always"
         stdDeviation="19.302978"
         id="feGaussianBlur5919" />
    </filter>
    <filter
       inkscape:collect="always"
       id="filter5921"
       x="-0.12985595"
       width="1.2597119"
       y="-1.7241983"
       height="4.4483967"
       color-interpolation-filters="sRGB">
      <feGaussianBlur
         inkscape:collect="always"
         stdDeviation="19.302978"
         id="feGaussianBlur5923" />
    </filter>
    <filter
       inkscape:collect="always"
       id="filter5925"
       x="-0.12985595"
       width="1.2597119"
       y="-1.7241983"
       height="4.4483967"
       color-interpolation-filters="sRGB">
      <feGaussianBlur
         inkscape:collect="always"
         stdDeviation="19.302978"
         id="feGaussianBlur5927" />
    </filter>
    <filter
       inkscape:collect="always"
       id="filter5929"
       x="-0.12985595"
       width="1.2597119"
       y="-1.7241983"
       height="4.4483967"
       color-interpolation-filters="sRGB">
      <feGaussianBlur
         inkscape:collect="always"
         stdDeviation="19.302978"
         id="feGaussianBlur5931" />
    </filter>
    <filter
       inkscape:collect="always"
       id="filter5957"
       x="-0.046952907"
       width="1.0939058"
       y="-0.78474128"
       height="2.5694826"
       color-interpolation-filters="sRGB">
      <feGaussianBlur
         inkscape:collect="always"
         stdDeviation="15.857215"
         id="feGaussianBlur5959" />
    </filter>
    <filter
       inkscape:collect="always"
       id="filter6014"
       x="-0.027392775"
       width="1.0547855"
       y="-0.15665242"
       height="1.3133048"
       color-interpolation-filters="sRGB">
      <feGaussianBlur
         inkscape:collect="always"
         stdDeviation="3.1178247"
         id="feGaussianBlur6016" />
    </filter>
    <filter
       inkscape:collect="always"
       id="filter6018"
       x="-0.12832382"
       width="1.2566476"
       y="-0.098326698"
       height="1.1966534"
       color-interpolation-filters="sRGB">
      <feGaussianBlur
         inkscape:collect="always"
         stdDeviation="14.388865"
         id="feGaussianBlur6020" />
    </filter>
    <linearGradient
       inkscape:collect="always"
       xlink:href="#linearGradient5937"
       id="linearGradient6184"
       gradientUnits="userSpaceOnUse"
       x1="-297.04956"
       y1="177.63332"
       x2="-265.70264"
       y2="477.6683" />
    <linearGradient
       inkscape:collect="always"
       xlink:href="#linearGradient5963"
       id="linearGradient6186"
       gradientUnits="userSpaceOnUse"
       x1="-284.89462"
       y1="530.22742"
       x2="-50.752197"
       y2="523.94238" />
  </defs>
  <sodipodi:namedview
     id="base"
     pagecolor="#ffffff"
     bordercolor="#666666"
     borderopacity="1.0"
     inkscape:pageopacity="0.0"
     inkscape:pageshadow="2"
     inkscape:zoom="0.66992188"
     inkscape:cx="111.54832"
     inkscape:cy="168.09771"
     inkscape:document-units="px"
     inkscape:current-layer="layer1"
     showgrid="false"
     inkscape:window-width="1280"
     inkscape:window-height="712"
     inkscape:window-x="-4"
     inkscape:window-y="-4"
     inkscape:window-maximized="1" />
  <metadata
     id="metadata7">
    <rdf:RDF>
      <cc:Work
         rdf:about="">
        <dc:format>image/svg+xml</dc:format>
        <dc:type
           rdf:resource="http://purl.org/dc/dcmitype/StillImage" />
        <dc:title>autumn</dc:title>
        <dc:date>13-Aug-2010</dc:date>
        <dc:creator>
          <cc:Agent>
            <dc:title>Srinivasbala</dc:title>
          </cc:Agent>
        </dc:creator>
        <dc:publisher>
          <cc:Agent>
            <dc:title>netalloy</dc:title>
          </cc:Agent>
        </dc:publisher>
        <dc:subject>
          <rdf:Bag>
            <rdf:li>autumn</rdf:li>
            <rdf:li>season</rdf:li>
            <rdf:li>fall</rdf:li>
            <rdf:li>scenery</rdf:li>
          </rdf:Bag>
        </dc:subject>
        <dc:description>fall 2010 clip art collection</dc:description>
      </cc:Work>
    </rdf:RDF>
  </metadata>
  <g
     inkscape:label="Layer 1"
     inkscape:groupmode="layer"
     id="layer1"
     transform="translate(0,-631.36218)">
    <g
       id="g6098"
       transform="translate(386.62302,505.91702)">
      <rect
         y="150.94803"
         x="-336.97275"
         height="365.34796"
         width="288.82812"
         id="rect6022"
         style="opacity:0.82631579;fill:#eeeeec;fill-opacity:1;fill-rule:evenodd;stroke:#3b3634;stroke-width:0.19599999;stroke-linecap:round;stroke-linejoin:round;stroke-miterlimit:4;stroke-opacity:1;stroke-dasharray:none;stroke-dashoffset:0" />
      <path
         id="rect4212"
         d="m -328.6077,161.00232 269.110416,0 0,351.20956 -269.110416,0 0,-351.20956 z"
         style="fill:url(#linearGradient6184);fill-opacity:1;fill-rule:evenodd;stroke:#291c1e;stroke-width:0;stroke-linecap:round;stroke-linejoin:round;stroke-miterlimit:4;stroke-opacity:1;stroke-dasharray:none;stroke-dashoffset:0;filter:url(#filter6018)" />
      <path
         transform="matrix(0.14148028,-0.06411405,0,0.23558922,-156.79637,307.09051)"
         id="path2943"
         d="m 118.08702,613.62511 -39.764183,-8.26106 58.699503,0.75101 -10.41443,-22.90564 46.39154,21.40362 c 0,0 15.14826,-21.77913 14.2015,-18.39961 -0.94677,3.37952 13.25471,23.28115 13.25471,23.28115 l 65.32687,2.62851 -68.16717,12.01608 21.77563,28.16267 -42.60448,-19.15062 -35.03033,25.15866 30.29649,-39.80325 -71.95422,24.03215 40.71096,-24.40765 -57.752753,4.13052 35.030363,-8.63654 z"
         style="opacity:0.82631579;fill:#ff9933;stroke:#000000;stroke-width:0.56489378px;stroke-linecap:butt;stroke-linejoin:miter;stroke-opacity:1;filter:url(#filter3821)" />
      <path
         d="m -136.35874,503.61222 c 0.20411,-2.86455 0.44495,-5.73259 0.68821,-8.60657 0.34714,-2.35268 0.58034,-4.69125 0.85049,-7.03708 0.29565,-2.18956 0.4527,-4.35543 0.53669,-6.50155 0.19709,-2.0313 0.40067,-4.05665 0.50725,-6.0688 0.0882,-2.03978 0.0939,-4.0486 0.10076,-6.0551 0.003,-2.13172 -0.003,-4.25999 -0.005,-6.38931 0.006,-2.02464 0.21901,-4.15318 0.46304,-6.241 0.30712,-2.26258 0.47498,-4.50262 0.56718,-6.72235 0.0472,-1.3305 0.0558,-2.64556 0.0634,-3.95963 0,0 3.7766,-1.76456 3.7766,-1.76456 l 0,0 c -0.009,1.32859 -0.0177,2.65831 -0.0667,4.00369 -0.095,2.251 -0.26521,4.52215 -0.57174,6.81567 -0.23495,2.03828 -0.44542,4.11808 -0.45718,6.09661 2.4e-4,2.13159 7.7e-4,4.26302 -8.7e-4,6.39564 -0.003,2.0246 2.1e-4,4.04934 -0.0928,6.11139 -0.10484,2.00634 -0.29813,4.02502 -0.50904,6.05352 -0.086,2.17837 -0.24382,4.37679 -0.54431,6.59915 -0.27282,2.33558 -0.47941,4.66191 -0.86852,7.00684 -0.24635,2.87483 -0.50163,5.74413 -0.64699,8.59528 0,0 -3.79056,1.66819 -3.79056,1.66819 z"
         id="path3910"
         style="opacity:0.82631579;fill:#555753;fill-opacity:1;fill-rule:evenodd;stroke:#291c1e;stroke-width:0.43720791;stroke-linecap:round;stroke-linejoin:round;stroke-miterlimit:4;stroke-opacity:1;stroke-dasharray:none;stroke-dashoffset:0" />
      <path
         d="m -134.10432,484.23417 c 0.40347,-2.63404 0.81273,-5.26326 1.40696,-7.86801 0.73019,-2.81694 1.64198,-5.5424 2.67158,-8.13971 1.06566,-2.32055 2.06907,-4.7227 3.13329,-7.04379 0.92399,-2.16307 1.8955,-4.26482 2.82935,-6.41531 0.54939,-1.07953 1.02165,-2.20028 1.39328,-3.45813 0,0 3.77677,-1.42722 3.77677,-1.42722 l 0,0 c -0.35872,1.33196 -0.80497,2.53502 -1.41198,3.62629 -0.93179,2.16691 -1.92889,4.24476 -2.82987,6.45084 -1.09189,2.26595 -2.05945,4.70708 -3.14285,6.98814 -1.05084,2.4988 -1.91772,5.20138 -2.66496,7.94088 -0.60603,2.57019 -1.02155,5.17709 -1.37393,7.78346 0,0 -3.78764,1.56256 -3.78764,1.56256 z"
         id="path3912"
         style="opacity:0.82631579;fill:#555753;fill-opacity:1;fill-rule:evenodd;stroke:#291c1e;stroke-width:0.43720791;stroke-linecap:round;stroke-linejoin:round;stroke-miterlimit:4;stroke-opacity:1;stroke-dasharray:none;stroke-dashoffset:0" />
      <path
         d="m -130.18028,470.52916 c -1.01715,-1.85373 -2.08543,-3.61038 -3.14537,-5.38581 -0.66296,-1.48413 -1.54774,-2.52804 -2.28054,-3.88497 -0.69793,-1.0351 -1.25664,-2.33441 -1.94209,-3.39564 -0.55842,-0.54634 -1.23223,-0.7232 -1.80684,-1.22584 0,0 3.77298,-2.40357 3.77298,-2.40357 l 0,0 c 0.61564,0.42355 1.29745,0.67919 1.80704,1.39662 0.65495,1.12623 1.26301,2.34007 1.94153,3.4214 0.74447,1.3079 1.58741,2.42479 2.24872,3.88487 1.04927,1.75985 2.06659,3.59816 3.17849,5.22638 0,0 -3.77392,2.36656 -3.77392,2.36656 z"
         id="path3914"
         style="opacity:0.82631579;fill:#555753;fill-opacity:1;fill-rule:evenodd;stroke:#291c1e;stroke-width:0.43720791;stroke-linecap:round;stroke-linejoin:round;stroke-miterlimit:4;stroke-opacity:1;stroke-dasharray:none;stroke-dashoffset:0" />
      <path
         transform="matrix(-0.24480319,0,0,-0.23521124,-95.514224,484.59568)"
         id="path2816"
         d="m 27.736503,321.7489 -39.764182,-8.26106 58.699499,0.751 -10.414424,-22.90563 46.391537,21.40363 c 0,0 15.148258,-21.77914 14.201497,-18.39962 -0.946769,3.37952 13.25472,23.28115 13.25472,23.28115 l 65.32686,2.62851 -68.16715,12.01608 21.77561,28.16266 L 86.436003,341.27501 51.405655,366.43367 81.702169,326.63042 9.7479436,350.66257 50.458883,326.25492 -7.2938435,330.38545 27.736503,321.7489 z"
         style="opacity:0.82631579;fill:#ff9933;stroke:#000000;stroke-width:0.56489378px;stroke-linecap:butt;stroke-linejoin:miter;stroke-opacity:1;filter:url(#filter3821)" />
      <path
         transform="matrix(-0.24480319,0,0,-0.23521124,-95.514224,484.59568)"
         style="opacity:0.82631579;fill:#ff3300;stroke:#000000;stroke-width:0.56489378px;stroke-linecap:butt;stroke-linejoin:miter;stroke-opacity:1;filter:url(#filter3821)"
         d="m 42.884755,304.47579 -39.7641757,-8.26105 58.6995007,0.751 -10.414431,-22.90564 46.391542,21.40364 c 0,0 15.148259,-21.77914 14.201489,-18.39962 -0.94676,3.37952 13.25472,23.28114 13.25472,23.28114 l 65.32687,2.62852 -68.16716,12.01607 21.77562,28.16267 -42.60448,-19.15061 -35.03034,25.15865 30.29652,-39.80324 -71.954228,24.03214 40.710945,-24.40764 -57.7527341,4.13052 35.0303421,-8.63655 z"
         id="path2818" />
      <path
         transform="matrix(-0.24480319,0,0,-0.23521124,-95.514224,484.59568)"
         id="path2820"
         d="m 108.21162,289.0802 -39.764174,-8.26106 58.699494,0.751 -10.41443,-22.90563 46.39154,21.40363 c 0,0 15.14826,-21.77914 14.20149,-18.39961 -0.94676,3.37951 13.25472,23.28114 13.25472,23.28114 l 65.32687,2.62851 -68.16715,12.01608 21.77561,28.16266 -42.60448,-19.1506 -35.03034,25.15864 30.29652,-39.80324 -71.954236,24.03215 40.710946,-24.40765 -57.752725,4.13053 35.030345,-8.63655 z"
         style="opacity:0.82631579;fill:#990000;stroke:#000000;stroke-width:0.56489378px;stroke-linecap:butt;stroke-linejoin:miter;stroke-opacity:1;filter:url(#filter3821)" />
      <path
         transform="matrix(-0.24480319,0,0,-0.23521124,-95.514224,484.59568)"
         style="opacity:0.82631579;fill:#ffff00;stroke:#000000;stroke-width:0.56489378px;stroke-linecap:butt;stroke-linejoin:miter;stroke-opacity:1;filter:url(#filter3821)"
         d="m -3.5067823,355.9196 -39.7641727,-8.26105 58.699498,0.75101 -10.4144311,-22.90565 46.3915431,21.40363 c 0,0 15.148256,-21.77913 14.201494,-18.3996 -0.94677,3.37951 13.254722,23.28114 13.254722,23.28114 l 65.326859,2.62851 -68.167156,12.01608 21.775617,28.16266 -42.604469,-19.15061 -35.030348,25.15865 30.296513,-39.80324 -71.954227,24.03215 40.710947,-24.40765 -57.75273,4.13053 35.0303407,-8.63656 z"
         id="path2822" />
      <path
         transform="matrix(-0.24480319,0,0,-0.23521124,-95.514224,484.59568)"
         id="path2824"
         d="M 82.648933,348.78506 42.884754,340.524 101.58426,341.27502 91.169832,318.36937 137.56136,339.773 c 0,0 15.14827,-21.77913 14.20151,-18.39961 -0.94677,3.37952 13.25471,23.28114 13.25471,23.28114 l 65.32688,2.62851 -68.16717,12.01608 21.77561,28.16267 -42.60446,-19.15061 -35.03035,25.15865 30.29651,-39.80324 -71.954224,24.03215 40.710944,-24.40766 -57.75273,4.13053 35.030343,-8.63655 z"
         style="opacity:0.82631579;fill:#ff9933;stroke:#000000;stroke-width:0.56489378px;stroke-linecap:butt;stroke-linejoin:miter;stroke-opacity:1;filter:url(#filter3821)" />
      <path
         transform="matrix(-0.24480319,0,0,-0.23521124,-95.514224,484.59568)"
         style="opacity:0.82631579;fill:#ff9933;stroke:#000000;stroke-width:0.56489378px;stroke-linecap:butt;stroke-linejoin:miter;stroke-opacity:1;filter:url(#filter3821)"
         d="m 158.39022,330.00995 -39.76417,-8.26106 58.69949,0.75101 -10.41443,-22.90564 46.39155,21.40362 c 0,0 15.14826,-21.77913 14.2015,-18.39961 -0.94677,3.37952 13.25471,23.28115 13.25471,23.28115 l 65.32687,2.62851 -68.16717,12.01608 21.77563,28.16267 -42.60448,-19.15062 -35.03034,25.15866 30.2965,-39.80325 -71.95422,24.03215 40.71095,-24.40765 -57.75274,4.13052 35.03035,-8.63654 z"
         id="path2826" />
      <path
         transform="matrix(-0.24480319,0,0,-0.23521124,-95.514224,484.59568)"
         id="path2828"
         d="m 201.94146,309.73282 -39.76418,-8.26105 58.69951,0.751 -10.41444,-22.90564 46.39154,21.40363 c 0,0 15.14827,-21.77913 14.20151,-18.39961 -0.94678,3.37952 13.2547,23.28114 13.2547,23.28114 l 65.32688,2.62852 -68.16717,12.01607 21.77562,28.16267 -42.60447,-19.15061 -35.03034,25.15865 30.29651,-39.80324 -71.95423,24.03214 40.71095,-24.40765 -57.75273,4.13053 35.03034,-8.63655 z"
         style="opacity:0.82631579;fill:#ef2929;stroke:#000000;stroke-width:0.56489378px;stroke-linecap:butt;stroke-linejoin:miter;stroke-opacity:1;filter:url(#filter3821)" />
      <path
         transform="matrix(-0.24480319,0,0,-0.23521124,-95.514224,484.59568)"
         style="opacity:0.82631579;fill:#cc0000;stroke:#000000;stroke-width:0.56489378px;stroke-linecap:butt;stroke-linejoin:miter;stroke-opacity:1;filter:url(#filter3821)"
         d="m 79.808631,376.94773 -39.764179,-8.26105 58.699508,0.75101 -10.414436,-22.90565 46.391536,21.40363 c 0,0 15.14827,-21.77913 14.2015,-18.39961 -0.94677,3.37952 13.25472,23.28114 13.25472,23.28114 l 65.32687,2.62852 -68.16716,12.01607 21.77562,28.16268 -42.60448,-19.15062 -35.03034,25.15865 30.29651,-39.80324 -71.954226,24.03215 40.710936,-24.40766 -57.752727,4.13053 35.030348,-8.63655 z"
         id="path2830" />
      <path
         transform="matrix(-0.24480319,0,0,-0.23521124,-95.514224,484.59568)"
         id="path2832"
         d="m 147.02902,357.79711 -39.76418,-8.26105 58.6995,0.75101 -10.41443,-22.90564 46.39154,21.40363 c 0,0 15.14826,-21.77914 14.2015,-18.39962 -0.94677,3.37952 13.25473,23.28115 13.25473,23.28115 l 65.32685,2.62851 -68.16715,12.01608 21.77561,28.16266 -42.60448,-19.15061 -35.03034,25.15865 30.29652,-39.80324 -71.95423,24.03215 40.71094,-24.40765 -57.75272,4.13052 35.03034,-8.63655 z"
         style="opacity:0.82631579;fill:#f57900;stroke:#000000;stroke-width:0.56489378px;stroke-linecap:butt;stroke-linejoin:miter;stroke-opacity:1;filter:url(#filter3821)" />
      <path
         transform="matrix(-0.24480319,0,0,-0.23521124,-95.514224,484.59568)"
         style="opacity:0.82631579;fill:#f57900;stroke:#000000;stroke-width:0.56489378px;stroke-linecap:butt;stroke-linejoin:miter;stroke-opacity:1;filter:url(#filter3821)"
         d="m 234.13151,345.03003 -39.76418,-8.26105 58.6995,0.75101 -10.41444,-22.90565 46.39154,21.40363 c 0,0 15.14827,-21.77913 14.2015,-18.39961 -0.94676,3.37952 13.25472,23.28115 13.25472,23.28115 l 65.32687,2.62851 -68.16716,12.01608 21.77561,28.16267 -42.60447,-19.15062 -35.03034,25.15866 30.29651,-39.80325 -71.95423,24.03215 40.71095,-24.40765 -57.75273,4.13052 35.03035,-8.63655 z"
         id="path2834" />
      <path
         transform="matrix(-0.24480319,0,0,-0.23521124,-95.514224,484.59568)"
         style="opacity:0.82631579;fill:#ff9933;stroke:#000000;stroke-width:0.56489378px;stroke-linecap:butt;stroke-linejoin:miter;stroke-opacity:1;filter:url(#filter3821)"
         d="m 118.7919,418.77514 -39.764185,-8.26106 58.699495,0.751 -10.41442,-22.90563 46.39154,21.40363 c 0,0 15.14825,-21.77914 14.20149,-18.39962 -0.94677,3.37952 13.25472,23.28115 13.25472,23.28115 l 65.32686,2.62851 -68.16715,12.01608 21.77561,28.16266 -42.60446,-19.15061 -35.03035,25.15866 30.29651,-39.80325 -71.95422,24.03215 40.71094,-24.40765 -57.75273,4.13053 35.03035,-8.63655 z"
         id="path2853" />
      <path
         transform="matrix(-0.24480319,0,0,-0.23521124,-95.514224,484.59568)"
         id="path2855"
         d="m 133.94015,401.50203 -39.764177,-8.26105 58.699497,0.751 -10.41443,-22.90564 46.39154,21.40364 c 0,0 15.14826,-21.77914 14.20149,-18.39962 -0.94676,3.37952 13.25472,23.28114 13.25472,23.28114 l 65.32687,2.62852 -68.16716,12.01607 21.77562,28.16267 -42.60448,-19.15061 -35.03034,25.15865 30.29652,-39.80324 -71.95422,24.03214 40.71094,-24.40764 -57.752734,4.13052 35.030344,-8.63655 z"
         style="opacity:0.82631579;fill:#ff3300;stroke:#000000;stroke-width:0.56489378px;stroke-linecap:butt;stroke-linejoin:miter;stroke-opacity:1;filter:url(#filter3821)" />
      <path
         transform="matrix(-0.24480319,0,0,-0.23521124,-95.514224,484.59568)"
         style="opacity:0.82631579;fill:#990000;stroke:#000000;stroke-width:0.56489378px;stroke-linecap:butt;stroke-linejoin:miter;stroke-opacity:1;filter:url(#filter3821)"
         d="m 199.26701,386.10644 -39.76417,-8.26106 58.69949,0.751 -10.41443,-22.90563 46.39154,21.40363 c 0,0 15.14826,-21.77914 14.20149,-18.39961 -0.94676,3.37951 13.25472,23.28114 13.25472,23.28114 l 65.32687,2.62851 -68.16715,12.01608 21.77561,28.16266 -42.60448,-19.1506 -35.03034,25.15864 30.29652,-39.80324 -71.95423,24.03215 40.71094,-24.40765 -57.75272,4.13053 35.03034,-8.63655 z"
         id="path2857" />
      <path
         transform="matrix(-0.24480319,0,0,-0.23521124,-95.514224,484.59568)"
         id="path2859"
         d="m 87.548611,452.94584 -39.764172,-8.26105 58.699501,0.75101 -10.414435,-22.90565 46.391545,21.40363 c 0,0 15.14825,-21.77913 14.20149,-18.3996 -0.94677,3.37951 13.25472,23.28114 13.25472,23.28114 l 65.32686,2.62851 -68.16715,12.01608 21.77561,28.16266 -42.60446,-19.15061 -35.03035,25.15865 30.29651,-39.80324 -71.954226,24.03215 40.710946,-24.40765 -57.752729,4.13053 35.03034,-8.63656 z"
         style="opacity:0.82631579;fill:#ffff00;stroke:#000000;stroke-width:0.56489378px;stroke-linecap:butt;stroke-linejoin:miter;stroke-opacity:1;filter:url(#filter3821)" />
      <path
         transform="matrix(-0.24480319,0,0,-0.23521124,-95.514224,484.59568)"
         style="opacity:0.82631579;fill:#ff9933;stroke:#000000;stroke-width:0.56489378px;stroke-linecap:butt;stroke-linejoin:miter;stroke-opacity:1;filter:url(#filter3821)"
         d="m 173.70433,445.8113 -39.76418,-8.26106 58.6995,0.75102 -10.41442,-22.90565 46.39152,21.40363 c 0,0 15.14827,-21.77913 14.20151,-18.39961 -0.94677,3.37952 13.25471,23.28114 13.25471,23.28114 l 65.32688,2.62851 -68.16717,12.01608 21.77561,28.16267 -42.60446,-19.15061 -35.03035,25.15865 30.29651,-39.80324 -71.95422,24.03215 40.71094,-24.40766 -57.75273,4.13053 35.03035,-8.63655 z"
         id="path2861" />
      <path
         transform="matrix(-0.24480319,0,0,-0.23521124,-95.514224,484.59568)"
         id="path2863"
         d="m 249.44561,427.03619 -39.76417,-8.26106 58.69949,0.75101 -10.41443,-22.90564 46.39155,21.40362 c 0,0 15.14826,-21.77913 14.2015,-18.39961 -0.94677,3.37952 13.25471,23.28115 13.25471,23.28115 l 65.32687,2.62851 -68.16717,12.01608 21.77563,28.16267 -42.60448,-19.15062 -35.03034,25.15866 30.2965,-39.80325 -71.95422,24.03215 40.71095,-24.40765 -57.75274,4.13052 35.03035,-8.63654 z"
         style="opacity:0.82631579;fill:#ff9933;stroke:#000000;stroke-width:0.56489378px;stroke-linecap:butt;stroke-linejoin:miter;stroke-opacity:1;filter:url(#filter3821)" />
      <path
         transform="matrix(0.24480319,0,0,0.23521124,-174.57336,290.79766)"
         style="opacity:0.82631579;fill:#ef2929;stroke:#000000;stroke-width:0.56489378px;stroke-linecap:butt;stroke-linejoin:miter;stroke-opacity:1;filter:url(#filter3821)"
         d="m 292.99685,406.75906 -39.76418,-8.26105 58.69951,0.751 -10.41444,-22.90564 46.39154,21.40363 c 0,0 15.14827,-21.77913 14.20151,-18.39961 -0.94678,3.37952 13.2547,23.28114 13.2547,23.28114 l 65.32688,2.62852 -68.16717,12.01607 21.77562,28.16267 -42.60447,-19.15061 -35.03034,25.15865 30.29651,-39.80324 -71.95423,24.03214 40.71095,-24.40765 -57.75273,4.13053 35.03034,-8.63655 z"
         id="path2865" />
      <path
         transform="matrix(-0.24480319,0,0,-0.23521124,-95.514224,484.59568)"
         id="path2867"
         d="m 170.86402,473.97397 -39.76417,-8.26105 58.6995,0.75101 -10.41443,-22.90565 46.39153,21.40363 c 0,0 15.14827,-21.77913 14.2015,-18.39961 -0.94677,3.37952 13.25472,23.28114 13.25472,23.28114 l 65.32687,2.62852 -68.16716,12.01607 21.77562,28.16268 -42.60448,-19.15062 -35.03034,25.15865 30.29651,-39.80324 -71.95422,24.03215 40.71093,-24.40766 -57.75272,4.13053 35.03034,-8.63655 z"
         style="opacity:0.82631579;fill:#cc0000;stroke:#000000;stroke-width:0.56489378px;stroke-linecap:butt;stroke-linejoin:miter;stroke-opacity:1;filter:url(#filter3821)" />
      <path
         transform="matrix(-0.24480319,0,0,-0.23521124,-95.514224,484.59568)"
         style="opacity:0.82631579;fill:#f57900;stroke:#000000;stroke-width:0.56489378px;stroke-linecap:butt;stroke-linejoin:miter;stroke-opacity:1;filter:url(#filter3821)"
         d="m 238.08441,454.82335 -39.76418,-8.26105 58.6995,0.75101 -10.41443,-22.90564 46.39154,21.40363 c 0,0 15.14826,-21.77914 14.2015,-18.39962 -0.94677,3.37952 13.25473,23.28115 13.25473,23.28115 l 65.32685,2.62851 -68.16715,12.01608 21.77561,28.16266 -42.60448,-19.15061 -35.03034,25.15865 30.29652,-39.80324 -71.95423,24.03215 40.71094,-24.40765 -57.75272,4.13052 35.03034,-8.63655 z"
         id="path2869" />
      <path
         transform="matrix(0.24480319,0,0,0.23521124,-174.57336,290.79766)"
         id="path2871"
         d="m 325.1869,442.05627 -39.76418,-8.26105 58.6995,0.75101 -10.41444,-22.90565 46.39154,21.40363 c 0,0 15.14827,-21.77913 14.2015,-18.39961 -0.94676,3.37952 13.25472,23.28115 13.25472,23.28115 l 65.32687,2.62851 -68.16716,12.01608 21.77561,28.16267 -42.60447,-19.15062 -35.03034,25.15866 30.29651,-39.80325 -71.95423,24.03215 40.71095,-24.40765 -57.75273,4.13052 35.03035,-8.63655 z"
         style="opacity:0.82631579;fill:#f57900;stroke:#000000;stroke-width:0.56489378px;stroke-linecap:butt;stroke-linejoin:miter;stroke-opacity:1;filter:url(#filter3821)" />
      <path
         transform="matrix(0.24480319,0,0,0.23521124,-174.57336,290.79766)"
         id="path2873"
         d="m -73.767867,420.26785 -39.764183,-8.26106 58.699493,0.751 -10.41442,-22.90563 46.39154,21.40363 c 0,0 15.1482502,-21.77914 14.2014902,-18.39962 -0.94677,3.37952 13.25472,23.28115 13.25472,23.28115 l 65.3268598,2.62851 -68.1671498,12.01608 21.7756098,28.16266 -42.60446,-19.15061 -35.03035,25.15866 30.29651,-39.80325 -71.95422,24.03215 40.71094,-24.40765 -57.752733,4.13053 35.030353,-8.63655 z"
         style="opacity:0.82631579;fill:#ff9933;stroke:#000000;stroke-width:0.56489378px;stroke-linecap:butt;stroke-linejoin:miter;stroke-opacity:1;filter:url(#filter3821)" />
      <path
         transform="matrix(0.24480319,0,0,0.23521124,-174.57336,290.79766)"
         style="opacity:0.82631579;fill:#ff3300;stroke:#000000;stroke-width:0.56489378px;stroke-linecap:butt;stroke-linejoin:miter;stroke-opacity:1;filter:url(#filter3821)"
         d="m -58.619617,402.99474 -39.764177,-8.26105 58.699497,0.751 -10.41443,-22.90564 46.3915402,21.40364 c 0,0 15.1482598,-21.77914 14.2014898,-18.39962 -0.9467598,3.37952 13.25472,23.28114 13.25472,23.28114 l 65.32687,2.62852 -68.16716,12.01607 21.77562,28.16267 -42.60447976,-19.15061 -35.03034024,25.15865 30.2965202,-39.80324 -71.9542202,24.03214 40.71094,-24.40764 -57.752734,4.13052 35.030344,-8.63655 z"
         id="path2875" />
      <path
         transform="matrix(-0.24480319,0,0,-0.23521124,-95.514224,484.59568)"
         id="path2877"
         d="m 6.7072432,387.59915 -39.7641702,-8.26106 58.69949,0.751 -10.41443,-22.90563 46.39154,21.40363 c 0,0 15.14826,-21.77914 14.20149,-18.39961 -0.94676,3.37951 13.25472,23.28114 13.25472,23.28114 l 65.326867,2.62851 -68.167147,12.01608 21.775607,28.16266 -42.604477,-19.1506 -35.03034,25.15864 30.29652,-39.80324 -71.95423,24.03215 40.71094,-24.40765 -57.75272,4.13053 35.0303402,-8.63655 z"
         style="opacity:0.82631579;fill:#990000;stroke:#000000;stroke-width:0.56489378px;stroke-linecap:butt;stroke-linejoin:miter;stroke-opacity:1;filter:url(#filter3821)" />
      <path
         transform="matrix(0.28192135,0,0,0.2793815,-170.10264,251.23462)"
         style="opacity:0.82631579;fill:#ffff00;stroke:#000000;stroke-width:0.56489378px;stroke-linecap:butt;stroke-linejoin:miter;stroke-opacity:1;filter:url(#filter3821)"
         d="m -105.01116,454.43855 -39.76417,-8.26105 58.699503,0.75101 -10.414435,-22.90565 46.391545,21.40363 c 0,0 15.14825,-21.77913 14.20149,-18.3996 -0.94677,3.37951 13.25472,23.28114 13.25472,23.28114 l 65.32686,2.62851 -68.16715,12.01608 21.7756102,28.16266 -42.6044602,-19.15061 -35.03035,25.15865 30.29651,-39.80324 -71.954223,24.03215 40.710943,-24.40765 -57.752733,4.13053 35.03034,-8.63656 z"
         id="path2879" />
      <path
         transform="matrix(0.24480319,0,0,0.23521124,-174.57336,290.79766)"
         id="path2881"
         d="m -18.855437,447.30401 -39.76418,-8.26106 58.69950024,0.75102 -10.41442024,-22.90565 46.39152,21.40363 c 0,0 15.14827,-21.77913 14.20151,-18.39961 -0.94677,3.37952 13.25471,23.28114 13.25471,23.28114 l 65.326877,2.62851 -68.167167,12.01608 21.77561,28.16267 -42.60446,-19.15061 -35.0303498,25.15865 30.2965098,-39.80324 -71.95422,24.03215 40.7109402,-24.40766 -57.7527302,4.13053 35.03035,-8.63655 z"
         style="opacity:0.82631579;fill:#ff9933;stroke:#000000;stroke-width:0.56489378px;stroke-linecap:butt;stroke-linejoin:miter;stroke-opacity:1;filter:url(#filter3821)" />
      <path
         transform="matrix(-0.24480319,0,0,-0.23521124,-116.22094,519.64388)"
         style="opacity:0.82631579;fill:#ff9933;stroke:#000000;stroke-width:0.56489378px;stroke-linecap:butt;stroke-linejoin:miter;stroke-opacity:1;filter:url(#filter3821)"
         d="m 56.885843,428.5289 -39.76417,-8.26106 58.69949,0.75101 -10.41443,-22.90564 46.391547,21.40362 c 0,0 15.14826,-21.77913 14.2015,-18.39961 -0.94677,3.37952 13.25471,23.28115 13.25471,23.28115 l 65.32687,2.62851 -68.16717,12.01608 21.77563,28.16267 -42.60448,-19.15062 -35.030337,25.15866 30.296497,-39.80325 -71.954217,24.03215 40.71095,-24.40765 -57.75274,4.13052 35.03035,-8.63654 z"
         id="path2883" />
      <path
         transform="matrix(-0.24480319,0,0,-0.23521124,-87.984504,495.66353)"
         id="path2885"
         d="m 100.43708,408.25177 -39.764177,-8.26105 58.699507,0.751 -10.41444,-22.90564 46.39154,21.40363 c 0,0 15.14827,-21.77913 14.20151,-18.39961 -0.94678,3.37952 13.2547,23.28114 13.2547,23.28114 l 65.32688,2.62852 -68.16717,12.01607 21.77562,28.16267 -42.60447,-19.15061 -35.03034,25.15865 30.29651,-39.80324 -71.954227,24.03214 40.710947,-24.40765 -57.752727,4.13053 35.030337,-8.63655 z"
         style="opacity:0.82631579;fill:#ef2929;stroke:#000000;stroke-width:0.56489378px;stroke-linecap:butt;stroke-linejoin:miter;stroke-opacity:1;filter:url(#filter3821)" />
      <path
         transform="matrix(0.24480319,0,0,0.23521124,-174.57336,290.79766)"
         style="opacity:0.82631579;fill:#cc0000;stroke:#000000;stroke-width:0.56489378px;stroke-linecap:butt;stroke-linejoin:miter;stroke-opacity:1;filter:url(#filter3821)"
         d="m -21.695747,475.46668 -39.76417,-8.26105 58.6995002,0.75101 -10.4144302,-22.90565 46.39153,21.40363 c 0,0 15.14827,-21.77913 14.2015,-18.39961 -0.94677,3.37952 13.25472,23.28114 13.25472,23.28114 l 65.326867,2.62852 -68.167157,12.01607 21.77562,28.16268 -42.60448,-19.15062 -35.0303398,25.15865 30.2965098,-39.80324 -71.95422,24.03215 40.7109302,-24.40766 -57.7527202,4.13053 35.03034,-8.63655 z"
         id="path2887" />
      <path
         transform="matrix(-0.24480319,0,0,-0.23521124,-95.514224,484.59568)"
         id="path2889"
         d="m 45.524643,456.31606 -39.7641798,-8.26105 58.6994998,0.75101 -10.41443,-22.90564 46.391537,21.40363 c 0,0 15.14826,-21.77914 14.2015,-18.39962 -0.94677,3.37952 13.25473,23.28115 13.25473,23.28115 l 65.32685,2.62851 -68.16715,12.01608 21.77561,28.16266 -42.60448,-19.15061 -35.030337,25.15865 30.29652,-39.80324 -71.95423,24.03215 40.71094,-24.40765 -57.75272,4.13052 35.03034,-8.63655 z"
         style="opacity:0.82631579;fill:#f57900;stroke:#000000;stroke-width:0.56489378px;stroke-linecap:butt;stroke-linejoin:miter;stroke-opacity:1;filter:url(#filter3821)" />
      <path
         transform="matrix(-0.24480319,0,0,-0.23521124,-68.218998,490.1296)"
         style="opacity:0.82631579;fill:#f57900;stroke:#000000;stroke-width:0.56489378px;stroke-linecap:butt;stroke-linejoin:miter;stroke-opacity:1;filter:url(#filter3821)"
         d="m 132.62713,443.54898 -39.764177,-8.26105 58.699497,0.75101 -10.41444,-22.90565 46.39154,21.40363 c 0,0 15.14827,-21.77913 14.2015,-18.39961 -0.94676,3.37952 13.25472,23.28115 13.25472,23.28115 l 65.32687,2.62851 -68.16716,12.01608 21.77561,28.16267 -42.60447,-19.15062 -35.03034,25.15866 30.29651,-39.80325 -71.95423,24.03215 40.71095,-24.40765 -57.752727,4.13052 35.030347,-8.63655 z"
         id="path2891" />
      <path
         transform="matrix(0.24480319,0,0,0.23521124,-174.57336,290.79766)"
         style="opacity:0.82631579;fill:#ff9933;stroke:#000000;stroke-width:0.56489378px;stroke-linecap:butt;stroke-linejoin:miter;stroke-opacity:1;filter:url(#filter3821)"
         d="m -26.001103,514.30867 -39.764183,-8.26106 58.6994928,0.751 -10.4144198,-22.90563 46.39154,21.40363 c 0,0 15.14825,-21.77914 14.20149,-18.39962 -0.94677,3.37952 13.25472,23.28115 13.25472,23.28115 l 65.326863,2.62851 -68.167153,12.01608 21.77561,28.16266 -42.60446,-19.15061 -35.0303502,25.15866 30.2965102,-39.80325 -71.95422,24.03215 40.7109398,-24.40765 -57.7527328,4.13053 35.030353,-8.63655 z"
         id="path2893" />
      <path
         transform="matrix(-0.24480319,0,0,-0.23521124,-95.514224,484.59568)"
         id="path2895"
         d="m -10.852853,497.03556 -39.764177,-8.26105 58.6994968,0.751 -10.41443,-22.90564 46.3915402,21.40364 c 0,0 15.14826,-21.77914 14.20149,-18.39962 -0.94676,3.37952 13.25472,23.28114 13.25472,23.28114 l 65.326873,2.62852 -68.167163,12.01607 21.77562,28.16267 -42.60448,-19.15061 -35.03034,25.15865 30.29652,-39.80324 -71.95422,24.03214 40.71094,-24.40764 -57.752734,4.13052 35.030344,-8.63655 z"
         style="opacity:0.82631579;fill:#ff3300;stroke:#000000;stroke-width:0.56489378px;stroke-linecap:butt;stroke-linejoin:miter;stroke-opacity:1;filter:url(#filter3821)" />
      <path
         transform="matrix(-0.24480319,0,0,-0.23521124,-95.514224,484.59568)"
         style="opacity:0.82631579;fill:#990000;stroke:#000000;stroke-width:0.56489378px;stroke-linecap:butt;stroke-linejoin:miter;stroke-opacity:1;filter:url(#filter3821)"
         d="m 54.474007,481.63997 -39.76417,-8.26106 58.69949,0.751 -10.41443,-22.90563 46.391543,21.40363 c 0,0 15.14826,-21.77914 14.20149,-18.39961 -0.94676,3.37951 13.25472,23.28114 13.25472,23.28114 l 65.32686,2.62851 -68.16714,12.01608 21.7756,28.16266 -42.60447,-19.1506 -35.030343,25.15864 30.296523,-39.80324 -71.954233,24.03215 40.71094,-24.40765 -57.75272,4.13053 35.03034,-8.63655 z"
         id="path2897" />
      <path
         transform="matrix(0.24480319,0,0,0.23521124,-174.57336,290.79766)"
         id="path2899"
         d="m -57.244396,548.47937 -39.76417,-8.26105 58.699503,0.75101 -10.414435,-22.90565 46.3915448,21.40363 c 0,0 15.1482502,-21.77913 14.2014902,-18.3996 -0.94677,3.37951 13.25472,23.28114 13.25472,23.28114 l 65.32686,2.62851 -68.16715,12.01608 21.77561,28.16266 -42.6044602,-19.15061 -35.0303498,25.15865 30.2965098,-39.80324 -71.9542228,24.03215 40.710943,-24.40765 -57.752733,4.13053 35.03034,-8.63656 z"
         style="opacity:0.82631579;fill:#ffff00;stroke:#000000;stroke-width:0.56489378px;stroke-linecap:butt;stroke-linejoin:miter;stroke-opacity:1;filter:url(#filter3821)" />
      <path
         transform="matrix(0.24480319,0,0,0.23521124,-174.57336,290.79766)"
         style="opacity:0.82631579;fill:#ff9933;stroke:#000000;stroke-width:0.56489378px;stroke-linecap:butt;stroke-linejoin:miter;stroke-opacity:1;filter:url(#filter3821)"
         d="m 28.911327,541.34483 -39.76418,-8.26106 58.6995,0.75102 -10.41442,-22.90565 46.39152,21.40363 c 0,0 15.14827,-21.77913 14.20151,-18.39961 -0.94677,3.37952 13.254713,23.28114 13.254713,23.28114 l 65.32687,2.62851 -68.16716,12.01608 21.77561,28.16267 -42.604463,-19.15061 -35.03035,25.15865 30.29651,-39.80324 -71.95422,24.03215 40.71094,-24.40766 -57.7527302,4.13053 35.0303502,-8.63655 z"
         id="path2901" />
      <path
         transform="matrix(0.24480319,0,0,0.23521124,-174.57336,290.79766)"
         id="path2903"
         d="m 104.65261,522.56972 -39.764173,-8.26106 58.699493,0.75101 -10.41443,-22.90564 46.39154,21.40362 c 0,0 15.14826,-21.77913 14.2015,-18.39961 -0.94677,3.37952 13.25471,23.28115 13.25471,23.28115 l 65.32687,2.62851 -68.16717,12.01608 21.77563,28.16267 -42.60448,-19.15062 -35.03033,25.15866 30.29649,-39.80325 -71.954213,24.03215 40.710953,-24.40765 -57.752743,4.13052 35.030353,-8.63654 z"
         style="opacity:0.82631579;fill:#ff9933;stroke:#000000;stroke-width:0.56489378px;stroke-linecap:butt;stroke-linejoin:miter;stroke-opacity:1;filter:url(#filter3821)" />
      <path
         transform="matrix(-0.24480319,0,0,-0.23521124,-95.514224,484.59568)"
         style="opacity:0.82631579;fill:#ef2929;stroke:#000000;stroke-width:0.56489378px;stroke-linecap:butt;stroke-linejoin:miter;stroke-opacity:1;filter:url(#filter3821)"
         d="m 148.20384,502.29259 -39.76417,-8.26105 58.6995,0.751 -10.41444,-22.90564 46.39154,21.40363 c 0,0 15.14827,-21.77913 14.20151,-18.39961 -0.94678,3.37952 13.2547,23.28114 13.2547,23.28114 l 65.32688,2.62852 -68.16717,12.01607 21.77562,28.16267 -42.60447,-19.15061 -35.03034,25.15865 30.29651,-39.80324 -71.95422,24.03214 40.71094,-24.40765 -57.75272,4.13053 35.03033,-8.63655 z"
         id="path2905" />
      <path
         transform="matrix(0.24480319,0,0,0.23521124,-174.57336,290.79766)"
         id="path2907"
         d="m 26.071017,569.5075 -39.76417,-8.26105 58.6995,0.75101 -10.41443,-22.90565 46.39153,21.40363 c 0,0 15.14827,-21.77913 14.2015,-18.39961 -0.94677,3.37952 13.254723,23.28114 13.254723,23.28114 l 65.32686,2.62852 -68.16715,12.01607 21.77562,28.16268 -42.604483,-19.15062 -35.03034,25.15865 30.29651,-39.80324 -71.9542202,24.03215 40.7109302,-24.40766 -57.7527202,4.13053 35.0303402,-8.63655 z"
         style="opacity:0.82631579;fill:#cc0000;stroke:#000000;stroke-width:0.56489378px;stroke-linecap:butt;stroke-linejoin:miter;stroke-opacity:1;filter:url(#filter3821)" />
      <path
         transform="matrix(0.24480319,0,0,0.23521124,-174.57336,290.79766)"
         style="opacity:0.82631579;fill:#f57900;stroke:#000000;stroke-width:0.56489378px;stroke-linecap:butt;stroke-linejoin:miter;stroke-opacity:1;filter:url(#filter3821)"
         d="m 93.291407,550.35688 -39.76418,-8.26105 58.699503,0.75101 -10.41443,-22.90564 46.39153,21.40363 c 0,0 15.14826,-21.77914 14.2015,-18.39962 -0.94677,3.37952 13.25473,23.28115 13.25473,23.28115 l 65.32685,2.62851 -68.16715,12.01608 21.77561,28.16266 -42.60448,-19.15061 -35.03033,25.15865 30.29652,-39.80324 -71.954233,24.03215 40.710943,-24.40765 -57.752723,4.13052 35.03034,-8.63655 z"
         id="path2909" />
      <path
         transform="matrix(0.24480319,0,0,0.23521124,-174.57336,290.79766)"
         id="path2911"
         d="m 180.39389,537.5898 -39.76417,-8.26105 58.69949,0.75101 -10.41444,-22.90565 46.39154,21.40363 c 0,0 15.14827,-21.77913 14.2015,-18.39961 -0.94676,3.37952 13.25472,23.28115 13.25472,23.28115 l 65.32687,2.62851 -68.16716,12.01608 21.77561,28.16267 -42.60447,-19.15062 -35.03034,25.15866 30.29651,-39.80325 -71.95423,24.03215 40.71095,-24.40765 -57.75272,4.13052 35.03034,-8.63655 z"
         style="opacity:0.82631579;fill:#f57900;stroke:#000000;stroke-width:0.56489378px;stroke-linecap:butt;stroke-linejoin:miter;stroke-opacity:1;filter:url(#filter3821)" />
      <path
         transform="matrix(-0.24480319,0,0,-0.23521124,-95.514224,484.59568)"
         id="path2913"
         d="m 121.77732,518.7868 -39.76418,-8.26106 58.69949,0.751 -10.41442,-22.90563 46.39154,21.40363 c 0,0 15.14825,-21.77914 14.20149,-18.39962 -0.94677,3.37952 13.25472,23.28115 13.25472,23.28115 l 65.32687,2.62851 -68.16716,12.01608 21.77561,28.16266 -42.60446,-19.15061 -35.03035,25.15866 30.29651,-39.80325 -71.95422,24.03215 40.71094,-24.40765 -57.75273,4.13053 35.03035,-8.63655 z"
         style="opacity:0.82631579;fill:#ff9933;stroke:#000000;stroke-width:0.56489378px;stroke-linecap:butt;stroke-linejoin:miter;stroke-opacity:1;filter:url(#filter3821)" />
      <path
         transform="matrix(-0.24480319,0,0,-0.23521124,-95.514224,484.59568)"
         style="opacity:0.82631579;fill:#ff3300;stroke:#000000;stroke-width:0.56489378px;stroke-linecap:butt;stroke-linejoin:miter;stroke-opacity:1;filter:url(#filter3821)"
         d="m 136.92557,501.51369 -39.764174,-8.26105 58.699494,0.751 -10.41443,-22.90564 46.39154,21.40364 c 0,0 15.14826,-21.77914 14.20149,-18.39962 -0.94676,3.37952 13.25472,23.28114 13.25472,23.28114 l 65.32688,2.62852 -68.16717,12.01607 21.77562,28.16267 -42.60448,-19.15061 -35.03034,25.15865 30.29652,-39.80324 -71.95422,24.03214 40.71094,-24.40764 -57.75273,4.13052 35.03034,-8.63655 z"
         id="path2915" />
      <path
         transform="matrix(-0.24480319,0,0,-0.23521124,-95.514224,484.59568)"
         id="path2917"
         d="m 202.25243,486.1181 -39.76417,-8.26106 58.69949,0.751 -10.41443,-22.90563 46.39155,21.40363 c 0,0 15.14826,-21.77914 14.20149,-18.39961 -0.94676,3.37951 13.25472,23.28114 13.25472,23.28114 l 65.32686,2.62851 -68.16714,12.01608 21.7756,28.16266 -42.60447,-19.1506 -35.03035,25.15864 30.29653,-39.80324 -71.95424,24.03215 40.71094,-24.40765 -57.75272,4.13053 35.03034,-8.63655 z"
         style="opacity:0.82631579;fill:#990000;stroke:#000000;stroke-width:0.56489378px;stroke-linecap:butt;stroke-linejoin:miter;stroke-opacity:1;filter:url(#filter3821)" />
      <path
         transform="matrix(0.24480319,0,0,0.23521124,-174.57336,290.79766)"
         style="opacity:0.82631579;fill:#ffff00;stroke:#000000;stroke-width:0.56489378px;stroke-linecap:butt;stroke-linejoin:miter;stroke-opacity:1;filter:url(#filter3821)"
         d="m 90.53403,552.9575 -39.76417,-8.26105 58.6995,0.75101 -10.414432,-22.90565 46.391542,21.40363 c 0,0 15.14825,-21.77913 14.20149,-18.3996 -0.94677,3.37951 13.25472,23.28114 13.25472,23.28114 l 65.32686,2.62851 -68.16715,12.01608 21.77561,28.16266 -42.60446,-19.15061 -35.03035,25.15865 30.29651,-39.80324 -71.95422,24.03215 40.71094,-24.40765 -57.75273,4.13053 35.03034,-8.63656 z"
         id="path2919" />
      <path
         transform="matrix(0.24480319,0,0,0.23521124,-174.57336,290.79766)"
         id="path2921"
         d="m 176.68975,545.82296 -39.76418,-8.26106 58.6995,0.75102 -10.41442,-22.90565 46.39152,21.40363 c 0,0 15.14827,-21.77913 14.20151,-18.39961 -0.94677,3.37952 13.25472,23.28114 13.25472,23.28114 l 65.32687,2.62851 -68.16716,12.01608 21.77561,28.16267 -42.60447,-19.15061 -35.03035,25.15865 30.29651,-39.80324 -71.95422,24.03215 40.71094,-24.40766 -57.75273,4.13053 35.03035,-8.63655 z"
         style="opacity:0.82631579;fill:#ff9933;stroke:#000000;stroke-width:0.56489378px;stroke-linecap:butt;stroke-linejoin:miter;stroke-opacity:1;filter:url(#filter3821)" />
      <path
         transform="matrix(0.24480319,0,0,0.23521124,-174.57336,290.79766)"
         style="opacity:0.82631579;fill:#ff9933;stroke:#000000;stroke-width:0.56489378px;stroke-linecap:butt;stroke-linejoin:miter;stroke-opacity:1;filter:url(#filter3821)"
         d="m 252.43104,527.04785 -39.76418,-8.26106 58.6995,0.75101 -10.41443,-22.90564 46.39154,21.40362 c 0,0 15.14826,-21.77913 14.2015,-18.39961 -0.94677,3.37952 13.25471,23.28115 13.25471,23.28115 l 65.32687,2.62851 -68.16717,12.01608 21.77563,28.16267 -42.60448,-19.15062 -35.03033,25.15866 30.29649,-39.80325 -71.95422,24.03215 40.71096,-24.40765 -57.75275,4.13052 35.03036,-8.63654 z"
         id="path2923" />
      <path
         transform="matrix(0.24480319,0,0,0.23521124,-174.57336,290.79766)"
         id="path2925"
         d="m 295.98227,506.77072 -39.76417,-8.26105 58.6995,0.751 -10.41444,-22.90564 46.39154,21.40363 c 0,0 15.14827,-21.77913 14.20151,-18.39961 -0.94678,3.37952 13.2547,23.28114 13.2547,23.28114 l 65.32688,2.62852 -68.16717,12.01607 21.77562,28.16267 -42.60447,-19.15061 -35.03034,25.15865 30.29651,-39.80324 -71.95422,24.03214 40.71094,-24.40765 -57.75272,4.13053 35.03033,-8.63655 z"
         style="opacity:0.82631579;fill:#ef2929;stroke:#000000;stroke-width:0.56489378px;stroke-linecap:butt;stroke-linejoin:miter;stroke-opacity:1;filter:url(#filter3821)" />
      <path
         transform="matrix(0.24480319,0,0,0.23521124,-174.57336,290.79766)"
         style="opacity:0.82631579;fill:#cc0000;stroke:#000000;stroke-width:0.56489378px;stroke-linecap:butt;stroke-linejoin:miter;stroke-opacity:1;filter:url(#filter3821)"
         d="m 173.84944,573.98563 -39.76417,-8.26105 58.6995,0.75101 -10.41443,-22.90565 46.39153,21.40363 c 0,0 15.14827,-21.77913 14.2015,-18.39961 -0.94677,3.37952 13.25473,23.28114 13.25473,23.28114 l 65.32686,2.62852 -68.16715,12.01607 21.77562,28.16268 -42.60449,-19.15062 -35.03034,25.15865 30.29651,-39.80324 -71.95422,24.03215 40.71093,-24.40766 -57.75272,4.13053 35.03034,-8.63655 z"
         id="path2927" />
      <path
         transform="matrix(0.24480319,0,0,0.23521124,-174.57336,290.79766)"
         id="path2929"
         d="m 241.06983,554.83501 -39.76418,-8.26105 58.69951,0.75101 -10.41443,-22.90564 46.39153,21.40363 c 0,0 15.14826,-21.77914 14.2015,-18.39962 -0.94677,3.37952 13.25473,23.28115 13.25473,23.28115 l 65.32685,2.62851 -68.16715,12.01608 21.77561,28.16266 -42.60448,-19.15061 -35.03033,25.15865 30.29652,-39.80324 -71.95424,24.03215 40.71095,-24.40765 -57.75273,4.13052 35.03034,-8.63655 z"
         style="opacity:0.82631579;fill:#f57900;stroke:#000000;stroke-width:0.56489378px;stroke-linecap:butt;stroke-linejoin:miter;stroke-opacity:1;filter:url(#filter3821)" />
      <path
         transform="matrix(0.24480319,0,0,0.23521124,-174.57336,290.79766)"
         style="opacity:0.82631579;fill:#f57900;stroke:#000000;stroke-width:0.56489378px;stroke-linecap:butt;stroke-linejoin:miter;stroke-opacity:1;filter:url(#filter3821)"
         d="m 328.17232,542.06793 -39.76417,-8.26105 58.69949,0.75101 -10.41444,-22.90565 46.39154,21.40363 c 0,0 15.14827,-21.77913 14.2015,-18.39961 -0.94676,3.37952 13.25472,23.28115 13.25472,23.28115 l 65.32687,2.62851 -68.16716,12.01608 21.77561,28.16267 -42.60447,-19.15062 -35.03034,25.15866 30.29651,-39.80325 -71.95423,24.03215 40.71095,-24.40765 -57.75272,4.13052 35.03034,-8.63655 z"
         id="path2931" />
      <path
         transform="matrix(0.24480319,0,0,0.23521124,-174.57336,290.79766)"
         style="opacity:0.82631579;fill:#ff9933;stroke:#000000;stroke-width:0.56489378px;stroke-linecap:butt;stroke-linejoin:miter;stroke-opacity:1;filter:url(#filter3821)"
         d="m -12.566703,605.36406 -39.76418,-8.26106 58.6994897,0.751 -10.41442,-22.90563 46.3915403,21.40363 c 0,0 15.14825,-21.77914 14.20149,-18.39962 -0.94677,3.37952 13.25472,23.28115 13.25472,23.28115 l 65.326873,2.62851 -68.167163,12.01608 21.77561,28.16266 -42.60446,-19.15061 -35.03035,25.15866 30.29651,-39.80325 -71.95422,24.03215 40.71094,-24.40765 -57.75273,4.13053 35.03035,-8.63655 z"
         id="path2933" />
      <path
         transform="matrix(0.24480319,0,0,0.23521124,-174.57336,290.79766)"
         id="path2935"
         d="m 2.5815467,588.09095 -39.7641737,-8.26105 58.699494,0.751 -10.41443,-22.90564 46.39154,21.40364 c 0,0 15.14826,-21.77914 14.20149,-18.39962 -0.94676,3.37952 13.25472,23.28114 13.25472,23.28114 l 65.326883,2.62852 -68.167173,12.01607 21.775623,28.16267 -42.604483,-19.15061 -35.03034,25.15865 30.29652,-39.80324 -71.95422,24.03214 40.71094,-24.40764 -57.75273,4.13052 35.0303397,-8.63655 z"
         style="opacity:0.82631579;fill:#ff3300;stroke:#000000;stroke-width:0.56489378px;stroke-linecap:butt;stroke-linejoin:miter;stroke-opacity:1;filter:url(#filter3821)" />
      <path
         transform="matrix(0.24480319,0,0,0.23521124,-174.57336,290.79766)"
         style="opacity:0.82631579;fill:#990000;stroke:#000000;stroke-width:0.56489378px;stroke-linecap:butt;stroke-linejoin:miter;stroke-opacity:1;filter:url(#filter3821)"
         d="m 67.908407,572.69536 -39.76417,-8.26106 58.69949,0.751 -10.41443,-22.90563 46.391553,21.40363 c 0,0 15.14826,-21.77914 14.20149,-18.39961 -0.94676,3.37951 13.25472,23.28114 13.25472,23.28114 l 65.32686,2.62851 -68.16714,12.01608 21.7756,28.16266 -42.60447,-19.1506 -35.030353,25.15864 30.296533,-39.80324 -71.954243,24.03215 40.71094,-24.40765 -57.75272,4.13053 35.03034,-8.63655 z"
         id="path2937" />
      <path
         transform="matrix(0.24480319,0,0,0.23521124,-174.57336,290.79766)"
         id="path2939"
         d="m -43.809993,639.53476 -39.76417,-8.26105 58.6995,0.75101 -10.414432,-22.90565 46.391542,21.40363 c 0,0 15.14825,-21.77913 14.20149,-18.3996 -0.94677,3.37951 13.25472,23.28114 13.25472,23.28114 l 65.326863,2.62851 -68.167153,12.01608 21.77561,28.16266 -42.60446,-19.15061 -35.03035,25.15865 30.29651,-39.80324 -71.95422,24.03215 40.71094,-24.40765 -57.75273,4.13053 35.03034,-8.63656 z"
         style="opacity:0.82631579;fill:#ffff00;stroke:#000000;stroke-width:0.56489378px;stroke-linecap:butt;stroke-linejoin:miter;stroke-opacity:1;filter:url(#filter3821)" />
      <path
         transform="matrix(0.24480319,0,0,0.23521124,-174.57336,290.79766)"
         style="opacity:0.82631579;fill:#ff9933;stroke:#000000;stroke-width:0.56489378px;stroke-linecap:butt;stroke-linejoin:miter;stroke-opacity:1;filter:url(#filter3821)"
         d="m 42.345727,632.40022 -39.7641803,-8.26106 58.6995003,0.75102 -10.41442,-22.90565 46.39152,21.40363 c 0,0 15.148273,-21.77913 14.201513,-18.39961 -0.94677,3.37952 13.25472,23.28114 13.25472,23.28114 l 65.32687,2.62851 -68.16716,12.01608 21.77561,28.16267 -42.60447,-19.15061 -35.030353,25.15865 30.29651,-39.80324 -71.95422,24.03215 40.71094,-24.40766 -57.7527303,4.13053 35.0303503,-8.63655 z"
         id="path2941" />
      <path
         transform="matrix(0.24480319,0,0,0.23521124,-174.57336,290.79766)"
         style="opacity:0.82631579;fill:#ef2929;stroke:#000000;stroke-width:0.56489378px;stroke-linecap:butt;stroke-linejoin:miter;stroke-opacity:1;filter:url(#filter3821)"
         d="m 161.63825,593.34798 -39.76417,-8.26105 58.6995,0.751 -10.41444,-22.90564 46.39154,21.40363 c 0,0 15.14827,-21.77913 14.20151,-18.39961 -0.94678,3.37952 13.2547,23.28114 13.2547,23.28114 l 65.32688,2.62852 -68.16717,12.01607 21.77562,28.16267 -42.60447,-19.15061 -35.03034,25.15865 30.29651,-39.80324 -71.95422,24.03214 40.71094,-24.40765 -57.75272,4.13053 35.03033,-8.63655 z"
         id="path2945" />
      <path
         transform="matrix(0.24480319,0,0,0.23521124,-174.57336,290.79766)"
         id="path2947"
         d="m 39.505417,660.56289 -39.76417032,-8.26105 58.69950032,0.75101 -10.41443,-22.90565 46.39153,21.40363 c 0,0 15.148273,-21.77913 14.201503,-18.39961 -0.94677,3.37952 13.25473,23.28114 13.25473,23.28114 l 65.32686,2.62852 -68.16715,12.01607 21.77562,28.16268 -42.604493,-19.15062 -35.03034,25.15865 30.29651,-39.80324 -71.95422,24.03215 40.71093,-24.40766 -57.7527203,4.13053 35.0303403,-8.63655 z"
         style="opacity:0.82631579;fill:#cc0000;stroke:#000000;stroke-width:0.56489378px;stroke-linecap:butt;stroke-linejoin:miter;stroke-opacity:1;filter:url(#filter3821)" />
      <path
         transform="matrix(0.24480319,0,0,0.23521124,-174.57336,290.79766)"
         style="opacity:0.82631579;fill:#f57900;stroke:#000000;stroke-width:0.56489378px;stroke-linecap:butt;stroke-linejoin:miter;stroke-opacity:1;filter:url(#filter3821)"
         d="m 106.72581,641.41227 -39.764183,-8.26105 58.699513,0.75101 -10.41443,-22.90564 46.39153,21.40363 c 0,0 15.14826,-21.77914 14.2015,-18.39962 -0.94677,3.37952 13.25473,23.28115 13.25473,23.28115 l 65.32685,2.62851 -68.16715,12.01608 21.77561,28.16266 -42.60448,-19.15061 -35.03033,25.15865 30.29652,-39.80324 -71.954243,24.03215 40.710953,-24.40765 -57.752733,4.13052 35.030343,-8.63655 z"
         id="path2949" />
      <path
         transform="matrix(0.24480319,0,0,0.23521124,-174.57336,290.79766)"
         id="path2951"
         d="m 193.8283,628.64519 -39.76417,-8.26105 58.69949,0.75101 -10.41444,-22.90565 46.39154,21.40363 c 0,0 15.14827,-21.77913 14.2015,-18.39961 -0.94676,3.37952 13.25472,23.28115 13.25472,23.28115 l 65.32687,2.62851 -68.16716,12.01608 21.77561,28.16267 -42.60447,-19.15062 -35.03034,25.15866 30.29651,-39.80325 -71.95423,24.03215 40.71095,-24.40765 -57.75272,4.13052 35.03034,-8.63655 z"
         style="opacity:0.82631579;fill:#f57900;stroke:#000000;stroke-width:0.56489378px;stroke-linecap:butt;stroke-linejoin:miter;stroke-opacity:1;filter:url(#filter3821)" />
      <path
         transform="matrix(0.24480319,0,0,0.23521124,-174.57336,290.79766)"
         id="path2953"
         d="m 121.77732,603.87135 -39.76418,-8.26106 58.69949,0.751 -10.41442,-22.90563 46.39154,21.40363 c 0,0 15.14825,-21.77914 14.20149,-18.39962 -0.94677,3.37952 13.25472,23.28115 13.25472,23.28115 l 65.32687,2.62851 -68.16716,12.01608 21.77561,28.16266 -42.60446,-19.15061 -35.03035,25.15866 30.29651,-39.80325 -71.95422,24.03215 40.71094,-24.40765 -57.75273,4.13053 35.03035,-8.63655 z"
         style="opacity:0.82631579;fill:#ff9933;stroke:#000000;stroke-width:0.56489378px;stroke-linecap:butt;stroke-linejoin:miter;stroke-opacity:1;filter:url(#filter3821)" />
      <path
         transform="matrix(0.24480319,0,0,0.23521124,-174.57336,290.79766)"
         style="opacity:0.82631579;fill:#ff3300;stroke:#000000;stroke-width:0.56489378px;stroke-linecap:butt;stroke-linejoin:miter;stroke-opacity:1;filter:url(#filter3821)"
         d="m 136.92557,586.59824 -39.764174,-8.26105 58.699494,0.751 -10.41443,-22.90564 46.39154,21.40364 c 0,0 15.14826,-21.77914 14.20149,-18.39962 -0.94676,3.37952 13.25472,23.28114 13.25472,23.28114 l 65.32688,2.62852 -68.16717,12.01607 21.77562,28.16267 -42.60448,-19.15061 -35.03034,25.15865 30.29652,-39.80324 -71.95422,24.03214 40.71094,-24.40764 -57.75273,4.13052 35.03034,-8.63655 z"
         id="path2955" />
      <path
         transform="matrix(0.24480319,0,0,0.23521124,-149.16055,280.65212)"
         id="path2957"
         d="m 202.25243,571.20265 -39.76417,-8.26106 58.69949,0.751 -10.41443,-22.90563 46.39155,21.40363 c 0,0 15.14826,-21.77914 14.20149,-18.39961 -0.94676,3.37951 13.25472,23.28114 13.25472,23.28114 l 65.32686,2.62851 -68.16714,12.01608 21.7756,28.16266 -42.60447,-19.1506 -35.03035,25.15864 30.29653,-39.80324 -71.95424,24.03215 40.71094,-24.40765 -57.75272,4.13053 35.03034,-8.63655 z"
         style="opacity:0.82631579;fill:#990000;stroke:#000000;stroke-width:0.56489378px;stroke-linecap:butt;stroke-linejoin:miter;stroke-opacity:1;filter:url(#filter3821)" />
      <path
         transform="matrix(0.24480319,0,0,0.23521124,-155.74906,276.04053)"
         style="opacity:0.82631579;fill:#ffff00;stroke:#000000;stroke-width:0.56489378px;stroke-linecap:butt;stroke-linejoin:miter;stroke-opacity:1;filter:url(#filter3821)"
         d="m 90.53403,638.04205 -39.76417,-8.26105 58.6995,0.75101 -10.414432,-22.90565 46.391542,21.40363 c 0,0 15.14825,-21.77913 14.20149,-18.3996 -0.94677,3.37951 13.25472,23.28114 13.25472,23.28114 l 65.32686,2.62851 -68.16715,12.01608 21.77561,28.16266 -42.60446,-19.15061 -35.03035,25.15865 30.29651,-39.80324 -71.95422,24.03215 40.71094,-24.40765 -57.75273,4.13053 35.03034,-8.63656 z"
         id="path2959" />
      <path
         transform="matrix(0.24480319,0,0,0.23521124,-174.57336,290.79766)"
         id="path2961"
         d="m 176.68975,630.90751 -39.76418,-8.26106 58.6995,0.75102 -10.41442,-22.90565 46.39152,21.40363 c 0,0 15.14827,-21.77913 14.20151,-18.39961 -0.94677,3.37952 13.25472,23.28114 13.25472,23.28114 l 65.32687,2.62851 -68.16716,12.01608 21.77561,28.16267 -42.60447,-19.15061 -35.03035,25.15865 30.29651,-39.80324 -71.95422,24.03215 40.71094,-24.40766 -57.75273,4.13053 35.03035,-8.63655 z"
         style="opacity:0.82631579;fill:#ff9933;stroke:#000000;stroke-width:0.56489378px;stroke-linecap:butt;stroke-linejoin:miter;stroke-opacity:1;filter:url(#filter3821)" />
      <path
         transform="matrix(0.24480319,0,0,0.23521124,-174.57336,290.79766)"
         style="opacity:0.82631579;fill:#ff9933;stroke:#000000;stroke-width:0.56489378px;stroke-linecap:butt;stroke-linejoin:miter;stroke-opacity:1;filter:url(#filter3821)"
         d="m 252.43104,612.1324 -39.76418,-8.26106 58.6995,0.75101 -10.41443,-22.90564 46.39154,21.40362 c 0,0 15.14826,-21.77913 14.2015,-18.39961 -0.94677,3.37952 13.25471,23.28115 13.25471,23.28115 l 65.32687,2.62851 -68.16717,12.01608 21.77563,28.16267 -42.60448,-19.15062 -35.03033,25.15866 30.29649,-39.80325 -71.95422,24.03215 40.71096,-24.40765 -57.75275,4.13052 35.03036,-8.63654 z"
         id="path2963" />
      <path
         transform="matrix(0.24480319,0,0,0.23521124,-174.57336,290.79766)"
         id="path2965"
         d="m 295.98227,591.85527 -39.76417,-8.26105 58.6995,0.751 -10.41444,-22.90564 46.39154,21.40363 c 0,0 15.14827,-21.77913 14.20151,-18.39961 -0.94678,3.37952 13.2547,23.28114 13.2547,23.28114 l 65.32688,2.62852 -68.16717,12.01607 21.77562,28.16267 -42.60447,-19.15061 -35.03034,25.15865 30.29651,-39.80324 -71.95422,24.03214 40.71094,-24.40765 -57.75272,4.13053 35.03033,-8.63655 z"
         style="opacity:0.82631579;fill:#ef2929;stroke:#000000;stroke-width:0.56489378px;stroke-linecap:butt;stroke-linejoin:miter;stroke-opacity:1;filter:url(#filter3821)" />
      <path
         transform="matrix(0.24480319,0,0,0.23521124,-174.57336,290.79766)"
         style="opacity:0.82631579;fill:#cc0000;stroke:#000000;stroke-width:0.56489378px;stroke-linecap:butt;stroke-linejoin:miter;stroke-opacity:1;filter:url(#filter3821)"
         d="m 173.84944,659.07018 -39.76417,-8.26105 58.6995,0.75101 -10.41443,-22.90565 46.39153,21.40363 c 0,0 15.14827,-21.77913 14.2015,-18.39961 -0.94677,3.37952 13.25473,23.28114 13.25473,23.28114 l 65.32686,2.62852 -68.16715,12.01607 21.77562,28.16268 -42.60449,-19.15062 -35.03034,25.15865 30.29651,-39.80324 -71.95422,24.03215 40.71093,-24.40766 -57.75272,4.13053 35.03034,-8.63655 z"
         id="path2967" />
      <path
         transform="matrix(0.24480319,0,0,0.23521124,-196.22129,292.64231)"
         id="path2969"
         d="m 241.06983,639.91956 -39.76418,-8.26105 58.69951,0.75101 -10.41443,-22.90564 46.39153,21.40363 c 0,0 15.14826,-21.77914 14.2015,-18.39962 -0.94677,3.37952 13.25473,23.28115 13.25473,23.28115 l 65.32685,2.62851 -68.16715,12.01608 21.77561,28.16266 -42.60448,-19.15061 -35.03033,25.15865 30.29652,-39.80324 -71.95424,24.03215 40.71095,-24.40765 -57.75273,4.13052 35.03034,-8.63655 z"
         style="opacity:0.82631579;fill:#f57900;stroke:#000000;stroke-width:0.56489378px;stroke-linecap:butt;stroke-linejoin:miter;stroke-opacity:1;filter:url(#filter3821)" />
      <path
         transform="matrix(0.24480319,0,0,0.23521124,-174.57336,290.79766)"
         style="opacity:0.82631579;fill:#f57900;stroke:#000000;stroke-width:0.56489378px;stroke-linecap:butt;stroke-linejoin:miter;stroke-opacity:1;filter:url(#filter3821)"
         d="m 328.17232,627.15248 -39.76417,-8.26105 58.69949,0.75101 -10.41444,-22.90565 46.39154,21.40363 c 0,0 15.14827,-21.77913 14.2015,-18.39961 -0.94676,3.37952 13.25472,23.28115 13.25472,23.28115 l 65.32687,2.62851 -68.16716,12.01608 21.77561,28.16267 -42.60447,-19.15062 -35.03034,25.15866 30.29651,-39.80325 -71.95423,24.03215 40.71095,-24.40765 -57.75272,4.13052 35.03034,-8.63655 z"
         id="path2971" />
      <path
         transform="matrix(1.2594173,0,0,0.59637524,83.292669,98.149235)"
         d="m -126.88047,309.73828 c 0,16.90024 -35.42041,30.60059 -79.1137,30.60059 -43.69329,0 -79.1137,-13.70035 -79.1137,-30.60059 0,-16.90023 35.42041,-30.60058 79.1137,-30.60058 43.69329,0 79.1137,13.70035 79.1137,30.60058 z"
         sodipodi:ry="30.600584"
         sodipodi:rx="79.113701"
         sodipodi:cy="309.73828"
         sodipodi:cx="-205.99417"
         id="path4873"
         style="opacity:0.37894736;fill:#deffff;fill-opacity:1;fill-rule:evenodd;stroke:#0f7c1b;stroke-width:0;stroke-linecap:round;stroke-linejoin:round;stroke-miterlimit:4;stroke-opacity:1;stroke-dasharray:none;stroke-dashoffset:0;filter:url(#filter4879)"
         sodipodi:type="arc" />
      <path
         d="m -126.88047,309.73828 c 0,16.90024 -35.42041,30.60059 -79.1137,30.60059 -43.69329,0 -79.1137,-13.70035 -79.1137,-30.60059 0,-16.90023 35.42041,-30.60058 79.1137,-30.60058 43.69329,0 79.1137,13.70035 79.1137,30.60058 z"
         sodipodi:ry="30.600584"
         sodipodi:rx="79.113701"
         sodipodi:cy="309.73828"
         sodipodi:cx="-205.99417"
         id="path4891"
         style="opacity:0.36315792;fill:#ffccff;fill-opacity:1;fill-rule:evenodd;stroke:#0f7c1b;stroke-width:0;stroke-linecap:round;stroke-linejoin:round;stroke-miterlimit:4;stroke-opacity:1;stroke-dasharray:none;stroke-dashoffset:0;filter:url(#filter4885)"
         sodipodi:type="arc"
         transform="matrix(1,0,0,0.60365514,-49.259476,46.634898)" />
      <path
         transform="matrix(0.31188281,0,0,0.10712426,-218.01464,455.44912)"
         sodipodi:nodetypes="csssccc"
         id="path4847"
         d="m -326.90379,512.00067 c 0,0 175.22066,-36.09417 264.209912,-40.30321 61.231742,-2.89616 122.303372,10.35675 183.603498,10.44898 83.21475,0.1252 167.14494,-26.77915 249.2828,-13.4344 40.12872,6.51962 113.44606,44.78134 113.44606,44.78134 l 0,0 -810.54227,-1.49271 z"
         style="fill:#555753;fill-opacity:1;stroke:#000000;stroke-width:1px;stroke-linecap:butt;stroke-linejoin:miter;stroke-opacity:1;filter:url(#filter5957)" />
      <path
         transform="matrix(0.67695235,0,0,0.6547578,-408.9274,10.83155)"
         sodipodi:end="5.1908822"
         sodipodi:start="0"
         d="m 537.37608,329.88989 c 0,7.41962 -79.863,13.43441 -178.37901,13.43441 -98.51601,0 -178.37901,-6.01479 -178.37901,-13.43441 0,-7.41961 79.863,-13.4344 178.37901,-13.4344 28.58754,0 56.75635,0.51747 82.13322,1.50882 l -82.13322,11.92558 z"
         sodipodi:ry="13.434402"
         sodipodi:rx="178.37901"
         sodipodi:cy="329.88989"
         sodipodi:cx="358.99707"
         id="path5879"
         style="opacity:0.45263157;fill:#fce94f;fill-opacity:1;fill-rule:evenodd;stroke:#898d85;stroke-width:0;stroke-linecap:round;stroke-linejoin:round;stroke-miterlimit:4;stroke-opacity:1;stroke-dasharray:none;stroke-dashoffset:0;filter:url(#filter5929)"
         sodipodi:type="arc" />
      <path
         transform="matrix(0.53412897,0,0,0.6672467,-395.19007,119.50001)"
         sodipodi:type="arc"
         style="opacity:0.45263157;fill:#edd400;fill-opacity:1;fill-rule:evenodd;stroke:#898d85;stroke-width:0;stroke-linecap:round;stroke-linejoin:round;stroke-miterlimit:4;stroke-opacity:1;stroke-dasharray:none;stroke-dashoffset:0;filter:url(#filter5925)"
         id="path5881"
         sodipodi:cx="358.99707"
         sodipodi:cy="329.88989"
         sodipodi:rx="178.37901"
         sodipodi:ry="13.434402"
         d="m 537.37608,329.88989 c 0,7.41962 -79.863,13.43441 -178.37901,13.43441 -98.51601,0 -178.37901,-6.01479 -178.37901,-13.43441 0,-7.41961 79.863,-13.4344 178.37901,-13.4344 28.58754,0 56.75635,0.51747 82.13322,1.50882 l -82.13322,11.92558 z"
         sodipodi:start="0"
         sodipodi:end="5.1908822" />
      <path
         sodipodi:end="5.1908822"
         sodipodi:start="0"
         d="m 537.37608,329.88989 c 0,7.41962 -79.863,13.43441 -178.37901,13.43441 -98.51601,0 -178.37901,-6.01479 -178.37901,-13.43441 0,-7.41961 79.863,-13.4344 178.37901,-13.4344 28.58754,0 56.75635,0.51747 82.13322,1.50882 l -82.13322,11.92558 z"
         sodipodi:ry="13.434402"
         sodipodi:rx="178.37901"
         sodipodi:cy="329.88989"
         sodipodi:cx="358.99707"
         id="path5883"
         style="opacity:0.45263157;fill:#fcaf3e;fill-opacity:1;fill-rule:evenodd;stroke:#898d85;stroke-width:0;stroke-linecap:round;stroke-linejoin:round;stroke-miterlimit:4;stroke-opacity:1;stroke-dasharray:none;stroke-dashoffset:0;filter:url(#filter5921)"
         sodipodi:type="arc"
         transform="matrix(0.67695235,0,0,0.6547578,-432.76472,63.822541)" />
      <path
         transform="matrix(0.60055845,0,0,0.69222448,-454.24274,153.23343)"
         sodipodi:type="arc"
         style="opacity:0.45263157;fill:#f57900;fill-opacity:1;fill-rule:evenodd;stroke:#898d85;stroke-width:0;stroke-linecap:round;stroke-linejoin:round;stroke-miterlimit:4;stroke-opacity:1;stroke-dasharray:none;stroke-dashoffset:0;filter:url(#filter5917)"
         id="path5885"
         sodipodi:cx="358.99707"
         sodipodi:cy="329.88989"
         sodipodi:rx="178.37901"
         sodipodi:ry="13.434402"
         d="m 537.37608,329.88989 c 0,7.41962 -79.863,13.43441 -178.37901,13.43441 -98.51601,0 -178.37901,-6.01479 -178.37901,-13.43441 0,-7.41961 79.863,-13.4344 178.37901,-13.4344 28.58754,0 56.75635,0.51747 82.13322,1.50882 l -82.13322,11.92558 z"
         sodipodi:start="0"
         sodipodi:end="5.1908822" />
      <path
         sodipodi:end="5.1908822"
         sodipodi:start="0"
         d="m 537.37608,329.88989 c 0,7.41962 -79.863,13.43441 -178.37901,13.43441 -98.51601,0 -178.37901,-6.01479 -178.37901,-13.43441 0,-7.41961 79.863,-13.4344 178.37901,-13.4344 28.58754,0 56.75635,0.51747 82.13322,1.50882 l -82.13322,11.92558 z"
         sodipodi:ry="13.434402"
         sodipodi:rx="178.37901"
         sodipodi:cy="329.88989"
         sodipodi:cx="358.99707"
         id="path5887"
         style="opacity:0.45263157;fill:#ef2929;fill-opacity:1;fill-rule:evenodd;stroke:#898d85;stroke-width:0;stroke-linecap:round;stroke-linejoin:round;stroke-miterlimit:4;stroke-opacity:1;stroke-dasharray:none;stroke-dashoffset:0;filter:url(#filter5913)"
         sodipodi:type="arc"
         transform="matrix(0.67695235,0,0,0.6547578,-435.7962,125.39649)" />
      <path
         transform="matrix(0.99453552,0,0,0.21875002,-1.7700458,390.67108)"
         sodipodi:end="5.1908822"
         sodipodi:start="0"
         d="m -50.752197,523.94238 c 0,13.19043 -61.150333,23.88339 -136.583083,23.88339 -75.43276,0 -136.58309,-10.69296 -136.58309,-23.88339 0,-13.19043 61.15033,-23.88338 136.58309,-23.88338 21.8892,0 43.45779,0.91995 62.88861,2.68235 l -62.88861,21.20103 z"
         sodipodi:ry="23.883383"
         sodipodi:rx="136.58308"
         sodipodi:cy="523.94238"
         sodipodi:cx="-187.33528"
         id="path5961"
         style="opacity:0.82631579;fill:url(#linearGradient6186);fill-opacity:1;fill-rule:evenodd;stroke:#898d85;stroke-width:0;stroke-linecap:round;stroke-linejoin:round;stroke-miterlimit:4;stroke-opacity:1;stroke-dasharray:none;stroke-dashoffset:0;filter:url(#filter6014)"
         sodipodi:type="arc" />
    </g>
  </g>
</svg>
