<?xml version="1.0" encoding="utf-8"?>
<!-- Generator: Adobe Illustrator 14.0.0, SVG Export Plug-In . SVG Version: 6.00 Build 43363)  -->
<!DOCTYPE svg PUBLIC "-//W3C//DTD SVG 1.1//EN" "http://www.w3.org/Graphics/SVG/1.1/DTD/svg11.dtd">
<svg version="1.1" xmlns="http://www.w3.org/2000/svg" xmlns:xlink="http://www.w3.org/1999/xlink" x="0px" y="0px" width="500px"
	 height="500px" viewBox="0 0 500 500" enable-background="new 0 0 500 500" xml:space="preserve">
<g id="Ref" display="none">
	
		<image display="inline" overflow="visible" width="622" height="554" xlink:href="Spring_Bird_Ref.jpg"  transform="matrix(0.7967 0 0 0.7967 0.9995 20.9263)">
	</image>
</g>
<g id="Layer_5">
	<linearGradient id="SVGID_1_" gradientUnits="userSpaceOnUse" x1="353.457" y1="550.46" x2="146.5442" y2="-50.4587">
		<stop  offset="0" style="stop-color:#FFFFFF"/>
		<stop  offset="0.6994" style="stop-color:#7156A4"/>
		<stop  offset="1" style="stop-color:#1E2157"/>
	</linearGradient>
	<rect fill="url(#SVGID_1_)" stroke="#000000" width="500" height="500"/>
</g>
<g id="Outlines">
	<path d="M285.975,81.64c0,0-7.563-7.563-15.126,5.042s5.043,23.529,15.967,24.37s18.486-1.681,24.369-9.244
		s20.169-32.772-9.243-58.823c-16.807-10.925-32.772-15.967-43.697-12.605s-38.655,15.126-46.219,44.538
		c-0.84,15.966-2.521,39.495,18.487,56.302s37.814,18.488,53.781,15.126s28.571-10.925,35.294-17.647s26.891-25.21,36.135-26.05
		s19.328-1.681,19.328-1.681s-29.413-13.445-23.53-40.336c7.563-15.966,16.807-23.53,27.731-22.689s28.572,0,32.773,17.647
		s-13.446,20.168-19.328,15.966s-7.563-6.723-8.403-13.445c3.361,4.202,10.925,11.765,17.647,5.882
		c6.723-7.563,3.36-11.764-2.521-17.647c-6.723-3.361-24.369-4.202-29.411,2.521s-7.562,18.487-6.723,26.05
		s10.084,20.168,18.487,24.37s20.168,5.042,30.252,15.126s21.849,26.891,23.529,41.177s3.361,42.857,0,57.143
		s-6.723,19.328-6.723,19.328s9.242-7.563,19.327-6.723s12.606,3.361,18.488,2.521s22.689-4.202,26.891-15.966
		c2.521-8.403,1.68-20.168-10.925-25.21c-9.243-1.681-21.01-2.521-26.051,6.723c-1.68,10.084,2.522,18.487,10.085,17.647
		s9.244-4.202,6.723-13.445c5.882,3.361,10.924,10.084,4.201,18.487c-5.882,5.882-19.327,4.202-22.688-5.042
		s-2.521-25.21,8.403-29.412s27.151-5.042,31.933,9.244s3.36,22.689-4.202,30.252s-26.892,12.605-41.177,10.924
		c-9.243,1.681-22.688,9.244-31.092,17.647s-29.412,31.933-57.983,26.891s-27.73-22.689-26.891-26.891
		c0.84-4.202,2.521-15.967,15.126-20.168s23.529-6.723,28.571,10.084c-6.723-5.042-12.604-11.765-21.849-8.403
		s-16.808,18.488-5.883,33.614c10.925,6.723,25.21,8.402,37.815,2.521s29.411-16.807,35.294-31.933s15.126-17.646,8.403-84.033
		c-4.201-7.563-16.806-38.656-36.134-42.017s-29.411-7.563-40.336-2.521s-27.732,22.689-45.379,36.975s-34.453,19.328-57.143,12.605
		c-21.008-10.084-39.495-30.252-43.697-44.538s-2.521-42.857-2.521-48.739s10.084-21.009,15.126-26.051s23.53-15.966,40.336-15.126
		s28.57,6.722,37.814,14.286s24.369,21.009,23.529,38.656s-7.563,33.613-20.168,39.496s-42.857,10.084-46.219-8.403
		S272.529,63.993,285.975,81.64z"/>
	<path d="M185.975,156.43c0,0,15.126,11.765,24.37-2.521c3.361-10.924,0-21.849-9.244-24.37s-38.655-0.841-47.059,12.605
		c-5.042,13.446-16.807,55.462-70.588,78.151c-17.647,8.403-43.697,17.647-57.143,52.941c12.605-4.202,31.933-10.084,42.017,3.361
		c1.681,11.765,1.681,24.37-16.807,31.093c6.723-9.244,11.765-15.126,5.882-27.731c-5.882-5.042-19.907-11.765-38.655,6.723
		c-8.403,17.647-11.765,22.688-10.924,33.613s4.202,52.1,41.176,67.227c14.286,3.361,22.689,4.201,31.092,0
		s15.966-12.605,12.605-25.21c-3.361-5.042-16.807-19.327-25.21-0.84c-1.681-5.042-1.681-11.765,4.202-15.126
		c7.563-1.681,9.244-1.681,14.286-3.361c7.563,5.042,9.243,7.563,13.445,8.403c3.361,7.562,4.202,31.933-14.286,38.655
		c-10.924,3.361-15.966,5.883-24.37,5.042s-44.538-17.647-51.26-42.857s-8.403-65.546,9.244-89.075
		c17.647-23.53,34.454-35.294,46.218-41.177s43.698-18.487,57.983-36.134s29.412-26.051,32.773-67.227
		c-2.521-16.807-14.285-46.218-39.496-52.941s-45.378-2.521-61.345,6.723s-21.008,21.849-23.529,31.092
		c0.84,15.966,5.882,26.05,8.403,29.412s18.487,19.328,31.933,18.488s50.42-22.689,21.008-51.261
		c11.765,8.403,15.967,15.966,15.967,24.37s-5.042,29.412-26.891,36.975s-39.496-10.083-46.218-17.647
		c-5.042-12.605-10.084-28.572-9.244-37.815s10.924-35.294,30.252-44.538s23.529-13.445,36.975-13.445s33.614,4.202,48.74,24.37
		s21.008,44.537,15.126,61.344c11.765-5.042,36.975-19.328,53.782-3.361s10.084,26.051,5.042,30.252S195.218,174.077,185.975,156.43
		z"/>
	<g id="Layer_3">
		<path stroke="#000000" d="M233.034,256.387c0,0-20.168-6.722-7.563-20.168s24.37-1.681,26.051,4.202s7.562,42.856-37.815,38.655
			c-5.882-0.84-20.168-6.724-24.37-21.849c-4.202-15.125-4.201-27.731,7.563-43.697c15.966-12.605,39.496-28.571,61.345-18.487
			s35.293,18.488,36.134,41.177s-1.681,52.94-13.445,65.546s-26.05,28.572-53.781,29.412c-27.731,0.84-53.782,1.681-77.311,15.126
			s-35.294,43.698-36.134,59.664s5.882,38.655,21.008,48.739s39.496,8.402,44.538,5.882s25.211-20.168,20.168-31.933
			s-15.126-20.168-25.21-15.126s-14.286,10.085-4.202,22.689c-0.84-5.042-8.404-15.967,6.723-19.328
			c6.723,0,20.169,6.723,15.126,20.168c-5.042,10.925-10.925,18.487-25.21,16.807s-31.933-5.883-41.176-28.571
			c-3.361-14.285-6.723-56.303,25.21-73.109c-6.723,14.286-7.563,32.774,4.202,38.656s30.252,2.521,31.933-9.244
			s-7.563-14.285-12.605-15.126c3.361,3.361,12.605,9.243,2.521,15.126s-19.328,7.563-24.37-8.403
			c1.681-10.925,7.562-28.571,25.21-31.933s28.572-4.201,42.857-5.042s45.378-10.085,57.143-19.328s19.328-27.73,21.009-45.378
			s-0.001-38.656-0.841-44.538s1.682-21.008,5.883-26.891s18.487-22.689,31.933-17.647c7.562,5.042,15.967,14.286,14.286,22.689
			s-6.723,15.966-10.925,16.807s-12.605-2.521-14.286-10.924c-0.84,6.723,1.682,10.924,5.883,13.445s9.244,1.681,14.286-1.681
			s17.647-23.529,3.361-42.857c-13.446-9.244-47.9-10.925-57.144,31.092c-8.403-8.403-35.294-32.773-59.664-29.412
			s-39.496,13.445-46.219,34.454s-1.68,42.017,5.042,52.101s30.252,26.05,48.739,19.327c15.967-9.243,19.328-19.327,21.009-26.05
			s-0.841-32.773-20.168-36.135s-21.849,5.883-23.529,10.925S212.865,256.387,233.034,256.387z"/>
		<path stroke="#000000" d="M319.588,333.697c0,0,6.724-11.765-2.521-16.807c-6.723-0.84-16.807,2.521-10.084,24.37
			c9.243,6.723,5.042-0.001,26.891,26.05c3.361,5.042,15.966,20.168,28.571,24.37s31.934,9.244,54.622-6.723
			c17.647-19.328,34.454-46.218,26.891-72.269c-6.723-15.967-25.211-38.656-47.899-35.295s-26.89,2.521-34.453,12.605
			s-18.487,36.135-5.042,51.261c16.807,10.084,18.487,10.924,25.21,9.243s27.731-8.403,18.487-30.252
			c-8.403-2.521-15.966-6.722-21.849,4.202c-1.681-5.883,3.36-11.766,14.285-14.286s15.967,7.562,14.286,16.807
			s-9.244,28.571-27.731,31.933c-14.285-2.521-36.135-12.604-36.135-31.092s9.245-42.018,25.211-48.74s40.336-14.285,60.504,0.841
			s29.411,37.814,26.891,55.462s-4.202,34.453-26.051,48.739s-32.772,17.648-44.537,16.808s-30.252-4.202-44.538-19.328
			s-26.892-34.454-39.496-39.496c-7.562-4.201-20.168-15.125-43.697-5.882c-12.605,6.723-29.412,10.925-37.815,49.58
			c-1.681,15.966,0,30.252,5.042,43.697c8.403,10.924,19.329,22.689,35.294,23.529s27.731-4.202,28.571-21.009
			c-4.202-13.445-4.202-12.604-15.967-15.966c9.244-1.681,20.168,2.521,21.849,15.126c-1.681,14.285-10.083,20.168-15.966,23.529
			s-23.529,8.403-34.454,1.681c-10.924-6.723-20.168-11.766-24.37-17.647s-10.084-26.05-10.084-26.05s-0.84-38.656,18.487-58.824
			s26.051-20.167,35.294-22.688c11.765-1.681,24.37-1.681,33.613,1.681c1.681-7.563,5.882-19.328,14.285-21.009
			s14.286,5.882,14.286,10.084S323.789,333.697,319.588,333.697z"/>
		<path stroke="#000000" d="M56.563,320.252l-2.521,20.168c0,0,13.445-5.041,19.328-7.562s31.093-6.723,31.093-6.723
			s20.168,0,24.37,5.042c10.084,3.361,15.966,1.681,21.008-1.681s12.605-13.445,14.286-20.168
			c-0.84-10.084-5.042-16.807-2.521-29.412c5.042-5.042,12.605-8.403,12.605-8.403s-6.723-1.681-13.445-1.681
			c-1.681-5.042-6.723-10.924-9.244-11.765c-5.882,2.521-12.605-0.842-15.966,15.966c-0.84,14.286-7.562,35.295-27.731,35.295
			s-36.135-4.202-36.135-4.202l-5.882,12.605L56.563,320.252z"/>
	</g>
	<g id="Layer_4">
		<polygon stroke="#000000" points="148.16,315.21 149,350.504 145.958,352.025 142.118,319.412 138.076,321.093 139.756,358.907 
			136.395,362.269 129.353,316.051 		"/>
	</g>
</g>
</svg>
