<?xml version="1.0" encoding="UTF-8" standalone="no"?>
<!-- Created with Inkscape (http://www.inkscape.org/) -->
<svg
   xmlns:dc="http://purl.org/dc/elements/1.1/"
   xmlns:cc="http://web.resource.org/cc/"
   xmlns:rdf="http://www.w3.org/1999/02/22-rdf-syntax-ns#"
   xmlns:svg="http://www.w3.org/2000/svg"
   xmlns="http://www.w3.org/2000/svg"
   xmlns:sodipodi="http://sodipodi.sourceforge.net/DTD/sodipodi-0.dtd"
   xmlns:inkscape="http://www.inkscape.org/namespaces/inkscape"
   width="487.10733"
   height="276.99564"
   id="svg2"
   sodipodi:version="0.32"
   inkscape:version="0.45.1"
   sodipodi:docbase="C:\Documents and Settings\Bianca\Desktop\Leo"
   sodipodi:docname="desenho.svg"
   inkscape:output_extension="org.inkscape.output.svg.inkscape"
   version="1.0">
  <defs
     id="defs4" />
  <sodipodi:namedview
     id="base"
     pagecolor="#ffffff"
     bordercolor="#666666"
     borderopacity="1.0"
     inkscape:pageopacity="0.0"
     inkscape:pageshadow="2"
     inkscape:zoom="0.7"
     inkscape:cx="482.8596"
     inkscape:cy="381.71068"
     inkscape:document-units="px"
     inkscape:current-layer="layer1"
     inkscape:window-width="1152"
     inkscape:window-height="811"
     inkscape:window-x="-4"
     inkscape:window-y="-4" />
  <metadata
     id="metadata7">
    <rdf:RDF>
      <cc:Work
         rdf:about="">
        <dc:format>image/svg+xml</dc:format>
        <dc:type
           rdf:resource="http://purl.org/dc/dcmitype/StillImage" />
      </cc:Work>
    </rdf:RDF>
  </metadata>
  <g
     inkscape:label="Camada 1"
     inkscape:groupmode="layer"
     id="layer1"
     transform="translate(-99.898193,-67.356537)">
    <g
       id="g2196">
      <rect
         ry="15.431912"
         y="72.356537"
         x="104.89819"
         height="266.99564"
         width="477.10733"
         id="rect4230"
         style="fill:#f6c389;fill-opacity:1;stroke:none;stroke-width:10;stroke-miterlimit:4;stroke-dasharray:none;stroke-opacity:1" />
      <path
         transform="matrix(0.9330144,0,0,1,-105.38453,85.862967)"
         d="M 447.49759 181.61069 A 105.56094 71.720833 0 1 1  236.3757,181.61069 A 105.56094 71.720833 0 1 1  447.49759 181.61069 z"
         sodipodi:ry="71.720833"
         sodipodi:rx="105.56094"
         sodipodi:cy="181.61069"
         sodipodi:cx="341.93665"
         id="path4236"
         style="fill:#fffa37;fill-opacity:1;stroke:none;stroke-width:3.125;stroke-miterlimit:4;stroke-dasharray:none;stroke-opacity:1"
         sodipodi:type="arc" />
      <path
         id="path4228"
         d="M 102.85714,257.36218 L 583.57143,258.07647 L 583.57143,333.07647 L 579.28571,340.93361 L 112.14286,339.50504 L 105.71429,334.50504 L 102.85714,257.36218 z "
         style="fill:#9dc4d4;fill-opacity:1;fill-rule:evenodd;stroke:none;stroke-width:1px;stroke-linecap:butt;stroke-linejoin:miter;stroke-opacity:1" />
      <path
         id="path2170"
         d="M 579.28571,257.36218 L 107.85714,257.36218"
         style="fill:none;fill-rule:evenodd;stroke:#000000;stroke-width:3.125;stroke-linecap:butt;stroke-linejoin:miter;stroke-miterlimit:4;stroke-dasharray:none;stroke-opacity:1" />
      <path
         sodipodi:nodetypes="cccccc"
         id="path4226"
         d="M 437.09657,335.1767 L 437.09657,240.1767 L 577.09657,240.1767 L 577.80725,243.22999 L 579.32248,335.65895 L 437.09657,335.1767 z "
         style="fill:#587a88;fill-opacity:1;fill-rule:evenodd;stroke:none;stroke-width:3.125;stroke-linecap:butt;stroke-linejoin:miter;stroke-miterlimit:4;stroke-dasharray:none;stroke-opacity:1" />
      <rect
         ry="6.0714288"
         y="208.07646"
         x="309.28571"
         height="12.142858"
         width="244.28572"
         id="rect3147"
         style="fill:#ffffff;fill-opacity:1;stroke:#000000;stroke-width:3.125;stroke-miterlimit:4;stroke-dasharray:none;stroke-opacity:1" />
      <g
         transform="translate(4.0406102,18.182746)"
         id="g4232">
        <path
           style="fill:#000000;fill-opacity:1;fill-rule:evenodd;stroke:#000000;stroke-width:3.125;stroke-linecap:butt;stroke-linejoin:miter;stroke-miterlimit:4;stroke-dasharray:none;stroke-opacity:1"
           d="M 292.85714,166.6479 L 306.07143,156.29075 L 251.42857,107.36218 L 190,161.6479 L 201.78571,175.57647 L 205,171.6479 L 206.62727,207.15298 L 221.35678,206.24743 L 220.27792,181.4133 L 241.16044,202.20645 L 252.28571,193.86218 L 222.85714,159.86218 L 251.42857,132.00504 L 292.85714,166.6479 z "
           id="path3149"
           sodipodi:nodetypes="cccccccccccccc" />
        <path
           sodipodi:type="arc"
           style="fill:#000000;fill-opacity:1;stroke:#000000;stroke-width:3.125;stroke-miterlimit:4;stroke-dasharray:none;stroke-opacity:1"
           id="path3151"
           sodipodi:cx="187.67857"
           sodipodi:cy="207.18361"
           sodipodi:rx="21.964285"
           sodipodi:ry="20.892857"
           d="M 209.64286 207.18361 A 21.964285 20.892857 0 1 1  165.71429,207.18361 A 21.964285 20.892857 0 1 1  209.64286 207.18361 z"
           transform="translate(-8.5714286,-26.428571)" />
      </g>
      <path
         sodipodi:nodetypes="css"
         id="path2174"
         d="M 461.45446,240.75507 C 462.0502,218.20571 472.8503,200.21932 486.07142,200.21932 C 499.29299,200.21932 510.09376,218.20405 510.68848,240.75904"
         style="fill:#a3a3a3;fill-opacity:1;stroke:#000000;stroke-width:3.125;stroke-miterlimit:4;stroke-dasharray:none;stroke-opacity:1" />
      <path
         sodipodi:nodetypes="ccc"
         id="path2172"
         d="M 436.42857,335.93361 L 436.42857,240.93361 L 580.42857,240.93361"
         style="fill:none;fill-rule:evenodd;stroke:#000000;stroke-width:3.125;stroke-linecap:butt;stroke-linejoin:miter;stroke-miterlimit:4;stroke-dasharray:none;stroke-opacity:1" />
      <path
         sodipodi:nodetypes="csc"
         id="path4123"
         d="M 126.42857,286.64789 C 126.72162,274.03792 143.62692,276.36167 149.56028,283.05302 C 156.81266,291.23191 170.46163,287.82587 176.78571,280.57647"
         style="fill:none;fill-rule:evenodd;stroke:#000000;stroke-width:3.125;stroke-linecap:butt;stroke-linejoin:miter;stroke-miterlimit:4;stroke-dasharray:none;stroke-opacity:1" />
      <path
         sodipodi:nodetypes="csc"
         id="path4127"
         d="M 287.38618,290.38014 C 290.83259,279.562 304.93168,279.77453 313.23891,284.50336 C 316.50227,286.36101 319.40771,289.19617 323.51094,288.60082"
         style="fill:none;fill-rule:evenodd;stroke:#000000;stroke-width:3.125;stroke-linecap:butt;stroke-linejoin:miter;stroke-miterlimit:4;stroke-dasharray:none;stroke-opacity:1" />
      <path
         sodipodi:nodetypes="cssc"
         id="path4152"
         d="M 207.84699,314.85614 C 213.38687,302.06666 229.80723,308.10985 238.43722,314.74848 C 247.50051,321.72043 263.97306,322.19537 270.83527,311.02781 C 271.32657,310.22828 271.99118,309.54851 272.57432,308.81287"
         style="fill:none;fill-rule:evenodd;stroke:#000000;stroke-width:3.125;stroke-linecap:butt;stroke-linejoin:miter;stroke-miterlimit:4;stroke-dasharray:none;stroke-opacity:1" />
      <path
         sodipodi:nodetypes="csc"
         id="path4154"
         d="M 347.14285,286.29076 C 356.83618,276.23942 372.58754,277.74958 384.35736,281.87276 C 392.99269,284.89787 401.61186,288.33168 410.71429,289.50506"
         style="fill:none;fill-rule:evenodd;stroke:#000000;stroke-width:3.125;stroke-linecap:butt;stroke-linejoin:miter;stroke-miterlimit:4;stroke-dasharray:none;stroke-opacity:1" />
      <path
         id="path4156"
         d="M 139.28571,314.50502 C 147.19971,307.1602 158.2607,312.75847 167.14285,314.50503"
         style="fill:none;fill-rule:evenodd;stroke:#000000;stroke-width:3.125;stroke-linecap:butt;stroke-linejoin:miter;stroke-miterlimit:4;stroke-dasharray:none;stroke-opacity:1" />
      <path
         sodipodi:nodetypes="csc"
         id="path4158"
         d="M 199.28571,283.79076 C 208.72064,274.25552 222.69497,281.49355 232.53545,286.61345 C 238.47999,289.70634 247.08325,290.32177 251.78571,284.50502"
         style="fill:none;fill-rule:evenodd;stroke:#000000;stroke-width:3.125;stroke-linecap:butt;stroke-linejoin:miter;stroke-miterlimit:4;stroke-dasharray:none;stroke-opacity:1" />
      <path
         sodipodi:nodetypes="cssc"
         id="path4160"
         d="M 302.5,319.86218 C 313.27499,309.90606 329.04885,314.92829 342.04583,316.62561 C 353.79325,318.15974 363.36913,305.61853 375.91933,307.23813 C 386.86937,308.65123 397.30742,312.33651 408.21429,313.79076"
         style="fill:none;fill-rule:evenodd;stroke:#000000;stroke-width:3.125;stroke-linecap:butt;stroke-linejoin:miter;stroke-miterlimit:4;stroke-dasharray:none;stroke-opacity:1" />
      <rect
         ry="20.987751"
         y="72.356537"
         x="104.89819"
         height="266.99564"
         width="477.10733"
         id="rect4204"
         style="fill:none;fill-opacity:1;stroke:#000000;stroke-width:10;stroke-miterlimit:4;stroke-dasharray:none;stroke-opacity:1" />
    </g>
  </g>
</svg>
