<svg xmlns="http://www.w3.org/2000/svg" width="16" height="16"><style type="text/css">.icon-canvas-transparent{opacity:0;fill:#F6F6F6;} .icon-vs-out{fill:#F6F6F6;} .icon-vs-bg{fill:#424242;} .icon-vs-fg{fill:#F0EFF1;}</style><path class="icon-canvas-transparent" d="M16 16h-16v-16h16v16z" id="canvas"/><path class="icon-vs-out" d="M14 14h-12v-12h12v12z" id="outline"/><path class="icon-vs-bg" d="M3 3v10h10v-10h-10zm7 6.293l-.707.707 2.001 2h-6.588l2.001-2-.707-.707-2 2v-6.586l2 2 .707-.707-1.999-2h6.584l-1.999 2 .707.707 2-2v6.586l-2-2z" id="iconBg"/><path class="icon-vs-fg" d="M12 4.707v6.586l-2-2-.707.707 2 2h-6.586l2-2-.707-.707-2 2v-6.586l2 2 .707-.707-2-2h6.586l-2 2 .707.707 2-2z" id="iconFg"/></svg>