<?xml version="1.0" encoding="UTF-8" standalone="no"?>
<!-- Created with Inkscape (http://www.inkscape.org/) -->

<svg
   xmlns:dc="http://purl.org/dc/elements/1.1/"
   xmlns:cc="http://creativecommons.org/ns#"
   xmlns:rdf="http://www.w3.org/1999/02/22-rdf-syntax-ns#"
   xmlns:svg="http://www.w3.org/2000/svg"
   xmlns="http://www.w3.org/2000/svg"
   xmlns:sodipodi="http://sodipodi.sourceforge.net/DTD/sodipodi-0.dtd"
   xmlns:inkscape="http://www.inkscape.org/namespaces/inkscape"
   id="svg2"
   sodipodi:version="0.32"
   inkscape:version="0.91 r13725"
   width="569"
   height="649.98315"
   sodipodi:docname="Coat_of_arms_of_Bosnia_and_Herzegovina.svg"
   version="1.0"
   inkscape:output_extension="org.inkscape.output.svg.inkscape">
  <metadata
     id="metadata7">
    <rdf:RDF>
      <cc:Work
         rdf:about="">
        <dc:format>image/svg+xml</dc:format>
        <dc:type
           rdf:resource="http://purl.org/dc/dcmitype/StillImage" />
      </cc:Work>
    </rdf:RDF>
  </metadata>
  <defs
     id="defs5" />
  <sodipodi:namedview
     inkscape:window-height="837"
     inkscape:window-width="1600"
     inkscape:pageshadow="2"
     inkscape:pageopacity="0.0"
     borderopacity="1.0"
     bordercolor="#666666"
     pagecolor="#ffffff"
     id="base"
     inkscape:zoom="1.1815691"
     inkscape:cx="158.3965"
     inkscape:cy="426.55145"
     inkscape:window-x="-8"
     inkscape:window-y="-8"
     inkscape:current-layer="g13683"
     width="569px"
     showgrid="false"
     inkscape:window-maximized="1" />
  <g
     id="g13627"
     transform="matrix(1.092046,0,0,1.085337,57.18136,0.796604)" />
  <g
     transform="matrix(1.092046,0,0,1.085337,1.0379647,-0.5090564)"
     id="g13683">
    <path
       sodipodi:nodetypes="cccscc"
       id="path1314"
       d="M 63.52381,0.51173555 L 520.25763,0.57570249 C 519.22812,84.799118 523.18328,166.95229 517.06273,250.15711 C 513.26266,279.48021 507.45413,305.5324 498.86165,331.79192 C 492.01747,352.70842 487.39808,372.36344 481.52328,383.33936 L 63.52381,0.51173555 z "
       style="fill:#fecb00;fill-opacity:1" />
    <path
       sodipodi:nodetypes="ccsccccc"
       id="path1312"
       d="M 261.05556,598.63646 C 117.07633,526.36459 26.84429,409.45886 5.5254665,244.5 C 3.2368199,226.22086 2.8337109,221.76873 1.2699526,197.5 C 0.88012011,191.45 0.54740387,161.39605 0.53058314,130.71344 L -0.31659523,0.73466463 L 68.306505,0.5 C 206.52786,126.49479 344.52306,254.48927 483.21464,379.96228 C 444.79827,469.03709 349.49794,553.09907 261.05556,598.63646 z "
       style="fill:#002395;fill-opacity:1" />
  </g>
  <path
     style="fill:#ffffff;fill-opacity:1;fill-rule:nonzero;stroke:none;stroke-width:1px;stroke-linecap:butt;stroke-linejoin:miter;stroke-opacity:1"
     d="M 48.744015,172.30518 L 82.940566,67.059037 L 117.1371,172.30518 L 27.609387,107.25948 L 138.27173,107.25949 L 48.744015,172.30518 z "
     id="path11754" />
  <path
     style="fill:#ffffff;fill-opacity:1;fill-rule:nonzero;stroke:none;stroke-width:1px;stroke-linecap:butt;stroke-linejoin:miter;stroke-opacity:1"
     d="M -33.118552,100.86401 L 1.0780002,-4.3821352 L 35.274537,100.86401 L -54.253176,35.818311 L 56.409166,35.818311 L -33.118552,100.86401 z "
     id="path2262" />
  <path
     style="fill:#ffffff;fill-opacity:1;fill-rule:nonzero;stroke:none;stroke-width:1px;stroke-linecap:butt;stroke-linejoin:miter;stroke-opacity:1"
     d="M 126.60658,245.58682 L 160.80313,140.34067 L 194.99967,245.58682 L 105.47195,180.54112 L 216.13429,180.54113 L 126.60658,245.58682 z "
     id="path2264" />
  <path
     style="fill:#ffffff;fill-opacity:1;fill-rule:nonzero;stroke:none;stroke-width:1px;stroke-linecap:butt;stroke-linejoin:miter;stroke-opacity:1"
     d="M 206.16181,316.67873 L 240.35836,211.43258 L 274.5549,316.67873 L 185.02719,251.63303 L 295.68952,251.63304 L 206.16181,316.67873 z "
     id="path2266" />
  <path
     style="fill:#ffffff;fill-opacity:1;fill-rule:nonzero;stroke:none;stroke-width:1px;stroke-linecap:butt;stroke-linejoin:miter;stroke-opacity:1"
     d="M 284.02438,390.30963 L 318.22092,285.06349 L 352.41746,390.30963 L 262.88975,325.26393 L 373.55209,325.26394 L 284.02438,390.30963 z "
     id="path2268" />
  <path
     style="fill:#ffffff;fill-opacity:1;fill-rule:nonzero;stroke:none;stroke-width:1px;stroke-linecap:butt;stroke-linejoin:miter;stroke-opacity:1"
     d="M 363.57961,463.09421 L 397.77617,357.84807 L 431.9727,463.09421 L 342.44498,398.04851 L 453.10733,398.04852 L 363.57961,463.09421 z "
     id="path2270" />
  <path
     transform="translate(1.7158064,1.9064515)"
     style="fill:#ffffff;fill-opacity:1;stroke:none;stroke-width:3.80699992;stroke-miterlimit:4;stroke-opacity:1"
     d="M 449.30505,523.55233 L 456.97561,498.48369 L 422.77586,473.47723 L 465.14258,473.38952 L 478.35683,433.1362 L 491.34163,472.63966 C 478.47331,489.99184 464.07983,507.34402 449.30505,523.55233 z "
     id="path3350"
     sodipodi:nodetypes="ccccccc" />
</svg>
