<svg xmlns="http://www.w3.org/2000/svg" width="610" height="610"><circle cx="305" cy="305" r="300" fill="#0f47af"/><path d="m 71.74555,224.90301 h 174.37068 l 39.42383,-121.33932 10.51595,32.36105 -57.29575,176.33121 -17.01192,-12.36127 17.86792,-54.99176 H 99.273026 L 71.74555,224.90301 m 87.18441,268.32547 53.88242,-165.83393 -103.21607,-74.99166 h 34.02571 l 149.998,108.97818 -17.01592,12.35994 -46.7758,-33.98385 -43.37047,133.47141 -27.52787,19.99991 m 282.1374,0 -141.06737,-102.49154 -103.21954,74.99166 10.51462,-32.35986 149.99666,-108.97817 6.49998,19.99857 -46.7798,33.98785 113.5395,82.49163 10.51595,32.35986 M 528.25097,224.90301 387.1836,327.39455 426.60742,448.73668 399.07955,428.73677 341.7878,252.40289 h 21.02791 l 17.86792,54.99175 113.53949,-82.49163 h 34.02785 M 299.99999,59.068152 353.87975,224.90301 H 481.46318 L 453.9393,244.90292 H 268.53213 l 6.49597,-19.99991 h 57.82374 L 289.48404,91.428274 Z" fill="#fcdd09" transform="translate(5.0013418,5.46573)"/><path d="M 299.99999,410.00085 V 540.00027 M 195.38313,333.99052 71.745816,374.16501 M 235.34428,211.0084 158.93129,105.83608 M 364.6557,211.0084 441.06736,105.83608 m -36.45184,228.15444 123.63545,40.17449 z" fill="none" stroke="#fcdd09" stroke-width="10" transform="translate(5.0013418,5.46573)"/></svg>