<svg xmlns="http://www.w3.org/2000/svg" width="16" height="16"><style type="text/css">.icon-canvas-transparent{opacity:0;fill:#F6F6F6;} .icon-vs-out{fill:#F6F6F6;} .icon-vs-bg{fill:#424242;} .icon-vs-fg{fill:#F0EFF1;}</style><path class="icon-canvas-transparent" d="M16 16h-16v-16h16v16z" id="canvas"/><path class="icon-vs-out" d="M16 10h-3v4h-5.057c-.21 1.043-1.048 2-2.443 2h-2c-1.396 0-2.233-.957-2.443-2h-.057v-1h-1v-3h1v-6h3v-4h12v10z" id="outline"/><path class="icon-vs-bg" d="M15 9h-2v-1h1v-5h-8v1h-1v-3h10v8zm-13-4v2.469c.277-.204.613-.349 1-.419l.5-.05h7.5v5h-2v1h3v-8h-10zm6 6v1h-.5c-.225.006-.5.098-.5.5v.984c0 .62-.399 1.516-1.5 1.516h-.5v-1h.5c.402 0 .494-.275.5-.506v-.994c0-.439.144-.768.354-1.003-.25-.304-.354-.688-.354-.997v-1c-.006-.225-.098-.5-.5-.5h-.5v-1h.5c1.101 0 1.5.896 1.5 1.5v1c.006.225.098.5.5.5h.5zm-7 0v1h.5c.226.006.5.098.5.5v.984c0 .62.399 1.516 1.5 1.516h.5v-1h-.5c-.403 0-.494-.275-.5-.506v-.994c0-.439-.144-.768-.354-1.003.25-.304.354-.688.354-.997v-1c.006-.225.097-.5.5-.5h.5v-1h-.5c-1.101 0-1.5.896-1.5 1.5v1c-.006.225-.097.5-.5.5h-.5z" id="iconBg"/><path class="icon-vs-fg" d="M13 4h-7v-1h8v5h-1v-4zm-5 5.5v.5h1v2h2v-5h-5.5c1.624 0 2.5 1.288 2.5 2.5z" id="iconFg"/></svg>