<svg xmlns="http://www.w3.org/2000/svg" width="16" height="16"><style type="text/css">.icon-canvas-transparent{opacity:0;fill:#F6F6F6;} .icon-white{fill:#FFFFFF;} .icon-vs-action-blue{fill:#00539C;} .icon-vso-bg{fill:#656565;}</style><path class="icon-canvas-transparent" d="M16 16h-16v-16h16v16z" id="canvas"/><path class="icon-white" d="M16 0v15h-15v-1.513c-.604-.457-1-1.173-1-1.987v-8c0-.815.394-1.539 1-1.996v-1.504h15z" id="outline"/><path class="icon-vso-bg" d="M3 6h12v3h-12v-3zm2 8h10v-3h-10v3zm2-13l1.5 1.5-1.5 1.5h8v-3h-8z" id="iconBg"/><g id="colorAction"><path class="icon-vs-action-blue" d="M2.5 12h1.5v1h-1.5c-.827 0-1.5-.673-1.5-1.5v-8c0-.827.673-1.5 1.5-1.5h1.5l-1-1h1.5l1.5 1.5-1.5 1.5h-1.5l1-1h-1.5c-.275 0-.5.225-.5.5v8c0 .275.225.5.5.5z"/></g></svg>