<svg xmlns="http://www.w3.org/2000/svg" viewBox="0 0 16 16"><style>.icon-canvas-transparent{opacity:0;fill:#f6f6f6}.icon-vs-out{fill:#f6f6f6}.icon-vs-bg{fill:#424242}.icon-vs-action-red{fill:#a1260d}</style><path class="icon-canvas-transparent" d="M16 16H0V0h16v16z" id="canvas"/><path class="icon-vs-out" d="M14 1.414L9.414 6H14v1.414L5.414 16H3v-1.235L5.371 10H2V8.764l.289-.579-.289.29-2-2v-.95L1.495 4.03 0 2.535v-.949L1.586 0h.828L3.97 1.556 5.525 0H14v1.414z" id="outline"/><path class="icon-vs-bg" d="M6.444 4.03l1.97-1.97L7.354 1H13L8.207 5.793 6.444 4.03zm-.505 4.445L4.155 6.69 3 9h3.985L4 15h1l8-8H7.414L5.939 8.475z" id="iconBg"/><g id="colorAction"><path class="icon-vs-action-red" d="M5.03 4.03L7 6 5.939 7.061l-1.97-1.97L2 7.061.939 6l1.97-1.97-1.97-1.97L2 1l1.97 1.97L5.939 1 7 2.06 5.03 4.03z"/></g></svg>