<svg xmlns="http://www.w3.org/2000/svg" viewBox="0 0 16 16"><style>.st0{opacity:0}.st0,.st1{fill:#f6f6f6}.st2{fill:#424242}</style><g id="outline"><path class="st0" d="M0 0h16v16H0z"/><path class="st1" d="M15.939 6.989a3.826 3.826 0 0 0-.42-1.124 2.6 2.6 0 0 0-.845-.896 2.345 2.345 0 0 0-1.305-.368c-.136.001-.369.011-.369.031V2h-3v4H6v1.897a3.81 3.81 0 0 0-.146-1.089 2.58 2.58 0 0 0-.513-.96 2.323 2.323 0 0 0-.92-.649A3.046 3.046 0 0 0 3.287 5c-.204 0-.403.019-.634.058a4.995 4.995 0 0 0-.552.135c-.178.054-.305.112-.469.182-.188.084-.254.164-.358.236L1 5.91v2.22c0 .198-.39.413-.457.637-.087.272-.282.57-.282.883 0 .318.05.626.149.913.107.306.27.58.484.809.218.235.49.421.792.541.296.123.62.191.989.191.28.002.545-.104.788-.104H6v-2h4v2h2.384c.013 0 .024-.026.037-.023.221.076.456.079.72.079.496 0 .948-.121 1.339-.357.372-.223.685-.534.927-.918.224-.348.393-.758.503-1.224.099-.431.15-.89.15-1.366 0-.406-.039-.809-.121-1.202z"/></g><g id="icon_x5F_bg"><path class="st2" d="M7 7h2v2H7zM4.58 6.5a1.337 1.337 0 0 0-.535-.372A2.067 2.067 0 0 0 3.278 6c-.15 0-.304.015-.465.042a3.81 3.81 0 0 0-.848.246 1.624 1.624 0 0 0-.268.142v.969c.199-.165.43-.295.686-.394.258-.099.522-.148.792-.148.269 0 .477.079.624.234.146.158.218.409.218.757l-1.3.194c-.257.035-.478.1-.663.193a1.377 1.377 0 0 0-.709.831 1.93 1.93 0 0 0-.084.583c0 .213.032.405.094.583.062.178.153.328.273.457.117.126.264.224.444.295.175.073.376.106.604.106a1.4 1.4 0 0 0 .761-.203 1.64 1.64 0 0 0 .555-.582h.017v.666H5V7.897c0-.301-.036-.569-.105-.804A1.597 1.597 0 0 0 4.58 6.5zm-.563 2.548c0 .165-.026.317-.074.46a1.133 1.133 0 0 1-.209.374.947.947 0 0 1-.748.342.886.886 0 0 1-.305-.052.662.662 0 0 1-.381-.359.754.754 0 0 1-.051-.278c0-.107.013-.207.034-.293a.538.538 0 0 1 .123-.226.705.705 0 0 1 .246-.167 1.81 1.81 0 0 1 .405-.1l.959-.138v.437zM11.961 6.561h-.017V2.969H11v7.963h.943v-.656h.017c.059.112.127.215.203.309.077.097.161.18.26.251a1.207 1.207 0 0 0 .716.222c.313 0 .587-.071.824-.215.239-.144.439-.345.6-.601a2.91 2.91 0 0 0 .369-.908c.081-.352.124-.729.124-1.141 0-.349-.035-.679-.101-.994a2.803 2.803 0 0 0-.308-.827 1.627 1.627 0 0 0-.533-.562 1.401 1.401 0 0 0-.775-.208c-.167 0-.316.023-.455.07a1.385 1.385 0 0 0-.377.198 1.663 1.663 0 0 0-.305.3c-.086.119-.17.248-.241.391zm.631.112a.902.902 0 0 1 .447-.112c.166 0 .313.037.442.112.13.074.238.182.33.322.09.143.157.312.204.509.046.199.069.421.069.669 0 .317-.026.596-.08.84a1.912 1.912 0 0 1-.227.602 1.01 1.01 0 0 1-.357.358.914.914 0 0 1-.473.126.822.822 0 0 1-.406-.103 1.015 1.015 0 0 1-.322-.28 1.335 1.335 0 0 1-.208-.413 1.716 1.716 0 0 1-.076-.516v-.685c0-.229.027-.441.081-.628a1.55 1.55 0 0 1 .229-.486c.098-.136.21-.241.347-.315z"/></g></svg>