<svg xmlns="http://www.w3.org/2000/svg" viewBox="0 0 16 16" enable-background="new 0 0 16 16"><style type="text/css">.icon-canvas-transparent{opacity:0;fill:#F6F6F6;} .icon-vs-out{fill:#F6F6F6;} .icon-vs-bg{fill:#424242;}</style><path class="icon-canvas-transparent" d="M16 16h-16v-16h16v16z" id="canvas"/><path class="icon-vs-out" d="M16 3h-7v.445l-.1-.21c-.193-.33-.451-.597-.759-.793-.331-.213-1.141-.325-1.141-.333v-2.109h-3v2.438l-.233-.125c-.307-.125-.651-.188-1.013-.188-.184 0-.392.016-.619.055-.192.037-.375.075-.506.115-.149.045-.337.096-.493.162-.173.077-.39.151-.533.25l-.603.299v3.17c0 .297.045.56.136.821.1.291.255.525.454.736.207.224.462.351.75.467l.205.039c-.238.147-.461.316-.651.532-.265.302-.466.659-.6 1.061-.125.374-.188.781-.188 1.21 0 .402.062.784.185 1.137.132.377.323.709.562.978.253.293.568.526.943.699.359.161.759.243 1.188.243.333 0 .595-.042.876-.13.261-.081.459-.191.678-.333l.462-.411v-1.811l3.586 3.586h4.828l-2-2h4.586v-10zm-11 7.586v-2.063l-.556-.404-.228-.119h1.96c.196 0 .409.266.634.266.187 0 .366-.007.538-.029l-2.348 2.349z" id="outline"/><g id="iconBg"><path class="icon-vs-bg" d="M15 4v8h-6l2 2h-2l-3-3 3-3h2l-2 2h4v-4h-3v-2h5zm-10.856.088c.059.197.089.426.089.681v2.593h-1.007v-.345c-.093.105-.195.193-.308.262-.191.119-.416.179-.67.179-.2 0-.373-.03-.528-.093-.158-.063-.291-.152-.396-.266-.108-.114-.189-.249-.242-.404-.055-.158-.082-.322-.082-.507 0-.178.024-.348.071-.501.05-.16.127-.303.229-.425.103-.125.233-.227.397-.311.16-.081.352-.137.57-.166l.963-.145c-.01-.208-.06-.361-.147-.455-.101-.106-.242-.158-.431-.158-.206 0-.409.039-.604.113-.201.078-.378.179-.527.303l-.168.139v-1.056l.044-.031.234-.125.33-.117.381-.09c.432-.074.781-.036 1.055.076.191.076.351.188.474.329.121.145.213.319.273.52zm-1.572 1.473c-.12.016-.222.04-.304.073l-.162.109-.077.141-.025.212.035.187.094.139.155.093c.153.058.362.046.513-.027.088-.044.162-.103.229-.179.063-.074.114-.164.149-.268.036-.109.054-.221.054-.34v-.237l-.661.097zm5.79-.391c0 .317-.031.606-.096.886-.066.275-.163.519-.292.718-.131.208-.295.371-.487.486-.194.117-.421.178-.676.178-.122 0-.232-.016-.33-.047-.106-.037-.194-.083-.273-.14l-.2-.189v.281h-.918v-6.224h.918v2.479l.014-.018c.077-.1.16-.181.251-.249.096-.071.198-.125.312-.164.115-.039.242-.058.377-.058.248 0 .463.059.642.173.175.112.322.266.436.459.109.187.192.408.245.656.051.248.077.506.077.773zm-.988-.497c-.034-.14-.08-.255-.143-.354-.059-.091-.131-.162-.213-.209-.082-.047-.178-.07-.284-.07-.108 0-.201.022-.289.071-.087.047-.162.115-.228.208-.069.094-.12.203-.157.336-.039.132-.059.283-.059.447v.517c0 .127.019.247.053.358.036.111.084.207.142.283.062.079.133.141.211.183.175.097.395.084.565-.014.09-.05.168-.129.233-.237.069-.109.123-.252.16-.424.039-.174.059-.381.059-.613-.001-.176-.019-.339-.05-.482zm-4.965 5.346c.088-.103.194-.183.316-.239.218-.1.547-.105.766-.018.104.042.204.1.32.184l.329.26v-1.142l-.096-.062c-.107-.057-.235-.106-.38-.147-.162-.045-.338-.068-.525-.068-.308 0-.593.057-.846.168-.25.11-.467.27-.647.475-.176.201-.312.443-.403.717-.09.272-.137.57-.137.895 0 .289.043.561.129.808.087.249.212.471.374.652.161.185.361.333.597.441.232.104.493.155.778.155.233 0 .434-.028.613-.084.168-.053.319-.121.466-.217l.078-.061v-.889l-.2.095-.076.026-.128.049-.227.09-.218.059c-.203.043-.419.025-.599-.057-.122-.053-.225-.129-.306-.225-.09-.106-.16-.234-.205-.376-.05-.155-.076-.333-.076-.529 0-.21.028-.399.083-.56.054-.158.129-.294.22-.4z"/></g></svg>