<?xml version="1.0" encoding="utf-8"?>
<!-- Generator: Adobe Illustrator 14.0.0, SVG Export Plug-In . SVG Version: 6.00 Build 43363)  -->
<!DOCTYPE svg PUBLIC "-//W3C//DTD SVG 1.1//EN" "http://www.w3.org/Graphics/SVG/1.1/DTD/svg11.dtd">
<svg version="1.1" xmlns="http://www.w3.org/2000/svg" xmlns:xlink="http://www.w3.org/1999/xlink" x="0px" y="0px" width="432px"
	 height="357px" viewBox="0 0 432 357" enable-background="new 0 0 432 357" xml:space="preserve">
<g id="Ref" display="none">
	
		<image display="inline" overflow="visible" width="400" height="354" xlink:href="Spring_Bee_Ref.jpg"  transform="matrix(1.3039 0 0 1.3039 -77.1387 -52.835)">
	</image>
</g>
<g id="Art">
	<g id="Outline">
		<g id="Black">
			<path d="M64.241,37.691c0,0-28.448,41.38-18.965,143.104C49,186.5,70.5,208.5,116,206c-3,9-13.5,69.5,59.5,86
				c5.5,6,9.5-5.5,12.5,53c3.5-13.5,5.5-25.5,5.5-25.5S206,301,212,296c8-2.5,28-11,47.5-5.5c8-2.5,33-16,36-33.5s2.5-30.5,2.5-30.5
				l-16-23c0,0,26,10,51.5,3s34-10.5,37-19S383.5,106,363,75c-8.5,0.5-72,4-120.5,63c-5.5-0.5-18-3-29-8c-1-2.5-2.5-5-2.5-5
				s-5.5-4-10-9c-3.5-1-14.5,8-31.5,10.5c-5.5-10.5-22-57.5-88-89C75,35.5,70.482,34.883,64.241,37.691z"/>
		</g>
	</g>
	<g id="Wings">
		<g id="Left_x5F_Wing">
			<linearGradient id="SVGID_1_" gradientUnits="userSpaceOnUse" x1="255" y1="142.6943" x2="370.5186" y2="142.6943">
				<stop  offset="0.092" style="stop-color:#AFE0ED"/>
				<stop  offset="1" style="stop-color:#E6D0E5"/>
			</linearGradient>
			<path fill="url(#SVGID_1_)" d="M255,139.667c0,0,14.666-44,101.333-58.667c5.334,12,9.334,27.333,12.667,39.333
				c1.333,13.333,4,30-4,62c-6,6-16.001,14.666-20.667,16s-34.666,13.334-58.666-0.666c2.666-2,3.999-2.666,4.666-6
				c0-7.334-0.666-15.334-3.333-26c-1.333-6.667-1.333-14-1.333-14L282.333,143C282.333,143,271,146.333,255,139.667z"/>
		</g>
		<g id="Right_x5F_Wing">
			<linearGradient id="SVGID_2_" gradientUnits="userSpaceOnUse" x1="48.2266" y1="124.0498" x2="165" y2="124.0498">
				<stop  offset="0" style="stop-color:#E6D0E5"/>
				<stop  offset="0.9448" style="stop-color:#AFE0ED"/>
			</linearGradient>
			<path fill="url(#SVGID_2_)" d="M165,127.667c0,0-9.333,4-18,8.667c-3.333,0.667-6.667,0-6.667,0l-2,4.667v2.667
				c0,0-5.334,4.667-8.667,10.667c-1.333,8-0.667,27.333,5.333,33.333c-3.333,6-9.333,9.333-9.333,9.333s-38,6.666-70.667-19.333
				c-4-12-10-37.333-4.667-66S62.333,51,75,50.333C87.667,52.333,115.667,53.666,165,127.667z"/>
		</g>
		<g id="Action_x5F_Lines">
			<path d="M28.333,41.667c0,0,17.333-28,54.667-34.667C73,6.333,60.333,9,60.333,9s-16.667,6.667-22,14.667
				S28.333,41.667,28.333,41.667z"/>
			<path d="M25,15.667c0,0-15.333,12.667-12,26.667C9.667,41,10.333,41,9.667,34.333c2.667-4.667,4-6,4-10
				C17.667,17.667,20.333,17.667,25,15.667z"/>
			<path d="M387.667,41.667c0,0,6.666-10,15.333,21.333c0.667-8.667-2.667-24-6.667-25.333S389.667,39.667,387.667,41.667z"/>
			<path d="M404.333,27.667c0,0,13.333,8,16,18c-0.666,10.667-2,17.333-2,17.333s5.334-4,5.334-19.333
				C416.333,33,413.666,30.333,404.333,27.667z"/>
		</g>
	</g>
	<g id="Eyes">
		<g id="Left_x5F_Eye">
			<path fill="#FFFFFF" d="M217,138.333c0,0,13.333,5.333,21.333,6.667s10.666,0,26,5.333C272.333,149.667,275,147,275,147
				s4.666,2,5.333,8.667s7.333,33.333,0,40.667c-4,2.667-6,4.667-8,6.667c-6,2-12-1.333-18-4c-6.666,0.667-20,5.334-25.333-1.333
				c-4-9.334-6.667-16.667-12-23.333c5.333-6.667,4-10,4-10S222.333,154.333,217,138.333z"/>
		</g>
		<g id="Right_x5F_Eye">
			<path fill="#FFFFFF" d="M206.333,129c0,0,12,18.667,9.333,34c-5.334,13.333-10.667,24-21.333,28
				c-11.333,4.667-14,10.667-23.333,8.667s-26-6.001-32.667-20.667c0-10-3.333-17.333,0.667-28.667c6-6.667,15.333-10.667,23.333-14
				s22-8,26-12C195.667,122.333,200.334,122.333,206.333,129z"/>
		</g>
		<g id="Pupils">
			<path d="M239,163.667c0,0-5.334,1.334-6.667,8.667c2,4.667,4.667,5.333,4.667,5.333l-4,2c0,0,1.333-0.666,3.333,2
				c6,1.333,14-1.333,16-3.333c0-5.333-0.666-9.333-2.666-11.333S240.333,166.333,239,163.667z"/>
			<path d="M164.333,149.667c0,0,4.667,3.333,8,2c2,2.667,2,3.334,4,8.667c-1.333,6.667-2,8-8.667,8c-4.667-2-6-3.333-8-3.333
				c-1.333-4.667,0-8.667,0-8.667S162.333,157,164.333,149.667z"/>
		</g>
	</g>
	<g id="Body">
		<g id="Spaces">
			<linearGradient id="SVGID_3_" gradientUnits="userSpaceOnUse" x1="175" y1="196.8672" x2="228.333" y2="196.8672">
				<stop  offset="0" style="stop-color:#FFF1E8"/>
				<stop  offset="0.1963" style="stop-color:#FFE474"/>
				<stop  offset="0.6626" style="stop-color:#FED500"/>
			</linearGradient>
			<path fill="url(#SVGID_3_)" d="M211,185.667c0,0,5.333,2.666,10,13.333c2.667,2.667,7.333,4,7.333,4s-7.999,8.666-53.333,3.333
				c10.667-2,12.667-3.332,20.667-8.666S208.333,189.667,211,185.667z"/>
			<linearGradient id="SVGID_4_" gradientUnits="userSpaceOnUse" x1="125.6665" y1="217.5781" x2="282.333" y2="217.5781">
				<stop  offset="0" style="stop-color:#FFF1E8"/>
				<stop  offset="0.1963" style="stop-color:#FFE474"/>
				<stop  offset="0.6626" style="stop-color:#FED500"/>
			</linearGradient>
			<path fill="url(#SVGID_4_)" d="M278.333,205c0,0,0.666,4.001,4,8.667c-8.666,3.333-33.332,13.332-42.666,14.666
				s-46,3.333-67.333,0s-42-8-46.667-12c0.667-4.666,1.333-9.332,5.333-10.666s28,9.332,56.667,10.666S244.333,217,278.333,205z"/>
			<linearGradient id="SVGID_5_" gradientUnits="userSpaceOnUse" x1="125.6665" y1="246.5039" x2="294" y2="246.5039">
				<stop  offset="0" style="stop-color:#FFF1E8"/>
				<stop  offset="0.1963" style="stop-color:#FFE474"/>
				<stop  offset="0.6626" style="stop-color:#FED500"/>
			</linearGradient>
			<path fill="url(#SVGID_5_)" d="M287.667,232.333l6,6.667c0,0,1.332,5.333-1.334,10c-8.666,4-32,4.667-44,10.667
				c-13.333,1.333-92,2.666-114-5.334C129,245.667,125.667,243,125.667,233C137,238.333,221.001,259.666,287.667,232.333z"/>
			<linearGradient id="SVGID_6_" gradientUnits="userSpaceOnUse" x1="145.6548" y1="278.0234" x2="281" y2="278.0234">
				<stop  offset="0" style="stop-color:#FFF1E8"/>
				<stop  offset="0.1963" style="stop-color:#FFE474"/>
				<stop  offset="0.6626" style="stop-color:#FED500"/>
			</linearGradient>
			<path fill="url(#SVGID_6_)" d="M281,265.667c0,0-19.333,25.999-37.333,16.666c-12,2-25.333,8.666-32,8s-24-1.999-29.333-0.666
				C175,287,169,281,161,279s-14.667-5.333-15.333-8s26.667,2.667,45.333,4.667s24.667-1.333,40-2S260.333,272.334,281,265.667z"/>
		</g>
	</g>
</g>
</svg>
